<?xml version="1.0" encoding="UTF-8" standalone="no"?>
<svg
   xmlns:dc="http://purl.org/dc/elements/1.1/"
   xmlns:cc="http://creativecommons.org/ns#"
   xmlns:rdf="http://www.w3.org/1999/02/22-rdf-syntax-ns#"
   xmlns:svg="http://www.w3.org/2000/svg"
   xmlns="http://www.w3.org/2000/svg"
   viewBox="0 0 612 792"
   id="svg2"
   height="792"
   width="612"
   version="1.1">
  <metadata
     id="metadata194">
    <rdf:RDF>
      <cc:Work
         rdf:about="">
        <dc:format>image/svg+xml</dc:format>
        <dc:type
           rdf:resource="http://purl.org/dc/dcmitype/StillImage" />
      </cc:Work>
    </rdf:RDF>
  </metadata>
  <defs
     id="defs192" />
  <g
     id="g4">
    <path
       id="path6"
       style="fill:#1b1918;fill-rule:evenodd"
       d="m 139.0637,648 c -1.0955,-0.5156 -2.1911,-1.0311 -3.1577,-1.4822 9.4087,0 22.3619,-5.9288 33.3818,-8.2488 13.4043,-1.5467 32.8018,-3.0289 46.8506,-0.9667 -23.1353,8.2488 -53.1661,7.6688 -77.0747,10.6977 z" />
    <path
       id="path8"
       style="fill:#1b1918;fill-rule:evenodd"
       d="m 107.6152,646.7756 c -7.7977,-1.0956 -16.3687,-2.7711 -22.5553,-5.8 19.9775,-3.0288 45.6261,-3.9955 66.957,-5.3488 -7.991,5.671 -32.9307,11.1488 -44.4017,11.1488 z" />
    <path
       id="path10"
       style="fill:#1b1918;fill-rule:evenodd"
       d="m 482.5486,644.3267 c -6.0577,-0.4511 -7.4755,-1.9333 -11.2132,-4.2533 1.5466,-0.1933 12.9531,1.4822 18.4953,2.8355 -0.9666,1.6756 -5.9288,1.4178 -7.2821,1.4178 z" />
    <path
       id="path12"
       style="fill:#1b1918;fill-rule:evenodd"
       d="m 364.0366,642.2645 c -6.1866,-0.58 -11.7932,-1.9333 -16.4976,-3.3511 7.9911,-3.9955 39.1818,-3.6733 50.8461,-4.2533 19.2042,1.3534 38.2151,3.8667 58.386,5.4133 -1.2889,0.5156 -2.6422,0.9667 -3.9311,1.4822 -22.2975,0.3867 -56.5171,0 -88.8034,0.7089 z" />
    <path
       id="path14"
       style="fill:#1b1918;fill-rule:evenodd"
       d="m 248.7469,641.5556 c -2.2556,-0.5155 -4.5755,-0.9666 -6.8955,-1.4822 6.4444,0 12.8243,0 19.3975,0 -4.7043,1.2244 -8.5065,1.4822 -12.502,1.4822 z" />
    <path
       id="path16"
       style="fill:#1b1918;fill-rule:evenodd"
       d="m 485.8352,631.8891 c -57.0971,-5.9289 -114.3231,0.58 -170.1958,-4.1244 -78.2346,-0.3867 -155.3093,3.8666 -232.6417,2.8999 -1.5467,-0.3866 -3.0933,-0.7088 -4.7044,-0.9666 -0.3222,-2.0622 -0.3222,-2.0622 -0.3222,-9.6666 9.2799,-127.5341 5.1555,-254.1015 9.2799,-380.6689 0,-27.453 -2.3844,-54.1972 -4.4466,-80.2324 8.4421,-4.1889 35.0573,0.5155 47.0439,-0.1934 124.2474,6.96 251.4592,4.5755 376.5444,2.3844 5.22,-0.3866 13.5332,-3.6088 16.691,2.6422 -4.8333,42.5973 -0.3223,86.8702 -4.4467,130.1763 -0.9666,87.9657 4.3178,176.318 4.8333,265.3792 0.9667,23.2642 1.9333,45.6261 6.0577,69.3414 -0.2578,0.3867 -0.5155,0.7089 -0.7089,1.2244 -13.9198,1.6756 -29.4507,1.8045 -42.9839,1.8045 z" />
    <path
       id="path18"
       style="fill:#f6e9c6;fill-rule:evenodd"
       d="m 91.8909,624.9936 c -0.6444,-0.1289 -1.0955,-0.1289 -1.6111,-0.1289 -2.6422,-23.9731 3.8667,-51.0394 4.5755,-74.6258 -0.3222,-38.7307 -0.3222,-38.7307 0,-55.6794 12.631,-22.3619 27.5175,-41.8239 37.8929,-65.3459 3.9955,-16.1754 7.991,-32.9952 9.9244,-49.1705 3.4155,0 11.7287,16.4331 22.233,17.3998 -4.0599,6.8954 -8.1843,13.8554 -12.3087,20.8797 -24.4242,65.8615 -57.4838,132.7541 -46.8506,205.7043 -4.7044,0.2578 -9.2799,0.58 -13.8554,0.9667 z" />
    <path
       id="path20"
       style="fill:#b9c170;fill-rule:evenodd"
       d="m 114.5107,624.1558 c -7.7977,-5.091 -1.8689,-47.3017 -0.6445,-54.1971 3.5444,-5.9289 33.5107,-27.0019 38.4729,-25.7775 -7.8621,7.7332 -27.9041,25.6486 -19.3331,37.1196 28.033,-7.7333 50.6527,-15.1443 74.3036,-34.6063 0.4511,-0.1289 0.9666,-0.2578 1.5466,-0.3222 0.1289,0.0644 0.3867,0.3222 0.58,0.58 -14.8865,14.6287 -32.2863,28.6774 -43.1773,46.4639 -3.2866,3.1577 -3.2866,3.1577 -7.0243,5.5421 10.0532,16.8198 73.9169,-40.0195 76.2369,-39.5684 -6.1866,8.1199 -11.7288,15.5309 -15.9821,25.0686 -1.2244,3.7377 -4.8332,18.2376 -9.4087,19.7198 0.1288,0.1289 0.1933,0.3866 0.3222,0.58 19.7197,1.2244 46.1417,-36.6685 53.746,-34.7996 -2.32,3.0933 -19.2687,35.1862 -19.0109,35.8951 11.8577,-1.0955 19.462,-5.7999 30.2241,-11.471 4.8977,-3.2866 4.8977,-3.2866 5.7355,-3.2866 1.5466,2.6422 -3.8022,9.7954 -6.0577,11.1488 8.1843,3.1577 19.0109,-4.9622 26.9375,-7.2822 -0.4512,4.5111 -0.58,15.4021 -6.38,17.6576 9.2155,0 17.5932,-6.6377 26.5508,-6.6377 1.5467,2.0622 3.6089,3.6088 11.2777,13.5332 -0.1289,0.1289 -0.2578,0.3866 -0.3867,0.6444 -65.0237,0 -128.7585,-0.7733 -192.8155,3.6089 -8.571,0.1288 -17.142,0.2577 -25.713,0.3866 z" />
    <path
       id="path22"
       style="fill:#1b1918;fill-rule:evenodd"
       d="m 539.0657,623.6403 c 0,-10.3755 -3.7377,-21.5242 -6.3155,-30.2241 -2.2555,-14.0488 -2.1266,-27.3242 -3.8666,-40.7929 5.091,3.8666 18.4309,71.017 10.1821,71.017 z" />
    <path
       id="path24"
       style="fill:#b9c170;fill-rule:evenodd"
       d="m 516.0593,622.9314 c -16.8198,-3.1578 -28.033,-2.7711 -44.1439,-1.3533 0,-18.3665 -2.6422,-36.1529 -3.0289,-53.2305 5.0911,-0.9667 10.4399,-8.1844 16.9487,-10.0532 -5.4133,12.9531 -9.3443,21.653 -10.311,36.3462 -0.1933,0.1933 -0.4511,0.4511 -0.58,0.7089 10.7621,2.0622 30.353,-24.682 35.444,-33.253 0.3867,-0.1289 0.7089,-0.1289 1.2245,-0.1289 0.58,12.8243 0.58,12.8243 0.2577,15.2088 -5.7354,5.7354 -12.6954,18.7531 -12.6954,27.1308 6.6377,-1.6111 9.6666,-4.1244 15.3376,-6.5733 0.2578,7.8621 1.8045,16.1109 3.4156,25.0686 -0.6445,0 -1.2245,0 -1.8689,0.1289 z" />
    <path
       id="path26"
       style="fill:#fcbb42;fill-rule:evenodd"
       d="m 461.2822,622.2225 c -16.9487,-3.4155 -35.0574,-1.9333 -51.2972,-2.1911 -0.9667,-3.2866 -0.9667,-3.2866 -1.4822,-8.1199 23.1353,-10.5043 38.9884,-27.453 46.4639,-51.6838 0,-3.6089 0,-3.6089 -0.58,-4.8333 -18.1731,25.7775 -30.6108,41.7595 -60.8349,52.0705 -1.0955,-11.6643 -0.5155,-28.4841 -6.8954,-37.0551 -0.7734,17.0776 -3.0289,32.544 2.0622,50.0727 -37.1841,0 -37.1841,0 -46.4639,-0.3222 -4.7689,-5.9288 -7.4111,-12.1154 -11.8577,-17.5287 -13.662,-12.7598 -8.9577,-27.0019 -18.0442,-39.9551 -0.9667,8.4422 1.5466,20.5576 3.0288,30.2241 1.6756,4.5111 3.2867,7.2822 3.2867,8.1199 -3.9311,1.4822 -7.7977,2.9 -11.471,4.5111 1.4178,-15.7243 1.4178,-15.7243 1.16,-17.7865 -6.2511,0 -15.531,6.9599 -21.7175,8.4422 1.0955,-4.5756 6.3154,-16.2399 5.671,-19.0109 -11.9865,4.6399 -23.3286,16.4975 -35.0574,21.073 7.7333,-16.562 14.8865,-28.1618 26.7442,-42.3395 1.0955,-1.2244 13.082,-12.8243 10.7621,-14.1776 -17.3354,14.6287 -37.184,26.4864 -55.035,40.2773 -3.2866,2.8356 -12.6954,12.631 -16.3686,13.3399 9.4732,-22.2975 23.5863,-37.5063 36.0884,-56.3883 0,-0.8377 0,-0.8377 -0.6444,-1.2244 -23.0709,14.3065 -44.7239,28.2264 -65.6681,44.9173 -5.22,3.351 -16.691,11.8576 -22.1687,13.1465 0.3867,-0.9667 0.8378,-1.9333 1.3533,-2.9 20.9442,-20.1709 40.5351,-42.9195 62.0593,-62.3815 -0.1289,-0.3866 -0.1289,-0.6444 -0.1289,-0.8378 -7.6043,2.9645 -7.6043,2.9645 -18.4953,6.1222 -27.9686,13.9198 -49.1061,31.2552 -79.4591,39.8262 0,-15.8531 47.8817,-47.1728 59.3527,-57.226 0,-0.8378 0,-0.8378 -0.58,-1.2244 -17.3354,7.0243 -34.6063,13.662 -50.3305,22.2975 -22.6198,14.4998 -27.002,17.7865 -28.1619,17.9798 1.0311,-22.4909 13.8554,-47.0439 18.2375,-68.9548 2.9,-2.8999 4.7044,-14.3709 5.22,-17.2709 12.9531,-35.5729 12.9531,-35.5729 15.7242,-42.0173 3.3511,-1.8044 20.5576,-3.2222 23.7153,-1.6755 -4.6399,5.9288 -29.773,34.3485 -27.9686,41.6306 6.4444,-4.9622 13.211,-18.882 19.5909,-26.293 16.9487,-13.0176 12.8243,-16.4332 31.3197,-11.8577 0.1288,0.5156 0.2577,1.0311 0.5155,1.4822 -6.8955,11.7288 -7.7332,21.6531 -12.8243,34.6063 -7.7332,10.0532 -17.3998,18.3665 -16.8198,32.2863 5.5422,-14.7576 10.0532,-21.0086 21.6531,-31.0619 10.1821,-11.7287 7.4755,-24.4886 15.1443,-35.3151 7.0888,0 15.2087,1.8044 23.0708,3.0933 -1.2889,13.9198 -19.5909,35.8307 -11.0199,50.8461 3.0289,-23.3931 9.6021,-29.6441 20.9442,-48.9128 2.9,-0.1933 15.4021,0.6444 30.2886,0.9022 -4.3822,17.0132 -2.4489,27.3241 2.6421,46.335 0,7.7333 -0.8377,13.791 -1.8044,31.4486 13.2754,-19.9776 -4.1244,-50.5883 5.8,-71.7903 0.5799,-2.3844 1.2244,-4.8333 1.8044,-7.2177 4.3821,-0.5156 8.8288,-0.8378 13.2754,-1.2244 -4.1889,15.5953 -13.0176,50.7816 -1.9978,66.1836 0,-22.8775 -6.3155,-69.0836 26.1642,-73.0791 -0.9667,12.5665 -18.302,40.9862 -7.2822,54.906 0.2578,-1.6755 -0.58,-9.6665 -0.1933,-17.3998 4.4466,-16.4331 15.0798,-28.2908 18.1087,-42.3395 1.4822,-1.4822 11.4065,-7.7332 13.5331,-7.2821 -2.1266,6.5732 -0.0644,12.9531 -3.351,21.0731 -19.2687,29.9018 -4.7044,50.0727 10.891,79.3302 2.0622,6.8954 2.771,25.5841 5.7999,29.9018 0.3867,-11.1487 -0.8378,-21.2664 -3.4155,-31.0618 -14.371,-30.1597 -24.1664,-52.7794 -2.0622,-79.3947 0.6444,-12.1798 -2.6422,-33.3818 15.6598,-33.3818 3.48,2.6422 7.2177,4.4466 12.8243,6.5088 0.0644,0.6444 0.3222,1.2244 0.58,1.8689 -5.3488,8.1843 -23.9731,23.6508 -16.6909,35.8951 0.58,0 1.3533,0 2.0622,0.1289 2.0622,-1.8044 4.1244,-5.2199 7.2177,-4.5755 -6.1222,13.7909 -17.8509,44.9817 -6.2511,42.6617 2.1911,-3.6088 4.3177,-7.0888 6.6377,-10.6332 0.5156,-0.1289 0.9667,-0.2578 1.6111,-0.2578 -0.1289,4.5111 -2.4489,20.5576 1.16,25.0686 3.5444,-4.1244 10.0532,-10.311 16.2398,-10.311 6.7666,6.8311 13.5332,8.12 24.5531,7.2822 15.2731,9.2154 25.0685,18.6242 40.7928,-0.4511 3.8666,-0.2578 7.7332,-0.3867 11.5999,-0.5156 -3.4155,18.6243 -16.2398,21.0731 -29.773,34.0263 -2.6422,3.2222 -5.22,6.5088 -7.7333,9.8599 0.2578,0 0.4511,0 0.8378,0.1289 9.2155,-10.6332 19.7198,-19.2042 33.0596,-23.9086 -0.9022,5.1555 -1.6111,10.6332 -4.6399,16.1753 -3.9955,4.9622 -27.3241,20.4287 -26.4864,26.1642 8.3777,-4.1244 17.5287,-16.6265 28.2908,-20.1065 -1.4178,23.3287 -1.4178,23.3287 -1.4178,31.8352 2.2556,17.7865 -9.2154,24.5531 -19.9775,36.9907 7.0244,0 13.7909,-12.8243 21.782,-14.3709 0.9666,12.8243 0.9666,12.8243 1.4822,28.5485 -1.2245,0 -2.32,0.1289 -3.4155,0.2578 z" />
    <path
       id="path28"
       style="fill:#b9c170;fill-rule:evenodd"
       d="m 394.2607,620.3536 c -0.1289,-1.9333 -0.2578,-3.8666 -0.3866,-5.671 1.611,0 3.1577,0 4.8332,0 1.3533,1.6111 2.7067,3.1577 3.9955,4.8333 -0.1288,0.1289 -0.1933,0.3866 -0.3222,0.6444 -2.8355,0 -5.4777,0.1289 -8.1199,0.1933 z" />
    <path
       id="path30"
       style="fill:#1b1918;fill-rule:evenodd"
       d="m 376.6031,603.4694 c -5.3488,-5.3488 -7.8621,-13.4687 -11.5998,-18.5598 -10.4399,-9.7954 -19.5265,-17.3998 -22.7486,-30.6752 3.8666,0.9667 26.3574,26.0997 31.7063,34.3485 0,0.2578 4.0599,16.3043 2.6421,14.8865 z" />
    <path
       id="path32"
       style="fill:#95a17e;fill-rule:evenodd"
       d="m 505.555,597.025 c 0.58,-2.0622 0.58,-2.0622 6.0577,-12.1798 0.4511,0 0.9666,0 1.4177,0.0644 0.1289,2.7066 0.2578,5.3488 0.3867,7.991 -2.6422,1.3533 -5.3488,2.7067 -7.8621,4.1244 z" />
    <path
       id="path34"
       style="fill:#95a17e;fill-rule:evenodd"
       d="m 480.6153,588.9051 c 3.5444,-18.4953 15.2731,-32.4152 19.7197,-48.3972 -8.571,2.8355 -23.5864,17.5931 -31.0618,23.0064 -1.6111,-23.0709 3.8666,-45.9484 3.8666,-68.117 5.091,-4.4466 7.8621,-1.9333 8.6999,-10.1177 5.4777,1.2889 8.2488,11.7288 14.8865,14.951 -0.1289,-5.8 -4.7044,-27.453 -4.4466,-28.033 2.771,0.58 6.6377,7.4754 11.3421,3.9955 0,-7.5399 -9.4088,-16.2398 -8.1199,-21.5242 1.8044,2.2555 3.4155,5.1555 6.8954,6.8955 0,-17.9154 -3.2222,-29.5153 -14.3709,-42.3396 1.2889,-5.4777 9.4088,-11.0198 12.1154,-18.6886 3.0289,-33.1885 -13.791,-28.0975 -34.864,-19.5265 -4.9622,-0.9666 -10.311,-5.091 -14.1777,-6.7666 -21.9108,-6.6377 -30.9329,6.7666 -47.5594,6.7666 -22.9419,-19.8486 -39.6329,-13.2754 -42.3395,16.8843 -11.2132,2.32 -17.0131,7.991 -25.713,14.4998 -30.0952,17.3354 -60.8349,15.6598 -93.6367,15.4021 -28.613,-1.9334 -55.8727,-9.6666 -83.4546,-4.2533 4.9622,-13.211 12.6954,-33.833 28.4197,-36.9263 -0.8378,-5.3488 -3.9955,-8.2488 -4.5755,-12.1154 7.2821,1.3533 7.2821,1.3533 12.4376,1.6756 10.4399,-11.471 12.631,-15.9821 27.8397,-17.3998 0.58,-7.4111 10.4399,-21.0731 18.6242,-21.6531 2.1911,21.3953 4.64,41.6306 11.8576,63.4126 3.4156,0.6444 1.4823,5.2199 4.2533,6.8954 0.1289,-0.3222 0.3223,-0.5799 0.58,-0.8377 1.4822,-23.6509 6.0577,-43.2417 13.5976,-64.8948 0.4511,-0.1289 0.9667,-0.1289 1.5467,-0.1289 13.4043,12.5021 15.982,23.7153 34.7351,12.5021 0.5156,0 1.0956,0.1288 1.8689,0.1933 6.251,10.4399 11.2132,22.5553 18.1087,33.8974 1.8689,-11.1488 -6.1222,-25.9064 -6.3799,-36.6685 11.8576,-3.1577 22.1041,-4.7044 32.9951,-11.9865 10.7621,-3.8666 22.4264,1.8689 32.673,8.5066 14.6287,4.8332 21.4597,1.9333 36.7973,0 27.1953,1.8044 20.6864,18.3664 42.0818,-8.2488 13.662,-13.4043 11.9865,-11.9866 30.8685,-16.8198 3.6088,-5.9289 5.671,-8.6999 12.1154,-11.0199 0,81.0057 2.5133,163.0425 2.5133,245.2083 -11.1488,8.0554 -19.8487,24.0375 -30.7396,31.7707 z" />
    <path
       id="path36"
       style="fill:#1b1918;fill-rule:evenodd"
       d="m 69.3356,582.0096 c 0,-6.251 0,-11.922 1.6111,-17.2709 -1.2244,17.2709 -1.2244,17.2709 -1.6111,17.2709 z" />
    <path
       id="path38"
       style="fill:#1b1918;fill-rule:evenodd"
       d="m 542.6745,572.0209 c -2.771,-15.7243 -6.6377,-30.6108 -8.9576,-45.1751 2.191,3.0289 14.3065,45.1751 8.9576,45.1751 z" />
    <path
       id="path40"
       style="fill:#1b1918;fill-rule:evenodd"
       d="m 391.8119,559.261 c -4.1889,-10.6332 -12.1799,-17.6576 -19.5909,-23.9086 -3.2222,-4.3822 -13.9199,-28.9352 -12.1799,-29.9019 5.9288,3.9955 10.5043,16.8198 15.0798,24.2308 7.4111,8.0555 13.211,14.7577 17.3354,26.6153 -0.2578,3.2222 -0.2578,3.2222 -0.6444,2.9644 z" />
    <path
       id="path42"
       style="fill:#1b1918;fill-rule:evenodd"
       d="m 71.2689,545.019 c -2.0622,-24.102 -6.5088,-59.2883 0.9023,-81.5213 0.4511,17.2709 3.0933,35.3151 3.7377,53.6816 -0.9667,9.2154 -1.9333,18.4953 -2.9,27.8397 -0.6444,0 -1.2244,0 -1.74,0 z" />
    <path
       id="path44"
       style="fill:#1b1918;fill-rule:evenodd"
       d="m 243.9136,534.128 c -2.5133,-8.4422 -2.7711,-16.4332 -3.0289,-23.8442 3.9955,-22.0398 1.0956,-44.4017 12.7599,-64.3793 0.3222,-0.0644 0.7089,-0.0644 1.16,-0.0644 -2.3844,17.8509 -4.8333,29.5152 -2.6422,47.8817 -0.58,7.2821 -4.9622,15.7242 -6.8955,24.1664 -0.9666,16.2398 -0.9666,16.2398 -1.3533,16.2398 z" />
    <path
       id="path46"
       style="fill:#1b1918;fill-rule:evenodd"
       d="m 195.5164,530.8413 c 3.0288,-14.4998 3.0288,-14.4998 3.8022,-20.1708 0,-18.0443 6.7665,-30.7397 15.9175,-45.3684 0.5156,-0.1289 1.0956,-0.1289 1.74,-0.1289 -2.7711,7.3466 -18.302,65.6681 -21.4597,65.6681 z" />
    <path
       id="path48"
       style="fill:#1b1918;fill-rule:evenodd"
       d="m 136.2926,528.4569 c 1.2889,-25.5197 21.6531,-41.244 36.024,-58.966 0.4512,-0.0644 0.9667,-0.1933 1.4178,-0.3222 -1.5466,11.471 -22.8131,33.9618 -30.4819,44.4017 -1.0955,2.3844 -4.9621,13.2754 -6.9599,14.8865 z" />
    <path
       id="path50"
       style="fill:#1b1918;fill-rule:evenodd"
       d="m 531.7835,508.2216 c 0.1289,-12.8243 0.2578,-25.5197 0.3867,-38.2151 2.32,5.2199 6.5088,38.2151 -0.3867,38.2151 z" />
    <path
       id="path52"
       style="fill:#fcbb42;fill-rule:evenodd"
       d="m 432.9914,503.1305 c -4.1244,-1.2888 -9.9244,-3.8666 -10.4399,-6.5088 10.0532,-2.771 16.6909,-12.5665 26.6152,-0.1289 -4.1888,5.9289 -9.7954,6.6377 -16.1753,6.6377 z" />
    <path
       id="path54"
       style="fill:#fcbb42;fill-rule:evenodd"
       d="m 404.765,492.7551 c -14.7576,-4.8333 -3.6088,-17.3353 -6.0577,-29.6441 -3.9955,12.1154 -5.1555,21.3953 -17.7864,25.133 -0.1934,-10.3754 1.2244,-15.0798 -3.0933,-23.1997 -2.8355,0 -5.22,3.2866 -7.7977,4.1244 1.8689,-6.3155 11.0199,-27.3241 10.1821,-32.093 -6.1866,-2.0621 -6.5088,-0.1933 -11.7288,2.1911 0,-12.1154 32.9308,-23.4575 19.3331,-31.1907 -9.2798,-2.1911 -15.4664,-5.6066 -20.8153,-11.5354 3.1578,-21.9109 21.202,-26.7442 35.7018,-10.6977 15.8532,-0.8378 24.8109,-10.5043 42.8551,-5.5422 8.3132,3.7378 13.4043,7.8622 23.3286,6.7666 4.7044,-2.3844 12.6954,-7.8621 19.0109,-7.0243 2.32,4.7044 7.1532,19.462 2.5133,25.0041 -30.6752,21.782 8.7643,13.791 5.0911,42.9195 -3.1578,-0.4511 -6.38,-2.5133 -7.2177,-4.1888 0,6.9599 3.9955,16.8842 7.3465,24.553 -0.1288,0.1289 -0.2577,0.1934 -0.3866,0.4512 -3.9311,-2.1911 -7.8622,-2.0622 -9.8599,-4.1244 0,4.3821 4.1888,20.2353 3.8666,20.6219 -7.5399,-7.5399 -12.1154,-15.8531 -19.1398,-21.7819 0,7.4754 5.4133,15.3376 5.4133,24.6819 -8.1843,8.6999 -35.5085,0.3222 -36.2818,-10.1821 9.2155,-6.4444 9.2155,-6.4444 15.2732,-11.5999 -1.0956,-11.8576 -1.9333,-23.393 -1.6756,-34.3485 2.6422,0.0645 8.571,3.3511 10.9555,2.9 -3.48,-10.5688 -12.4377,-5.091 -15.9176,-10.5688 0.1933,12.5021 -1.6111,25.3909 2.2555,38.7307 -0.8378,0.8378 -10.2466,-2.6422 -10.2466,-2.6422 -8.1199,-0.5155 -13.2109,1.8044 -20.2353,2.2555 0.3867,-3.2221 7.2822,-36.2818 4.8333,-39.8906 -1.9333,1.6755 -18.6242,7.2177 -19.0109,7.2177 -0.0644,0.2578 -0.0644,0.5155 -0.0644,0.7733 2.6422,1.6755 7.991,0 11.8576,-0.7733 -1.74,29.773 -13.0821,33.0596 16.1754,47.6883 -0.1289,1.8044 -0.2578,3.6089 -0.2578,5.5422 0.2578,0.2578 0.5156,0.5155 0.7733,0.7733 -0.8377,0.1289 -1.74,0.3222 -2.5777,0.58 -8.9577,7.411 -15.7243,8.1199 -26.6153,8.1199 z" />
    <path
       id="path56"
       style="fill:#1b1918;fill-rule:evenodd"
       d="m 405.6028,487.2774 c -0.1289,-0.9667 -0.1933,-1.9333 -0.1933,-2.7711 0.8377,-1.0955 1.16,-0.9666 3.0288,-0.1289 0,0.6445 0,1.3533 0.0645,2.0622 -0.1934,0.2578 -0.4511,0.5156 -0.7089,0.8378 -0.7089,0 -1.4178,0 -2.1911,0 z" />
    <path
       id="path58"
       style="fill:#1b1918;fill-rule:evenodd"
       d="m 466.1154,487.4063 c -0.8377,-0.9667 -0.8377,-0.9667 -1.0955,-2.9 0.3866,-0.3222 0.7089,-0.7089 1.0955,-1.0955 1.6756,0.2577 2.5133,0 2.5133,3.0288 -0.8377,0.8378 -0.8377,0.8378 -2.5133,0.9667 z" />
    <path
       id="path60"
       style="fill:#1b1918;fill-rule:evenodd"
       d="m 414.1094,486.2463 c -1.3533,-0.6444 -0.7089,-2.4489 -0.7089,-2.9644 1.16,-0.8378 1.16,-0.8378 2.6422,-1.0311 0.3222,0.3222 0.9666,2.1266 -0.2578,3.8666 -0.58,0 -1.2244,0 -1.6755,0.1289 z" />
    <path
       id="path62"
       style="fill:#1b1918;fill-rule:evenodd"
       d="m 457.9955,486.2463 c -0.1289,-1.2244 -0.1933,-2.32 -0.1933,-3.4155 0.9666,0 1.9333,0 2.9644,0 0,0.7089 0.1289,1.5466 0.2578,2.4488 -1.0956,1.0311 -2.0622,0.8378 -3.0289,0.9667 z" />
    <path
       id="path64"
       style="fill:#1b1918;fill-rule:evenodd"
       d="m 449.8756,485.0219 c -1.8044,-1.8045 -0.9666,-3.4156 -0.3222,-3.9955 0.7089,0.1288 1.5466,0.2577 2.3844,0.3222 0,0.7733 0,1.4822 0.1289,2.3199 -0.7089,0.9667 -1.8044,1.6756 -2.1911,1.3534 z" />
    <path
       id="path66"
       style="fill:#1b1918;fill-rule:evenodd"
       d="m 421.7137,483.7974 c -0.4511,-0.5155 -0.8377,-0.9666 -1.2244,-1.3533 0.3867,-0.8378 0.7733,-1.5466 1.2244,-2.2555 0.3867,0 0.7089,0 1.2245,0 0.2577,0.3222 0.58,0.7089 0.9666,1.0955 -0.1289,0.58 -0.2578,1.2889 -0.3866,1.9978 -1.4178,0.7733 -1.4178,0.7733 -1.8045,0.5155 z" />
    <path
       id="path68"
       style="fill:#fcbb42;fill-rule:evenodd"
       d="m 95.1131,480.8975 c 0.6444,-7.7333 0.6444,-7.7333 0.6444,-35.0574 6.5089,-4.3822 18.1087,-13.9198 26.3575,-14.5643 -3.8666,11.7288 -17.9153,40.5351 -27.0019,49.6217 z" />
    <path
       id="path70"
       style="fill:#1b1918;fill-rule:evenodd"
       d="m 406.3761,480.6397 c -0.5155,-0.3222 -0.9022,-0.58 -1.2244,-0.8378 0,-1.2244 0,-2.3199 0,-3.4155 0.58,-0.0644 1.3533,-0.1933 2.0622,-0.1933 0.8378,0.8377 0.7089,1.2889 0.9667,3.4799 -1.4823,1.2245 -1.4823,1.2245 -1.8045,0.9667 z" />
    <path
       id="path72"
       style="fill:#1b1918;fill-rule:evenodd"
       d="m 466.8243,480.1886 c -0.4511,-0.2578 -0.8378,-0.5156 -1.16,-0.7733 0,-2.1267 -0.3866,-1.6756 0.58,-3.0289 0.58,-0.0644 1.2244,-0.1933 1.8044,-0.1933 0.8378,1.2244 0.8378,1.2244 0.9667,3.0288 -0.7089,0.8378 -0.7089,0.8378 -2.1911,0.9667 z" />
    <path
       id="path74"
       style="fill:#1b1918;fill-rule:evenodd"
       d="m 412.8849,478.2553 c 0,-2.5778 0,-2.1911 1.0956,-3.8666 0.4511,0.1933 1.0955,0.4511 1.6755,0.8377 -0.2578,2.0622 -0.2578,2.0622 -0.8377,3.0289 -0.7089,0 -1.3534,0 -1.9334,0 z" />
    <path
       id="path76"
       style="fill:#1b1918;fill-rule:evenodd"
       d="m 459.22,478.2553 c -1.4178,-1.4822 -0.3867,-2.4489 -0.3867,-3.2867 0.9666,0 1.9333,0.1289 2.9,0.2578 0,0.58 0,1.2889 0,2.0622 -0.7089,0.7089 -0.7089,0.7089 -2.5133,0.9667 z" />
    <path
       id="path78"
       style="fill:#1b1918;fill-rule:evenodd"
       d="m 449.8756,477.4175 c -0.0644,-1.0955 -0.1933,-2.0622 -0.1933,-3.0288 0.4511,-0.2578 0.9666,-0.5156 1.4177,-0.7734 0.5156,0.2578 0.9667,0.5156 1.6111,0.7734 0,0.5799 0.1289,1.2888 0.1934,1.9977 -1.16,0.9022 -1.16,0.9022 -3.0289,1.0311 z" />
    <path
       id="path80"
       style="fill:#1b1918;fill-rule:evenodd"
       d="m 420.1671,477.0308 c -0.1289,-0.6444 -0.2578,-1.2244 -0.2578,-1.8044 0.58,-0.6444 0.58,-0.6444 2.6422,-0.6444 0.1289,0.1289 0.2578,0.3866 0.3867,0.6444 -0.5156,0.58 -0.8378,1.16 -1.2245,1.8044 -0.58,0 -1.0955,0 -1.5466,0 z" />
    <path
       id="path82"
       style="fill:#868789;fill-rule:evenodd"
       d="m 434.6669,474.1309 c -3.8666,-2.0622 -7.6043,-4.1244 -11.4065,-6.1866 -0.0645,-0.4511 -0.1934,-0.8378 -0.3222,-1.2244 6.0577,-0.8378 15.2087,-2.7711 21.7819,0 -1.8044,1.611 -7.8621,7.411 -10.0532,7.411 z" />
    <path
       id="path84"
       style="fill:#95a17e;fill-rule:evenodd"
       d="m 95.9509,437.8491 c -0.4511,-17.0776 1.0955,-34.413 1.2244,-50.5239 13.791,7.411 22.4909,2.3844 33.0596,-9.4732 3.9955,0.3866 3.9955,0.3866 4.9622,1.0311 -1.2244,14.7576 -5.7355,31.4485 -10.6977,46.4639 -14.8865,0 -17.8509,9.3443 -28.5485,12.5021 z" />
    <path
       id="path86"
       style="fill:#1b1918;fill-rule:evenodd"
       d="m 72.1712,418.7093 c 0.0644,-8.4421 0.0644,-8.4421 0.7088,-10.3754 0.2578,2.3844 -0.3866,10.3754 -0.7088,10.3754 z" />
    <path
       id="path88"
       style="fill:#1b1918;fill-rule:evenodd"
       d="m 450.7778,418.0004 c -3.8021,-4.511 -10.311,-5.9288 -9.731,-10.7621 2.8356,0 11.4066,4.8333 10.6977,10.2466 -0.3867,0.1289 -0.7733,0.2577 -0.9667,0.5155 z" />
    <path
       id="path90"
       style="fill:#1b1918;fill-rule:evenodd"
       d="m 413.5938,416.5182 c -0.1289,-0.2578 -0.1933,-0.4511 -0.3222,-0.58 3.8666,-5.671 11.3421,-9.0865 18.4953,-9.9243 0.1289,0.1289 0.2578,0.3866 0.4511,0.58 -1.4177,2.5777 -15.9175,9.9243 -18.6242,9.9243 z" />
    <path
       id="path92"
       style="fill:#1b1918;fill-rule:evenodd"
       d="m 292.3108,410.8472 c -0.1289,-0.2578 -0.1933,-0.5156 -0.3222,-0.58 10.2465,-1.3533 44.9172,-17.7865 49.8794,-16.6265 -17.2709,14.7576 -28.1619,17.2065 -49.5572,17.2065 z" />
    <path
       id="path94"
       style="fill:#1b1918;fill-rule:evenodd"
       d="m 405.1517,410.2672 c 0.4511,-2.32 26.2286,-17.9154 27.1952,-11.6643 -4.1244,5.091 -21.0086,9.7954 -27.1952,11.6643 z" />
    <path
       id="path96"
       style="fill:#1b1918;fill-rule:evenodd"
       d="m 455.2244,409.6227 c -5.7999,-5.2199 -12.1154,-5.7999 -15.982,-11.0198 0.1289,-0.58 0.2578,-1.16 0.3867,-1.6756 5.4132,0 13.9198,7.2822 18.0442,12.1154 -0.5155,0.58 -0.5155,0.58 -2.4489,0.58 z" />
    <path
       id="path98"
       style="fill:#1b1918;fill-rule:evenodd"
       d="m 401.1562,403.9517 c -0.1289,-0.2578 -0.2578,-0.5156 -0.3867,-0.58 5.0911,-8.8288 18.882,-11.2132 27.3886,-17.5287 14.2421,0 22.6842,5.2199 35.0574,16.3043 -0.1289,0.4511 -0.2578,1.0955 -0.3867,1.6755 -12.051,-6.3155 -19.2042,-13.8554 -32.6729,-13.8554 -0.0645,0.1289 -25.842,13.1465 -28.9997,13.9843 z" />
    <path
       id="path100"
       style="fill:#1b1918;fill-rule:evenodd"
       d="m 295.5974,401.1806 c -0.7089,-0.2578 -1.4822,-0.5155 -2.0622,-0.6444 3.6089,-0.8378 12.8243,-4.8333 16.4976,-4.4466 -4.6399,3.0288 -9.4732,5.091 -14.4354,5.091 z" />
    <path
       id="path102"
       style="fill:#e1d5ae;fill-rule:evenodd"
       d="m 160.0723,392.3518 c -9.4087,-5.5421 -18.1086,-16.0465 -17.7864,-25.5841 8.6354,12.1798 11.1487,18.1087 27.0019,22.7486 -2.0622,2.3844 -6.8955,2.8355 -9.2155,2.8355 z" />
    <path
       id="path104"
       style="fill:#1b1918;fill-rule:evenodd"
       d="m 75.78,391.7718 c -4.1244,-27.7108 -4.7044,-60.7059 -3.0289,-87.4501 0.58,-2.32 1.2245,-4.5755 1.8045,-6.8955 3.6088,33.7685 5.671,59.6749 1.5466,94.3456 -0.0644,0 -0.1933,0 -0.3222,0 z" />
    <path
       id="path106"
       style="fill:#e1d5ae;fill-rule:evenodd"
       d="m 175.7966,385.5208 c -9.9888,-1.9333 -32.4152,-12.3732 -31.0618,-23.5864 0.4511,0 0.9666,0 1.5466,0 9.2154,10.7621 15.8531,19.7198 31.9641,21.5242 0.1289,0.1289 0.2577,0.3222 0.3866,0.58 -0.9666,1.3533 -1.6111,1.4822 -2.8355,1.4822 z" />
    <path
       id="path108"
       style="fill:#888f98;fill-rule:evenodd"
       d="m 100.7842,384.2964 c -8.1844,-6.1866 -4.7044,-85.1946 -5.2844,-102.9811 10.6332,1.6111 20.4286,7.5399 32.0285,9.731 -0.1289,0.4511 -27.5819,61.1571 -25.1331,66.0548 0.7089,-0.6444 1.4178,-1.0955 2.1911,-1.6111 13.9199,-24.6819 34.4774,-42.5973 55.0349,-61.5437 8.3133,1.16 9.2799,1.2889 17.7865,-2.4489 1.8044,-1.3533 5.5422,-5.3488 8.8288,-4.5755 -8.6999,15.4665 -30.4819,61.8015 -47.9461,63.2837 0,8.1844 0,15.0799 -1.9978,24.0375 -3.0288,0 -5.7355,-1.6755 -8.8932,-1.6755 -11.8576,8.571 -12.6954,11.1488 -26.6152,11.7288 z" />
    <path
       id="path110"
       style="fill:#f6e9c6;fill-rule:evenodd"
       d="m 176.1833,378.6253 c -10.7621,-1.74 -29.5152,-16.562 -31.4485,-24.6819 22.6197,0 71.0169,-109.8765 74.7546,-117.352 7.7333,-17.9154 22.362,-45.4973 25.6486,-63.7993 5.9288,-0.3222 12.4377,-0.1933 19.3331,0 -33.5107,53.2305 -58.7726,111.9387 -83.7123,169.7447 -3.48,13.5977 -9.6666,19.5265 -2.7711,34.7352 -0.1289,0.3867 -0.2578,0.8378 -0.2578,1.3533 -0.58,0 -1.0311,0 -1.5466,0 z" />
    <path
       id="path112"
       style="fill:#b9c170;fill-rule:evenodd"
       d="m 253.9668,373.9854 c -4.5755,-45.5617 -11.1488,-94.6034 6.0577,-137.6518 0.3867,-0.1289 0.7089,-0.2578 1.2244,-0.2578 2.6422,24.682 10.6332,47.8173 9.9244,74.3036 -2.32,11.8577 -13.9199,61.6727 -17.2065,63.606 z" />
    <path
       id="path114"
       style="fill:#888f98;fill-rule:evenodd"
       d="m 185.5276,370.9565 c -1.4822,-0.3222 -2.8355,-0.58 -4.1244,-0.8378 -0.1289,-2.6421 -0.2578,-5.1555 -0.2578,-7.7332 9.6666,-24.4242 18.882,-50.4594 29.9019,-73.0792 7.6044,0 17.0131,11.6644 28.8063,14.5643 0.58,7.2177 0.58,18.6242 1.0311,27.453 -0.1933,0.1289 -0.4511,0.3223 -0.58,0.58 -16.1109,0 -19.2042,19.8487 -34.2196,23.7153 -5.9288,3.7377 -15.8531,15.3376 -20.5575,15.3376 z" />
    <path
       id="path116"
       style="fill:#888f98;fill-rule:evenodd"
       d="m 290.2486,352.0101 c -6.1221,-4.1244 -12.1799,-10.6332 -17.142,-14.6288 1.8044,-13.082 3.1577,-26.1641 3.8666,-38.7306 9.5377,16.4331 19.0753,32.9952 28.8063,49.6216 -5.9288,0.4511 -10.0532,3.0933 -15.5309,3.7378 z" />
    <path
       id="path118"
       style="fill:#1b1918;fill-rule:evenodd"
       d="m 531.4613,351.8812 c -3.0288,-18.7531 -5.6066,-36.6685 -5.6066,-54.455 1.74,-16.1109 1.74,-16.1109 2.7067,-32.2862 2.5133,3.8666 7.6043,86.7412 2.8999,86.7412 z" />
    <path
       id="path120"
       style="fill:#b9c170;fill-rule:evenodd"
       d="m 313.1906,349.4323 c -10.6977,-23.3286 -25.1975,-44.4017 -35.6374,-66.5059 -5.1555,-19.1398 -18.2376,-52.2638 -6.0577,-69.7925 0.5155,0 0.9666,0 1.4822,0 25.7775,37.8284 35.2507,90.3501 40.7928,136.2984 -0.1933,0 -0.4511,0 -0.5799,0 z" />
    <path
       id="path122"
       style="fill:#888f98;fill-rule:evenodd"
       d="m 320.086,346.2101 c -6.3155,-37.0551 -8.3132,-46.7217 -8.4421,-50.3305 15.0798,0 13.9843,-0.7733 26.6152,-8.3777 11.3421,2.1911 31.0619,13.211 43.8862,18.1731 4.8333,3.3511 17.3998,13.5332 23.8442,14.7576 -2.5133,-12.6954 -49.6217,-43.1772 -47.5595,-51.426 6.1866,-2.4489 13.211,-15.0154 17.3354,-15.9821 -0.3867,2.6422 -2.5778,10.891 -2.0622,13.791 12.0509,-20.1709 20.2997,-39.8262 26.873,-61.6726 3.0933,-6.5733 3.0933,-6.5733 4.5755,-8.3777 4.9622,0.9666 10.5043,18.4309 15.7243,25.6486 0.4511,0 0.9666,0 1.4177,0 -1.16,-5.22 -2.8999,-10.0532 -4.1888,-17.2709 7.2177,3.4799 6.6377,6.7666 9.4088,15.7242 2.8999,21.0087 9.2154,39.0529 17.9153,59.2882 0,-12.3732 -4.4466,-26.1641 -6.7666,-37.184 2.32,0 8.571,8.2488 10.891,11.2777 7.1533,17.0775 10.7621,35.1862 21.3953,52.5216 0.3867,-0.2578 0.7089,-0.3867 1.2244,-0.5156 -4.8332,-11.2132 -7.411,-20.8153 -8.9576,-31.4485 10.5043,3.7377 15.982,13.3399 23.0064,22.7486 0.1933,-0.1289 0.58,-0.1289 0.9666,-0.1289 -0.5155,-4.9621 -3.5444,-9.9243 -3.8022,-13.2754 8.5066,0 17.2065,-4.6399 27.0019,-5.2199 -0.4511,8.6999 -0.9666,17.3998 -1.4177,26.0997 -10.891,1.9333 -13.3399,3.4155 -21.0731,11.1488 -20.2353,3.7377 -28.4197,15.4665 -43.1773,29.3863 -4.9621,0.6444 -10.311,-2.2555 -14.1776,-3.6089 -15.2087,-2.3199 -28.033,2.7711 -42.7262,-1.2244 -26.2285,-10.3754 -28.8707,-13.1465 -51.6193,0.3867 -5.4778,1.6755 -10.7621,3.351 -16.111,5.091 z" />
    <path
       id="path124"
       style="fill:#b9c170;fill-rule:evenodd"
       d="m 126.2394,316.7594 c 8.571,-23.3287 22.7486,-52.3283 37.6351,-72.177 9.8599,-10.5688 28.5486,-27.453 42.5329,-29.3863 -7.2177,38.0862 -54.3261,75.7213 -80.168,101.5633 z" />
    <path
       id="path126"
       style="fill:#008bd0;fill-rule:evenodd"
       d="m 239.467,298.9729 c -9.3444,-5.1555 -16.1109,-13.1465 -25.7775,-13.6621 0,-11.4709 27.8397,-55.0349 35.444,-75.0124 0.3867,-0.0645 0.7089,-0.1934 1.2245,-0.1934 4.7043,7.2177 7.8621,9.151 7.8621,18.7531 -8.2488,24.2953 -14.1776,44.144 -17.7865,70.1148 -0.58,0.5155 -0.58,0.5155 -0.9666,0 z" />
    <path
       id="path128"
       style="fill:#008bd0;fill-rule:evenodd"
       d="m 311.2572,292.9796 c -4.0599,-7.0243 -6.251,-23.7153 -8.8932,-31.4485 0.3867,0 26.9375,20.1709 30.6752,22.6197 -5.5421,3.48 -15.0154,10.1177 -21.782,8.8288 z" />
    <path
       id="path130"
       style="fill:#008bd0;fill-rule:evenodd"
       d="m 164.0679,291.0463 c 0,-0.5155 0,-0.9022 0.1288,-1.2244 16.5621,-16.562 40.664,-43.1773 45.4973,-67.4081 2.1911,0.3866 4.511,0.8377 6.7666,1.3533 1.6111,6.3799 -23.1998,49.4928 -26.873,56.7105 -8.5711,3.0288 -17.1421,8.6354 -25.5197,10.5687 z" />
    <path
       id="path132"
       style="fill:#1b1918;fill-rule:evenodd"
       d="m 402.7028,290.1441 c 1.6111,-2.5133 3.1578,-5.0266 4.8333,-7.6043 0.5156,2.4488 -1.4177,5.2199 -3.6088,7.6043 -0.4511,0 -0.8378,0 -1.2245,0 z" />
    <path
       id="path134"
       style="fill:#b9c170;fill-rule:evenodd"
       d="m 362.8122,289.9508 c -29.5152,-16.8198 -56.9038,-25.7775 -71.0814,-57.0327 -1.9333,-3.0933 -6.4444,-8.8288 -5.9288,-11.3421 27.0019,19.8487 53.6171,42.4684 77.9769,67.7303 -0.3867,0.1289 -0.7089,0.3867 -0.9667,0.6445 z" />
    <path
       id="path136"
       style="fill:#008bd0;fill-rule:evenodd"
       d="m 129.0105,285.9553 c -13.211,-3.8667 -19.2687,-6.5733 -32.673,-7.2822 -0.3866,-13.2754 0.1289,-26.7441 1.2245,-39.1817 11.2132,-0.7089 26.2286,-0.7089 41.5017,-1.9334 6.6377,-1.0955 23.7153,-6.3154 30.2241,-5.091 -18.0442,15.3376 -27.8397,32.9952 -38.7307,53.4883 -0.58,0 -1.0955,0 -1.5466,0 z" />
    <path
       id="path138"
       style="fill:#1b1918;fill-rule:evenodd"
       d="m 391.4896,284.9886 c 3.8667,-10.1821 9.5377,-17.6576 14.8865,-26.6152 1.9333,9.9243 -9.3443,19.7197 -14.8865,26.6152 z" />
    <path
       id="path140"
       style="fill:#008bd0;fill-rule:evenodd"
       d="m 481.0019,280.2198 c -8.1199,-5.0266 -14.0487,-7.3466 -19.5909,-13.4043 -7.6043,-21.9109 -23.5864,-26.0997 -29.0641,-50.4594 -4.4466,-10.0532 -6.8954,-10.2466 -14.8865,-15.3376 -20.2997,-31.5774 -31.7707,26.6152 -35.8951,37.9573 -1.9333,4.64 -24.3597,26.293 -28.8063,26.7441 -23.1353,-20.0419 -47.495,-39.3106 -73.7236,-52.3927 -20.4287,-13.2754 -22.7486,-23.1997 -6.8955,-40.7284 22.1042,-0.2578 45.755,0.58 68.8903,1.5466 -1.9333,1.6756 -3.6088,2.4489 -11.2776,9.0866 0,0.4511 0,1.0955 0,1.6755 11.0199,-11.0198 22.4264,-11.342 37.5062,-11.1487 -5.5421,4.3822 -11.471,8.7643 -15.7243,13.9198 6.1866,0 23.3931,-12.5665 32.673,-15.0798 5.5422,0 11.2776,0.1289 16.9487,0.1933 -5.5422,3.6733 -10.311,6.8955 -14.8865,11.2777 8.2488,0 18.882,-9.4088 28.5486,-11.8577 14.1776,-0.4511 14.1776,-0.4511 25.9063,0 -4.1244,2.7711 -7.8621,6.3155 -11.4065,9.7955 2.8355,0 19.9775,-8.6999 25.0686,-10.6332 6.0577,0 12.1154,0 18.1731,0 -4.7688,4.7044 -10.8265,7.1532 -15.402,12.3087 0.6444,-0.0644 1.3533,-0.1933 2.0622,-0.1933 15.1442,-7.7333 34.3484,-18.1731 52.6504,-15.1443 1.6756,25.9064 0.3223,53.9394 0.3223,80.6835 -1.5467,24.5531 -1.5467,24.5531 -2.1267,26.0353 -12.2443,-0.3867 -19.0109,5.1555 -29.0641,5.1555 z" />
    <path
       id="path142"
       style="fill:#1b1918;fill-rule:evenodd"
       d="m 122.115,277.7065 c 0.7089,-19.0109 7.0244,-16.111 19.3331,-26.6153 0,0.3867 0.1289,0.7089 0.2578,1.2245 -7.7332,8.3132 -12.8243,17.0775 -19.5909,25.3908 z" />
    <path
       id="path144"
       style="fill:#1b1918;fill-rule:evenodd"
       d="m 386.6564,273.9687 c 5.5421,-12.4376 11.342,-24.553 13.9842,-37.3773 0.5156,6.7666 0.9023,13.4043 -1.8044,20.9442 -3.1577,4.4466 -9.9243,12.1799 -11.0199,16.8842 -0.4511,-0.1933 -0.8377,-0.3222 -1.1599,-0.4511 z" />
    <path
       id="path146"
       style="fill:#1b1918;fill-rule:evenodd"
       d="m 117.2817,262.6911 c 0.7089,-5.7999 4.3178,-14.2421 11.3421,-12.9532 -10.1176,11.4065 -11.0198,12.9532 -11.3421,12.9532 z" />
    <path
       id="path148"
       style="fill:#1b1918;fill-rule:evenodd"
       d="m 70.9467,256.8912 c -4.2533,-6.38 -2.7711,-14.2421 -0.5155,-19.9776 1.0955,19.3976 1.0955,19.3976 0.8377,20.2353 -0.1288,-0.1289 -0.1933,-0.2577 -0.3222,-0.2577 z" />
    <path
       id="path150"
       style="fill:#1b1918;fill-rule:evenodd"
       d="m 531.4613,249.029 c 0.4511,-2.3844 0.4511,-2.3844 0.7089,-31.0618 2.32,1.8044 4.2533,28.6774 -0.3867,31.4485 -0.0644,-0.1289 -0.1933,-0.2578 -0.3222,-0.3867 z" />
    <path
       id="path152"
       style="fill:#1b1918;fill-rule:evenodd"
       d="m 77.3267,246.9668 c -5.0911,-8.9576 -11.9866,-83.1968 -4.8333,-87.4501 0,13.2754 3.8666,27.8397 6.3155,41.9529 -0.1289,3.5444 -1.0956,46.0128 -1.4822,45.4972 z" />
    <path
       id="path154"
       style="fill:#1b1918;fill-rule:evenodd"
       d="m 355.5301,239.7491 c 2.191,-8.8288 6.5732,-17.2064 8.8287,-24.9397 0,7.3466 -0.3222,20.6864 -8.8287,24.9397 z" />
    <path
       id="path156"
       style="fill:#b9c170;fill-rule:evenodd"
       d="m 97.562,235.2381 c -0.2578,-1.3533 -0.5156,-2.6422 -0.6445,-3.9955 0.9667,-0.58 14.3065,-3.8667 24.8109,-7.0244 7.6688,-2.6422 67.4081,-29.2574 76.6235,-10.7621 -11.9865,11.9865 -87.2568,25.1975 -100.7899,21.782 z" />
    <path
       id="path158"
       style="fill:#1b1918;fill-rule:evenodd"
       d="m 368.4832,233.3048 c 5.3489,-17.5287 6.7666,-28.8064 16.9487,-41.9529 0.7089,7.6044 -13.5331,40.8573 -16.9487,41.9529 z" />
    <path
       id="path160"
       style="fill:#008bd0;fill-rule:evenodd"
       d="m 96.7242,227.6337 c 0,-21.5242 -2.4489,-41.6306 -4.8333,-62.0593 11.8577,0.8378 21.3953,11.5999 31.4485,19.9776 12.8243,7.0888 21.5242,13.1465 37.5063,16.3042 -0.2578,0.2578 -0.5156,0.58 -0.7734,0.9667 -22.7486,7.0244 -42.6617,15.0154 -63.3481,24.8108 z" />
    <path
       id="path162"
       style="fill:#f6e9c6;fill-rule:evenodd"
       d="m 218.1361,221.1893 c -2.7711,-2.0622 -5.7999,-1.9333 -8.4421,-2.3844 0,-1.0955 0,-2.1911 0,-3.2866 6.7666,1.4822 6.7666,1.4822 10.891,2.7711 -0.58,0.9666 -1.2245,1.9333 -1.6756,3.0288 -0.2577,-0.1289 -0.5155,-0.1289 -0.7733,-0.1289 z" />
    <path
       id="path164"
       style="fill:#f6e9c6;fill-rule:evenodd"
       d="m 261.2489,220.0938 c -3.5444,-6.9599 -11.7287,-12.6954 -7.5399,-18.6242 0.5156,-0.1289 0.9667,-0.1289 1.4822,-0.1289 5.8,11.6643 9.4088,18.1731 6.0577,18.7531 z" />
    <path
       id="path166"
       style="fill:#008bd0;fill-rule:evenodd"
       d="m 220.9716,214.1005 c -1.7399,-0.5155 -3.2866,-0.9666 -4.8332,-1.3533 0.0644,-0.5155 0.1933,-0.8377 0.3222,-1.2244 2.0622,-0.7089 5.3488,-2.9 8.1199,-2.3844 -0.8378,1.5466 -1.5467,3.0933 -2.32,4.8333 -0.4511,0 -0.9666,0 -1.2889,0.1288 z" />
    <path
       id="path168"
       style="fill:#f6e9c6;fill-rule:evenodd"
       d="m 264.1489,210.9428 c -1.8044,-4.1244 -9.7954,-15.2732 -5.671,-16.2398 2.3844,4.7044 4.8332,9.6021 7.3465,14.4354 -1.3533,2.0622 -1.3533,2.0622 -1.6755,1.8044 z" />
    <path
       id="path170"
       style="fill:#f6e9c6;fill-rule:evenodd"
       d="m 210.4029,207.6562 c -0.7089,-0.8378 -0.7089,-0.8378 -1.16,-3.0289 4.4466,-0.58 15.0798,-4.5755 19.3331,-3.9955 -2.0622,4.8333 -13.211,6.0577 -18.1731,7.0244 z" />
    <path
       id="path172"
       style="fill:#b9c170;fill-rule:evenodd"
       d="m 202.7985,205.594 c -17.7864,-8.4422 -35.9596,-7.991 -53.6171,-13.6621 -7.4755,-3.8666 -36.4107,-20.8153 -38.6662,-25.5197 9.9887,0.9667 28.9996,1.6755 58.0637,4.1244 8.571,4.9622 34.7996,24.9397 34.7996,34.9285 -0.1933,0 -0.4511,0 -0.58,0.1289 z" />
    <path
       id="path174"
       style="fill:#008bd0;fill-rule:evenodd"
       d="m 206.0851,200.7607 c -7.991,-12.5665 -13.4687,-21.9109 -24.6819,-28.8063 -0.1289,-0.4511 -0.2578,-0.8378 -0.3867,-1.16 37.1196,1.4177 37.1196,1.4177 61.3504,1.6755 -7.991,15.8532 -16.562,28.2908 -36.2818,28.2908 z" />
    <path
       id="path176"
       style="fill:#1b1918;fill-rule:evenodd"
       d="m 531.7835,199.0852 c 0.6445,-4.3822 1.3534,-8.6999 2.0622,-12.9532 0.3867,0.1289 0.8378,0.2577 1.3534,0.3866 0,1.16 -0.58,12.5666 -3.4156,12.5666 z" />
    <path
       id="path178"
       style="fill:#1b1918;fill-rule:evenodd"
       d="m 181.0165,155.6501 c -18.7531,-1.6111 -37.5062,-5.2199 -54.7771,-7.0244 6.6377,-5.5421 82.0368,0.3867 96.7944,1.5467 -14.3065,2.4488 -28.3552,5.091 -42.0173,5.4777 z" />
    <path
       id="path180"
       style="fill:#1b1918;fill-rule:evenodd"
       d="m 346.7013,155.2634 c -23.3286,-1.6755 -23.3286,-1.6755 -41.0507,-2.2555 6.96,-7.0244 73.8525,-7.0244 86.1613,-4.8977 -15.3376,3.0288 -30.6108,5.9288 -45.1106,7.1532 z" />
    <path
       id="path182"
       style="fill:#1b1918;fill-rule:evenodd"
       d="m 443.109,154.1679 c 9.731,-6.3799 45.0462,-8.3132 60.0616,-8.571 6.8954,1.5466 6.8954,1.5466 12.5665,2.1911 -24.9397,1.9333 -47.8172,7.1532 -72.6281,6.3799 z" />
    <path
       id="path184"
       style="fill:#1b1918;fill-rule:evenodd"
       d="m 285.0931,151.139 c -1.6111,-0.3222 -1.6111,-0.3222 -16.1109,-0.58 4.7044,-1.9333 11.471,-2.4488 16.9487,0.5156 -0.3867,0 -0.6445,0 -0.8378,0.0644 z" />
    <path
       id="path186"
       style="fill:#1b1918;fill-rule:evenodd"
       d="m 426.547,149.0124 c 0,-0.5155 0,-0.9022 0,-1.2244 6.5733,-1.8045 22.362,-5.6066 29.3863,-2.7711 -3.0933,0.1289 -11.2132,1.8044 -29.3863,3.9955 z" />
    <path
       id="path188"
       style="fill:#1b1918;fill-rule:evenodd"
       d="m 113.2862,148.0457 c -3.6733,-0.5155 -7.2821,-0.9022 -10.891,-1.2244 -0.3866,-0.6444 -0.3866,-0.6444 0,-1.2244 4.4467,0.1289 7.2177,0.3866 12.4377,2.1911 -0.58,0 -1.0956,0.1289 -1.5467,0.2577 z" />
  </g>
</svg>
