<?xml version="1.0" encoding="utf-8"?>
<!-- Generator: Adobe Illustrator 14.0.0, SVG Export Plug-In . SVG Version: 6.00 Build 43363)  -->
<!DOCTYPE svg PUBLIC "-//W3C//DTD SVG 1.1//EN" "http://www.w3.org/Graphics/SVG/1.1/DTD/svg11.dtd">
<svg version="1.1" id="Capa_1" xmlns="http://www.w3.org/2000/svg" xmlns:xlink="http://www.w3.org/1999/xlink" x="0px" y="0px"
	 width="1.625px" height="1.667px" viewBox="0 0 1.625 1.667" enable-background="new 0 0 1.625 1.667" xml:space="preserve">
<circle fill="#D52D6F" cx="0.75" cy="0.838" r="0.542"/>
<g>
	<ellipse fill="#FFFFFF" cx="0.573" cy="0.659" rx="0.067" ry="0.061"/>
	<polygon fill="#FFFFFF" points="0.714,0.598 0.759,0.598 0.759,1.008 0.861,1.008 0.861,1.048 0.714,1.048 	"/>
	<path fill="#FFFFFF" d="M0.861,0.799h0.307c0,0,0.016,0.081-0.025,0.171C1.081,1.144,0.943,1.2,0.943,1.2S0.749,1.339,0.506,1.184
		C0.337,1.101,0.312,0.897,0.312,0.897S0.261,0.745,0.396,0.559c0.136-0.187,0.362-0.163,0.362-0.163v0.037
		c0,0-0.211-0.014-0.33,0.153c-0.119,0.167-0.077,0.3-0.077,0.3s0.01,0.156,0.168,0.262c0.229,0.134,0.403,0.017,0.403,0.017
		S1.065,1.065,1.102,0.96c0.035-0.106,0.024-0.121,0.024-0.121L0.861,0.846V0.799z"/>
</g>
</svg>
