<?xml version="1.0" encoding="utf-8"?>
<!-- Generator: Adobe Illustrator 14.0.0, SVG Export Plug-In . SVG Version: 6.00 Build 43363)  -->
<!DOCTYPE svg PUBLIC "-//W3C//DTD SVG 1.1//EN" "http://www.w3.org/Graphics/SVG/1.1/DTD/svg11.dtd">
<svg version="1.1" id="Capa_1" xmlns="http://www.w3.org/2000/svg" xmlns:xlink="http://www.w3.org/1999/xlink" x="0px" y="0px"
	 width="70px" height="19.667px" viewBox="0 0 70 19.667" enable-background="new 0 0 70 19.667" xml:space="preserve">
<polygon fill="#F35C26" points="1.984,2.164 1.984,12.947 17.923,2.164 "/>
<polygon fill="#F99016" points="10.868,12.947 17.923,2.349 17.923,12.947 "/>
<path fill="#FFFFFF" d="M26.563,7.245c0,0,1.123-0.46,1.094-2.534c-0.403-2.546-2.88-2.546-2.88-2.546h-4.118v10.783h4.464
	c0,0,2.938-0.144,3.053-3.226C28.061,7.476,26.563,7.245,26.563,7.245z M22.502,3.789h1.915c0,0,1.426,0.029,1.339,1.425
	c0.087,1.282-1.065,1.426-1.065,1.426h-2.188V3.789z M24.662,11.305h-2.16V8.138h2.333c0,0,1.498-0.029,1.613,1.584
	C26.39,11.42,24.662,11.305,24.662,11.305z"/>
<path fill="#FFFFFF" d="M28.982,4.884h1.728v4.291c0,0,0.288,1.67,0.979,1.929c0.497,0.204,1.152,0.72,2.16-0.172
	c0.691-0.519,0.72-1.423,0.72-1.423V4.884h1.814v4.624c0,0,0,2.229-2.189,3.18c-2.563,0.951-3.945-0.633-3.945-0.633
	s-0.979-0.547-1.267-2.218C28.982,8.339,28.982,4.884,28.982,4.884z"/>
<path fill="#FFFFFF" d="M43.583,2.164v3.411c-0.922-1.268-3.226-0.864-3.226-0.864s-3.513,0.72-3.024,5.011
	c0.806,3.484,3.801,3.27,3.801,3.27s1.238,0.244,2.448-0.764v0.634h1.756V2.164H43.583z M41.293,11.363
	c-1.281,0-2.318-1.141-2.318-2.549s1.038-2.549,2.318-2.549c1.28,0,2.318,1.141,2.318,2.549S42.574,11.363,41.293,11.363z"/>
<path fill="#FFFFFF" d="M54.411,11.565V4.797h-1.699v0.748l-1.238-0.748c0,0-2.592-0.979-4.464,1.612
	c-1.353,2.448-0.259,4.32-0.259,4.32s0.835,2.044,3.34,2.288c1.958,0.074,2.534-0.934,2.534-0.934l-0.115,1.498
	c0,0-0.317,1.468-1.987,1.642c-1.382,0.202-2.534-1.469-2.534-1.469l-1.354,1.008c1.008,1.814,2.477,1.901,2.477,1.901
	s2.477,0.72,4.146-0.922C54.93,14.099,54.411,11.565,54.411,11.565z M50.352,11.365c-1.272,0-2.303-1.142-2.303-2.55
	s1.031-2.55,2.303-2.55s2.303,1.142,2.303,2.55S51.624,11.365,50.352,11.365z"/>
<path fill="#FFFFFF" d="M63.166,7.792c0,0-0.374-2.678-3.398-3.176c-2.563-0.136-3.417,1.428-3.571,1.65
	c-1.527,2.045-0.461,4.452-0.461,4.452s0.835,2.23,3.542,2.3c2.333,0.074,3.242-1.652,3.242-1.652l-1.341-0.924
	c0,0-0.403,0.835-1.814,0.924c-1.699,0.084-2.16-1.857-2.16-1.857h5.961C63.367,9.179,63.166,7.792,63.166,7.792z M57.205,8.138
	c0,0,0.304-1.843,2.11-1.872c1.806-0.029,2.094,1.872,2.094,1.872H57.205z"/>
<path fill="#FFFFFF" d="M64.116,2.637h1.757V4.83h1.728v1.609h-1.742v4.118c0,0,0.389,1.152,1.742,0.777c0,0.979,0,1.686,0,1.686
	s-0.431,0.142-1.382,0c-1.67-0.332-2.102-2.376-2.102-2.376V2.637z"/>
<g>
	<path fill="#FFFFFF" d="M2.249,14.415h0.429l1.047,1.769h0.007v-1.769h0.323v2.404H3.711l-1.137-1.927H2.568v1.927H2.249V14.415z"
		/>
	<path fill="#FFFFFF" d="M4.523,14.624c0-0.113,0.096-0.206,0.206-0.206s0.206,0.093,0.206,0.206c0,0.11-0.096,0.199-0.206,0.199
		S4.523,14.734,4.523,14.624z M4.551,16.819v-1.796h0.196c0.137,0,0.154,0.042,0.154,0.268v1.528H4.551z"/>
	<path fill="#FFFFFF" d="M5.259,15.922c0-0.577,0.378-0.927,0.886-0.927c0.278,0,0.436,0.079,0.539,0.144v0.275H6.54
		c-0.076-0.076-0.203-0.148-0.398-0.148c-0.31,0-0.526,0.234-0.526,0.656c0,0.433,0.203,0.649,0.519,0.649
		c0.233,0,0.36-0.089,0.436-0.172h0.13v0.254c-0.103,0.082-0.292,0.185-0.573,0.185C5.582,16.839,5.259,16.493,5.259,15.922z"/>
	<path fill="#FFFFFF" d="M8.052,16.62c-0.134,0.145-0.295,0.22-0.536,0.22c-0.326,0-0.563-0.185-0.563-0.536
		c0-0.368,0.292-0.546,0.697-0.546c0.155,0,0.268,0.018,0.392,0.048v-0.237c0-0.213-0.124-0.306-0.36-0.306
		c-0.213,0-0.378,0.065-0.491,0.148H7.08v-0.261c0.158-0.079,0.357-0.154,0.646-0.154c0.426,0,0.67,0.154,0.67,0.549v1.274H8.258
		C8.121,16.819,8.073,16.781,8.052,16.62z M8.042,16.393v-0.381c-0.1-0.021-0.209-0.034-0.333-0.034
		c-0.24,0-0.412,0.089-0.412,0.306c0,0.223,0.141,0.316,0.333,0.316C7.818,16.599,7.938,16.51,8.042,16.393z"/>
	<path fill="#FFFFFF" d="M9.193,15.507v1.312H8.843v-1.796h0.22c0.086,0,0.124,0.038,0.131,0.248
		c0.12-0.138,0.292-0.265,0.515-0.265c0.041,0,0.076,0.007,0.096,0.014v0.289c0,0-0.065-0.003-0.079-0.003
		C9.482,15.304,9.307,15.407,9.193,15.507z"/>
	<path fill="#FFFFFF" d="M11.062,16.62c-0.134,0.145-0.295,0.22-0.536,0.22c-0.327,0-0.563-0.185-0.563-0.536
		c0-0.368,0.292-0.546,0.697-0.546c0.154,0,0.268,0.018,0.392,0.048v-0.237c0-0.213-0.124-0.306-0.361-0.306
		c-0.213,0-0.378,0.065-0.491,0.148h-0.11v-0.261c0.158-0.079,0.357-0.154,0.646-0.154c0.426,0,0.67,0.154,0.67,0.549v1.274h-0.137
		C11.131,16.819,11.083,16.781,11.062,16.62z M11.052,16.393v-0.381c-0.1-0.021-0.209-0.034-0.333-0.034
		c-0.24,0-0.412,0.089-0.412,0.306c0,0.223,0.141,0.316,0.333,0.316C10.829,16.599,10.949,16.51,11.052,16.393z"/>
	<path fill="#FFFFFF" d="M13.354,16.757c0,0.422-0.327,0.639-0.828,0.639c-0.309,0-0.539-0.065-0.69-0.151V16.98h0.113
		c0.117,0.089,0.302,0.154,0.529,0.154c0.326,0,0.525-0.113,0.525-0.402v-0.192c-0.127,0.134-0.316,0.234-0.553,0.234
		c-0.364,0-0.701-0.241-0.701-0.852c0-0.673,0.378-0.927,0.756-0.927c0.237,0,0.402,0.079,0.522,0.196
		c0.021-0.096,0.069-0.168,0.165-0.168h0.162V16.757z M13.004,16.293v-0.859c-0.11-0.103-0.23-0.158-0.412-0.158
		c-0.237,0-0.488,0.124-0.488,0.618c0,0.481,0.182,0.622,0.439,0.622C12.729,16.517,12.884,16.417,13.004,16.293z"/>
	<path fill="#FFFFFF" d="M14.953,16.396v-1.374h0.35v1.796h-0.22c-0.083,0-0.117-0.027-0.127-0.203
		c-0.179,0.127-0.412,0.227-0.649,0.227c-0.282,0-0.491-0.117-0.491-0.481v-1.339h0.351v1.261c0,0.23,0.113,0.285,0.278,0.285
		C14.626,16.568,14.808,16.482,14.953,16.396z"/>
	<path fill="#FFFFFF" d="M16.764,16.62c-0.134,0.145-0.295,0.22-0.536,0.22c-0.327,0-0.563-0.185-0.563-0.536
		c0-0.368,0.292-0.546,0.697-0.546c0.154,0,0.268,0.018,0.392,0.048v-0.237c0-0.213-0.124-0.306-0.361-0.306
		c-0.213,0-0.378,0.065-0.491,0.148h-0.11v-0.261c0.158-0.079,0.357-0.154,0.646-0.154c0.426,0,0.67,0.154,0.67,0.549v1.274H16.97
		C16.833,16.819,16.784,16.781,16.764,16.62z M16.753,16.393v-0.381c-0.1-0.021-0.209-0.034-0.333-0.034
		c-0.24,0-0.412,0.089-0.412,0.306c0,0.223,0.141,0.316,0.333,0.316C16.53,16.599,16.65,16.51,16.753,16.393z"/>
</g>
</svg>
