<?xml version="1.0" encoding="utf-8"?>
<!-- Generator: Adobe Illustrator 14.0.0, SVG Export Plug-In . SVG Version: 6.00 Build 43363)  -->
<!DOCTYPE svg PUBLIC "-//W3C//DTD SVG 1.1//EN" "http://www.w3.org/Graphics/SVG/1.1/DTD/svg11.dtd">
<svg version="1.1" id="Capa_1" xmlns="http://www.w3.org/2000/svg" xmlns:xlink="http://www.w3.org/1999/xlink" x="0px" y="0px"
	 width="12.265px" height="3.417px" viewBox="0 0 12.265 3.417" enable-background="new 0 0 12.265 3.417" xml:space="preserve">
<path fill="#FFFFFF" stroke="#FFFFFF" stroke-width="0.25" d="M6.953,1.132h0.538C7.454,1.174,7.425,1.213,7.386,1.313L7.113,2.005
	c-0.039,0.101-0.042,0.14-0.037,0.18H6.607c0.036-0.041,0.064-0.08,0.104-0.18l0.256-0.649H6.964L6.346,2.185H6.067l0.044-0.829
	H6.108L5.856,1.997C5.81,2.115,5.806,2.136,5.821,2.185H5.567c0.055-0.049,0.067-0.07,0.115-0.188l0.266-0.675
	c0.046-0.118,0.05-0.14,0.034-0.189h0.553L6.501,1.73h0.004L6.953,1.132z"/>
<path fill="#FFFFFF" stroke="#FFFFFF" stroke-width="0.25" d="M4.58,1.335C4.542,1.318,4.508,1.307,4.43,1.307H4.142
	c-0.053,0-0.085,0.017-0.104,0.067L3.812,1.943c-0.02,0.052,0,0.068,0.053,0.068h0.227c0.162,0,0.192-0.012,0.258-0.039L4.229,2.185
	H3.582c-0.171,0-0.234-0.082-0.145-0.309l0.171-0.434c0.089-0.227,0.217-0.31,0.389-0.31h0.631L4.58,1.335z"/>
<path fill="#FFFFFF" stroke="#FFFFFF" stroke-width="0.25" d="M5.073,1.374c0.02-0.05,0.053-0.067,0.105-0.067h0.174
	c0.053,0,0.072,0.017,0.053,0.067L5.182,1.943C5.16,1.995,5.128,2.011,5.075,2.011H4.9c-0.052,0-0.071-0.016-0.052-0.068
	L5.073,1.374z M4.474,1.876C4.385,2.104,4.447,2.185,4.618,2.185h0.603c0.171,0,0.299-0.082,0.388-0.309L5.78,1.442
	c0.09-0.227,0.026-0.31-0.145-0.31H5.033c-0.171,0-0.299,0.083-0.388,0.31L4.474,1.876z"/>
<path fill="#FFFFFF" stroke="#FFFFFF" stroke-width="0.25" d="M8.596,1.132L8.543,1.35C8.509,1.322,8.484,1.307,8.41,1.307H8.228
	L7.952,2.005c-0.039,0.101-0.041,0.14-0.038,0.18H7.447c0.035-0.041,0.064-0.08,0.104-0.18l0.274-0.698H7.643
	c-0.073,0-0.11,0.015-0.166,0.043l0.119-0.218H8.596z"/>
<path fill="#FFFFFF" stroke="#FFFFFF" stroke-width="0.25" d="M9.122,2.011c0.093,0,0.145-0.015,0.191-0.028L9.197,2.185H8.27
	c0.035-0.041,0.064-0.08,0.104-0.18l0.273-0.691c0.039-0.101,0.042-0.14,0.038-0.181h0.911L9.549,1.335
	C9.512,1.322,9.471,1.307,9.378,1.307H9.05L8.952,1.554h0.287c0.092,0,0.144-0.015,0.192-0.028l-0.091,0.23
	C9.303,1.743,9.263,1.728,9.17,1.728H8.884L8.772,2.011H9.122z"/>
<path fill="#FFFFFF" stroke="#FFFFFF" stroke-width="0.25" d="M10.587,1.335c-0.037-0.017-0.072-0.028-0.15-0.028h-0.287
	c-0.053,0-0.086,0.017-0.105,0.067L9.819,1.943c-0.021,0.052,0,0.068,0.052,0.068h0.228c0.162,0,0.192-0.012,0.257-0.039
	l-0.118,0.213H9.589c-0.172,0-0.234-0.082-0.145-0.309l0.171-0.434c0.09-0.227,0.217-0.31,0.389-0.31h0.632L10.587,1.335z"/>
<path fill="#FFFFFF" stroke="#FFFFFF" stroke-width="0.25" d="M11.321,1.554l0.095-0.24c0.04-0.1,0.042-0.14,0.038-0.18h0.467
	c-0.036,0.041-0.065,0.081-0.104,0.18l-0.272,0.69c-0.04,0.101-0.041,0.14-0.038,0.181H11.04c0.035-0.042,0.063-0.081,0.104-0.181
	l0.109-0.276h-0.299l-0.109,0.276c-0.04,0.101-0.042,0.14-0.039,0.181H10.34c0.036-0.042,0.064-0.081,0.104-0.181l0.272-0.69
	c0.04-0.1,0.042-0.14,0.038-0.18h0.467c-0.036,0.041-0.064,0.081-0.104,0.18l-0.095,0.24H11.321z"/>
<polygon fill="#FFFFFF" stroke="#FFFFFF" stroke-width="0.25" points="1.894,2.963 1.159,2.963 1.464,2.344 2.199,2.344 "/>
<polygon fill="#FFFFFF" stroke="#FFFFFF" stroke-width="0.25" points="2.604,2.346 2.2,2.346 2.368,2.005 2.772,2.005 "/>
<polygon fill="#FFFFFF" stroke="#FFFFFF" stroke-width="0.25" points="1.465,2.345 0.555,2.345 0.933,1.578 1.844,1.578 "/>
<polygon fill="#FFFFFF" stroke="#FFFFFF" stroke-width="0.25" points="3.182,1.577 1.847,1.577 2.4,0.453 3.734,0.453 "/>
<polygon fill="#FFFFFF" points="6.483,2.694 6.413,2.694 6.413,2.451 6.316,2.451 6.316,2.406 6.58,2.406 6.58,2.451 6.483,2.451 
	"/>
<path fill="#FFFFFF" d="M6.746,2.699c-0.049,0-0.086-0.015-0.113-0.043c-0.026-0.028-0.04-0.064-0.04-0.106s0.015-0.077,0.043-0.105
	s0.066-0.042,0.113-0.042S6.833,2.416,6.86,2.444S6.901,2.508,6.901,2.55c0,0.044-0.015,0.081-0.043,0.108S6.793,2.699,6.746,2.699
	 M6.746,2.657c0.023,0,0.044-0.008,0.06-0.023C6.822,2.618,6.83,2.59,6.83,2.55c0-0.033-0.007-0.059-0.02-0.078
	C6.797,2.453,6.775,2.444,6.748,2.444c-0.057,0-0.085,0.036-0.085,0.107c0,0.035,0.008,0.062,0.021,0.079
	C6.699,2.648,6.72,2.657,6.746,2.657"/>
<path fill="#FFFFFF" d="M6.96,2.694V2.406h0.134c0.05,0,0.089,0.014,0.119,0.042c0.03,0.028,0.045,0.062,0.045,0.103
	S7.242,2.625,7.212,2.653C7.181,2.68,7.137,2.694,7.079,2.694H6.96z M7.027,2.652h0.055c0.029,0,0.054-0.009,0.074-0.026
	c0.021-0.017,0.03-0.043,0.03-0.078c0-0.028-0.009-0.052-0.026-0.071S7.119,2.447,7.09,2.447H7.027V2.652z"/>
<path fill="#FFFFFF" d="M7.452,2.699c-0.049,0-0.086-0.015-0.112-0.043C7.313,2.627,7.299,2.591,7.299,2.549
	s0.015-0.077,0.043-0.105s0.066-0.042,0.113-0.042S7.54,2.416,7.567,2.444S7.608,2.508,7.608,2.55c0,0.044-0.015,0.081-0.043,0.108
	S7.499,2.699,7.452,2.699 M7.453,2.657c0.023,0,0.043-0.008,0.06-0.023C7.529,2.618,7.537,2.59,7.537,2.55
	c0-0.033-0.007-0.059-0.021-0.078C7.503,2.453,7.482,2.444,7.454,2.444c-0.056,0-0.084,0.036-0.084,0.107
	c0,0.035,0.007,0.062,0.021,0.079C7.405,2.648,7.426,2.657,7.453,2.657"/>
<polygon fill="#FFFFFF" points="8.041,2.694 7.805,2.694 7.805,2.406 8.038,2.406 8.038,2.449 7.87,2.449 7.87,2.527 8.005,2.527 
	8.005,2.569 7.87,2.569 7.87,2.649 8.041,2.649 "/>
<path fill="#FFFFFF" d="M8.371,2.694H8.308L8.17,2.51C8.167,2.508,8.164,2.503,8.159,2.497c-0.002-0.003-0.005-0.007-0.01-0.013
	v0.21H8.097V2.406h0.072l0.127,0.17c0.001,0.001,0.009,0.011,0.023,0.031V2.406h0.052V2.694z"/>
<polygon fill="#FFFFFF" points="8.713,2.694 8.644,2.694 8.644,2.451 8.547,2.451 8.547,2.406 8.81,2.406 8.81,2.451 8.713,2.451 
	"/>
<polygon fill="#FFFFFF" points="9.085,2.694 8.85,2.694 8.85,2.406 9.083,2.406 9.083,2.449 8.915,2.449 8.915,2.527 9.05,2.527 
	9.05,2.569 8.915,2.569 8.915,2.649 9.085,2.649 "/>
<path fill="#FFFFFF" d="M9.344,2.594L9.405,2.6C9.401,2.628,9.387,2.652,9.363,2.67C9.339,2.689,9.307,2.699,9.268,2.699
	c-0.033,0-0.06-0.007-0.081-0.02C9.166,2.666,9.15,2.647,9.14,2.625C9.128,2.602,9.122,2.577,9.122,2.55
	c0-0.044,0.014-0.08,0.04-0.107s0.062-0.042,0.108-0.042c0.035,0,0.065,0.009,0.089,0.026c0.024,0.018,0.04,0.043,0.046,0.076
	L9.344,2.509C9.333,2.465,9.309,2.444,9.271,2.444c-0.024,0-0.044,0.009-0.057,0.027C9.2,2.489,9.193,2.515,9.193,2.549
	c0,0.035,0.007,0.061,0.021,0.079c0.015,0.018,0.034,0.026,0.058,0.026c0.02,0,0.036-0.006,0.049-0.018
	C9.335,2.625,9.343,2.611,9.344,2.594"/>
<path fill="#FFFFFF" d="M9.73,2.694H9.667L9.529,2.51C9.527,2.508,9.524,2.503,9.52,2.497C9.518,2.494,9.514,2.489,9.51,2.483v0.21
	H9.457V2.406h0.072l0.127,0.17c0.001,0.001,0.009,0.011,0.022,0.031V2.406H9.73V2.694z"/>
<path fill="#FFFFFF" d="M9.944,2.699c-0.048,0-0.086-0.015-0.112-0.043C9.805,2.627,9.791,2.591,9.791,2.549
	s0.015-0.077,0.043-0.105S9.9,2.402,9.947,2.402s0.084,0.014,0.111,0.042S10.1,2.508,10.1,2.55c0,0.044-0.014,0.081-0.042,0.108
	C10.028,2.685,9.991,2.699,9.944,2.699 M9.944,2.657c0.023,0,0.044-0.008,0.061-0.023c0.016-0.016,0.024-0.043,0.024-0.084
	c0-0.033-0.007-0.059-0.021-0.078C9.995,2.453,9.975,2.444,9.946,2.444c-0.057,0-0.084,0.036-0.084,0.107
	c0,0.035,0.007,0.062,0.021,0.079C9.897,2.648,9.918,2.657,9.944,2.657"/>
<polygon fill="#FFFFFF" points="10.384,2.694 10.16,2.694 10.16,2.406 10.229,2.406 10.229,2.647 10.384,2.647 "/>
<path fill="#FFFFFF" d="M10.556,2.699c-0.048,0-0.086-0.015-0.112-0.043c-0.027-0.028-0.04-0.064-0.04-0.106
	s0.014-0.077,0.043-0.105c0.028-0.028,0.065-0.042,0.112-0.042s0.085,0.014,0.112,0.042s0.041,0.063,0.041,0.105
	c0,0.044-0.015,0.081-0.043,0.108S10.603,2.699,10.556,2.699 M10.557,2.657c0.023,0,0.043-0.008,0.06-0.023
	c0.017-0.016,0.024-0.043,0.024-0.084c0-0.033-0.007-0.059-0.021-0.078c-0.013-0.019-0.034-0.028-0.062-0.028
	c-0.056,0-0.084,0.036-0.084,0.107c0,0.035,0.007,0.062,0.021,0.079C10.509,2.648,10.529,2.657,10.557,2.657"/>
<path fill="#FFFFFF" d="M11.048,2.547v0.147h-0.029l-0.02-0.039c-0.021,0.029-0.054,0.043-0.099,0.043
	c-0.049,0-0.086-0.015-0.11-0.045s-0.036-0.064-0.036-0.104c0-0.042,0.013-0.077,0.04-0.105c0.027-0.028,0.065-0.043,0.114-0.043
	c0.037,0,0.066,0.008,0.09,0.025c0.024,0.017,0.039,0.038,0.045,0.062l-0.057,0.008c-0.011-0.035-0.036-0.053-0.076-0.053
	c-0.026,0-0.047,0.008-0.063,0.025c-0.016,0.017-0.024,0.042-0.024,0.076c0,0.073,0.029,0.109,0.087,0.109
	c0.022,0,0.041-0.006,0.056-0.018c0.014-0.012,0.021-0.028,0.021-0.048h-0.075V2.547H11.048z"/>
<path fill="#FFFFFF" d="M11.226,2.315l0.018,0.031l-0.111,0.037l-0.011-0.022L11.226,2.315z M11.188,2.694h-0.065V2.406h0.065V2.694
	z"/>
<path fill="#FFFFFF" d="M11.552,2.694h-0.07l-0.029-0.068h-0.139l-0.029,0.068h-0.056l0.121-0.288h0.08L11.552,2.694z M11.436,2.584
	l-0.054-0.128l-0.053,0.128H11.436z"/>
<path fill="#004C99" d="M6.89,1.132h0.538C7.391,1.174,7.361,1.213,7.322,1.313L7.05,2.005c-0.039,0.101-0.042,0.14-0.036,0.18
	h-0.47c0.036-0.041,0.064-0.08,0.104-0.18l0.256-0.649H6.9L6.282,2.185H6.004l0.044-0.829H6.045L5.793,1.997
	C5.746,2.115,5.742,2.136,5.758,2.185H5.504c0.055-0.049,0.067-0.07,0.115-0.188l0.266-0.675c0.046-0.118,0.05-0.14,0.034-0.189
	h0.553L6.438,1.73h0.004L6.89,1.132z"/>
<path fill="#004C99" d="M4.517,1.335c-0.038-0.017-0.073-0.028-0.15-0.028H4.078c-0.052,0-0.085,0.017-0.104,0.067L3.748,1.943
	c-0.02,0.052,0,0.068,0.053,0.068h0.228C4.189,2.011,4.22,2,4.285,1.972L4.166,2.185H3.519c-0.171,0-0.234-0.082-0.145-0.309
	l0.171-0.434c0.089-0.227,0.217-0.31,0.389-0.31h0.631L4.517,1.335z"/>
<path fill="#004C99" d="M5.01,1.374c0.02-0.05,0.053-0.067,0.105-0.067h0.174c0.053,0,0.072,0.017,0.053,0.067L5.118,1.943
	C5.097,1.995,5.064,2.011,5.012,2.011H4.837c-0.053,0-0.071-0.016-0.052-0.068L5.01,1.374z M4.41,1.876
	C4.321,2.104,4.384,2.185,4.555,2.185h0.603c0.171,0,0.299-0.082,0.388-0.309l0.172-0.434c0.09-0.227,0.026-0.31-0.145-0.31H4.97
	c-0.171,0-0.299,0.083-0.388,0.31L4.41,1.876z"/>
<path fill="#004C99" d="M8.532,1.132L8.479,1.35C8.445,1.322,8.421,1.307,8.347,1.307H8.164L7.889,2.005
	c-0.039,0.101-0.041,0.14-0.038,0.18H7.384c0.035-0.041,0.064-0.08,0.104-0.18l0.274-0.698H7.579c-0.073,0-0.11,0.015-0.165,0.043
	l0.118-0.218H8.532z"/>
<path fill="#004C99" d="M9.059,2.011c0.093,0,0.145-0.015,0.191-0.028L9.134,2.185H8.206c0.035-0.041,0.065-0.08,0.104-0.18
	l0.272-0.691c0.04-0.101,0.043-0.14,0.039-0.181h0.911L9.485,1.335C9.448,1.322,9.407,1.307,9.314,1.307H8.986L8.889,1.554h0.287
	c0.092,0,0.144-0.015,0.192-0.028l-0.091,0.23c-0.038-0.013-0.078-0.028-0.17-0.028H8.82L8.709,2.011H9.059z"/>
<path fill="#004C99" d="M10.523,1.335c-0.037-0.017-0.072-0.028-0.15-0.028h-0.287c-0.053,0-0.086,0.017-0.105,0.067L9.756,1.943
	c-0.021,0.052,0,0.068,0.052,0.068h0.228c0.162,0,0.192-0.012,0.257-0.039l-0.118,0.213H9.525c-0.172,0-0.234-0.082-0.145-0.309
	l0.171-0.434c0.09-0.227,0.217-0.31,0.389-0.31h0.632L10.523,1.335z"/>
<path fill="#004C99" d="M11.258,1.554l0.096-0.24c0.039-0.1,0.041-0.14,0.037-0.18h0.467c-0.036,0.041-0.064,0.081-0.104,0.18
	l-0.271,0.69c-0.041,0.101-0.042,0.14-0.039,0.181h-0.466c0.035-0.042,0.063-0.081,0.104-0.181l0.109-0.276h-0.299l-0.109,0.276
	c-0.04,0.101-0.042,0.14-0.038,0.181h-0.468c0.037-0.042,0.065-0.081,0.104-0.181l0.272-0.69c0.04-0.1,0.042-0.14,0.038-0.18h0.467
	c-0.036,0.041-0.064,0.081-0.104,0.18l-0.095,0.24H11.258z"/>
<polygon fill="#E5352C" points="1.83,2.963 1.096,2.963 1.4,2.344 2.136,2.344 "/>
<polygon fill="#E5352C" points="2.541,2.346 2.138,2.346 2.305,2.005 2.709,2.005 "/>
<polygon fill="#E5352C" points="1.401,2.345 0.492,2.345 0.869,1.578 1.78,1.578 "/>
<polygon fill="#E5352C" points="3.118,1.577 1.783,1.577 2.337,0.453 3.671,0.453 "/>
<polygon fill="#004C99" points="6.42,2.694 6.35,2.694 6.35,2.451 6.253,2.451 6.253,2.406 6.517,2.406 6.517,2.451 6.42,2.451 "/>
<path fill="#004C99" d="M6.682,2.699c-0.048,0-0.085-0.015-0.112-0.043c-0.026-0.028-0.04-0.064-0.04-0.106s0.015-0.077,0.043-0.105
	s0.066-0.042,0.113-0.042S6.77,2.416,6.797,2.444S6.838,2.508,6.838,2.55c0,0.044-0.014,0.081-0.043,0.108
	C6.767,2.685,6.729,2.699,6.682,2.699 M6.683,2.657c0.023,0,0.044-0.008,0.06-0.023C6.759,2.618,6.767,2.59,6.767,2.55
	c0-0.033-0.007-0.059-0.02-0.078C6.733,2.453,6.712,2.444,6.684,2.444c-0.056,0-0.083,0.036-0.083,0.107
	c0,0.035,0.007,0.062,0.021,0.079C6.636,2.648,6.656,2.657,6.683,2.657"/>
<path fill="#004C99" d="M6.896,2.694V2.406H7.03c0.05,0,0.09,0.014,0.119,0.042C7.18,2.476,7.194,2.51,7.194,2.551
	S7.179,2.625,7.148,2.653C7.117,2.68,7.073,2.694,7.016,2.694H6.896z M6.964,2.652h0.055c0.029,0,0.054-0.009,0.074-0.026
	c0.021-0.017,0.031-0.043,0.031-0.078c0-0.028-0.01-0.052-0.027-0.071s-0.041-0.029-0.07-0.029H6.964V2.652z"/>
<path fill="#004C99" d="M7.389,2.699c-0.048,0-0.086-0.015-0.112-0.043c-0.026-0.028-0.04-0.064-0.04-0.106S7.25,2.473,7.278,2.444
	c0.029-0.028,0.066-0.042,0.113-0.042s0.085,0.014,0.112,0.042C7.53,2.473,7.545,2.508,7.545,2.55c0,0.044-0.015,0.081-0.043,0.108
	S7.436,2.699,7.389,2.699 M7.39,2.657c0.023,0,0.043-0.008,0.06-0.023C7.465,2.618,7.474,2.59,7.474,2.55
	c0-0.033-0.007-0.059-0.021-0.078C7.439,2.453,7.419,2.444,7.391,2.444c-0.056,0-0.084,0.036-0.084,0.107
	c0,0.035,0.007,0.062,0.021,0.079C7.342,2.648,7.362,2.657,7.39,2.657"/>
<polygon fill="#004C99" points="7.978,2.694 7.741,2.694 7.741,2.406 7.975,2.406 7.975,2.449 7.807,2.449 7.807,2.527 7.941,2.527 
	7.941,2.569 7.807,2.569 7.807,2.649 7.978,2.649 "/>
<path fill="#004C99" d="M8.308,2.694H8.244L8.105,2.51c-0.002-0.002-0.005-0.007-0.01-0.014c-0.002-0.003-0.005-0.007-0.01-0.013
	v0.21H8.033V2.406h0.072l0.127,0.17c0.001,0.001,0.009,0.011,0.023,0.031V2.406h0.052V2.694z"/>
<polygon fill="#004C99" points="8.65,2.694 8.58,2.694 8.58,2.451 8.483,2.451 8.483,2.406 8.746,2.406 8.746,2.451 8.65,2.451 "/>
<polygon fill="#004C99" points="9.021,2.694 8.786,2.694 8.786,2.406 9.02,2.406 9.02,2.449 8.852,2.449 8.852,2.527 8.986,2.527 
	8.986,2.569 8.852,2.569 8.852,2.649 9.021,2.649 "/>
<path fill="#004C99" d="M9.281,2.594L9.342,2.6C9.338,2.628,9.323,2.652,9.3,2.67C9.275,2.689,9.243,2.699,9.204,2.699
	c-0.033,0-0.06-0.007-0.081-0.02C9.103,2.666,9.087,2.647,9.076,2.625C9.064,2.602,9.059,2.577,9.059,2.55
	c0-0.044,0.014-0.08,0.04-0.107S9.16,2.402,9.207,2.402c0.035,0,0.065,0.009,0.09,0.026C9.32,2.446,9.336,2.471,9.342,2.504
	L9.281,2.509C9.27,2.465,9.245,2.444,9.207,2.444c-0.024,0-0.044,0.009-0.057,0.027C9.137,2.489,9.13,2.515,9.13,2.549
	c0,0.035,0.007,0.061,0.021,0.079c0.015,0.018,0.034,0.026,0.058,0.026c0.02,0,0.036-0.006,0.049-0.018
	C9.271,2.625,9.279,2.611,9.281,2.594"/>
<path fill="#004C99" d="M9.667,2.694H9.604L9.467,2.51C9.464,2.508,9.461,2.503,9.456,2.497C9.454,2.494,9.45,2.489,9.446,2.483
	v0.21H9.394V2.406h0.072l0.127,0.17c0.001,0.001,0.009,0.011,0.023,0.031V2.406h0.051V2.694z"/>
<path fill="#004C99" d="M9.881,2.699c-0.048,0-0.086-0.015-0.112-0.043C9.741,2.627,9.728,2.591,9.728,2.549
	s0.015-0.077,0.043-0.105s0.066-0.042,0.113-0.042s0.084,0.014,0.111,0.042s0.041,0.063,0.041,0.105
	c0,0.044-0.014,0.081-0.042,0.108C9.965,2.685,9.928,2.699,9.881,2.699 M9.881,2.657c0.024,0,0.044-0.008,0.061-0.023
	C9.957,2.618,9.966,2.59,9.966,2.55c0-0.033-0.007-0.059-0.021-0.078C9.932,2.453,9.911,2.444,9.883,2.444
	c-0.057,0-0.084,0.036-0.084,0.107c0,0.035,0.007,0.062,0.021,0.079C9.834,2.648,9.854,2.657,9.881,2.657"/>
<polygon fill="#004C99" points="10.32,2.694 10.097,2.694 10.097,2.406 10.166,2.406 10.166,2.647 10.32,2.647 "/>
<path fill="#004C99" d="M10.492,2.699c-0.048,0-0.086-0.015-0.112-0.043c-0.027-0.028-0.04-0.064-0.04-0.106
	s0.014-0.077,0.043-0.105c0.028-0.028,0.065-0.042,0.112-0.042c0.048,0,0.085,0.014,0.112,0.042s0.041,0.063,0.041,0.105
	c0,0.044-0.015,0.081-0.043,0.108S10.539,2.699,10.492,2.699 M10.493,2.657c0.023,0,0.043-0.008,0.06-0.023
	c0.016-0.016,0.024-0.043,0.024-0.084c0-0.033-0.007-0.059-0.021-0.078c-0.013-0.019-0.034-0.028-0.062-0.028
	c-0.056,0-0.084,0.036-0.084,0.107c0,0.035,0.007,0.062,0.021,0.079C10.446,2.648,10.466,2.657,10.493,2.657"/>
<path fill="#004C99" d="M10.984,2.547v0.147h-0.029l-0.02-0.039c-0.021,0.029-0.054,0.043-0.099,0.043
	c-0.049,0-0.086-0.015-0.11-0.045S10.69,2.589,10.69,2.55c0-0.042,0.013-0.077,0.04-0.105c0.027-0.028,0.065-0.043,0.114-0.043
	c0.037,0,0.066,0.008,0.091,0.025c0.023,0.017,0.038,0.038,0.044,0.062l-0.057,0.008c-0.011-0.035-0.036-0.053-0.076-0.053
	c-0.025,0-0.047,0.008-0.063,0.025c-0.016,0.017-0.023,0.042-0.023,0.076c0,0.073,0.028,0.109,0.086,0.109
	c0.022,0,0.041-0.006,0.056-0.018c0.014-0.012,0.021-0.028,0.021-0.048h-0.075V2.547H10.984z"/>
<path fill="#004C99" d="M11.162,2.315l0.018,0.031l-0.111,0.037l-0.011-0.022L11.162,2.315z M11.124,2.694h-0.065V2.406h0.065V2.694
	z"/>
<path fill="#004C99" d="M11.488,2.694h-0.07l-0.029-0.068H11.25l-0.029,0.068h-0.056l0.121-0.288h0.08L11.488,2.694z M11.371,2.584
	l-0.053-0.128l-0.053,0.128H11.371z"/>
</svg>
