<?xml version="1.0" encoding="utf-8"?>
<!-- Generator: Adobe Illustrator 14.0.0, SVG Export Plug-In . SVG Version: 6.00 Build 43363)  -->
<!DOCTYPE svg PUBLIC "-//W3C//DTD SVG 1.1//EN" "http://www.w3.org/Graphics/SVG/1.1/DTD/svg11.dtd">
<svg version="1.1" id="Capa_1" xmlns="http://www.w3.org/2000/svg" xmlns:xlink="http://www.w3.org/1999/xlink" x="0px" y="0px"
	 width="8.256px" height="7.375px" viewBox="0 0 8.256 7.375" enable-background="new 0 0 8.256 7.375" xml:space="preserve">
<rect x="0.442" y="0.5" width="7.61" height="1.084"/>
<rect x="0.442" y="1.583" fill="#FAE247" width="7.61" height="1.835"/>
<g>
	<linearGradient id="SVGID_1_" gradientUnits="userSpaceOnUse" x1="1.2173" y1="4.2441" x2="1.7417" y2="4.2441">
		<stop  offset="0.1227" style="stop-color:#FF80A3"/>
		<stop  offset="0.3434" style="stop-color:#FB72A5"/>
		<stop  offset="0.7568" style="stop-color:#EF4EAC"/>
		<stop  offset="1" style="stop-color:#E736B0"/>
	</linearGradient>
	<path fill="url(#SVGID_1_)" d="M1.217,3.785H1.34v0.819h0.401v0.1H1.217V3.785z"/>
	<linearGradient id="SVGID_2_" gradientUnits="userSpaceOnUse" x1="1.7671" y1="4.2441" x2="2.5396" y2="4.2441">
		<stop  offset="0.1227" style="stop-color:#FF80A3"/>
		<stop  offset="0.3434" style="stop-color:#FB72A5"/>
		<stop  offset="0.7568" style="stop-color:#EF4EAC"/>
		<stop  offset="1" style="stop-color:#E736B0"/>
	</linearGradient>
	<path fill="url(#SVGID_2_)" d="M2.54,4.663c-0.054,0.021-0.163,0.05-0.29,0.05c-0.142,0-0.259-0.035-0.352-0.121
		C1.817,4.516,1.767,4.393,1.767,4.25c0-0.274,0.194-0.475,0.509-0.475c0.109,0,0.195,0.023,0.236,0.042L2.481,3.914
		c-0.05-0.023-0.113-0.04-0.208-0.04c-0.229,0-0.378,0.139-0.378,0.37c0,0.233,0.142,0.371,0.362,0.371
		c0.08,0,0.134-0.011,0.162-0.025V4.316H2.23V4.221h0.31V4.663z"/>
</g>
<g>
	<linearGradient id="SVGID_3_" gradientUnits="userSpaceOnUse" x1="3.0073" y1="4.2651" x2="3.499" y2="4.2651">
		<stop  offset="0.1227" style="stop-color:#FF80A3"/>
		<stop  offset="0.3434" style="stop-color:#FB72A5"/>
		<stop  offset="0.7568" style="stop-color:#EF4EAC"/>
		<stop  offset="1" style="stop-color:#E736B0"/>
	</linearGradient>
	<path fill="url(#SVGID_3_)" d="M3.035,4.58C3.083,4.614,3.15,4.64,3.222,4.64c0.108,0,0.17-0.064,0.17-0.157
		c0-0.085-0.043-0.135-0.153-0.182C3.106,4.247,3.024,4.168,3.024,4.04c0-0.143,0.105-0.25,0.263-0.25
		c0.082,0,0.144,0.022,0.179,0.045L3.438,3.932c-0.025-0.018-0.08-0.043-0.153-0.043c-0.111,0-0.153,0.075-0.153,0.138
		c0,0.086,0.049,0.128,0.162,0.177c0.138,0.06,0.207,0.135,0.207,0.27c0,0.142-0.092,0.266-0.284,0.266
		c-0.079,0-0.165-0.027-0.208-0.06L3.035,4.58z"/>
	<linearGradient id="SVGID_4_" gradientUnits="userSpaceOnUse" x1="3.6353" y1="4.3877" x2="4.4761" y2="4.3877">
		<stop  offset="0.1227" style="stop-color:#FF80A3"/>
		<stop  offset="0.3434" style="stop-color:#FB72A5"/>
		<stop  offset="0.7568" style="stop-color:#EF4EAC"/>
		<stop  offset="1" style="stop-color:#E736B0"/>
	</linearGradient>
	<path fill="url(#SVGID_4_)" d="M3.64,4.243c0-0.069-0.002-0.124-0.005-0.179h0.093l0.005,0.108h0.003
		C3.77,4.109,3.824,4.051,3.921,4.051c0.079,0,0.139,0.055,0.165,0.132h0.002C4.106,4.145,4.13,4.118,4.155,4.097
		c0.035-0.03,0.072-0.046,0.128-0.046c0.079,0,0.193,0.058,0.193,0.287v0.387H4.372V4.353c0-0.128-0.042-0.204-0.127-0.204
		c-0.062,0-0.107,0.051-0.126,0.108C4.114,4.274,4.11,4.295,4.11,4.317v0.408H4.006V4.329c0-0.105-0.042-0.18-0.122-0.18
		c-0.065,0-0.115,0.06-0.132,0.12C3.747,4.286,3.744,4.308,3.744,4.328v0.397H3.64V4.243z"/>
	<linearGradient id="SVGID_5_" gradientUnits="userSpaceOnUse" x1="4.6016" y1="4.3955" x2="5.0664" y2="4.3955">
		<stop  offset="0.1227" style="stop-color:#FF80A3"/>
		<stop  offset="0.3434" style="stop-color:#FB72A5"/>
		<stop  offset="0.7568" style="stop-color:#EF4EAC"/>
		<stop  offset="1" style="stop-color:#E736B0"/>
	</linearGradient>
	<path fill="url(#SVGID_5_)" d="M5.058,4.566c0,0.057,0.002,0.113,0.008,0.158H4.971L4.962,4.641H4.959
		C4.926,4.693,4.863,4.74,4.78,4.74c-0.118,0-0.179-0.094-0.179-0.19c0-0.159,0.125-0.247,0.351-0.245V4.291
		c0-0.053-0.013-0.153-0.133-0.151c-0.055,0-0.112,0.018-0.153,0.049l-0.024-0.08c0.048-0.034,0.12-0.058,0.193-0.058
		c0.179,0,0.223,0.138,0.223,0.269V4.566z M4.955,4.388C4.839,4.385,4.708,4.408,4.708,4.536c0,0.079,0.046,0.115,0.099,0.115
		c0.078,0,0.127-0.055,0.144-0.11c0.003-0.014,0.004-0.027,0.004-0.039V4.388z"/>
	<linearGradient id="SVGID_6_" gradientUnits="userSpaceOnUse" x1="5.2246" y1="4.3877" x2="5.5181" y2="4.3877">
		<stop  offset="0.1227" style="stop-color:#FF80A3"/>
		<stop  offset="0.3434" style="stop-color:#FB72A5"/>
		<stop  offset="0.7568" style="stop-color:#EF4EAC"/>
		<stop  offset="1" style="stop-color:#E736B0"/>
	</linearGradient>
	<path fill="url(#SVGID_6_)" d="M5.229,4.271c0-0.078-0.001-0.145-0.005-0.206h0.093l0.005,0.131h0.003
		c0.027-0.088,0.092-0.145,0.164-0.145c0.011,0,0.019,0.001,0.029,0.003v0.113C5.507,4.164,5.496,4.164,5.482,4.164
		c-0.075,0-0.128,0.063-0.143,0.153C5.337,4.333,5.336,4.354,5.336,4.373v0.352H5.229V4.271z"/>
	<linearGradient id="SVGID_7_" gradientUnits="userSpaceOnUse" x1="5.5869" y1="4.3232" x2="5.9331" y2="4.3232">
		<stop  offset="0.1227" style="stop-color:#FF80A3"/>
		<stop  offset="0.3434" style="stop-color:#FB72A5"/>
		<stop  offset="0.7568" style="stop-color:#EF4EAC"/>
		<stop  offset="1" style="stop-color:#E736B0"/>
	</linearGradient>
	<path fill="url(#SVGID_7_)" d="M5.781,3.906v0.158h0.152v0.091H5.781v0.356c0,0.082,0.021,0.128,0.08,0.128
		c0.029,0,0.046-0.003,0.062-0.008l0.005,0.091C5.907,4.731,5.874,4.74,5.833,4.74c-0.049,0-0.089-0.02-0.115-0.051
		C5.689,4.652,5.677,4.594,5.677,4.516v-0.36h-0.09V4.064h0.09V3.942L5.781,3.906z"/>
</g>
<g>
	<path d="M3.788,5.438h0.06v0.406h0.194v0.049H3.788V5.438z"/>
	<path d="M4.342,5.68H4.166v0.164h0.197v0.049H4.106V5.438h0.246v0.049H4.166v0.144h0.176V5.68z"/>
	<path d="M4.439,5.445c0.036-0.006,0.078-0.01,0.125-0.01c0.084,0,0.145,0.021,0.184,0.057c0.042,0.037,0.065,0.09,0.065,0.164
		c0,0.074-0.023,0.135-0.065,0.177C4.704,5.875,4.634,5.898,4.545,5.898c-0.042,0-0.077-0.002-0.106-0.006V5.445z M4.498,5.848
		c0.015,0.002,0.037,0.003,0.06,0.003c0.126,0,0.193-0.07,0.193-0.193c0-0.107-0.06-0.176-0.184-0.176
		c-0.03,0-0.053,0.003-0.069,0.006V5.848z"/>
	<path d="M4.825,5.978c0.015-0.041,0.033-0.113,0.041-0.162l0.066-0.007C4.915,5.866,4.885,5.941,4.867,5.973L4.825,5.978z"/>
	<path d="M5.147,5.438h0.245v0.049H5.207v0.151h0.171v0.048H5.207v0.206h-0.06V5.438z"/>
	<path d="M5.535,5.438v0.27c0,0.102,0.045,0.145,0.106,0.145c0.067,0,0.111-0.044,0.111-0.145v-0.27h0.059v0.266
		c0,0.14-0.073,0.197-0.172,0.197c-0.093,0-0.163-0.053-0.163-0.195V5.438H5.535z"/>
	<path d="M5.912,5.438h0.059v0.406h0.194v0.049H5.912V5.438z"/>
	<path d="M6.23,5.438h0.06v0.406h0.194v0.049H6.23V5.438z"/>
	<path d="M6.751,5.438v0.19h0.22v-0.19h0.06v0.455h-0.06V5.68h-0.22v0.213h-0.06V5.438H6.751z"/>
	<path d="M7.132,5.445c0.036-0.006,0.078-0.01,0.125-0.01c0.084,0,0.144,0.021,0.184,0.057c0.041,0.037,0.064,0.09,0.064,0.164
		c0,0.074-0.023,0.135-0.065,0.177C7.397,5.875,7.327,5.898,7.238,5.898c-0.042,0-0.077-0.002-0.106-0.006V5.445z M7.19,5.848
		C7.206,5.85,7.227,5.851,7.25,5.851c0.126,0,0.193-0.07,0.193-0.193c0-0.107-0.06-0.176-0.184-0.176
		c-0.03,0-0.053,0.003-0.069,0.006V5.848z"/>
	<path d="M4.63,6.114v0.19h0.22v-0.19h0.06v0.455H4.85V6.356H4.63v0.213h-0.06V6.114H4.63z"/>
	<path d="M5.012,6.121c0.036-0.006,0.078-0.01,0.125-0.01c0.084,0,0.145,0.02,0.184,0.057c0.041,0.037,0.065,0.09,0.065,0.164
		c0,0.074-0.024,0.135-0.065,0.177C5.277,6.551,5.207,6.574,5.118,6.574c-0.042,0-0.077-0.002-0.106-0.006V6.121z M5.07,6.523
		c0.015,0.002,0.036,0.003,0.059,0.003c0.126,0,0.194-0.07,0.194-0.193c0-0.107-0.06-0.176-0.184-0.176
		c-0.031,0-0.053,0.003-0.069,0.006V6.523z"/>
	<path d="M5.844,6.369C5.84,6.306,5.836,6.229,5.836,6.173H5.835c-0.016,0.053-0.034,0.11-0.057,0.173L5.697,6.567H5.653L5.579,6.35
		C5.557,6.285,5.54,6.227,5.527,6.173H5.525C5.524,6.229,5.521,6.305,5.517,6.374L5.504,6.569H5.449L5.48,6.114h0.075l0.078,0.22
		C5.651,6.391,5.667,6.44,5.679,6.488H5.68c0.012-0.046,0.028-0.096,0.049-0.153l0.081-0.22h0.075l0.028,0.455H5.854L5.844,6.369z"
		/>
	<path d="M6.062,6.114v0.455H6.002V6.114H6.062z"/>
	<path d="M6.124,6.653C6.138,6.613,6.157,6.54,6.164,6.491L6.23,6.484C6.214,6.542,6.185,6.617,6.166,6.648L6.124,6.653z"/>
	<path d="M6.505,6.114v0.27c0,0.102,0.045,0.145,0.106,0.145c0.067,0,0.11-0.044,0.11-0.145v-0.27h0.06V6.38
		c0,0.14-0.074,0.197-0.172,0.197c-0.093,0-0.164-0.053-0.164-0.195V6.114H6.505z"/>
	<path d="M6.875,6.498C6.902,6.515,6.939,6.527,6.98,6.527c0.06,0,0.095-0.032,0.095-0.078c0-0.042-0.024-0.067-0.085-0.09
		C6.916,6.333,6.87,6.294,6.87,6.23c0-0.071,0.059-0.124,0.147-0.124c0.046,0,0.08,0.011,0.1,0.022L7.1,6.177
		C7.086,6.168,7.056,6.155,7.015,6.155c-0.062,0-0.086,0.037-0.086,0.068c0,0.042,0.028,0.063,0.09,0.088
		c0.077,0.03,0.116,0.067,0.116,0.134c0,0.07-0.051,0.132-0.159,0.132c-0.044,0-0.092-0.014-0.116-0.03L6.875,6.498z"/>
	<path d="M7.215,6.121c0.026-0.006,0.067-0.01,0.107-0.01c0.059,0,0.097,0.01,0.124,0.033c0.024,0.017,0.039,0.044,0.039,0.08
		c0,0.044-0.03,0.083-0.077,0.1v0.002c0.043,0.01,0.094,0.046,0.094,0.114c0,0.039-0.016,0.069-0.04,0.091
		C7.432,6.56,7.381,6.574,7.307,6.574c-0.041,0-0.072-0.003-0.091-0.006V6.121z M7.274,6.308h0.053c0.061,0,0.098-0.033,0.098-0.077
		c0-0.053-0.04-0.074-0.099-0.074c-0.027,0-0.042,0.002-0.052,0.004V6.308z M7.274,6.525c0.012,0.002,0.028,0.002,0.049,0.002
		c0.061,0,0.117-0.022,0.117-0.088c0-0.062-0.053-0.088-0.117-0.088H7.274V6.525z"/>
</g>
<linearGradient id="SVGID_8_" gradientUnits="userSpaceOnUse" x1="6.1719" y1="4.2354" x2="7.6133" y2="4.2354">
	<stop  offset="0.1227" style="stop-color:#FF80A3"/>
	<stop  offset="0.3434" style="stop-color:#FB72A5"/>
	<stop  offset="0.7568" style="stop-color:#EF4EAC"/>
	<stop  offset="1" style="stop-color:#E736B0"/>
</linearGradient>
<path fill="url(#SVGID_8_)" d="M6.197,4.023c0,0-0.008-0.165,0.104-0.188S7.26,3.643,7.26,3.643s0.3-0.041,0.312,0.19
	C7.583,4.063,7.613,4.69,7.613,4.69C7.604,4.784,7.593,4.801,7.53,4.815C7.472,4.829,6.252,4.871,6.197,4.711
	C6.141,4.551,6.197,4.023,6.197,4.023z"/>
<linearGradient id="SVGID_9_" gradientUnits="userSpaceOnUse" x1="7.0576" y1="4.7578" x2="7.5049" y2="4.7578">
	<stop  offset="0.1227" style="stop-color:#CA008F"/>
	<stop  offset="0.4083" style="stop-color:#D10E97"/>
	<stop  offset="0.9438" style="stop-color:#E532AD"/>
	<stop  offset="1" style="stop-color:#E736B0"/>
</linearGradient>
<path fill="url(#SVGID_9_)" d="M7.059,4.6c0,0,0.021-0.071,0.073-0.06S7.421,4.6,7.421,4.6S7.5,4.606,7.5,4.702
	c0,0.097,0.012,0.151,0,0.224C7.487,4.998,7.391,4.974,7.391,4.974s-0.12-0.036-0.266-0.066C7.041,4.901,7.059,4.853,7.059,4.853
	V4.6z"/>
<path fill="#DEDD4C" d="M7.419,4.21C7.344,4.216,7.336,4.176,7.336,4.176V3.995c0,0-0.014-0.049,0.042-0.049s0.235,0,0.235,0
	s0.029-0.007,0.029,0.07c0,0.076,0.006,0.131,0,0.167C7.636,4.218,7.59,4.21,7.59,4.21S7.5,4.212,7.419,4.21z"/>
<path fill="#28A8D9" d="M7.255,4.303c-0.043,0.003-0.048-0.02-0.048-0.02V4.179c0,0-0.008-0.028,0.024-0.028s0.135,0,0.135,0
	s0.017-0.004,0.017,0.04s0.003,0.075,0,0.096c-0.004,0.021-0.03,0.016-0.03,0.016S7.301,4.304,7.255,4.303z"/>
<polygon fill="#FFFFFF" points="6.447,4.061 6.329,4.061 6.329,3.964 6.767,3.964 6.893,4.353 7.072,3.908 7.169,3.908 6.937,4.539 
	6.82,4.539 6.7,4.064 6.541,4.061 6.551,4.516 6.447,4.509 "/>
<g>
	<path d="M2.494,2.833L2.728,2.81c0.007,0.051,0.026,0.092,0.059,0.123c0.033,0.03,0.071,0.045,0.114,0.045
		c0.049,0,0.091-0.02,0.125-0.059C3.06,2.881,3.077,2.822,3.077,2.744c0-0.074-0.017-0.129-0.051-0.166S2.948,2.523,2.895,2.523
		c-0.068,0-0.128,0.029-0.182,0.087l-0.19-0.027l0.12-0.624h0.621v0.215H2.821L2.784,2.378C2.836,2.353,2.89,2.34,2.944,2.34
		c0.104,0,0.193,0.037,0.265,0.111s0.108,0.17,0.108,0.289c0,0.098-0.029,0.187-0.087,0.264C3.15,3.109,3.04,3.162,2.898,3.162
		c-0.113,0-0.205-0.03-0.276-0.089C2.55,3.014,2.508,2.934,2.494,2.833z"/>
	<path d="M3.903,3.142V2.9H3.402V2.7l0.531-0.761H4.13v0.76h0.152V2.9H4.13v0.241H3.903z M3.903,2.699V2.29L3.622,2.699H3.903z"/>
	<path d="M4.398,2.833L4.632,2.81c0.007,0.051,0.027,0.092,0.06,0.123s0.071,0.045,0.114,0.045c0.049,0,0.09-0.02,0.125-0.059
		C4.964,2.881,4.98,2.822,4.98,2.744c0-0.074-0.017-0.129-0.05-0.166S4.853,2.523,4.798,2.523c-0.067,0-0.128,0.029-0.181,0.087
		L4.426,2.583L4.547,1.96h0.621v0.215H4.725L4.688,2.378C4.74,2.353,4.794,2.34,4.849,2.34c0.104,0,0.192,0.037,0.265,0.111
		c0.073,0.074,0.109,0.17,0.109,0.289c0,0.098-0.029,0.187-0.088,0.264c-0.08,0.106-0.19,0.159-0.332,0.159
		c-0.113,0-0.206-0.03-0.277-0.089C4.455,3.014,4.412,2.934,4.398,2.833z"/>
</g>
<g>
	<path d="M6.893,2.584c0,0.057-0.01,0.109-0.029,0.156c-0.02,0.046-0.045,0.094-0.076,0.142L6.562,3.23H6.293l0.233-0.333
		l0.003-0.004C6.52,2.897,6.509,2.9,6.497,2.902C6.485,2.904,6.474,2.905,6.463,2.905c-0.042,0-0.081-0.008-0.118-0.022
		C6.308,2.867,6.276,2.846,6.248,2.818C6.219,2.791,6.197,2.757,6.18,2.719C6.163,2.68,6.155,2.637,6.155,2.59
		c0-0.054,0.01-0.104,0.029-0.147c0.019-0.043,0.046-0.08,0.079-0.11c0.034-0.03,0.073-0.053,0.118-0.069
		C6.426,2.248,6.474,2.24,6.524,2.24c0.051,0,0.099,0.008,0.144,0.024C6.713,2.28,6.752,2.303,6.785,2.333
		c0.033,0.03,0.059,0.066,0.079,0.109C6.883,2.484,6.893,2.532,6.893,2.584z M6.671,2.582c0-0.042-0.013-0.078-0.039-0.108
		C6.606,2.443,6.57,2.428,6.525,2.428c-0.045,0-0.081,0.015-0.108,0.043C6.39,2.5,6.376,2.537,6.376,2.583
		c0,0.044,0.014,0.08,0.04,0.108C6.442,2.72,6.478,2.734,6.522,2.734S6.603,2.72,6.63,2.692C6.658,2.664,6.671,2.627,6.671,2.582z"
		/>
	<path d="M7.749,2.584c0,0.057-0.01,0.109-0.029,0.156C7.7,2.787,7.675,2.835,7.644,2.883L7.417,3.23H7.149l0.233-0.333l0.002-0.004
		C7.375,2.897,7.364,2.9,7.353,2.902C7.34,2.904,7.329,2.905,7.319,2.905c-0.042,0-0.081-0.008-0.118-0.022
		c-0.037-0.015-0.07-0.037-0.098-0.064c-0.028-0.027-0.05-0.061-0.067-0.099C7.019,2.68,7.011,2.637,7.011,2.59
		c0-0.054,0.009-0.104,0.029-0.147s0.046-0.08,0.08-0.11c0.033-0.03,0.073-0.053,0.118-0.069C7.282,2.248,7.329,2.24,7.379,2.24
		c0.051,0,0.099,0.008,0.144,0.024C7.568,2.28,7.607,2.303,7.641,2.333C7.674,2.363,7.7,2.399,7.719,2.441
		C7.739,2.484,7.749,2.532,7.749,2.584z M7.527,2.582c0-0.042-0.013-0.078-0.04-0.108c-0.026-0.03-0.062-0.046-0.107-0.046
		S7.299,2.442,7.272,2.471C7.245,2.5,7.232,2.537,7.232,2.583c0,0.044,0.013,0.08,0.04,0.108C7.298,2.72,7.334,2.734,7.378,2.734
		c0.044,0,0.081-0.014,0.108-0.042C7.513,2.664,7.527,2.627,7.527,2.582z"/>
</g>
<g>
	<path d="M0.738,2.287h0.177v0.465c0,0.074,0.002,0.122,0.007,0.144C0.929,2.93,0.947,2.958,0.976,2.98
		c0.028,0.021,0.067,0.032,0.117,0.032c0.05,0,0.088-0.01,0.114-0.03s0.041-0.045,0.046-0.074C1.258,2.878,1.261,2.83,1.261,2.762
		V2.287h0.178v0.451c0,0.104-0.005,0.176-0.015,0.219C1.415,2.999,1.396,3.035,1.371,3.064c-0.026,0.029-0.061,0.053-0.104,0.07
		C1.225,3.151,1.168,3.16,1.099,3.16c-0.084,0-0.147-0.009-0.191-0.028C0.864,3.113,0.83,3.088,0.805,3.058
		c-0.025-0.03-0.042-0.062-0.05-0.095C0.744,2.913,0.738,2.841,0.738,2.745V2.287z"/>
	<path d="M1.829,3.018V2.772C1.751,2.751,1.693,2.718,1.657,2.673S1.602,2.575,1.602,2.512c0-0.064,0.021-0.118,0.062-0.162
		C1.705,2.307,1.76,2.282,1.829,2.275V2.217h0.087v0.058C1.979,2.283,2.03,2.304,2.067,2.339C2.105,2.374,2.129,2.42,2.14,2.479
		l-0.152,0.02C1.979,2.453,1.955,2.421,1.916,2.405v0.229c0.096,0.025,0.161,0.059,0.196,0.099c0.035,0.041,0.052,0.092,0.052,0.156
		c0,0.071-0.022,0.13-0.065,0.179C2.055,3.115,1.994,3.145,1.916,3.156v0.11H1.829V3.159C1.76,3.15,1.704,3.125,1.661,3.083
		C1.618,3.041,1.59,2.981,1.578,2.904l0.156-0.016c0.006,0.031,0.019,0.058,0.036,0.081C1.788,2.992,1.808,3.008,1.829,3.018z
		 M1.829,2.403c-0.023,0.008-0.042,0.021-0.056,0.04c-0.014,0.019-0.021,0.04-0.021,0.062c0,0.021,0.006,0.04,0.019,0.058
		c0.013,0.018,0.032,0.032,0.058,0.043V2.403z M1.916,3.026c0.03-0.005,0.054-0.019,0.073-0.041
		c0.019-0.022,0.028-0.047,0.028-0.077c0-0.026-0.008-0.049-0.023-0.068C1.978,2.823,1.952,2.808,1.916,2.798V3.026z"/>
</g>
<circle cx="5.785" cy="3.06" r="0.203"/>
<g>
	<path fill="#FFFFFF" d="M1.084,1.122l0.104-0.01l0,0.028c0,0.038,0.009,0.07,0.026,0.099C1.227,1.26,1.25,1.278,1.281,1.292
		C1.312,1.306,1.35,1.313,1.394,1.313c0.061,0,0.108-0.014,0.144-0.042C1.573,1.244,1.59,1.21,1.59,1.169
		c0-0.029-0.01-0.054-0.03-0.075C1.54,1.073,1.492,1.045,1.416,1.011C1.356,0.984,1.316,0.964,1.295,0.95
		C1.257,0.926,1.229,0.898,1.211,0.869c-0.019-0.03-0.027-0.064-0.027-0.102c0-0.066,0.024-0.12,0.074-0.161
		c0.049-0.041,0.117-0.062,0.204-0.062c0.06,0,0.11,0.01,0.153,0.029C1.656,0.592,1.69,0.621,1.715,0.658s0.038,0.077,0.038,0.119
		L1.751,0.794L1.648,0.803l0-0.019c0-0.027-0.008-0.052-0.023-0.075C1.61,0.686,1.588,0.668,1.559,0.655
		C1.53,0.643,1.496,0.636,1.458,0.636c-0.054,0-0.096,0.011-0.126,0.034c-0.03,0.022-0.045,0.053-0.045,0.09
		c0,0.034,0.011,0.06,0.034,0.078c0.023,0.018,0.079,0.048,0.169,0.09c0.065,0.03,0.11,0.055,0.134,0.075
		c0.024,0.019,0.042,0.042,0.055,0.068c0.013,0.027,0.02,0.057,0.02,0.09c0,0.07-0.029,0.128-0.085,0.174
		C1.556,1.382,1.481,1.405,1.389,1.405c-0.1,0-0.175-0.022-0.227-0.068C1.111,1.291,1.085,1.219,1.084,1.122z"/>
	<path fill="#FFFFFF" d="M2.174,1.281c-0.069,0.082-0.14,0.123-0.211,0.123c-0.042,0-0.077-0.013-0.105-0.039
		S1.815,1.307,1.815,1.267c0-0.026,0.006-0.069,0.019-0.131l0.069-0.348h0.098L1.925,1.173c-0.007,0.032-0.01,0.057-0.01,0.074
		c0,0.024,0.007,0.042,0.021,0.054C1.949,1.314,1.968,1.32,1.993,1.32c0.035,0,0.069-0.012,0.104-0.036s0.06-0.054,0.076-0.09
		c0.016-0.036,0.03-0.084,0.043-0.146l0.055-0.26H2.37L2.242,1.391H2.151L2.174,1.281z M2.063,0.714l0.102-0.156h0.124L2.145,0.714
		H2.063z"/>
	<path fill="#FFFFFF" d="M2.352,1.622l0.166-0.834h0.092L2.592,0.872c0.035-0.038,0.065-0.063,0.092-0.077
		c0.026-0.014,0.054-0.021,0.083-0.021c0.053,0,0.098,0.021,0.135,0.062c0.037,0.042,0.055,0.102,0.055,0.181
		c0,0.075-0.015,0.144-0.044,0.205S2.842,1.332,2.793,1.365C2.756,1.392,2.716,1.404,2.675,1.404c-0.069,0-0.123-0.037-0.16-0.111
		L2.45,1.622H2.352z M2.545,1.164c0,0.051,0.012,0.089,0.036,0.116S2.635,1.32,2.67,1.32c0.029,0,0.054-0.008,0.075-0.024
		c0.031-0.023,0.057-0.062,0.08-0.116c0.022-0.054,0.033-0.108,0.033-0.163c0-0.051-0.012-0.09-0.036-0.118
		C2.799,0.871,2.77,0.857,2.735,0.857c-0.027,0-0.055,0.011-0.083,0.032C2.625,0.909,2.6,0.946,2.578,1
		C2.556,1.052,2.545,1.107,2.545,1.164z"/>
	<path fill="#FFFFFF" d="M3.438,1.186l0.096,0.01c-0.016,0.059-0.053,0.11-0.11,0.154C3.375,1.386,3.322,1.404,3.263,1.404
		c-0.042,0-0.08-0.01-0.115-0.029c-0.034-0.02-0.062-0.048-0.082-0.087c-0.02-0.039-0.03-0.085-0.03-0.139
		c0-0.071,0.016-0.137,0.046-0.198c0.031-0.062,0.069-0.106,0.114-0.134S3.29,0.774,3.343,0.774c0.066,0,0.121,0.022,0.163,0.065
		s0.063,0.105,0.063,0.185c0,0.029-0.002,0.06-0.007,0.091H3.137C3.135,1.127,3.135,1.138,3.135,1.147
		c0,0.057,0.012,0.1,0.038,0.129S3.228,1.32,3.263,1.32c0.034,0,0.067-0.012,0.099-0.035C3.395,1.262,3.42,1.229,3.438,1.186z
		 M3.152,1.037h0.324V1.015c0-0.054-0.012-0.094-0.037-0.121S3.383,0.854,3.344,0.854c-0.042,0-0.08,0.015-0.114,0.045
		C3.196,0.93,3.169,0.975,3.152,1.037z"/>
	<path fill="#FFFFFF" d="M3.634,1.391l0.12-0.603h0.087L3.816,0.911C3.874,0.82,3.932,0.774,3.99,0.774
		c0.02,0,0.043,0.007,0.072,0.022l-0.04,0.095c-0.018-0.013-0.035-0.02-0.054-0.02c-0.036,0-0.072,0.021-0.107,0.061
		C3.824,0.974,3.796,1.046,3.776,1.149L3.727,1.391H3.634z"/>
	<path fill="#FFFFFF" d="M4.263,1.622l0.166-0.834h0.092L4.503,0.872c0.035-0.038,0.065-0.063,0.091-0.077s0.054-0.021,0.083-0.021
		c0.053,0,0.098,0.021,0.134,0.062c0.037,0.042,0.055,0.102,0.055,0.181c0,0.075-0.015,0.144-0.044,0.205S4.754,1.332,4.705,1.365
		C4.667,1.392,4.628,1.404,4.587,1.404c-0.069,0-0.123-0.037-0.16-0.111L4.361,1.622H4.263z M4.457,1.164
		c0,0.051,0.012,0.089,0.036,0.116s0.054,0.04,0.09,0.04c0.029,0,0.053-0.008,0.075-0.024c0.03-0.023,0.057-0.062,0.079-0.116
		C4.759,1.125,4.77,1.071,4.77,1.016c0-0.051-0.012-0.09-0.036-0.118C4.71,0.871,4.681,0.857,4.647,0.857
		c-0.027,0-0.055,0.011-0.083,0.032C4.536,0.909,4.511,0.946,4.489,1C4.467,1.052,4.457,1.107,4.457,1.164z"/>
	<path fill="#FFFFFF" d="M4.928,1.391l0.12-0.603h0.087L5.111,0.911C5.168,0.82,5.226,0.774,5.284,0.774
		c0.02,0,0.044,0.007,0.072,0.022l-0.04,0.095c-0.017-0.013-0.035-0.02-0.054-0.02c-0.036,0-0.072,0.021-0.107,0.061
		C5.119,0.974,5.091,1.046,5.071,1.149L5.021,1.391H4.928z"/>
	<path fill="#FFFFFF" d="M5.719,1.186l0.096,0.01c-0.016,0.059-0.053,0.11-0.11,0.154C5.656,1.386,5.603,1.404,5.544,1.404
		c-0.042,0-0.08-0.01-0.115-0.029c-0.034-0.02-0.062-0.048-0.082-0.087c-0.02-0.039-0.03-0.085-0.03-0.139
		c0-0.071,0.016-0.137,0.046-0.198c0.031-0.062,0.069-0.106,0.114-0.134s0.094-0.042,0.146-0.042c0.066,0,0.121,0.022,0.163,0.065
		s0.063,0.105,0.063,0.185c0,0.029-0.002,0.06-0.007,0.091H5.417C5.416,1.127,5.416,1.138,5.416,1.147
		c0,0.057,0.012,0.1,0.038,0.129S5.509,1.32,5.544,1.32c0.034,0,0.067-0.012,0.099-0.035C5.676,1.262,5.701,1.229,5.719,1.186z
		 M5.433,1.037h0.324V1.015c0-0.054-0.012-0.094-0.037-0.121S5.664,0.854,5.625,0.854c-0.042,0-0.08,0.015-0.114,0.045
		C5.476,0.93,5.45,0.975,5.433,1.037z"/>
	<path fill="#FFFFFF" d="M6.311,1.171l0.098,0.011C6.384,1.257,6.349,1.313,6.303,1.35S6.206,1.404,6.15,1.404
		c-0.061,0-0.111-0.021-0.151-0.062c-0.04-0.041-0.06-0.101-0.06-0.179c0-0.077,0.015-0.147,0.044-0.209
		c0.029-0.063,0.066-0.108,0.111-0.137c0.044-0.028,0.094-0.042,0.149-0.042c0.059,0,0.107,0.018,0.145,0.054
		s0.056,0.084,0.055,0.146L6.347,0.981c0-0.04-0.011-0.07-0.032-0.091S6.267,0.859,6.235,0.859c-0.035,0-0.066,0.01-0.094,0.03
		c-0.028,0.02-0.052,0.057-0.073,0.11C6.048,1.052,6.038,1.112,6.038,1.177c0,0.048,0.011,0.085,0.034,0.11
		c0.022,0.025,0.049,0.038,0.08,0.038c0.032,0,0.062-0.013,0.092-0.038C6.272,1.262,6.294,1.223,6.311,1.171z"/>
	<path fill="#FFFFFF" d="M6.465,1.391l0.12-0.603h0.099l-0.12,0.603H6.465z M6.607,0.675l0.023-0.117h0.098L6.706,0.675H6.607z"/>
	<path fill="#FFFFFF" d="M6.732,1.162c0-0.109,0.028-0.201,0.085-0.275c0.057-0.075,0.133-0.113,0.229-0.113
		c0.067,0,0.122,0.022,0.166,0.066c0.043,0.044,0.065,0.107,0.065,0.188c0,0.075-0.015,0.141-0.044,0.2
		C7.203,1.287,7.165,1.331,7.117,1.36S7.02,1.404,6.968,1.404c-0.068,0-0.125-0.021-0.169-0.065S6.732,1.237,6.732,1.162z
		 M6.831,1.152c0,0.057,0.013,0.1,0.04,0.129S6.93,1.325,6.97,1.325c0.031,0,0.062-0.011,0.094-0.033
		c0.031-0.021,0.059-0.058,0.082-0.108C7.168,1.134,7.18,1.082,7.18,1.029c0-0.057-0.013-0.101-0.04-0.131
		C7.114,0.869,7.082,0.854,7.043,0.854c-0.034,0-0.067,0.011-0.099,0.032C6.912,0.908,6.885,0.943,6.863,0.993
		C6.842,1.043,6.831,1.096,6.831,1.152z"/>
</g>
<linearGradient id="SVGID_10_" gradientUnits="userSpaceOnUse" x1="6.6045" y1="4.8721" x2="7.1201" y2="4.8721">
	<stop  offset="0.3436" style="stop-color:#FFDE00"/>
	<stop  offset="0.6927" style="stop-color:#FDDD00"/>
	<stop  offset="0.8183" style="stop-color:#F6D900"/>
	<stop  offset="0.9077" style="stop-color:#EBD100"/>
	<stop  offset="0.9264" style="stop-color:#E7CF00"/>
	<stop  offset="1" style="stop-color:#B7B900"/>
</linearGradient>
<path fill="url(#SVGID_10_)" d="M6.606,4.69c0,0,0.023-0.082,0.083-0.069S7.023,4.69,7.023,4.69s0.09,0.007,0.09,0.118
	s0.014,0.174,0,0.257C7.1,5.149,6.989,5.121,6.989,5.121S6.851,5.079,6.683,5.044C6.585,5.038,6.606,4.982,6.606,4.982V4.69z"/>
</svg>
