<?xml version="1.0" encoding="utf-8"?>
<!-- Generator: Adobe Illustrator 14.0.0, SVG Export Plug-In . SVG Version: 6.00 Build 43363)  -->
<!DOCTYPE svg PUBLIC "-//W3C//DTD SVG 1.1//EN" "http://www.w3.org/Graphics/SVG/1.1/DTD/svg11.dtd">
<svg version="1.1" id="Capa_1" xmlns="http://www.w3.org/2000/svg" xmlns:xlink="http://www.w3.org/1999/xlink" x="0px" y="0px"
	 width="16.333px" height="9.569px" viewBox="0 0 16.333 9.569" enable-background="new 0 0 16.333 9.569" xml:space="preserve">
<linearGradient id="SVGID_1_" gradientUnits="userSpaceOnUse" x1="3.4233" y1="6.085" x2="15.6216" y2="6.085">
	<stop  offset="0.1902" style="stop-color:#FFE045"/>
	<stop  offset="0.9509" style="stop-color:#FF8400"/>
</linearGradient>
<polygon fill="url(#SVGID_1_)" points="3.423,5.526 15.598,3.602 15.622,6.669 3.423,8.569 "/>
<polygon fill="#4C2113" points="3.423,5.526 4.391,5.093 12.971,3.745 12.201,4.148 "/>
<path fill="#939989" d="M15.089,4.979c-0.177-0.286-0.565-0.277-0.565-0.277s-0.713,0.073-0.904,0.211
	c-0.257,0.181-0.249,0.429-0.249,0.429v0.013l0.112,0.641c0,0,0.166,0.362,0.651,0.358c0.336-0.021,0.423-0.069,0.705-0.114
	c0.407-0.143,0.427-0.548,0.427-0.548S15.266,5.264,15.089,4.979z M14.742,5.956c-0.133,0.054-0.441,0.116-0.648,0.111
	c-0.273-0.038-0.322-0.224-0.322-0.224l-0.073-0.43c0,0,0.006-0.304,0.241-0.339c0.234-0.035,0.607-0.09,0.607-0.09
	s0.273,0.008,0.324,0.214s0.062,0.447,0.062,0.447S14.991,5.854,14.742,5.956z"/>
<path fill="#939989" d="M3.598,6.487L3.68,6.204l1.036,1.237l0.392-1.19l0.334-0.049c0,0-0.415,1.279-0.51,1.546
	C4.826,8.013,4.634,7.833,4.634,7.833L3.598,6.487z"/>
<path fill="#939989" d="M5.61,6.277c0,0,0.017-0.275,0.125-0.294s1.505-0.065,1.505-0.065L7.167,6.202L5.931,6.388L6.086,7.26
	c0,0,0.039,0.097,0.159,0.078c0.121-0.02,1.216-0.176,1.216-0.176L7.388,7.447c0,0-0.886,0.118-1.167,0.168
	C5.939,7.664,5.812,7.391,5.812,7.391L5.61,6.277z"/>
<path fill="#939989" d="M7.656,7.395l0.302-0.037l0.099-0.29L7.742,6.106l1.057-0.168c0,0,0.036,0.172,0.04,0.311
	c0.004,0.139-0.216,0.199-0.216,0.199L8.024,6.277L7.948,6.44l0.034,0.392l0.236-0.028l0.698,0.396l0.519-0.094L9.504,6.84
	l-0.47,0.088L8.684,6.73c0.363-0.069,0.458-0.359,0.458-0.359s0.155-0.363-0.083-0.555C8.924,5.653,8.773,5.665,8.773,5.665
	S7.583,5.563,7.51,5.698c-0.074,0.134-0.099,0.29-0.099,0.29L7.656,7.395z"/>
<path fill="#939989" d="M10.983,5.412c-0.013-0.073-0.147-0.073-0.147-0.073s-0.51,0.085-0.616,0.104
	C10.115,5.46,9.892,5.515,9.85,5.529c-0.465,0.319-0.41,0.649-0.41,0.649l0.145,0.908l0.329-0.051l0.085-0.273l-0.181-0.09
	l1.052-0.18l0.078,0.38l0.32-0.045c0,0,0.052-0.163,0.057-0.302C11.338,6.137,10.993,5.467,10.983,5.412z M9.786,6.359
	c0,0-0.069-0.221,0.02-0.42C9.887,5.788,10.1,5.722,10.1,5.722l0.632-0.109l0.106,0.6L9.786,6.359z"/>
<path fill="#939989" d="M11.354,5.318c0,0,0.036-0.236,0.093-0.277c0.057-0.04,0.135,0.146,0.135,0.146l1.297,0.89L12.69,4.98
	l0.102-0.245l0.522,1.46c0,0-0.074,0.264-0.12,0.311c-0.047,0.049-0.163,0.04-0.163,0.04l-1.307-0.894l0.268,0.788L11.9,6.717
	l-0.293,0.041L11.354,5.318z"/>
<polygon fill="#939989" points="6.217,6.44 6.128,6.638 6.188,6.979 7.135,6.84 7.221,6.562 6.278,6.71 "/>
<linearGradient id="SVGID_2_" gradientUnits="userSpaceOnUse" x1="3.6802" y1="6.7637" x2="5.5239" y2="6.7637">
	<stop  offset="0.1902" style="stop-color:#4C95FF"/>
	<stop  offset="0.9387" style="stop-color:#0083B3"/>
</linearGradient>
<path fill="url(#SVGID_2_)" d="M3.68,6.204l0.343-0.05l0.775,1.004l0.392-1.191l0.334-0.049c0,0-0.415,1.28-0.51,1.546
	C4.908,7.729,4.716,7.55,4.716,7.55L3.68,6.204z"/>
<linearGradient id="SVGID_3_" gradientUnits="userSpaceOnUse" x1="5.7114" y1="6.4873" x2="7.4609" y2="6.4873">
	<stop  offset="0.1902" style="stop-color:#4C95FF"/>
	<stop  offset="0.9387" style="stop-color:#0083B3"/>
</linearGradient>
<path fill="url(#SVGID_3_)" d="M5.711,6.016c0,0,0.006-0.132,0.114-0.15s1.362-0.229,1.362-0.229l0.053,0.281L6.034,6.105
	l0.155,0.873c0,0,0.039,0.097,0.159,0.078c0.121-0.02,1.057-0.168,1.057-0.168l0.057,0.273c0,0-0.856,0.122-1.138,0.171
	c-0.282,0.05-0.408-0.224-0.408-0.224L5.711,6.016z"/>
<linearGradient id="SVGID_4_" gradientUnits="userSpaceOnUse" x1="6.2173" y1="6.4932" x2="7.2207" y2="6.4932">
	<stop  offset="0.1902" style="stop-color:#4C95FF"/>
	<stop  offset="0.9387" style="stop-color:#0083B3"/>
</linearGradient>
<polygon fill="url(#SVGID_4_)" points="6.217,6.424 6.278,6.71 7.221,6.546 7.167,6.277 "/>
<linearGradient id="SVGID_5_" gradientUnits="userSpaceOnUse" x1="7.5103" y1="6.2412" x2="9.4844" y2="6.2412">
	<stop  offset="0.1902" style="stop-color:#4C95FF"/>
	<stop  offset="0.9387" style="stop-color:#0083B3"/>
</linearGradient>
<path fill="url(#SVGID_5_)" d="M7.755,7.105l0.302-0.038L7.84,5.816l1.032-0.168c0,0,0.061,0.172,0.065,0.311
	c0.004,0.139-0.216,0.2-0.216,0.2L8.044,6.277l0.037,0.265l0.237-0.028l0.697,0.396l0.469-0.073L8.783,6.44
	c0.363-0.069,0.437-0.354,0.437-0.354s0.069-0.29-0.062-0.56c-0.134-0.163-0.285-0.15-0.285-0.15s-1.057,0.17-1.208,0.197
	C7.514,5.6,7.51,5.698,7.51,5.698L7.755,7.105z"/>
<linearGradient id="SVGID_6_" gradientUnits="userSpaceOnUse" x1="9.5215" y1="5.915" x2="11.3237" y2="5.915">
	<stop  offset="0.1902" style="stop-color:#4C95FF"/>
	<stop  offset="0.9387" style="stop-color:#0083B3"/>
</linearGradient>
<path fill="url(#SVGID_6_)" d="M11.083,5.114c-0.013-0.073-0.147-0.073-0.147-0.073s-0.51,0.086-0.616,0.104
	S9.992,5.217,9.949,5.231C9.484,5.551,9.522,5.902,9.522,5.902l0.161,0.887L9.97,6.75L9.917,6.375l1.052-0.18l0.078,0.38
	l0.277-0.049C11.324,6.526,11.096,5.188,11.083,5.114z M9.876,6.086c0,0-0.069-0.221,0.02-0.421c0.082-0.15,0.294-0.217,0.294-0.217
	l0.632-0.109l0.106,0.6L9.876,6.086z"/>
<linearGradient id="SVGID_7_" gradientUnits="userSpaceOnUse" x1="11.4463" y1="5.582" x2="13.3345" y2="5.582">
	<stop  offset="0.1902" style="stop-color:#4C95FF"/>
	<stop  offset="0.9387" style="stop-color:#0083B3"/>
</linearGradient>
<path fill="url(#SVGID_7_)" d="M11.446,5.041c0,0,0.004-0.09,0.061-0.13c0.057-0.041,0.167,0,0.167,0l1.297,0.89l-0.18-1.065
	l0.302-0.053l0.241,1.447c0,0-0.023,0.118-0.085,0.139c-0.062,0.021-0.125,0-0.125,0l-1.307-0.894l0.175,1.065l-0.294,0.041
	L11.446,5.041z"/>
<linearGradient id="SVGID_8_" gradientUnits="userSpaceOnUse" x1="13.4648" y1="5.2666" x2="15.3291" y2="5.2666">
	<stop  offset="0.1902" style="stop-color:#4C95FF"/>
	<stop  offset="0.9387" style="stop-color:#0083B3"/>
</linearGradient>
<path fill="url(#SVGID_8_)" d="M15.155,4.719c-0.174-0.285-0.556-0.277-0.556-0.277s-0.702,0.073-0.889,0.211
	c-0.253,0.181-0.245,0.43-0.245,0.43v0.013l0.11,0.641c0,0,0.163,0.362,0.64,0.357c0.331-0.021,0.416-0.068,0.693-0.113
	c0.4-0.143,0.42-0.548,0.42-0.548S15.329,5.005,15.155,4.719z M14.789,5.767c-0.203,0.031-0.266,0.064-0.508,0.08
	c-0.35,0.003-0.47-0.252-0.47-0.252L13.73,5.144V5.135c0,0-0.006-0.175,0.179-0.302c0.138-0.097,0.652-0.148,0.652-0.148
	s0.28-0.006,0.408,0.195c0.127,0.2,0.127,0.501,0.127,0.501S15.082,5.666,14.789,5.767z"/>
<linearGradient id="SVGID_9_" gradientUnits="userSpaceOnUse" x1="0.8271" y1="3.1904" x2="13.0225" y2="3.1904">
	<stop  offset="0" style="stop-color:#FF8400"/>
	<stop  offset="1" style="stop-color:#FFE045"/>
</linearGradient>
<polygon fill="url(#SVGID_9_)" points="0.827,2.628 0.827,5.671 12.988,3.762 13.022,0.711 "/>
<path fill="#858585" d="M11.118,2.341c-0.282,0-0.511,0.209-0.511,0.466c0,0.258,0.229,0.466,0.511,0.466s0.511-0.208,0.511-0.466
	C11.628,2.55,11.4,2.341,11.118,2.341z M11.118,3.02c-0.136,0-0.246-0.096-0.246-0.213s0.11-0.213,0.246-0.213
	s0.246,0.096,0.246,0.213S11.253,3.02,11.118,3.02z"/>
<path fill="#858585" d="M12.107,2.204c0,0,0.121-0.006,0.125,0.101c0.004,0.105-0.062,0.116-0.062,0.116s-0.187,0.045-0.193,0.13
	c-0.006,0.086,0.076,0.494,0.076,0.494s0.012,0.109-0.116,0.12c-0.129,0.01-0.151-0.09-0.151-0.09l-0.059-0.467
	c0,0,0-0.219,0.143-0.308C11.98,2.233,12.107,2.204,12.107,2.204z"/>
<ellipse transform="matrix(0.9909 -0.1347 0.1347 0.9909 -0.2671 1.7186)" fill="#858585" cx="12.569" cy="2.833" rx="0.178" ry="0.183"/>
<path fill="#858585" d="M12.211,1.73c0,0,0.005-0.086,0.141-0.107c0.136-0.021,0.166,0.065,0.166,0.065l0.15,0.816
	c0,0,0.003,0.093-0.138,0.121c-0.141,0.027-0.168-0.098-0.168-0.098L12.211,1.73z"/>
<path fill="#858585" d="M1.155,3.551c0,0-0.023,0.123,0,0.163c0.024,0.04,0.606,1.02,0.624,1.059
	c0.019,0.038,0.178,0.107,0.223-0.05c0.035-0.126,0.214-1.121,0.214-1.121s0.01,0.045,0.065,0.063
	C2.336,3.683,2.52,3.681,2.542,3.587s0-0.204,0-0.204L2.457,3.31L2.13,3.332L1.961,4.144L1.849,4.54L1.255,3.524l-0.1,0.016V3.551z"
	/>
<path fill="#858585" d="M2.287,3.745c-0.02,0.025-0.006,0.156-0.006,0.156l0.134,0.706c0,0,0.01,0.062,0.126,0.068
	c0.117,0.007,0.139-0.089,0.139-0.089v-0.18l-0.2-0.605C2.481,3.802,2.307,3.721,2.287,3.745z"/>
<path fill="#858585" d="M2.638,3.678c0,0-0.054,0.129-0.02,0.181C2.652,3.91,3.07,4.556,3.07,4.556s0.033,0.049,0.106,0.037
	c0.092,0.006,0.114-0.085,0.114-0.085s0.178-0.706,0.192-0.778c0.014-0.071,0-0.163,0-0.163L3.438,3.524l-0.3,0.611L2.812,3.808
	L2.668,3.636L2.638,3.678z"/>
<path fill="#858585" d="M4.472,4.299C4.443,4.376,4.353,4.399,4.353,4.399S4.135,4.466,3.882,4.389
	c-0.183-0.077-0.23-0.176-0.271-0.285C3.57,3.993,3.588,3.838,3.588,3.838l0.249,0.243l0.383,0.083L4.467,4.06l0.017,0.068
	C4.483,4.128,4.501,4.222,4.472,4.299z"/>
<path fill="#858585" d="M3.89,3.881l0.059-0.096c0,0,0.037-0.02,0.017,0.038c-0.019,0.058,0,0.122,0,0.122L4.06,4.023h0.182
	l0.057-0.09l0.19-0.226C4.5,3.613,4.472,3.497,4.472,3.497L4.441,3.471L4.082,3.459L3.788,3.602L3.772,3.799l0.09,0.086L3.89,3.881z
	"/>
<path fill="#858585" d="M5.112,3.024c0,0-0.006,0.169,0,0.204c0.006,0.035,0.071,0.407,0.071,0.407S5.199,3.76,5.228,3.903
	c0.026,0.082,0.069,0.234,0.34,0.265C5.84,4.199,5.964,4.034,5.964,4.034s0.079-0.088,0.103-0.196s0.014-0.148,0.014-0.148
	S6.08,3.662,6.067,3.624C6.054,3.585,6.011,3.573,6.011,3.573L5.76,3.838L5.598,3.887l-0.19-0.049L5.279,3.669L5.202,3.347
	l-0.031-0.2L5.15,3.073L5.112,3.024z"/>
<path fill="#858585" d="M5.462,3.515c0,0,0.425-0.05,0.472-0.072s0.069-0.039,0.08-0.077c0.004-0.043-0.005-0.06,0-0.106
	s0.003-0.021,0-0.09C6.001,3.112,5.975,3.108,5.975,3.108L5.568,3.15L5.324,3.236L5.338,3.44L5.46,3.506"/>
<path fill="#858585" d="M6.103,3.086c0,0,0.006,0.179,0.012,0.279c0.006,0.1,0.069,0.394,0.069,0.394s0.026,0.167,0.253,0.23
	c0.094,0.026,0.371,0.012,0.442-0.08c0.155-0.114,0.159-0.253,0.159-0.253s0.01-0.081,0-0.179c-0.01-0.099-0.041-0.129-0.041-0.129
	L6.874,3.607L6.698,3.71L6.49,3.724L6.327,3.66L6.24,3.549L6.195,3.405L6.142,3.198L6.103,3.086z"/>
<path fill="#858585" d="M7.694,3.086c0,0,0.058,0.508,0.069,0.557c0.011,0.048,0.02,0.087,0.02,0.087s0.015,0.072,0.135,0.073
	s0.135-0.098,0.135-0.098s-0.004-0.15-0.01-0.214C8.036,3.428,7.983,3.289,7.983,3.289L7.83,3.149L7.694,3.086z"/>
<path fill="#858585" d="M7.985,3.161c0,0,0.035-0.08,0.157-0.082c0.123-0.002,0.133,0.092,0.133,0.092l0.063,0.361l0.031,0.116
	c0,0,0.004,0.057,0.126,0.06C8.607,3.705,8.63,3.652,8.642,3.609s0-0.191,0-0.191L8.54,3.163l0.021-0.137
	c0,0,0.028-0.03,0.124-0.043c0.096-0.012,0.137,0.084,0.137,0.084l0.074,0.426c0,0-0.013,0.202,0.143,0.355
	C9.192,4.001,9.333,3.96,9.333,3.96s0.196,0.007,0.22-0.102s0-0.184,0-0.184L9.499,3.638L9.078,3.52l-0.141-0.37L8.875,2.811
	L8.74,2.712L8.511,2.739L8.397,2.806L8.214,2.798L8.016,2.824l-0.11,0.141v0.2L7.985,3.161z"/>
<path fill="#858585" d="M9.213,2.961c0,0-0.017,0.227,0.076,0.328C9.381,3.392,9.45,3.483,9.637,3.495
	c0.222,0.007,0.345-0.032,0.345-0.032S10.096,3.44,10.108,3.3c0.008-0.098-0.019-0.15-0.019-0.15h-0.042L9.661,3.229L9.415,3.126
	L9.26,2.946L9.227,2.886L9.213,2.961z"/>
<path fill="#858585" d="M9.51,2.955l0.076-0.09L9.6,2.91L9.586,2.927c0,0-0.021,0.085-0.013,0.096
	c0.008,0.011,0.043,0.057,0.043,0.057l0.171,0.035l0.108-0.035c0,0-0.01-0.022,0.031-0.069c0.1-0.104,0.138-0.146,0.183-0.232
	c0.025-0.083-0.016-0.227-0.016-0.227l-0.059-0.024h-0.33L9.459,2.639l-0.03,0.163l0.03,0.145l0.033,0.046L9.51,2.955z"/>
<path fill="#858585" d="M10.048,3.553c-0.02,0.145,0.019,0.214,0.019,0.214s-0.002,0.079,0.186,0.06
	c0.188-0.021,0.318-0.239,0.318-0.239s0.028-0.055,0.035-0.124c0.006-0.069-0.017-0.184-0.017-0.184L10.542,3.19L10.31,3.509
	l-0.13,0.054L10.048,3.553z"/>
<path fill="#008BC9" d="M1.155,3.512c0,0,0.017-0.171,0.204-0.139C1.462,3.54,1.808,4.099,1.808,4.099l0.139-0.782
	c0,0,0.163-0.172,0.253,0L1.987,4.499C1.873,4.711,1.759,4.548,1.759,4.548L1.155,3.512z"/>
<circle fill="#008BC9" cx="2.379" cy="3.332" r="0.163"/>
<path fill="#008BC9" d="M2.281,3.699C2.277,3.559,2.52,3.518,2.542,3.634c0.036,0.189,0.139,0.742,0.139,0.742
	c-0.026,0.213-0.281,0.134-0.302,0C2.359,4.243,2.299,3.856,2.281,3.699z"/>
<path fill="#008BC9" d="M2.626,3.656C2.579,3.569,2.752,3.446,2.828,3.52c0.048,0.069,0.281,0.404,0.281,0.404
	s0.084-0.375,0.108-0.459s0.269-0.096,0.251,0.06C3.421,3.71,3.266,4.319,3.266,4.319C3.217,4.454,3.085,4.384,3.07,4.36
	S2.679,3.754,2.626,3.656z"/>
<path fill="#008BC9" d="M3.956,3.728c0,0-0.039,0.076,0.053,0.133c0.092,0.058,0.155,0,0.155,0l0.29-0.336c0,0,0.043-0.043,0-0.106
	C4.427,3.389,4.379,3.29,4.072,3.3C3.584,3.386,3.588,3.745,3.588,3.745s0.014,0.297,0.236,0.411
	C4.047,4.271,4.261,4.205,4.339,4.19c0.137-0.008,0.186-0.195,0.039-0.242c-0.259,0.047-0.32,0.039-0.32,0.039
	s-0.27-0.078-0.192-0.284c0.059-0.148,0.239-0.161,0.239-0.161L3.956,3.728z"/>
<path fill="#008BC9" d="M5.128,2.976c0,0,0.004-0.084,0.11-0.092c0.106-0.009,0.123,0.067,0.123,0.067l0.024,0.126l0.501-0.071
	c0,0,0.108-0.002,0.114,0.106C6.007,3.22,5.923,3.234,5.923,3.234L5.43,3.313l0.051,0.318c0,0,0.026,0.116,0.157,0.106
	c0.131-0.011,0.149-0.076,0.164-0.114c0.014-0.039,0.01-0.157,0.01-0.157S5.813,3.39,5.928,3.392c0.114,0.002,0.12,0.075,0.12,0.075
	s0.043,0.1,0,0.214C5.993,3.812,5.921,3.918,5.703,3.958C5.446,3.969,5.351,3.87,5.299,3.815C5.24,3.742,5.177,3.353,5.167,3.277
	C5.156,3.202,5.128,2.976,5.128,2.976z"/>
<path fill="#008BC9" d="M6.115,3.021c0,0,0.035-0.067,0.12-0.073C6.321,2.94,6.35,2.994,6.35,2.994l0.092,0.51
	c0,0,0.022,0.083,0.167,0.083c0.145,0,0.153-0.13,0.153-0.13l-0.065-0.51c0,0,0.004-0.086,0.108-0.104s0.139,0.055,0.139,0.055
	s0.079,0.488,0.071,0.551C7.011,3.48,7.013,3.71,6.68,3.795C6.396,3.83,6.335,3.728,6.335,3.728S6.205,3.62,6.195,3.553
	C6.185,3.484,6.115,3.021,6.115,3.021z"/>
<path fill="#008BC9" d="M7.706,2.979c0.006-0.065,0.112-0.308,0.33-0.33s0.326,0.042,0.326,0.042S8.44,2.567,8.668,2.554
	C8.962,2.524,9.05,2.767,9.05,2.767s0.108,0.507,0.132,0.646C9.207,3.551,9.38,3.521,9.38,3.521s0.037-0.001,0.077,0.013
	c0.086,0.032,0.069,0.108,0.069,0.108S9.521,3.748,9.378,3.746C9.074,3.765,9.044,3.63,8.993,3.581
	c-0.051-0.049-0.09-0.369-0.09-0.369S8.864,2.938,8.848,2.88C8.827,2.845,8.803,2.772,8.683,2.779
	C8.607,2.775,8.539,2.817,8.528,2.843c-0.014,0.049,0.08,0.545,0.08,0.545s0.006,0.1-0.114,0.104
	C8.373,3.495,8.371,3.418,8.371,3.418s-0.05-0.434-0.073-0.467c-0.024-0.033-0.035-0.09-0.18-0.084
	C7.973,2.873,7.965,2.942,7.953,2.979s0.075,0.506,0.075,0.506S8.03,3.589,7.914,3.587S7.783,3.512,7.783,3.512
	S7.7,3.045,7.706,2.979z"/>
<path fill="#008BC9" d="M9.798,2.927c0,0-0.059,0.09-0.156,0.022C9.554,2.897,9.596,2.816,9.596,2.816s0.051-0.102,0.149-0.204
	C9.604,2.569,9.482,2.77,9.482,2.77S9.431,2.914,9.574,3.022c0.108,0.094,0.322,0.012,0.322,0.012h0.112
	c0,0,0.059,0.011,0.065,0.094c0.006,0.084-0.063,0.104-0.063,0.104S9.89,3.284,9.703,3.289c-0.296-0.012-0.418-0.22-0.418-0.22
	S9.187,2.906,9.246,2.708C9.305,2.511,9.57,2.402,9.57,2.402S9.7,2.382,9.812,2.382c0.118,0.013,0.194,0.071,0.194,0.071
	s0.047,0.022,0.067,0.056c0.02,0.032,0,0.077,0,0.077L9.798,2.927z"/>
<path fill="#008BC9" d="M10.173,2.355c0,0,0.027-0.084,0.135-0.088s0.111,0.035,0.118,0.06c0.022,0.071,0.126,0.726,0.141,0.84
	c0.015,0.114-0.014,0.182-0.014,0.182s-0.028,0.234-0.379,0.277c-0.143-0.01-0.132-0.12-0.116-0.167
	c0.017-0.047,0.153-0.08,0.153-0.08s0.104-0.016,0.102-0.159C10.31,3.077,10.173,2.355,10.173,2.355z"/>
<ellipse fill="#008BC9" cx="10.244" cy="2.039" rx="0.162" ry="0.155"/>
<ellipse fill="none" cx="10.252" cy="2.198" rx="0.191" ry="0.184"/>
<path fill="#008BC9" d="M11.101,2.147c-0.282,0-0.511,0.209-0.511,0.466c0,0.258,0.229,0.466,0.511,0.466
	c0.282,0,0.511-0.208,0.511-0.466C11.611,2.356,11.382,2.147,11.101,2.147z M11.108,2.82c-0.136,0-0.246-0.095-0.246-0.213
	c0-0.117,0.11-0.212,0.246-0.212s0.246,0.095,0.246,0.212C11.354,2.726,11.244,2.82,11.108,2.82z"/>
<path fill="#008BC9" d="M12.09,1.98c0,0,0.121-0.007,0.125,0.1s-0.062,0.116-0.062,0.116s-0.187,0.045-0.193,0.131
	c-0.006,0.085,0.076,0.493,0.076,0.493s0.012,0.11-0.116,0.12c-0.129,0.011-0.151-0.09-0.151-0.09l-0.059-0.467
	c0,0,0-0.218,0.143-0.308C11.964,2.009,12.09,1.98,12.09,1.98z"/>
<circle fill="#008BC9" cx="12.564" cy="2.667" r="0.155"/>
<path fill="#008BC9" d="M12.258,1.646c0,0,0.004-0.075,0.114-0.094c0.11-0.019,0.134,0.058,0.134,0.058l0.123,0.714
	c0,0,0.002,0.081-0.112,0.105S12.38,2.343,12.38,2.343L12.258,1.646z"/>
<path fill="none" d="M6.696,2.947c0,0-0.031,0.06-0.028,0.104c0.002,0.045,0,0.057,0.014,0.129s0.029,0.146,0.037,0.208
	c0.008,0.062,0.016,0.127,0.016,0.127l0.06-0.033L6.764,3.149L6.731,3.014L6.696,2.947z"/>
<path fill="none" d="M10.171,2.396v0.188l0.031,0.199l0.055,0.296l0.028,0.188v0.072l0.067-0.088l-0.028-0.354
	c0,0-0.065-0.295-0.062-0.306c0.003-0.01-0.048-0.175-0.048-0.175l-0.029-0.035L10.171,2.396z"/>
<g>
	<line fill="none" x1="1.961" y1="4.144" x2="2.044" y2="4.176"/>
	<circle fill="none" cx="1.961" cy="4.144" r="0.075"/>
	<circle fill="none" cx="1.961" cy="4.144" r="0.089"/>
	<polyline fill="none" points="1.961,4.144 2.098,4.468 1.961,4.144 1.824,3.82 1.961,4.144 1.638,4.281 1.961,4.144 2.284,4.007 
		1.961,4.144 1.991,4.21 1.961,4.144 1.931,4.078 1.961,4.144 1.895,4.174 1.961,4.144 2.027,4.114 1.961,4.144 1.966,4.222 
		1.961,4.144 1.956,4.065 1.961,4.144 1.883,4.149 1.961,4.144 2.039,4.139 1.961,4.144 2.123,4.216 1.961,4.144 1.799,4.072 
		1.961,4.144 1.889,4.306 1.961,4.144 2.033,3.982 1.961,4.144 1.972,4.266 1.961,4.144 1.95,4.022 1.961,4.144 1.839,4.155 
		1.961,4.144 2.083,4.133 1.961,4.144 2.2,4.196 1.961,4.144 1.722,4.092 1.961,4.144 1.908,4.383 1.961,4.144 2.014,3.904 
		1.961,4.144 2.134,4.326 1.961,4.144 1.788,3.962 1.961,4.144 1.779,4.316 1.961,4.144 2.143,3.972 1.961,4.144 2.013,4.155 
		1.961,4.144 1.909,4.133 1.961,4.144 1.95,4.196 1.961,4.144 1.973,4.092 1.961,4.144 1.965,4.167 1.961,4.144 1.957,4.121 
		1.961,4.144 1.938,4.147 1.961,4.144 1.984,4.141 1.961,4.144 2.127,4.288 1.961,4.144 1.795,4 1.961,4.144 1.817,4.31 
		1.961,4.144 2.105,3.978 1.961,4.144 1.966,4.146 1.961,4.144 1.956,4.141 1.961,4.144 1.958,4.148 1.961,4.144 1.964,4.139 
		1.961,4.144 2.139,4.345 1.961,4.144 1.783,3.943 1.961,4.144 1.76,4.322 1.961,4.144 2.162,3.966 1.961,4.144 2.054,4.477 
		1.961,4.144 1.869,3.812 1.961,4.144 1.629,4.236 1.961,4.144 2.293,4.052 1.961,4.144 1.989,4.526 1.961,4.144 1.933,3.761 
		1.961,4.144 1.578,4.173 1.961,4.144 2.344,4.115 1.961,4.144 2.203,4.248 1.961,4.144 1.719,4.04 1.961,4.144 1.856,4.387 
		1.961,4.144 2.065,3.901 	"/>
	<radialGradient id="SVGID_10_" cx="1.9609" cy="4.1436" r="0.1792" gradientUnits="userSpaceOnUse">
		<stop  offset="0" style="stop-color:#220504"/>
		<stop  offset="0.73" style="stop-color:#974026"/>
		<stop  offset="1" style="stop-color:#220504"/>
	</radialGradient>
	<circle opacity="0.15" fill="url(#SVGID_10_)" cx="1.961" cy="4.144" r="0.179"/>
	<radialGradient id="SVGID_11_" cx="1.9609" cy="4.1436" r="0.0896" gradientUnits="userSpaceOnUse">
		<stop  offset="0.15" style="stop-color:#FFFFFF"/>
		<stop  offset="0.2114" style="stop-color:#E3D1D1"/>
		<stop  offset="0.2918" style="stop-color:#C39A9B"/>
		<stop  offset="0.3613" style="stop-color:#AB7274"/>
		<stop  offset="0.4163" style="stop-color:#9C5A5C"/>
		<stop  offset="0.45" style="stop-color:#975153"/>
		<stop  offset="0.5685" style="stop-color:#6B3435"/>
		<stop  offset="0.6916" style="stop-color:#431B1A"/>
		<stop  offset="0.7898" style="stop-color:#2B0B0A"/>
		<stop  offset="0.85" style="stop-color:#220504"/>
		<stop  offset="0.8573" style="stop-color:#260705"/>
		<stop  offset="0.8648" style="stop-color:#330C08"/>
		<stop  offset="0.8725" style="stop-color:#47150C"/>
		<stop  offset="0.8802" style="stop-color:#642112"/>
		<stop  offset="0.888" style="stop-color:#8A311A"/>
		<stop  offset="0.8958" style="stop-color:#B74424"/>
		<stop  offset="0.9" style="stop-color:#D3502A"/>
		<stop  offset="0.9025" style="stop-color:#C84B28"/>
		<stop  offset="0.9142" style="stop-color:#9C391E"/>
		<stop  offset="0.9263" style="stop-color:#772916"/>
		<stop  offset="0.9389" style="stop-color:#581C10"/>
		<stop  offset="0.952" style="stop-color:#40120A"/>
		<stop  offset="0.9659" style="stop-color:#2F0B07"/>
		<stop  offset="0.9811" style="stop-color:#250605"/>
		<stop  offset="1" style="stop-color:#220504"/>
	</radialGradient>
	<circle opacity="0.5" fill="url(#SVGID_11_)" cx="1.961" cy="4.144" r="0.089"/>
	<radialGradient id="SVGID_12_" cx="1.9609" cy="4.1436" r="0.075" gradientUnits="userSpaceOnUse">
		<stop  offset="0.15" style="stop-color:#FFFFFF"/>
		<stop  offset="0.2824" style="stop-color:#C2C2C2"/>
		<stop  offset="0.4253" style="stop-color:#888888"/>
		<stop  offset="0.5636" style="stop-color:#575757"/>
		<stop  offset="0.6936" style="stop-color:#313131"/>
		<stop  offset="0.8134" style="stop-color:#161616"/>
		<stop  offset="0.9192" style="stop-color:#060606"/>
		<stop  offset="1" style="stop-color:#000000"/>
	</radialGradient>
	<circle fill="url(#SVGID_12_)" cx="1.961" cy="4.144" r="0.075"/>
	<polyline opacity="0.03" fill="none" stroke="#FFFFFF" stroke-width="2" points="1.961,4.144 2.098,4.468 1.961,4.144 1.824,3.82 
		1.961,4.144 1.638,4.281 1.961,4.144 2.284,4.007 1.961,4.144 1.991,4.21 1.961,4.144 1.931,4.078 1.961,4.144 1.895,4.174 
		1.961,4.144 2.027,4.114 1.961,4.144 1.966,4.222 1.961,4.144 1.956,4.065 1.961,4.144 1.883,4.149 1.961,4.144 2.039,4.139 
		1.961,4.144 2.123,4.216 1.961,4.144 1.799,4.072 1.961,4.144 1.889,4.306 1.961,4.144 2.033,3.982 1.961,4.144 1.972,4.266 
		1.961,4.144 1.95,4.022 1.961,4.144 1.839,4.155 1.961,4.144 2.083,4.133 1.961,4.144 2.2,4.196 1.961,4.144 1.722,4.092 
		1.961,4.144 1.908,4.383 1.961,4.144 2.014,3.904 1.961,4.144 2.134,4.326 1.961,4.144 1.788,3.962 1.961,4.144 1.779,4.316 
		1.961,4.144 2.143,3.972 1.961,4.144 2.013,4.155 1.961,4.144 1.909,4.133 1.961,4.144 1.95,4.196 1.961,4.144 1.973,4.092 
		1.961,4.144 1.965,4.167 1.961,4.144 1.957,4.121 1.961,4.144 1.938,4.147 1.961,4.144 1.984,4.141 1.961,4.144 2.127,4.288 
		1.961,4.144 1.795,4 1.961,4.144 1.817,4.31 1.961,4.144 2.105,3.978 1.961,4.144 1.966,4.146 1.961,4.144 1.956,4.141 
		1.961,4.144 1.958,4.148 1.961,4.144 1.964,4.139 1.961,4.144 2.139,4.345 1.961,4.144 1.783,3.943 1.961,4.144 1.76,4.322 
		1.961,4.144 2.162,3.966 1.961,4.144 2.054,4.477 1.961,4.144 1.869,3.812 1.961,4.144 1.629,4.236 1.961,4.144 2.293,4.052 
		1.961,4.144 1.989,4.526 1.961,4.144 1.933,3.761 1.961,4.144 1.578,4.173 1.961,4.144 2.344,4.115 1.961,4.144 2.203,4.248 
		1.961,4.144 1.719,4.04 1.961,4.144 1.856,4.387 1.961,4.144 2.065,3.901 	"/>
</g>
<g>
	<line fill="none" x1="3.201" y1="4.132" x2="3.285" y2="4.164"/>
	<circle fill="none" cx="3.201" cy="4.132" r="0.074"/>
	<circle fill="none" cx="3.201" cy="4.132" r="0.09"/>
	<polyline fill="none" points="3.201,4.132 3.338,4.456 3.201,4.132 3.064,3.809 3.201,4.132 2.878,4.27 3.201,4.132 3.525,3.995 
		3.201,4.132 3.231,4.198 3.201,4.132 3.171,4.066 3.201,4.132 3.135,4.162 3.201,4.132 3.268,4.103 3.201,4.132 3.207,4.21 
		3.201,4.132 3.196,4.054 3.201,4.132 3.123,4.138 3.201,4.132 3.28,4.127 3.201,4.132 3.363,4.204 3.201,4.132 3.04,4.061 
		3.201,4.132 3.129,4.294 3.201,4.132 3.273,3.971 3.201,4.132 3.212,4.254 3.201,4.132 3.19,4.01 3.201,4.132 3.08,4.144 
		3.201,4.132 3.323,4.121 3.201,4.132 3.44,4.185 3.201,4.132 2.962,4.079 3.201,4.132 3.149,4.371 3.201,4.132 3.254,3.893 
		3.201,4.132 3.374,4.313 3.201,4.132 3.029,3.95 3.201,4.132 3.02,4.305 3.201,4.132 3.383,3.959 3.201,4.132 3.254,4.144 
		3.201,4.132 3.149,4.121 3.201,4.132 3.19,4.185 3.201,4.132 3.213,4.08 3.201,4.132 3.205,4.155 3.201,4.132 3.198,4.109 
		3.201,4.132 3.179,4.136 3.201,4.132 3.224,4.128 3.201,4.132 3.367,4.276 3.201,4.132 3.036,3.988 3.201,4.132 3.057,4.298 
		3.201,4.132 3.346,3.966 3.201,4.132 3.207,4.135 3.201,4.132 3.196,4.129 3.201,4.132 3.198,4.137 3.201,4.132 3.205,4.127 
		3.201,4.132 3.379,4.333 3.201,4.132 3.023,3.932 3.201,4.132 3,4.311 3.201,4.132 3.402,3.954 3.201,4.132 3.294,4.465 
		3.201,4.132 3.109,3.8 3.201,4.132 2.869,4.225 3.201,4.132 3.534,4.04 3.201,4.132 3.23,4.515 3.201,4.132 3.173,3.749 
		3.201,4.132 2.818,4.161 3.201,4.132 3.584,4.104 3.201,4.132 3.444,4.236 3.201,4.132 2.959,4.028 3.201,4.132 3.097,4.374 
		3.201,4.132 3.306,3.89 	"/>
	<radialGradient id="SVGID_13_" cx="3.2012" cy="4.1318" r="0.179" gradientUnits="userSpaceOnUse">
		<stop  offset="0" style="stop-color:#220504"/>
		<stop  offset="0.73" style="stop-color:#974026"/>
		<stop  offset="1" style="stop-color:#220504"/>
	</radialGradient>
	<circle opacity="0.15" fill="url(#SVGID_13_)" cx="3.201" cy="4.132" r="0.179"/>
	<radialGradient id="SVGID_14_" cx="3.2012" cy="4.1318" r="0.0898" gradientUnits="userSpaceOnUse">
		<stop  offset="0.15" style="stop-color:#FFFFFF"/>
		<stop  offset="0.2114" style="stop-color:#E3D1D1"/>
		<stop  offset="0.2918" style="stop-color:#C39A9B"/>
		<stop  offset="0.3613" style="stop-color:#AB7274"/>
		<stop  offset="0.4163" style="stop-color:#9C5A5C"/>
		<stop  offset="0.45" style="stop-color:#975153"/>
		<stop  offset="0.5685" style="stop-color:#6B3435"/>
		<stop  offset="0.6916" style="stop-color:#431B1A"/>
		<stop  offset="0.7898" style="stop-color:#2B0B0A"/>
		<stop  offset="0.85" style="stop-color:#220504"/>
		<stop  offset="0.8573" style="stop-color:#260705"/>
		<stop  offset="0.8648" style="stop-color:#330C08"/>
		<stop  offset="0.8725" style="stop-color:#47150C"/>
		<stop  offset="0.8802" style="stop-color:#642112"/>
		<stop  offset="0.888" style="stop-color:#8A311A"/>
		<stop  offset="0.8958" style="stop-color:#B74424"/>
		<stop  offset="0.9" style="stop-color:#D3502A"/>
		<stop  offset="0.9025" style="stop-color:#C84B28"/>
		<stop  offset="0.9142" style="stop-color:#9C391E"/>
		<stop  offset="0.9263" style="stop-color:#772916"/>
		<stop  offset="0.9389" style="stop-color:#581C10"/>
		<stop  offset="0.952" style="stop-color:#40120A"/>
		<stop  offset="0.9659" style="stop-color:#2F0B07"/>
		<stop  offset="0.9811" style="stop-color:#250605"/>
		<stop  offset="1" style="stop-color:#220504"/>
	</radialGradient>
	<circle opacity="0.5" fill="url(#SVGID_14_)" cx="3.201" cy="4.132" r="0.09"/>
	<radialGradient id="SVGID_15_" cx="3.2012" cy="4.1318" r="0.075" gradientUnits="userSpaceOnUse">
		<stop  offset="0.15" style="stop-color:#FFFFFF"/>
		<stop  offset="0.2824" style="stop-color:#C2C2C2"/>
		<stop  offset="0.4253" style="stop-color:#888888"/>
		<stop  offset="0.5636" style="stop-color:#575757"/>
		<stop  offset="0.6936" style="stop-color:#313131"/>
		<stop  offset="0.8134" style="stop-color:#161616"/>
		<stop  offset="0.9192" style="stop-color:#060606"/>
		<stop  offset="1" style="stop-color:#000000"/>
	</radialGradient>
	<circle fill="url(#SVGID_15_)" cx="3.201" cy="4.132" r="0.074"/>
	<polyline opacity="0.03" fill="none" stroke="#FFFFFF" stroke-width="2" points="3.201,4.132 3.338,4.456 3.201,4.132 3.064,3.809 
		3.201,4.132 2.878,4.27 3.201,4.132 3.525,3.995 3.201,4.132 3.231,4.198 3.201,4.132 3.171,4.066 3.201,4.132 3.135,4.162 
		3.201,4.132 3.268,4.103 3.201,4.132 3.207,4.21 3.201,4.132 3.196,4.054 3.201,4.132 3.123,4.138 3.201,4.132 3.28,4.127 
		3.201,4.132 3.363,4.204 3.201,4.132 3.04,4.061 3.201,4.132 3.129,4.294 3.201,4.132 3.273,3.971 3.201,4.132 3.212,4.254 
		3.201,4.132 3.19,4.01 3.201,4.132 3.08,4.144 3.201,4.132 3.323,4.121 3.201,4.132 3.44,4.185 3.201,4.132 2.962,4.079 
		3.201,4.132 3.149,4.371 3.201,4.132 3.254,3.893 3.201,4.132 3.374,4.313 3.201,4.132 3.029,3.95 3.201,4.132 3.02,4.305 
		3.201,4.132 3.383,3.959 3.201,4.132 3.254,4.144 3.201,4.132 3.149,4.121 3.201,4.132 3.19,4.185 3.201,4.132 3.213,4.08 
		3.201,4.132 3.205,4.155 3.201,4.132 3.198,4.109 3.201,4.132 3.179,4.136 3.201,4.132 3.224,4.128 3.201,4.132 3.367,4.276 
		3.201,4.132 3.036,3.988 3.201,4.132 3.057,4.298 3.201,4.132 3.346,3.966 3.201,4.132 3.207,4.135 3.201,4.132 3.196,4.129 
		3.201,4.132 3.198,4.137 3.201,4.132 3.205,4.127 3.201,4.132 3.379,4.333 3.201,4.132 3.023,3.932 3.201,4.132 3,4.311 
		3.201,4.132 3.402,3.954 3.201,4.132 3.294,4.465 3.201,4.132 3.109,3.8 3.201,4.132 2.869,4.225 3.201,4.132 3.534,4.04 
		3.201,4.132 3.23,4.515 3.201,4.132 3.173,3.749 3.201,4.132 2.818,4.161 3.201,4.132 3.584,4.104 3.201,4.132 3.444,4.236 
		3.201,4.132 2.959,4.028 3.201,4.132 3.097,4.374 3.201,4.132 3.306,3.89 	"/>
</g>
</svg>
