<?xml version="1.0" encoding="UTF-8" standalone="no"?>
<svg
   xmlns:dc="http://purl.org/dc/elements/1.1/"
   xmlns:cc="http://creativecommons.org/ns#"
   xmlns:rdf="http://www.w3.org/1999/02/22-rdf-syntax-ns#"
   xmlns:svg="http://www.w3.org/2000/svg"
   xmlns="http://www.w3.org/2000/svg"
   viewBox="0 0 612 792"
   id="svg2"
   height="792"
   width="612"
   version="1.1">
  <metadata
     id="metadata128">
    <rdf:RDF>
      <cc:Work
         rdf:about="">
        <dc:format>image/svg+xml</dc:format>
        <dc:type
           rdf:resource="http://purl.org/dc/dcmitype/StillImage" />
      </cc:Work>
    </rdf:RDF>
  </metadata>
  <defs
     id="defs126" />
  <g
     id="g4">
    <path
       id="path6"
       style="fill:#f7dbb9;fill-rule:evenodd"
       d="m 249.5035,330.8409 c 4.7398,-3.8906 12.8104,-6.033 25.9597,-4.1548 0,0 14.8822,2.067 27.6982,9.0947 12.8154,7.0279 29.7646,11.9894 28.1115,7.8551 -1.6535,-4.1344 -2.0674,-5.7875 10.3351,3.7207 12.4021,9.5083 28.112,29.7649 18.1902,26.0445 -9.9219,-3.7208 -11.575,3.3074 -2.4803,9.9218 9.0946,6.6144 10.3348,12.8154 0.413,9.0947 -9.9219,-3.7208 -16.5362,0.4135 -17.7764,6.6143 -1.2401,6.2014 -35.966,32.6583 -52.0891,29.3517 -16.1229,-3.3067 -14.0562,8.2695 -24.8046,4.1349 -10.7487,-4.1349 -4.5474,-19.8428 -13.229,-25.2179 -8.6817,-5.3751 -16.5368,-7.0282 -16.1232,-24.8046 0.4136,-17.7766 13.6423,-20.6708 10.7487,-31.0056 -1.6982,-6.0659 -1.6875,-15.1223 5.0462,-20.6495 l 0,0 0,0 z" />
    <path
       id="path8"
       style="fill:#00ace1;fill-rule:evenodd"
       d="m 244.044,447.4012 c 0,0 2.8936,-11.5761 14.0559,-5.3751 11.162,6.2014 29.3516,19.0177 23.9774,8.2687 -5.3739,-10.7493 -2.48,-12.8166 8.2687,-9.5088 10.7484,3.3074 23.1497,6.2011 16.122,-4.9609 -7.0274,-11.1623 -11.5756,-20.2578 4.134,-13.6426 15.7099,6.6152 41.3417,11.1631 33.0733,-2.0665 -8.2687,-13.2295 -5.3742,-11.9883 9.9218,-6.201 15.2958,5.7869 19.8437,8.6805 23.9774,-0.4142 0,0 -1.6531,19.8437 -16.1229,21.0838 -14.4697,1.2405 -6.6143,8.2687 -0.413,14.8831 6.2011,6.614 -2.4814,14.4697 -14.0567,8.6816 -11.5753,-5.788 -33.8995,-4.1349 -31.8319,1.6532 2.0673,5.7881 -2.0676,6.2013 -8.682,6.2013 -6.6138,0 -25.6309,-9.5079 -28.938,-5.7872 -3.3072,3.7208 -11.162,4.1338 -16.9498,-3.3077 -5.7875,-7.4412 -11.575,-15.7079 -16.5362,-9.5077 l 0,0 0,0 z" />
    <path
       id="path10"
       style="fill:#b6e0f5;fill-rule:evenodd"
       d="m 234.5357,446.9871 c 0,0 9.5083,11.5744 11.5753,4.1337 2.067,-7.4404 3.7213,-10.7478 11.5756,-4.5468 7.8545,6.2011 18.1899,13.2285 25.2178,10.7482 7.028,-2.4806 3.7208,-2.4795 2.0671,-8.6808 -1.6538,-6.2011 2.4803,-4.9618 12.4021,-1.6543 9.9218,3.3077 19.4307,4.1349 14.8827,-4.5468 -4.5479,-8.6817 -12.4021,-19.844 -2.8941,-14.8828 9.5082,4.961 37.6197,10.3357 38.4468,1.2402 0.8272,-9.0958 -7.4403,-14.0567 0.8272,-10.336 8.2675,3.7208 23.5635,8.2676 24.3904,2.4803 0.8274,-5.7869 -17.7772,-13.6414 -9.9215,-12.4012 7.8553,1.2404 12.8163,-2.8937 2.0673,-6.2011 -10.7493,-3.3078 -31.0051,-14.883 -28.1115,-8.682 2.8936,6.2005 6.2014,12.8169 -8.2684,9.9221 -14.47,-2.8944 -23.5644,-4.9597 -21.0841,3.7208 2.4804,8.6805 2.8936,12.4013 -9.9215,9.5077 -12.8154,-2.8933 -31.4189,-8.6825 -23.9777,2.8936 7.4415,11.5764 6.6144,20.6699 -2.4803,17.3633 -9.0947,-3.3066 -31.0054,-8.6816 -27.2849,-2.4806 3.7208,6.2014 -3e-4,13.2288 -3.3075,9.9221 -3.3071,-3.3069 -6.2008,2.4804 -6.2008,2.4804 l 0,0 0,0 z" />
    <path
       id="path12"
       style="fill:#fdfeff;fill-rule:evenodd"
       d="m 240.7365,431.2783 c 0,0 4.5479,-8.2678 12.816,-3.7208 8.2681,4.5468 21.4966,2.8945 11.575,-2.4806 -9.9212,-5.375 -11.9883,-14.0555 -4.1337,-9.9218 7.8545,4.1338 12.4024,1.6532 9.5082,-2.4803 -2.8939,-4.134 -3.3069,-9.508 4.9612,-5.3742 8.2678,4.1338 23.1508,10.3348 22.7373,1.6534 -0.4136,-8.6816 -3.7202,-11.5752 6.201,-11.9888 9.921,-0.4136 33.8996,3.721 31.4193,-1.6535 -2.4806,-5.3744 -2.0674,-9.0949 9.0946,-2.4806 11.162,6.6141 26.045,14.0565 32.6591,7.028 0,0 -6.2002,10.3351 -20.2566,3.7207 -14.0568,-6.6146 -19.8448,-5.3739 -18.1905,-1.2401 1.6543,4.1337 -9.0947,6.2002 -15.2961,3.3066 -6.201,-2.8936 -12.4021,-2.8936 -11.1619,3.7208 1.2401,6.614 1.2401,14.8818 -10.7482,12.8154 -11.9888,-2.0665 -24.8048,-9.9218 -22.3242,-2.4806 2.4803,7.4415 7.4412,21.9121 -8.2681,19.0176 -15.7096,-2.8944 -22.7378,-9.5088 -24.3913,-4.5479 -1.6532,4.9609 -7.8548,0.8272 -6.2011,-2.8933 l 0,0 0,0 z" />
    <path
       id="path14"
       style="fill:#c05d9d;fill-rule:evenodd"
       d="m 238.2565,364.3061 c 0,0 -2.8945,3.7208 3.7202,7.0279 6.6149,3.3072 11.9888,8.2687 16.1232,12.4025 4.1343,4.1337 11.9888,5.7872 19.4301,3.7202 7.4415,-2.0671 13.2295,-9.0953 10.3354,-15.7096 -2.8939,-6.6141 -4.1344,-1.2402 -12.8158,-3.3069 -8.6816,-2.0671 -7.855,-2.8936 -14.883,-9.0947 -7.0276,-6.2014 -19.0159,-6.6144 -21.9101,4.9606 l 0,0 0,0 z" />
    <path
       id="path16"
       style="fill:#c05d9d;fill-rule:evenodd"
       d="m 285.1551,353.484 c 0,0 8.3299,6.0562 21.9717,7.7094 13.6423,1.6534 17.3883,2.2394 22.0787,4.3532 4.6905,2.1137 11.162,7.4409 0.8272,9.9212 -10.3351,2.4806 -25.2176,-2.48 -32.6591,-4.1338 -7.4412,-1.6537 -10.9139,0.6574 -15.7093,-2.4803 -4.7954,-3.1376 -6.8448,-17.0231 3.4908,-15.3697 l 0,0 0,0 z" />
    <path
       id="path18"
       style="fill:#f29cab;fill-rule:evenodd"
       d="m 266.148,378.3878 c 0,0 -3.3616,-8.788 6.0772,-14.1219 9.4391,-5.3343 7.3721,-1.6135 6.9585,1.6937 0,0 2.7453,5.3864 5.2999,1.6596 2.5546,-3.7267 2.8389,-10.2996 -3.6558,-11.8749 -6.4945,-1.5752 -16.9399,4.4278 -19.834,13.936 -2.8939,9.5083 5.1542,8.7075 5.1542,8.7075 l 0,0 0,0 z" />
    <path
       id="path20"
       style="fill:#f29cab;fill-rule:evenodd"
       d="m 242.8038,365.9596 c 0,0 3.7202,-9.9224 -1.6537,-17.3634 -5.3739,-7.4409 -2.9415,5.4284 -3.3072,9.0953 -0.3656,3.6669 4.9609,8.2681 4.9609,8.2681 l 0,0 0,0 z" />
    <path
       id="path22"
       style="fill:#f29cab;fill-rule:evenodd"
       d="m 242.1933,343.0851 c -1.137,0.8926 -0.7538,2.393 2.154,4.6925 0,0 -2.7842,-2.9016 7.5512,-2.9016 10.3357,0 11.1617,2.8931 9.5086,4.9607 -1.6535,2.0673 -19.4307,1.6537 -20.6706,0.4135 -1.2396,-1.2404 -3.7207,3.7202 2.8942,5.7875 6.6147,2.0673 12.8154,2.4803 17.7764,-2.4806 4.9609,-4.9609 10.9167,-4.9963 2.7714,-8.4926 -5.8779,-2.5228 -19.0386,-4.293 -21.9852,-1.9794 l 0,0 0,0 z" />
    <path
       id="path24"
       style="fill:#f29cab;fill-rule:evenodd"
       d="m 277.53,358.105 c 0,0 -2.8939,-9.0952 2.4806,-14.0561 5.3744,-4.9609 2.0673,-2.8939 7.8548,0 5.7877,2.8942 14.1735,4.9589 17.422,2.4794 3.2482,-2.4794 3.2476,2.8951 -1.2994,4.1352 -4.5474,1.2405 -19.5724,-6.3329 -18.4473,-4.1179 1.125,2.2147 4.8047,20.2411 -8.0107,11.5594 l 0,0 0,0 z" />
    <path
       id="path26"
       style="fill:#f29cab;fill-rule:evenodd"
       d="m 320.1109,368.8537 c 0,0 -4.1341,-7.442 0,-14.0561 4.1337,-6.6144 5.788,-5.7884 5.788,2.4803 0,8.2687 -1.2401,13.2296 -5.788,11.5758 l 0,0 0,0 z" />
    <path
       id="path28"
       style="fill:#f29cab;fill-rule:evenodd"
       d="m 283.6131,353.484 10.7512,2.7017 0,0 c 0,0 -0.3429,-9.6406 -10.3657,-12.7242 -10.0222,-3.0835 -0.3855,10.0225 -0.3855,10.0225 l 0,0 0,0 z" />
    <path
       id="path30"
       style="fill:#924474;fill-rule:evenodd"
       d="m 244.6804,369.2886 c 0,0 5.7818,0.3855 10.7929,6.1676 5.0114,5.7821 10.4077,6.1679 15.419,5.0111 5.0111,-1.1566 14.6152,-7.2445 14.6152,-7.2445 0,0 3.5019,6.4732 -5.3637,11.099 -8.8657,4.6262 -19.6591,3.0847 -25.8268,-1.5415 -6.1673,-4.6258 -10.0219,-10.0224 -13.877,-11.5645 -3.8548,-1.5417 0,-3.0835 4.2404,-1.9272 l 0,0 0,0 z" />
    <path
       id="path32"
       style="fill:#924474;fill-rule:evenodd"
       d="m 289.7804,363.8917 c 0,0 3.8554,6e-4 11.9503,3.8548 8.0944,3.8546 10.4063,5.0114 19.6583,4.2404 9.252,-0.7711 7.3244,4.6258 -0.7704,4.2403 -8.0947,-0.3858 -18.1168,-2.6983 -23.1282,-5.7824 -5.0111,-3.0838 -13.1068,-5.3969 -7.71,-6.5531 l 0,0 0,0 z" />
    <g
       id="g34">
      <path
         id="path36"
         style="fill:#1b1918;fill-rule:evenodd"
         d="m 234.879,440.2176 c -0.5541,-1.5256 -0.7098,-2.8165 -0.536,-3.9072 1.4604,-9.1806 26.2284,-4.2033 33.1645,-5.6024 2.607,-0.5264 4.729,-1.8916 5.3824,-4.5295 0.4677,-1.8887 -0.9453,-3.8018 -1.8581,-5.2713 -3.4954,-5.6319 -0.3637,-7.9348 6.6731,-7.9367 7.8533,-0.003 19.1352,4.3426 25.139,-2.8486 1.5585,-1.8663 1.4448,-5.4785 2.4321,-7.5929 2.3049,-4.9365 14.1795,-3.2283 18.0604,-2.8377 8.3982,0.8447 16.8457,3.4452 25.0917,5.2265 0.1055,0.0224 0.375,-0.0791 0.1661,-0.127 -7.7091,-1.7606 -15.459,-3.8837 -23.2735,-5.1007 -4.9726,-0.7741 -12.9473,-2.1591 -17.6568,0.1761 -2.0083,0.9961 -3.0319,1.997 -4.1363,4.0104 -0.1794,0.3274 -1.7611,5.3068 -1.5055,4.5794 -1.3172,3.7468 -5.7928,4.6551 -9.2026,4.6794 -6.7777,0.0499 -13.2784,-2.122 -20.1337,-0.9725 -2.8664,0.4804 -7.1353,2.2705 -5.5913,5.9326 1.1353,2.6943 3.3755,5.0253 3.2315,8.083 -0.199,4.208 -7.3741,3.9101 -10.1838,3.8693 -5.4184,-0.0783 -26.4452,-2.9024 -26.4067,6.0996 0.005,1.1531 0.3555,2.4998 1.1288,4.0722 0.002,0.004 0.0167,0.003 0.0147,-0.002 l 0,0 0,0 0,0 z" />
      <path
         id="path38"
         style="fill:#1b1918;fill-rule:evenodd"
         d="m 337.2574,425.2771 c 0.4765,0.4436 0.9666,0.8711 1.4706,1.2832 3.1464,2.6651 -0.2265,5.3059 -3.5646,5.1965 -3.9589,-0.1301 -8.2168,-1.4485 -12.0742,-2.3712 -6.0468,-1.4474 -12.1277,-2.7802 -18.2741,-3.744 -2.9537,-0.464 -19.8394,-3.1564 -15.4769,4.2157 0.8584,1.451 2.4673,2.658 3.7474,3.6884 2.6079,2.0988 4.8178,4.3067 6.9701,6.9092 3.5944,4.3466 -5.0051,4.2831 -6.8408,4.0088 -3.3894,-0.5049 -6.6322,-1.342 -10.0579,-1.6152 -3.3573,-0.2676 -6.539,0.4609 -9.112,2.656 -3.0625,2.6136 1.0027,6.1095 2.9719,7.6496 0.125,0.0978 0.686,0.0303 0.4989,-0.131 -0.9995,-0.7948 -1.8904,-1.7002 -2.6737,-2.7167 -4.7749,-5.9578 7.7999,-6.993 9.6894,-6.834 2.8092,0.2372 5.5868,1.002 8.3588,1.5216 2.8185,0.5273 6.2241,1.4247 8.896,-0.0303 2.9526,-1.6075 -1.8856,-6.3672 -2.8403,-7.3984 -1.5049,-1.6271 -3.0912,-2.9696 -4.8677,-4.2804 -1.3935,-1.0292 -2.618,-2.2342 -3.7411,-3.5518 -2.4109,-2.8298 2.2073,-4.123 4.0906,-4.1641 13.3288,-0.2908 26.394,4.8235 39.4739,6.759 2.2501,0.333 5.1562,0.2401 6.8672,-1.4043 2.0197,-1.9423 -2.4452,-4.7421 -3.4979,-5.6503 -0.004,-0.003 -0.0176,-0.001 -0.0136,0.004 l 0,0 0,0 0,0 z" />
      <path
         id="path40"
         style="fill:#1b1918;fill-rule:evenodd"
         d="m 301.5564,402.2215 c -1.7719,-2.958 -3.1504,-5.4581 2.249,-7.3219 2.4307,-0.8391 5.3379,-0.591 7.8423,-0.3135 5.1115,0.5675 9.9298,2.2878 14.8771,3.5847 3.3985,0.8906 6.7949,1.4227 10.2345,2.1407 1.1211,0.2333 3.7732,0.8016 4.9745,0.1531 1.6076,-0.8672 1.7442,-1.4627 1.4882,-3.3426 -0.8124,-5.9735 10.2325,-0.3711 11.9651,0.3123 7.1716,2.8293 14.832,4.2599 22.4628,5.0284 0.4765,0.0479 1.0137,-0.3319 0.2872,-0.4688 -5.6526,-1.0576 -11.1858,-2.501 -16.8049,-3.659 -4.7013,-0.9689 -8.9513,-3.3817 -13.574,-4.6131 -1.3459,-0.3575 -2.9826,-0.6406 -4.307,-0.0451 -0.6052,0.2716 -0.8337,0.7872 -0.953,1.3995 -0.2089,0.6698 -0.2616,1.3513 -0.1621,2.0458 0.1153,3.3397 -3.9062,2.7402 -5.9882,2.2977 -8.7424,-1.8555 -17.498,-5.1315 -26.4626,-5.612 -2.9038,-0.1562 -5.9088,0.256 -8.4605,1.6846 -3.0039,1.6824 -1.067,4.6803 0.2262,6.7428 0.0178,0.0283 0.1238,0.0176 0.1054,-0.0136 l 0,0 0,0 0,0 z" />
      <path
         id="path42"
         style="fill:#1b1918;fill-rule:evenodd"
         d="m 289.55,399.456 c 2.1554,1.616 3.9606,3.534 4.1899,6.3437 0.46,5.629 -11.1229,4.1034 -12.0317,3.744 -1.3399,-0.5293 -2.6073,-1.3221 -3.8687,-2.0107 -4.1049,-2.2422 -8.3716,-4.3086 -13.0312,-5.0391 -1.2095,-0.1894 -2.4318,-0.1534 -2.5752,1.1826 -0.3178,2.9591 8.543,6.0148 10.1211,6.5636 0.0986,0.034 0.4941,-0.0459 0.2871,-0.129 -3.2003,-1.2781 -6.2345,-2.7626 -8.873,-5.0076 -1.7767,-2.34 -0.0768,-2.0305 1.7802,-2.13 0.8736,0.205 1.728,0.4717 2.5645,0.7997 1.2603,0.468 2.4828,0.9688 3.7091,1.5256 4.1494,1.8836 8.5564,6.2382 13.4717,6.1259 3.5688,-0.081 6.508,-0.7764 8.9495,-3.549 2.6221,-2.9775 -2.662,-7.0508 -4.6259,-8.4376 -0.0175,-0.0124 -0.0932,-0.002 -0.0674,0.0179 l 0,0 0,0 0,0 z" />
      <path
         id="path44"
         style="fill:#1b1918;fill-rule:evenodd"
         d="m 256.2219,416.9285 c -2.0231,-2.4667 -7.6691,-5.7949 -9.2324,-1.0069 -0.654,2.0021 1.0332,3.5606 2.5942,4.4396 2.1303,1.1982 4.9272,1.3153 7.301,1.5273 0.3826,0.0341 0.8265,-0.2851 0.2321,-0.379 -2.8499,-0.4529 -6.4077,-0.6961 -8.3681,-3.1025 -1.0245,-1.2577 -0.9389,-3.0546 0.2761,-4.1612 1.4983,-1.3641 5.8356,1.1633 7.1668,2.6866 0.006,0.007 0.036,0.003 0.0303,-0.004 l 0,0 0,0 0,0 z" />
      <path
         id="path46"
         style="fill:#1b1918;fill-rule:evenodd"
         d="m 319.3608,388.7286 c 3.8047,1.4091 8.2831,3.4367 12.4024,3.4591 1.2226,0.007 2.1952,-0.1417 3.2148,-0.8263 0.3339,-0.2257 0.824,-1.0457 0.7793,-1.4502 -0.0488,-0.4258 -1.3048,-4.2735 0.4473,-3.7704 0.1425,0.0408 1.0936,-0.0949 0.7168,-0.3223 -0.6193,-0.3742 -4.1212,-1.3799 -3.8086,0.5165 0.1639,1.0001 0.1542,0.9258 0.4785,1.8984 0.9882,2.9718 -1.5392,3.545 -3.9044,3.1847 -3.4589,-0.5273 -6.9863,-1.5557 -10.2813,-2.7091 -0.0156,-0.006 -0.076,0.008 -0.0448,0.0196 l 0,0 0,0 0,0 z" />
      <path
         id="path48"
         style="fill:#1b1918;fill-rule:evenodd"
         d="m 240.3062,344.215 c -3.2709,2.8188 -4.6868,6.8012 -4.4852,10.8354 0.1074,2.1442 0.6715,4.3022 1.6563,6.308 0.1082,0.2208 0.9819,0.206 0.9209,-0.0556 -0.4169,-1.7875 -0.7843,-3.6533 -0.9677,-5.521 -0.4045,-4.1117 0.083,-8.2344 2.8899,-11.564 0.003,-0.004 -0.011,-0.005 -0.0142,-0.003 l 0,0 0,0 0,0 z" />
      <path
         id="path50"
         style="fill:#1b1918;fill-rule:evenodd"
         d="m 239.5032,345.0138 c 2.9741,6.0253 4.0532,12.3865 4.0269,19.0704 -0.001,0.2284 0.6845,0.2284 0.7186,0 1.0099,-6.7247 -0.7994,-13.5508 -4.7152,-19.0744 -0.005,-0.007 -0.0351,-0.006 -0.0303,0.004 l 0,0 0,0 0,0 z" />
      <path
         id="path52"
         style="fill:#1b1918;fill-rule:evenodd"
         d="m 239.902,345.8106 c 3.9011,4.0859 7.837,6.5948 13.6168,6.3233 4.5201,-0.2121 9.0967,-2.7148 10.6597,-7.0694 0.1088,-0.3047 -0.7177,-0.3231 -0.8439,-0.1054 -2.1923,3.8007 -5.6738,5.917 -9.9873,6.6044 -5.33,0.8496 -9.7679,-2.4072 -13.4178,-5.7605 -0.006,-0.006 -0.0366,-0.003 -0.0275,0.008 l 0,0 0,0 0,0 z" />
      <path
         id="path54"
         style="fill:#1b1918;fill-rule:evenodd"
         d="m 242.6417,351.7911 c 5.7895,2.2411 9.0108,6.4256 15.6974,5.1515 5.2285,-0.9961 10.0313,-5.1634 9.5794,-10.7383 -0.0312,-0.3877 -1.0908,-0.3625 -1.1715,0 -1.1461,5.1191 -4.4164,8.4082 -9.4383,9.9451 -5.1287,1.5696 -9.9618,-2.8769 -14.572,-4.413 -0.0363,-0.0116 -0.1707,0.0256 -0.095,0.0547 l 0,0 0,0 0,0 z" />
      <path
         id="path56"
         style="fill:#1b1918;fill-rule:evenodd"
         d="m 259.861,375.6064 c -1.7861,-11.7762 11.6343,-20.3612 22.0255,-18.8319 0.3368,0.0498 1.0812,-0.2997 0.4272,-0.4561 -11.0778,-2.6493 -26.3605,6.4199 -22.6088,19.288 0.0141,0.0479 0.1635,0.0471 0.1561,0 l 0,0 0,0 0,0 z" />
      <path
         id="path58"
         style="fill:#1b1918;fill-rule:evenodd"
         d="m 266.148,378.3878 c 0.233,-2.3604 0.2837,-4.8691 1.4326,-7.0206 1.0695,-2.001 2.8333,-3.5654 4.4578,-5.1043 3.8548,-3.6505 8.0082,-5.175 13.3172,-5.5205 0.6386,-0.0422 0.3112,-0.4513 -0.1429,-0.4765 -4.841,-0.2707 -9.2234,0.8524 -12.9875,4 -1.7161,1.4343 -3.2426,3.2439 -4.555,5.0408 -2.069,2.8321 -1.8402,5.7237 -1.5378,9.0811 6e-4,0.005 0.0153,0.005 0.0156,0 l 0,0 0,0 0,0 z" />
      <path
         id="path60"
         style="fill:#1b1918;fill-rule:evenodd"
         d="m 258.5225,373.629 c 1.7102,3.456 5.4162,4.4113 8.9127,3.249 0.2548,-0.085 -0.0771,-0.1933 -0.2049,-0.1581 -3.401,0.9286 -6.7232,-0.0136 -8.572,-3.1085 -0.0213,-0.0363 -0.157,-0.0264 -0.1358,0.0176 l 0,0 0,0 0,0 z" />
      <path
         id="path62"
         style="fill:#1b1918;fill-rule:evenodd"
         d="m 237.8957,363.2978 c 4.6964,3.6584 10.1846,5.9318 14.6055,9.9749 3.6538,3.3406 6.8252,5.9434 11.7504,6.9363 8.0175,1.6183 17.1715,-0.2548 22.2378,-6.9267 0.2055,-0.2704 -0.748,-0.3095 -0.9136,-0.1729 -8.0042,6.6007 -18.828,9.6454 -27.9408,2.9248 -3.0869,-2.2774 -5.6611,-5.0156 -8.9799,-7.0027 -3.49,-2.09 -7.2921,-3.4776 -10.692,-5.7512 -0.017,-0.0117 -0.0938,-0.003 -0.0674,0.0175 l 0,0 0,0 0,0 z" />
      <path
         id="path64"
         style="fill:#1b1918;fill-rule:evenodd"
         d="m 282.03,360.1134 c 1.4966,0.4345 2.8902,1.1455 3.2445,2.7782 0.3756,1.7286 -0.2353,3.0938 -0.7909,4.7276 -0.0839,0.2461 0.5576,0.2433 0.663,0.082 1.2827,-1.9511 1.6342,-3.4988 0.4218,-5.5712 -0.6942,-1.1866 -2.2855,-1.7059 -3.5305,-2.0226 -0.005,-8e-4 -0.0176,0.003 -0.008,0.006 l 0,0 0,0 0,0 z" />
      <path
         id="path66"
         style="fill:#1b1918;fill-rule:evenodd"
         d="m 276.8689,365.7161 c 4.3339,0.1482 9.7807,2.2614 8.6386,7.5067 -0.0609,0.2792 0.8731,0.3007 0.9819,0.0595 2.7029,-5.9834 -5.2421,-7.7822 -9.6205,-7.6504 -0.112,0.003 -0.1114,0.0802 0,0.0842 l 0,0 0,0 0,0 z" />
      <path
         id="path68"
         style="fill:#1b1918;fill-rule:evenodd"
         d="m 266.1443,360.9026 c -2.2915,-0.6466 -3.795,-2.7131 -5.3331,-4.3977 -0.0898,-0.0987 -0.561,-0.078 -0.4669,0.0587 1.4332,2.0752 3.1553,4.003 5.7941,4.3446 0.005,0.001 0.015,-0.003 0.006,-0.006 l 0,0 0,0 0,0 z" />
      <path
         id="path70"
         style="fill:#1b1918;fill-rule:evenodd"
         d="m 244.3473,347.7776 c -1.8204,-1.3479 -2.9004,-3.5051 -0.003,-4.9445 2.226,-1.1064 4.9033,-1.0352 7.3023,-0.7665 2.9829,0.3339 5.9043,1.3329 8.7259,2.3085 0.1808,0.0616 0.8853,-0.1006 0.4921,-0.2871 -4.4901,-2.1387 -9.3334,-3.3729 -14.3124,-2.664 -4.0527,0.5763 -6.3363,3.5878 -2.3261,6.3848 0.0317,0.0223 0.1675,0.003 0.121,-0.0312 l 0,0 0,0 0,0 z" />
      <path
         id="path72"
         style="fill:#1b1918;fill-rule:evenodd"
         d="m 235.5378,368.8546 c 7.7992,6.0301 14.3427,14.2432 23.9448,17.3477 8.7174,2.8182 19.2697,1.7754 26.2091,-4.5099 0.3788,-0.3427 -0.7395,-0.3866 -0.9581,-0.2517 -9.2744,5.7294 -22.0181,7.7448 -31.0923,0.2577 -5.7084,-4.7101 -11.8815,-8.8039 -18.0899,-12.8478 -0.003,-0.002 -0.019,0 -0.0136,0.004 l 0,0 0,0 0,0 z" />
      <path
         id="path74"
         style="fill:#1b1918;fill-rule:evenodd"
         d="m 285.1673,370.05 c 2.3896,3.5946 0.6597,8.3633 -1.0508,11.8768 -0.0997,0.2041 0.5004,0.2158 0.6024,0.0743 2.5245,-3.4931 4.2775,-8.6797 0.5343,-11.9679 -0.0153,-0.0124 -0.104,-0.0107 -0.0859,0.0168 l 0,0 0,0 0,0 z" />
      <path
         id="path76"
         style="fill:#1b1918;fill-rule:evenodd"
         d="m 237.094,362.8809 c -2.7949,1.9122 -1.0434,5.8507 0.4966,8.0002 0.1137,0.159 0.7875,0.1494 0.6775,-0.0842 -1.1355,-2.4248 -2.8426,-5.3867 -1.0882,-7.8993 0.0196,-0.0292 -0.0717,-0.0264 -0.0859,-0.0167 l 0,0 0,0 0,0 z" />
      <path
         id="path78"
         style="fill:#1b1918;fill-rule:evenodd"
         d="m 245.8797,346.2072 c 5.4159,-1.7657 10.1421,-1.6503 15.2226,0.9139 0.1327,0.0666 0.8578,0.0195 0.601,-0.2089 -4.1327,-3.6865 -11.2247,-2.8701 -15.8329,-0.711 -0.008,0.004 0.006,0.007 0.009,0.006 l 0,0 0,0 0,0 z" />
      <path
         id="path80"
         style="fill:#1b1918;fill-rule:evenodd"
         d="m 260.1873,370.8408 c 2.2107,-1.3552 4.9827,0.8255 6.4692,2.4163 0.1049,0.1131 0.6699,0.1003 0.5576,-0.0686 -1.2716,-1.9188 -4.8736,-4.0771 -7.0407,-2.3514 -0.005,0.005 0.0105,0.006 0.0139,0.004 l 0,0 0,0 0,0 z" />
      <path
         id="path82"
         style="fill:#1b1918;fill-rule:evenodd"
         d="m 279.2375,340.2422 c -3.0795,3.8662 -6.5429,8.7667 -4.9042,13.9269 0.0264,0.082 0.326,0.0644 0.307,-0.0187 -1.1577,-5.1123 1.7104,-9.9314 4.6276,-13.9042 0.006,-0.008 -0.0247,-0.0116 -0.0304,-0.004 l 0,0 0,0 0,0 z" />
      <path
         id="path84"
         style="fill:#1b1918;fill-rule:evenodd"
         d="m 281.6246,340.253 c 4.5156,1.0108 8.5856,3.2491 13.1618,4.1709 4.0048,0.8076 7.9441,0.915 11.9724,0.3359 0.457,-0.0655 0.1151,-0.3175 -0.1788,-0.2908 -5.6364,0.5085 -11.5359,0.002 -16.9203,-1.806 -2.6575,-0.8923 -5.2302,-2.0497 -8.017,-2.4284 -0.0141,-0.002 -0.0459,0.0125 -0.0181,0.0184 l 0,0 0,0 0,0 z" />
      <path
         id="path86"
         style="fill:#1b1918;fill-rule:evenodd"
         d="m 286.3936,352.5664 c 5.565,2.9943 11.2844,5.709 17.1079,8.176 4.0987,1.7362 8.1893,2.5781 12.5544,1.5469 0.5851,-0.1378 -0.0859,-0.4425 -0.3787,-0.4054 -6.4882,0.83 -11.8996,-2.0469 -17.7069,-4.3554 -3.8786,-1.5409 -7.7601,-3.21 -11.554,-4.9717 -0.008,-0.004 -0.0377,0.002 -0.0227,0.01 l 0,0 0,0 0,0 z" />
      <path
         id="path88"
         style="fill:#1b1918;fill-rule:evenodd"
         d="m 317.802,365.6738 c 0.1741,-4.7352 -0.663,-12.6229 4.633,-14.9774 0.375,-0.167 -0.2951,-0.3231 -0.4629,-0.2704 -6.1308,1.9343 -5.5987,10.2481 -4.1856,15.2478 0.002,0.005 0.0155,0.005 0.0155,0 l 0,0 0,0 0,0 z" />
      <path
         id="path90"
         style="fill:#1b1918;fill-rule:evenodd"
         d="m 323.4662,368.4552 c 0.3263,-6.2158 0.6974,-11.9979 3.0938,-17.8282 0.123,-0.2988 -0.711,-0.3144 -0.8436,-0.1055 -3.4552,5.3878 -2.8321,11.8301 -2.469,17.9337 0.004,0.0703 0.2149,0.0703 0.2188,0 l 0,0 0,0 0,0 z" />
      <path
         id="path92"
         style="fill:#1b1918;fill-rule:evenodd"
         d="m 326.1246,350.9756 c 1.5154,1.1945 0.9394,3.5635 0.5213,5.1622 -0.2597,0.9952 -0.1231,2.3065 -0.2325,3.3437 -0.1502,1.4043 -0.3631,2.799 -0.4941,4.2052 -0.0136,0.1355 0.4043,0.1375 0.4374,0 0.6251,-2.671 0.4357,-5.4161 0.9649,-8.0586 0.3323,-1.6614 0.4162,-3.6592 -1.1698,-4.6601 -0.008,-0.004 -0.0391,-0.001 -0.0272,0.008 l 0,0 0,0 0,0 z" />
      <path
         id="path94"
         style="fill:#1b1918;fill-rule:evenodd"
         d="m 316.9242,365.6837 c 1.4777,1.8233 3.4911,3.8095 6.0324,2.5507 0.5096,-0.2537 -0.3263,-0.4482 -0.5412,-0.417 -2.2266,0.3175 -3.7091,-0.8036 -5.3487,-2.1611 -0.0263,-0.0224 -0.1746,-0.0125 -0.1425,0.0274 l 0,0 0,0 0,0 z" />
      <path
         id="path96"
         style="fill:#1b1918;fill-rule:evenodd"
         d="m 316.228,362.9015 c 1.7305,-0.6162 3.8965,0.6016 5.2305,1.662 0.1269,0.1006 0.8064,0.0459 0.6562,-0.125 -1.3184,-1.4922 -4.0312,-2.5262 -5.9315,-1.5565 -0.0315,0.0164 0.03,0.0244 0.0448,0.0195 l 0,0 0,0 0,0 z" />
      <path
         id="path98"
         style="fill:#1b1918;fill-rule:evenodd"
         d="m 289.5755,361.7138 c 5.2197,0.8127 10.6875,3.6097 15.7479,5.2501 4.0915,1.3263 8.4571,2.5461 12.7122,3.2167 4.6259,0.7297 12.8914,1.01 15.249,-4.0615 0.1329,-0.284 -0.6466,-0.2556 -0.7832,-0.0975 -5.9746,6.9667 -17.3602,2.9472 -24.8188,0.8193 -5.902,-1.6835 -11.9344,-4.83 -18.0989,-5.1543 -0.0283,-0.002 -0.0431,0.0216 -0.008,0.0272 l 0,0 0,0 0,0 z" />
      <path
         id="path100"
         style="fill:#1b1918;fill-rule:evenodd"
         d="m 329.7124,362.8947 c 3.2519,0.2413 3.6621,1.9608 4.1836,4.7656 0.3827,2.0498 0.6095,4.2744 0.4609,6.3573 -0.0235,0.3215 0.9159,0.3076 1.0273,0.0627 1.3164,-2.8693 0.0411,-6.2521 -0.883,-9.0783 -0.6366,-1.9502 -3.0974,-2.1688 -4.7868,-2.1143 -0.008,0.001 -0.0119,0.007 -0.002,0.007 l 0,0 0,0 0,0 z" />
      <path
         id="path102"
         style="fill:#1b1918;fill-rule:evenodd"
         d="m 292.756,370.0539 c 3.7559,0.5281 7.8225,3.3475 11.3686,4.6435 3.9983,1.4618 8.2233,2.3388 12.414,3.0322 7.1913,1.1894 13.3475,1.1806 19.3105,-3.1641 0.4609,-0.335 -0.8008,-0.4816 -1.0431,-0.3614 -3.8515,1.9171 -7.0957,3.4396 -11.541,3.3869 -4.9881,-0.0596 -9.9335,-1.0948 -14.7476,-2.3086 -5.1709,-1.3048 -10.4176,-4.7939 -15.7487,-5.248 -0.0204,-0.002 -0.0445,0.0156 -0.0127,0.0195 l 0,0 0,0 0,0 z" />
      <path
         id="path104"
         style="fill:#1b1918;fill-rule:evenodd"
         d="m 280.8278,355.7443 c 0.8861,0.8232 2.0854,0.9754 2.8516,1.9766 0.6659,0.8708 1.2887,2.0702 1.2518,3.1845 -0.006,0.1749 0.4924,0.1658 0.5525,0.0332 0.54,-1.1866 -0.2608,-2.2363 -1.0486,-3.0841 -1.0315,-1.1112 -2.4573,-1.1883 -3.5798,-2.1181 -0.007,-0.005 -0.0372,-0.002 -0.0275,0.008 l 0,0 0,0 0,0 z" />
      <path
         id="path106"
         style="fill:#1b1918;fill-rule:evenodd"
         d="m 278.8483,342.2324 c 2.581,1.5461 4.4093,3.6125 6.132,6.0588 2.1897,3.1113 2.0012,7.0566 2.662,10.6279 0.0416,0.2246 0.667,0.2274 0.7032,0 1.1342,-7.173 -3.109,-13.7168 -9.485,-16.6915 -0.003,-8e-4 -0.0175,0.002 -0.0122,0.005 l 0,0 0,0 0,0 z" />
      <path
         id="path108"
         style="fill:#1b1918;fill-rule:evenodd"
         d="m 282.4274,343.4258 c 4.7951,1.4777 21.9586,13.2384 24.0565,3.176 0.0751,-0.3603 -1.0463,-0.3359 -1.1965,-0.0735 -4.3274,7.5634 -16.9277,-1.4998 -22.8521,-3.1081 -0.005,-0.001 -0.0176,0.003 -0.008,0.006 l 0,0 0,0 0,0 z" />
      <path
         id="path110"
         style="fill:#1b1918;fill-rule:evenodd"
         d="m 281.2507,339.8556 c 3.6048,-0.9921 8.4166,2.3505 11.4233,4.0048 0.0528,0.0283 0.2793,-0.0184 0.1962,-0.0683 -3.098,-1.876 -7.8216,-5.1115 -11.643,-3.9541 -0.0298,0.009 0.009,0.0224 0.0235,0.0176 l 0,0 0,0 0,0 z" />
      <path
         id="path112"
         style="fill:#1b1918;fill-rule:evenodd"
         d="m 286.3913,344.6184 c 1.7164,1.6815 4.4391,2.5574 5.6132,4.7344 1.1514,2.1348 1.3408,4.6454 2.3598,6.8329 0.0876,0.1865 0.8229,0.1845 0.783,-0.0479 -0.4068,-2.3593 -1.2229,-4.7772 -2.3522,-6.8837 -1.1928,-2.2257 -4.5292,-3.0744 -6.3765,-4.6437 -0.007,-0.005 -0.0372,-0.002 -0.0273,0.008 l 0,0 0,0 0,0 z" />
      <path
         id="path114"
         style="fill:#1b1918;fill-rule:evenodd"
         d="m 287.1989,368.8665 c 2.7797,0.1618 5.5758,0.9969 8.1349,2.067 0.1395,0.0587 0.7163,-0.0261 0.4198,-0.1893 -2.6439,-1.4551 -5.5596,-1.9747 -8.5547,-1.9052 -0.0377,0 -0.0365,0.0252 0,0.0275 l 0,0 0,0 0,0 z" />
      <path
         id="path116"
         style="fill:#1b1918;fill-rule:evenodd"
         d="m 243.1097,356.9338 c 1.0536,-2.0441 3.1054,-3.2023 5.4051,-2.674 0.1142,0.0264 0.6265,-0.0918 0.3407,-0.1992 -2.5095,-0.9434 -5.1565,0.1553 -5.7767,2.8712 -0.002,0.009 0.0269,0.009 0.0309,0.002 l 0,0 0,0 0,0 z" />
      <path
         id="path118"
         style="fill:#1b1918;fill-rule:evenodd"
         d="m 330.107,406.205 c 8.1816,4.0235 16.5466,8.8467 25.7227,10.1004 3.9333,0.538 8.6405,0.4609 12.488,-0.6111 1.5469,-0.4317 2.6524,-0.9434 3.9572,-1.8791 0.4765,-0.3427 3.619,-4.4433 4.0215,-4.2979 0.1386,0.0499 0.9941,-0.034 0.6758,-0.2342 -0.262,-0.1632 -0.5216,-0.3262 -0.7813,-0.4892 -0.2559,-0.1613 -0.6953,-0.2092 -0.9689,-0.0567 -1.9706,1.0987 -2.8652,3.1629 -4.5136,4.6661 -4.1504,3.7879 -14.5607,2.7079 -19.2461,1.2682 -7.3477,-2.2586 -14.3535,-5.2976 -21.3437,-8.4724 -0.004,-9e-4 -0.0196,0.002 -0.0116,0.006 l 0,0 0,0 0,0 z" />
      <path
         id="path120"
         style="fill:#1b1918;fill-rule:evenodd"
         d="m 324.1556,406.5956 c -5.3319,-1.5381 -9.794,-2.7042 -13.3594,2.1504 -0.8895,1.2118 -0.5604,3.6952 -0.4589,5.1091 0.4649,6.4806 -9.8586,4.8019 -14.2835,3.7835 -4.3084,-0.9913 -8.807,-1.5381 -13.2041,-1.9338 -0.0691,-0.006 -0.1479,0.0578 -0.0419,0.0686 4.9663,0.498 9.9425,1.3016 14.7982,2.4647 3.009,0.7205 5.6744,1.2637 8.7514,0.8195 1.9795,-0.2863 3.4149,-0.9649 4.6548,-2.4786 0.6239,-0.7617 0.0848,-3.1301 0.0272,-4.0187 -0.4385,-6.7802 8.5283,-7.2167 13.1086,-5.959 0.004,0.001 0.0175,-0.003 0.008,-0.006 l 0,0 0,0 0,0 z" />
      <path
         id="path122"
         style="fill:#1b1918;fill-rule:evenodd"
         d="m 340.8335,386.7344 c 9.3396,7.4835 23.2246,14.743 35.576,11.6785 0.4844,-0.1202 -0.0743,-0.3623 -0.3144,-0.334 -12.1972,1.3955 -25.3533,-4.5005 -35.248,-11.3485 -0.004,-0.002 -0.0175,0 -0.0136,0.004 l 0,0 0,0 0,0 z" />
    </g>
  </g>
</svg>
