<?xml version="1.0" encoding="UTF-8" standalone="no"?>
<svg
   xmlns:dc="http://purl.org/dc/elements/1.1/"
   xmlns:cc="http://creativecommons.org/ns#"
   xmlns:rdf="http://www.w3.org/1999/02/22-rdf-syntax-ns#"
   xmlns:svg="http://www.w3.org/2000/svg"
   xmlns="http://www.w3.org/2000/svg"
   viewBox="0 0 612 792"
   id="svg2"
   height="792"
   width="612"
   version="1.1">
  <metadata
     id="metadata62">
    <rdf:RDF>
      <cc:Work
         rdf:about="">
        <dc:format>image/svg+xml</dc:format>
        <dc:type
           rdf:resource="http://purl.org/dc/dcmitype/StillImage" />
      </cc:Work>
    </rdf:RDF>
  </metadata>
  <defs
     id="defs60" />
  <g
     id="g4">
    <path
       id="path6"
       style="fill:#1b1918;fill-rule:evenodd"
       d="m 205.0922,291.1996 -93.9611,-47.4296 72.2824,85.6368 -109.7111,-15.75 95.6379,53.2386 -105.9982,21.6189 110.4297,23.6549 -95.9373,52.8793 109.8309,-16.6483 -6.4677,8.2642 -72.5219,77.4325 100.8479,-50.7233 -44.4952,101.8659 81.6844,-83.1815 -24.134,138.4562 63.2395,-123.4847 19.1037,130.9705 20.1815,-127.6768 2.2757,4.6112 55.7538,106.4772 L 369,514.095 l 88.1521,85.6968 -59.0475,-115.6397 108.0941,50.7234 -74.8574,-82.3432 113.1245,13.3546 -107.3156,-55.7538 111.5077,-19.942 -113.963,-22.4573 98.1531,-49.1064 -106.4772,7.4857 80.6663,-78.9895 -105.6388,44.9144 51.5618,-98.9914 -86.4753,74.8574 17.4867,-107.3156 -54.9154,91.5057 L 304.9221,144 284.1416,257.903 233.4182,156.4563 l 9.9411,110.6093 -78.9896,-74.019 41.9801,97.9734 -1.2576,0.1796 z" />
    <path
       id="path8"
       style="fill:#f3bd4e;fill-rule:evenodd"
       d="m 305.8203,183.8241 16.1094,104.0818 47.4296,-94.0209 -16.8878,103.962 74.1987,-74.7377 -48.1483,93.6017 93.6017,-48.1483 -74.7376,74.1987 103.962,-16.8878 -94.021,47.4895 104.0818,16.0494 -104.0818,16.0495 94.021,47.4895 -103.962,-16.8878 74.7376,74.1986 -93.6017,-48.1482 48.1483,93.6017 -74.1987,-74.7377 16.8878,103.962 -47.4296,-94.0209 -16.1094,104.0817 -16.0494,-104.0817 -47.4297,94.0209 16.828,-103.962 -74.1388,74.7377 48.1483,-93.6017 -93.6616,48.1482 74.7376,-74.1387 -100.6084,16.4087 90.6674,-47.0104 -104.0818,-16.0495 104.0818,-16.1093 -94.021,-47.4296 103.962,16.8279 -74.7376,-74.1388 93.6017,48.1483 -48.1483,-93.6616 74.1388,74.7377 -16.8279,-103.9021 47.4296,93.961 16.1093,-104.0818 z" />
    <path
       id="path10"
       style="fill:#1b1918;fill-rule:evenodd"
       d="m 305.9401,489.7814 c 54.3765,0 98.3926,-44.0162 98.3926,-98.3327 0,-54.3765 -44.0161,-98.3926 -98.3926,-98.3926 -54.3165,0 -98.3327,44.0161 -98.3327,98.3926 0,54.3165 44.0162,98.3327 98.3327,98.3327 z" />
    <path
       id="path12"
       style="fill:#ffd652;fill-rule:evenodd"
       d="m 306.539,484.3916 c 50.7234,0 91.8051,-41.1416 91.8051,-91.865 0,-50.6635 -41.0817,-91.8051 -91.8051,-91.8051 -50.7234,0 -91.8651,41.1416 -91.8651,91.8051 0,50.7234 41.1417,91.865 91.8651,91.865 z" />
    <path
       id="path14"
       style="fill:#f3bd4e;fill-rule:evenodd"
       d="m 265.8165,320.3042 c 0,0 -42.3992,23.2956 -43.2376,74.019 -0.8384,50.7234 53.2386,71.5637 53.2386,71.5637 l -23.2957,-21.6188 43.2377,4.1321 -44.0761,-18.3251 44.0761,1.6768 -43.2377,-14.1331 43.2377,-3.2937 -39.884,-10.8394 37.4287,-6.6473 -36.5903,-4.9705 32.3983,-13.3546 -29.943,-0.8384 27.4876,-14.1331 -24.134,-2.4553 23.2956,-14.1331 -22.4572,0.7785 20.7804,-15.75 -23.2956,3.2938 19.942,-18.2652 -14.9715,3.2937 z" />
    <path
       id="path16"
       style="fill:#fff699;fill-rule:evenodd"
       d="m 347.3213,322.4002 c 0,0 42.4591,23.2956 43.2975,74.019 0.8384,50.7234 -53.2386,71.5038 -53.2386,71.5038 l 23.2957,-21.6188 -43.2976,4.192 44.136,-18.3251 -44.136,1.6768 43.2976,-14.1331 -43.2976,-3.3536 39.944,-10.7795 -37.4288,-6.6473 36.5904,-5.0304 -32.3983,-13.2947 29.9429,-0.8384 -27.4876,-14.1331 24.134,-2.5152 -23.2956,-14.1331 22.4572,0.8384 -20.7804,-15.8098 23.2956,3.3536 -20.0019,-18.3251 14.9715,3.3536 z" />
    <path
       id="path18"
       style="fill:#fcca8c;fill-rule:evenodd"
       d="m 227.5494,171.4278 9.1626,75.6958 -58.2092,-51.5618 49.0466,32.3983 0,-56.5323 z" />
    <path
       id="path20"
       style="fill:#fcca8c;fill-rule:evenodd"
       d="m 162.6929,208.0181 30.7814,69.0484 -71.5038,-32.4581 54.0171,16.6483 -13.2947,-53.2386 z" />
    <path
       id="path22"
       style="fill:#fcca8c;fill-rule:evenodd"
       d="m 317.3783,158.9715 13.3546,70.6654 40.7224,-61.5628 -39.1055,39.944 -14.9715,-49.0466 z" />
    <path
       id="path24"
       style="fill:#fcca8c;fill-rule:evenodd"
       d="m 246.7129,163.942 34.0751,69.8869 14.1331,-77.3726 -16.5884,52.4002 -31.6198,-44.9145 z" />
    <path
       id="path26"
       style="fill:#fcca8c;fill-rule:evenodd"
       d="m 387.2652,181.4287 -10.0009,63.1797 49.1065,-39.8841 -39.944,22.4573 0.8384,-45.7529 z" />
    <path
       id="path28"
       style="fill:#fcca8c;fill-rule:evenodd"
       d="m 418.0466,273.7129 34.0751,-63.1796 -21.6188,54.077 59.8859,-21.6787 -74.8574,34.1349 2.5152,-3.3536 z" />
    <path
       id="path30"
       style="fill:#fcca8c;fill-rule:evenodd"
       d="m 450.5048,311.98 54.8555,-52.4002 -39.884,47.4297 59.8859,2.5152 -78.211,5.8089 3.3536,-3.3536 z" />
    <path
       id="path32"
       style="fill:#fcca8c;fill-rule:evenodd"
       d="m 456.3137,363.5418 74.0191,-34.9135 -54.0771,33.2966 61.5628,13.2947 -78.9896,-11.6778 -2.5152,0 z" />
    <path
       id="path34"
       style="fill:#fcca8c;fill-rule:evenodd"
       d="m 464.6379,412.6483 73.1806,-11.6778 -59.0475,14.1331 64.8564,39.9439 -78.9895,-42.3992 z" />
    <path
       id="path36"
       style="fill:#fcca8c;fill-rule:evenodd"
       d="m 452.9601,462.5333 89.8289,13.2946 -74.8574,-5.8089 44.0761,56.5922 -59.0476,-64.0779 z" />
    <path
       id="path38"
       style="fill:#fcca8c;fill-rule:evenodd"
       d="m 413.0761,498.2852 83.9601,41.6207 -75.636,-30.7814 37.4287,78.1512 -45.7528,-88.9905 z" />
    <path
       id="path40"
       style="fill:#fcca8c;fill-rule:evenodd"
       d="m 378.9411,529.9049 69.8869,74.019 -65.6949,-61.5627 9.1027,83.1816 -13.2947,-95.6379 z" />
    <path
       id="path42"
       style="fill:#fcca8c;fill-rule:evenodd"
       d="m 328.2177,539.9059 44.076,88.1521 -40.7224,-74.019 -16.6483,74.8574 13.2947,-88.9905 z" />
    <path
       id="path44"
       style="fill:#fcca8c;fill-rule:evenodd"
       d="m 284.1416,536.5523 10.001,89.8289 -13.3546,-76.5343 -44.076,79.8879 47.4296,-93.1825 z" />
    <path
       id="path46"
       style="fill:#fcca8c;fill-rule:evenodd"
       d="m 238.3888,521.5808 -19.9421,93.1825 13.2947,-84.02 -54.077,56.5324 60.7244,-65.6949 z" />
    <path
       id="path48"
       style="fill:#fcca8c;fill-rule:evenodd"
       d="m 196.8279,496.6682 -34.9734,77.3128 23.2957,-67.3717 -66.5333,33.2966 78.211,-43.2377 z" />
    <path
       id="path50"
       style="fill:#fcca8c;fill-rule:evenodd"
       d="m 111.9695,518.2871 58.2092,-60.7244 -87.3137,15.8099 70.6654,-6.6473 -41.5609,51.5618 z" />
    <path
       id="path52"
       style="fill:#fcca8c;fill-rule:evenodd"
       d="M 72.864,397.6768 153.5304,415.1036 81.1882,454.2091 132.75,419.2956 72.864,397.6768 Z" />
    <path
       id="path54"
       style="fill:#fcca8c;fill-rule:evenodd"
       d="m 75.3792,375.2196 72.3422,-10.8394 -71.5038,-41.5608 53.2386,37.4287 -54.077,14.9715 z" />
    <path
       id="path56"
       style="fill:#fcca8c;fill-rule:evenodd"
       d="m 89.5123,305.3327 73.1806,14.1331 -52.4002,-63.1797 36.5903,55.6939 -57.3707,-6.6473 z" />
  </g>
</svg>
