<?xml version="1.0" encoding="UTF-8"?>
<!DOCTYPE svg PUBLIC "-//W3C//DTD SVG 1.1//EN" "http://www.w3.org/Graphics/SVG/1.1/DTD/svg11.dtd">
<!-- Creator: CorelDRAW -->
<svg xmlns="http://www.w3.org/2000/svg" xml:space="preserve" width="6.18037in" height="4.31969in" style="shape-rendering:geometricPrecision; text-rendering:geometricPrecision; image-rendering:optimizeQuality; fill-rule:evenodd; clip-rule:evenodd"
viewBox="0 0 6.71743 4.69506"
 xmlns:xlink="http://www.w3.org/1999/xlink">
 <defs>
  <style type="text/css">
   <![CDATA[
    .fil8 {fill:#00AFEF}
    .fil7 {fill:#373435}
    .fil13 {fill:#51A8B1}
    .fil6 {fill:#7A75B5}
    .fil2 {fill:#847059}
    .fil10 {fill:#A45E4D}
    .fil1 {fill:#A8518A}
    .fil5 {fill:#BDBFC1}
    .fil12 {fill:#BE5051}
    .fil11 {fill:#D2AE6D}
    .fil4 {fill:#D2D3D5}
    .fil3 {fill:#F4F3EB}
    .fil9 {fill:#FDD1A1}
    .fil0 {fill:#FEFEFE}
   ]]>
  </style>
 </defs>
 <g id="Layer_x0020_1">
  <metadata id="CorelCorpID_0Corel-Layer"/>
  <g id="_261995000">
   <polygon id="_10703256" class="fil0" points="1.70113,3.49872 2.08154,4.03239 2.7076,3.98783 2.54348,3.09983 2.20002,3.07266 2.0185,3.09983 "/>
   <path id="_266246056" class="fil1" d="M1.85112 3.28895l0.29781 0.209771 -0.042389 0.182599 0.0358676 0.648877 0.0228248 0.199989 0.298897 -0.0358676 0.242378 -0.201076 -0.249986 -0.69344 -0.211945 -0.165208 -0.0152166 -0.355415 -0.166295 -0.0184772 -0.0619531 0.0271724c0,0 -0.1576,0.219553 -0.149992,0.201076z"/>
   <path id="_266245888" class="fil2" d="M2.17393 3.47155l0.110863 0.00869518c0,0 0.123906,0.0826042 0.146731,0.146731 0.0228248,0.0641269 0.211945,0.684745 0.211945,0.684745l0.0793435 -0.0369545 -0.247813 -0.684745 -0.167382 -0.164121c0,0 -0.166295,0.042389 -0.133688,0.0456497z"/>
   <path id="_266245768" class="fil2" d="M1.78917 3.3346c-0.00869518,0 0.228248,0.173904 0.292375,0.182599 0.0641269,0.00869518 0.0826042,-0.0456497 0.0826042,-0.0456497l-0.338025 -0.209771c0,0 -0.0271724,0.0728221 -0.0369545,0.0728221z"/>
   <path id="_266246176" class="fil2" d="M2.24349 3.45307l-0.0521711 -0.410847 0.102168 0.0217379c0,0 0.0195641,0.291288 0.00543448,0.408673 -0.010869,0.0912993 -0.053258,-0.00543448 -0.0554317,-0.0195641z"/>
   <path id="_266246152" class="fil2" d="M2.11524 3.54437l-0.0271724 0.128254c0,0 0.0163035,0.766262 0.0489104,0.840171 0.0326069,0.0728221 0.0923862,0.00869518 0.0923862,0.00869518l-0.0771697 -0.840171 0.0249986 -0.172817 -0.0619531 0.0358676z"/>
   <path id="_266246296" class="fil3" d="M4.20099 4.16934l0.66192 -0.607575 0.135862 -0.353242 0.561926 -1.84772 0.307592 0.253247 0.0815173 -0.153252 0.118472 0.0173904 0.153252 0.0912993c0,0 0.398891,0.23477 0.426064,0.334764 0.0271724,0.0999945 -0.0271724,0.208684 -0.06304,0.281506 -0.0358676,0.0717352 -1.19667,2.22814 -1.19667,2.22814 0,0 -0.180425,0.326069 -0.397804,0.226075 -0.218466,-0.0999945 -0.390196,-0.226075 -0.498886,-0.280419 -0.10869,-0.0543448 -0.290201,-0.190207 -0.290201,-0.190207z"/>
   <polygon id="_266246392" class="fil4" points="5.94981,1.7499 6.02263,1.63252 6.16719,1.77708 6.17697,1.68686 6.04981,1.5597 6.53021,1.81403 6.61173,1.94989 6.55739,2.03141 6.19436,1.97707 "/>
   <polygon id="_266246464" class="fil5" points="5.4694,1.9412 5.64222,2.1314 5.28898,3.29873 5.17051,3.58893 4.52706,4.23238 4.36403,4.03239 4.99008,3.54328 5.19768,2.94549 5.2705,2.55529 "/>
   <polygon id="_266246536" class="fil6" points="0.052308,4.10521 0.133825,3.35308 0.668579,2.72811 0.894653,2.32161 0.930521,2.94549 1.03052,3.29873 1.38376,3.93348 1.44788,3.9237 1.68265,3.51611 1.8283,3.64328 2.04568,4.05087 2.15437,4.58562 1.16638,4.2052 0.695751,4.2052 0.604452,4.12369 0.278383,4.18673 "/>
   <polygon id="_266246608" class="fil6" points="2.37175,2.59225 2.58913,2.74659 2.77064,3.01831 2.79781,3.127 2.94237,3.1357 3.25865,3.49872 3.18583,4.26824 3.38582,4.28672 3.59451,4.15086 3.92927,4.2139 4.00209,4.11391 3.74776,3.56176 3.44886,2.70963 3.05106,2.30313 2.75216,2.29444 "/>
   <polygon id="_266246680" class="fil7" points="0.232733,3.19874 0.151216,2.66507 0.259905,2.30313 0.595756,1.97707 0.704446,2.16727 0.641406,2.59225 0.604452,2.78246 "/>
   <path id="_266246776" class="fil8" d="M2.76738 2.22162c0,0 0.420629,0.00978207 0.547796,0.131515 0.128254,0.122819 0.59888,1.32167 0.638009,1.49122 0.0391283,0.170643 0.127167,0.273898 0.127167,0.273898 0,0 -0.0782566,0.09456 -0.136949,-0.0184772 -0.0586924,-0.113037 -0.323895,-1.20863 -0.618444,-1.57709 -0.293462,-0.367371 -0.469539,-0.244552 -0.51845,-0.253247 -0.0489104,-0.00978207 -0.0391283,-0.0478235 -0.0391283,-0.0478235z"/>
   <polygon id="_266246872" class="fil9" points="2.47065,4.34976 2.39566,3.78784 2.46196,3.52915 2.70434,3.27482 2.83694,3.15852 2.95758,3.14222 3.54342,2.83354 3.61516,2.83354 3.65211,2.91288 3.60211,2.96288 3.15649,3.27156 3.29778,3.37916 3.38147,3.40416 3.40212,3.5585 3.41082,3.6085 3.51516,3.72045 3.36082,3.94978 3.25648,4.14543 3.13149,4.37476 2.68695,4.43671 "/>
   <polygon id="_266246944" class="fil0" points="0.914217,2.25857 0.89574,2.48573 0.950085,2.99657 1.20551,3.56285 1.4794,3.90087 1.71743,3.43459 2.03698,3.0694 2.42066,3.0694 2.78585,3.12483 2.61195,2.82376 2.46631,2.64985 2.31958,2.57703 2.2098,2.58573 2.2098,2.80528 2.09133,3.05201 1.9359,3.07918 1.54353,3.03353 1.26963,2.94223 1.08703,2.76833 0.977257,2.45856 "/>
   <path id="_266247016" class="fil8" d="M0.749009 2.17597c0,0 0.0554317,0.128254 0.0369545,0.227161 -0.0184772,0.101081 -0.155426,0.310853 -0.155426,0.310853 0,0 0.118472,-0.583664 0.0826042,-0.629313 -0.0369545,-0.0456497 0.0358676,0.0912993 0.0358676,0.0912993z"/>
   <path id="_266247112" class="fil8" d="M0.252297 3.2683c0.084778,-0.0576055 -0.503233,-0.536927 0.404326,-1.34775 0,0 -0.386935,0.198902 -0.531493,0.624966 -0.144557,0.427151 0.042389,0.781479 0.127167,0.722786z"/>
   <path id="_266247184" class="fil10" d="M2.77498 1.26189c0,0 0.0380414,0.190207 -0.0130428,0.279333 -0.0499973,0.0891256 -0.122819,0.0673876 -0.122819,0.0673876l-0.0249986 -0.0456497c0,0 0.118472,-0.0130428 0.127167,-0.0728221 0.00869518,-0.0586924 0.0336938,-0.228248 0.0336938,-0.228248z"/>
   <path id="_266247256" class="fil9" d="M0.705533 1.77382c0,0 -0.0326069,0.130428 0.0760828,0.254334 0.10869,0.124993 0.151079,0.1576 0.151079,0.1576l0.0326069 0.188033 0.210858 0.445628 0.383675 0.194555c0,0 0.326069,0.101081 0.45541,0.0521711 0.129341,-0.0489104 0.205424,-0.454323 0.205424,-0.454323l0.232596 -0.0489104 0.216292 -0.102168 0.0706483 -0.156513 -0.0489104 -0.227161 -0.010869 -0.0706483 0 -0.0858649 -0.0434759 -0.1576 0.0543448 -0.053258 -0.0641269 -0.146731 -0.00869518 -0.20325 -0.105429 -0.116298 -0.0380414 -0.123906 -0.0967338 -0.335851 -0.124993 -0.178251 -0.205424 -0.221727 -0.199989 -0.010869 -1.20102 1.34232 0.0586924 0.0586924z"/>
   <path id="_266247352" class="fil7" d="M0.770747 1.96946l-0.227161 -0.163035 -0.210858 -0.56736 0.0217379 -0.584751 0.405413 -0.508668 0.427151 -0.145644c0,0 0.276072,0.020651 0.34672,0.0586924 0.0706483,0.0380414 0.248899,0.0652138 0.248899,0.0652138 0,0 0.161948,0 0.227161,0.0543448 0.0652138,0.0543448 0.276072,0.286941 0.254334,0.356502 -0.0217379,0.0706483 -0.00543448,0.0978207 -0.00543448,0.0978207l-0.232596 -0.243465 -0.0434759 0.0163035 -0.0489104 0.292375 -0.302157 0.578229 -0.352155 0.270637 -0.172817 0.0326069 -0.0706483 0.010869 0.0923862 0.205424 -0.0380414 0 -0.0434759 -0.010869 -0.0652138 -0.0217379 -0.199989 -0.0695614 -0.0434759 0.00543448c0,0 -0.0434759,0.042389 -0.0434759,0.102168 0,0.0597793 0.0760828,0.168469 0.0760828,0.168469z"/>
   <path id="_266247448" class="fil10" d="M2.15654 1.87381l0.0173904 -0.165208 0.278246 -0.245639c-0.0239117,0.0902124 -0.23803,0.279333 -0.23803,0.279333l-0.0163035 0.180425 -0.0413021 -0.0489104z"/>
   <polygon id="_266247520" class="fil10" points="2.17393,1.82816 1.17181,1.551 1.17181,1.5847 2.17393,1.89664 "/>
   <path id="_266247616" class="fil8" d="M1.90112 0.123906c-0.00543448,-0.00543448 0.39563,0.0815173 0.379327,0.389109 -0.0163035,0.308679 -0.0217379,0.152166 -0.0326069,0.0923862 -0.010869,-0.0597793 -0.00543448,-0.199989 -0.0597793,-0.259768 -0.053258,-0.0597793 -0.281506,-0.216292 -0.286941,-0.221727z"/>
   <path id="_266247592" class="fil11" d="M1.87286 1.61078c0.32933,0.0282593 0.314113,-0.0554317 0.372806,-0.17499 -0.0586924,0.119559 -0.168469,0.136949 -0.372806,0.17499z"/>
   <path id="_266247760" class="fil11" d="M2.4174 1.28145c0.0391283,-0.0478235 0.0565186,-0.0565186 0.0565186,-0.115211 0,0.0586924 0.0293462,0.0912993 -0.0565186,0.115211z"/>
   <path id="_266247856" class="fil11" d="M2.43479 1.87381c0,0 0.0923862,-0.010869 0.10869,-0.0652138 0.0173904,-0.0554317 0.0663007,-0.010869 0.109777,-0.0336938 0.0434759,-0.0217379 0.0989076,-0.0597793 0.0543448,-0.135862l-0.305418 -0.328243c0,0 0.229335,0.311939 0.251073,0.349981 0.0217379,0.0380414 0.010869,0.0217379 0,0.0489104 -0.010869,0.0271724 -0.0652138,-0.010869 -0.104342,0.0217379 -0.0380414,0.0326069 -0.0271724,0.0771697 -0.0597793,0.0826042 -0.0326069,0.00543448 -0.0597793,0 -0.103255,-0.0391283 -0.00543448,0.0826042 0.0489104,0.0989076 0.0489104,0.0989076z"/>
   <path id="_263511648" class="fil12" d="M2.35436 2.1488c0,0 0.06304,0.0326069 0.114124,0.0358676 0.0510842,0.00326069 0.199989,-0.0749959 0.213032,-0.11195 0.0141297,-0.0369545 0.0173904,-0.0369545 0.00217379,-0.0673876 -0.0163035,-0.0304331 -0.0391283,-0.010869 -0.0836911,0.00652138 -0.0456497,0.0184772 -0.245639,0.136949 -0.245639,0.136949z"/>
   <path id="_263512488" class="fil12" d="M2.32936 2.1651c0,0 0.105429,-0.09456 0.152166,-0.11195 0.0467366,-0.0184772 0.0717352,-0.0771697 0.109777,-0.0858649 0.0380414,-0.00978207 0.042389,0.00434759 0.042389,0.00434759l0.0260855 -0.0858649c0,0 0.0293462,-0.00434759 0.020651,0.0543448 -0.00869518,0.0586924 -0.0380414,0.0586924 -0.0804304,0.0902124 -0.042389,0.03152 -0.270637,0.134775 -0.270637,0.134775z"/>
   <path id="_263512296" class="fil10" d="M2.24567 1.91946c0.129341,-0.0467366 0.222814,-0.173904 0.214119,-0.410847 0.00869518,0.236944 -0.344546,0.457584 -0.214119,0.410847z"/>
   <path id="_263512104" class="fil10" d="M2.44892 1.48579l0.0163035 0.042389c0,0 0.053258,-0.136949 0.0728221,-0.0978207 0,0 -0.00652138,-0.0467366 -0.0260855,-0.0402152 -0.0184772,0.00652138 -0.0695614,0.0793435 -0.06304,0.0956469z"/>
   <polygon id="_263512080" class="fil10" points="2.53369,1.41405 2.56304,1.43905 2.76194,1.22819 2.74564,1.20211 "/>
   <path id="_263512656" class="fil11" d="M2.6989 1.67708c0,0 0.042389,-0.0336938 0.0293462,-0.0760828 -0.0130428,-0.042389 -0.0804304,-0.0347807 -0.0804304,-0.0347807l0.0510842 0.110863z"/>
   <polygon id="_263511480" class="fil12" points="0.542499,1.94337 0.799006,2.21184 0.884871,2.1238 0.575105,1.88359 "/>
   <path id="_263512848" class="fil11" d="M2.06089 0.418455c0,0 0.343459,0.368458 0.39237,0.622792 0.0597793,0.3152 0.03152,-0.110863 -0.0413021,-0.229335 -0.0663007,-0.105429 -0.319548,-0.457584 -0.382588,-0.444541 -0.0619531,0.0130428 0.03152,0.0510842 0.03152,0.0510842z"/>
   <path id="_263512944" class="fil11" d="M1.1729 2.01185c0.0260855,0.020651 0.106516,0.198902 -0.0380414,0.245639 -0.14347,0.0467366 -0.397804,-0.207597 -0.397804,-0.30107 0,-0.0934731 0.0119559,-0.0249986 0.0293462,0 0.0173904,0.0260855 0.135862,0.216292 0.274985,0.216292 0.14021,0 0.0934731,-0.0336938 0.0934731,-0.0554317 0,-0.020651 0.0130428,-0.127167 0.0380414,-0.105429z"/>
   <path id="_263513064" class="fil11" d="M0.998995 1.88903c0.00434759,0.0543448 0.0304331,0.00869518 0.0260855,-0.0554317 -0.00434759,-0.06304 -0.23803,-0.249986 -0.30107,-0.14021 -0.0641269,0.110863 -0.0249986,0.161948 -0.0130428,0.186946 0,0 -0.020651,-0.178251 0.0597793,-0.173904 0.0804304,0.00434759 0.224988,0.127167 0.228248,0.182599z"/>
   <path id="_263513160" class="fil11" d="M0.92726 1.82925c0,0 -0.0978207,0.0554317 -0.06304,0.127167 0.0336938,0.0717352 0.020651,0.106516 0.0467366,0.114124 0.0249986,0.00869518 0.0336938,-0.042389 0.0717352,-0.0380414 0.0380414,0.00434759 0.0543448,0.0554317 0.0891256,0.0380414 0.0336938,-0.0163035 0.0543448,-0.020651 0.020651,-0.0456497 -0.0336938,-0.0260855 -0.0586924,-0.0347807 -0.042389,-0.0728221 0.0173904,-0.0380414 -0.0249986,-0.0543448 -0.0543448,-0.0467366 -0.0304331,0.00869518 -0.0684745,-0.0760828 -0.0684745,-0.0760828z"/>
   <path id="_263513304" class="fil8" d="M2.01198 0.453236c0,0 -0.0912993,0.979294 -0.91082,1.17385 -0.0434759,0.00978207 -0.10869,0.0260855 -0.232596,-0.010869 0.320635,-0.0293462 0.555404,-0.181512 0.677137,-0.334764 0.121732,-0.153252 0.459757,-0.572795 0.408673,-0.891256 -0.0510842,-0.317374 0.0576055,0.06304 0.0576055,0.06304z"/>
   <path id="_263513424" class="fil8" d="M1.93373 0.424977c0,0 -0.294549,0.832563 -1.04342,0.997771 -0.0391283,0.00869518 -0.0989076,0.0228248 -0.198902,-0.00869518 0.28368,-0.0249986 0.519537,-0.154339 0.657573,-0.284767 0.139123,-0.130428 0.522797,-0.48693 0.548883,-0.757567 0.0260855,-0.270637 0.0358676,0.053258 0.0358676,0.053258z"/>
   <path id="_263513280" class="fil8" d="M0.506631 1.80968c0,0 -0.540188,-0.842345 -0.0336938,-1.42275 0,0 0.106516,-0.151079 0.131515,-0.0728221 0.0249986,0.0771697 -0.230422,0.186946 -0.255421,0.591272 -0.0260855,0.403239 0.0119559,0.704309 0.23477,0.922776 0.221727,0.217379 -0.0771697,-0.0184772 -0.0771697,-0.0184772z"/>
   <path id="_263513640" class="fil11" d="M2.59999 1.53035c0.0010869,-0.0391283 0.00543448,-0.17499 -0.0489104,-0.239117 -0.0543448,-0.0641269 -0.0869518,-0.0706483 -0.0271724,-0.0586924 0.0597793,0.0119559 0.14021,0.239117 0.10869,0.379327 0.0249986,-0.0782566 -0.0347807,-0.042389 -0.0326069,-0.0815173z"/>
   <polygon id="_263513736" class="fil8" points="1.00878,1.59556 1.1066,1.81186 1.15551,1.83903 1.07399,1.5847 "/>
   <path id="_263513592" class="fil11" d="M2.17719 1.34232l-0.0271724 0.0260855 -0.132601 -0.00434759c-0.37824,0.115211 0.0641269,-0.123906 0.159774,-0.0217379z"/>
   <path id="_263513928" class="fil11" d="M2.32827 1.16081l0.03152 -0.020651 0.0217379 -0.0717352c0.188033,-0.231509 -0.135862,0.0597793 -0.053258,0.0923862z"/>
   <path id="_263514048" class="fil8" d="M0.858786 2.30313c0,0 -0.246726,0.491277 -0.410847,0.657573 -0.164121,0.167382 -0.510842,0.467366 -0.438019,0.97386 0,0 0.0184772,0.115211 0.0826042,0.0402152 0.06304,-0.0749959 -0.0912993,-0.430411 0.172817,-0.752133 0.265203,-0.322808 0.566273,-0.659746 0.620618,-0.81626 0.0554317,-0.154339 -0.0271724,-0.103255 -0.0271724,-0.103255z"/>
   <path id="_263514024" class="fil8" d="M0.914217 2.26727c0,0 0.0173904,0.401065 0.34672,0.638009 0.328243,0.23803 0.538014,0.182599 0.69344,0.201076 0.155426,0.0184772 0.136949,-0.0369545 0.136949,-0.0369545 0,0 -0.0271724,-0.0173904 -0.282593,-0.0456497 -0.255421,-0.0271724 -0.557578,-0.145644 -0.611923,-0.218466 -0.0543448,-0.0728221 -0.209771,-0.374979 -0.228248,-0.556491 -0.0184772,-0.182599 -0.0543448,0.0184772 -0.0543448,0.0184772z"/>
   <path id="_263514240" class="fil8" d="M2.19023 2.61616c0,0 0,0.334764 -0.131515,0.418455 -0.132601,0.0836911 0.0380414,0.0749959 0.0771697,0.0249986 0.0391283,-0.0499973 0.116298,-0.334764 0.0934731,-0.459757 -0.0239117,-0.12608 -0.0391283,0.0163035 -0.0391283,0.0163035z"/>
   <path id="_263514336" class="fil8" d="M0.885958 2.45856c0,0 0.0369545,0.438019 0.0826042,0.711918 0.0456497,0.273898 0.474974,0.776044 0.474974,0.776044 0,0 0.0728221,0.0358676 0.0456497,-0.0641269 -0.0271724,-0.0999945 -0.39237,-0.419542 -0.456497,-0.684745 -0.0641269,-0.265203 -0.109777,-0.794522 -0.109777,-0.794522l-0.0369545 0.0554317z"/>
   <path id="_263514456" class="fil8" d="M2.3924 2.58573c0,0 0.119559,0.0369545 0.201076,0.128254 0.0826042,0.0912993 0.219553,0.328243 0.228248,0.39237 0.00869518,0.0641269 -0.0456497,0.0184772 -0.0456497,0.0184772 0,0 -0.0271724,-0.209771 -0.255421,-0.374979 -0.228248,-0.164121 -0.173904,-0.172817 -0.173904,-0.172817l0.0456497 0.00869518z"/>
   <path id="_263514600" class="fil8" d="M1.70983 3.57372c0,0 0.334764,0.576055 0.393457,0.883647 0.0597793,0.308679 0.0293462,0.228248 0.0293462,0.228248l0.0760828 -0.0967338c0,0 -0.204337,-0.961904 -0.479322,-1.10972 -0.0695614,0.0271724 -0.0195641,0.09456 -0.0195641,0.09456z"/>
   <path id="_263514696" class="fil8" d="M2.52935 3.09548c0,0 -0.00869518,0.153252 0.0282593,0.232596 0.0358676,0.0804304 0.0815173,-0.0217379 0.0815173,-0.0217379l-0.0641269 -0.218466 -0.0456497 0.00760828z"/>
   <path id="_263517672" class="fil11" d="M2.88585 3.1607c0,0 0.509755,-0.319548 0.656486,-0.382588 0.145644,-0.0641269 0.164121,0.136949 0.0815173,0.172817 0,0 0.0184772,-0.127167 -0.0641269,-0.0999945 -0.0815173,0.0271724 -0.729308,0.373893 -0.729308,0.373893l0.0554317 -0.0641269z"/>
   <path id="_263514552" class="fil11" d="M3.1141 3.27265c0.0510842,0.0173904 0.188033,0.0434759 0.172817,0.113037 0,0 0.199989,-0.0010869 0.102168,0.188033 0,0 0.180425,0.109777 0.0619531,0.223901 -0.117385,0.114124 -0.260855,0.428237 -0.295636,0.502146 -0.0347807,0.0749959 0.0673876,0.0293462 0.0673876,0.0293462l0.305418 -0.560839c0,0 0.0336938,-0.219553 -0.0858649,-0.22064 0.0456497,-0.0119559 0.0380414,-0.221727 -0.107603,-0.186946 -0.0173904,-0.084778 -0.113037,-0.165208 -0.22064,-0.0880387z"/>
   <path id="_263517696" class="fil8" d="M2.03263 3.10092c0,0 -0.314113,0.335851 -0.477148,0.657573 -0.163035,0.321722 -0.0521711,0 0.0521711,-0.180425 0.103255,-0.180425 0.277159,-0.411934 0.353242,-0.464105 0.0760828,-0.0510842 0.0717352,-0.0130428 0.0717352,-0.0130428z"/>
   <path id="_263516496" class="fil8" d="M2.02829 3.09983c0,0 0.389109,-0.0391283 0.689093,0.0326069 0.30107,0.0728221 0.0271724,-0.0402152 -0.146731,-0.0706483 -0.17499,-0.0304331 -0.421716,-0.0380414 -0.495625,-0.00978207 -0.0749959,0.0271724 -0.0467366,0.0478235 -0.0467366,0.0478235z"/>
   <path id="_263517792" class="fil11" d="M2.43805 4.32042c0,0 -0.10869,-0.629313 -0.0543448,-0.730395 0.0543448,-0.0999945 0.273898,-0.401065 0.365197,-0.438019 0.0912993,-0.0369545 0.172817,-0.00869518 0.172817,-0.00869518 0,0 -0.0728221,-0.0184772 -0.255421,0.172817 -0.182599,0.192381 -0.264116,0.30107 -0.255421,0.438019 0.00978207,0.136949 0.101081,0.611923 0.101081,0.611923l-0.073909 -0.0456497z"/>
   <path id="_263517576" class="fil11" d="M4.59988 3.38025c0,0 0.0543448,-0.235857 0.10869,-0.280419 0.0543448,-0.0456497 0.390196,-0.254334 0.434759,-0.271724 0,0 0.0184772,0.0717352 -0.0358676,0.0989076 -0.0543448,0.0271724 -0.317374,0.172817 -0.363024,0.217379 -0.0445628,0.0456497 -0.0815173,0.208684 -0.0815173,0.208684l-0.06304 0.0271724z"/>
   <polygon id="_10688664" class="fil9" points="4.37381,3.96935 4.50967,3.44438 4.61836,3.38025 4.74444,3.11722 5.15312,2.87267 4.99008,3.35308 5.06182,3.34438 5.08899,3.43459 5.01725,3.51611 4.75422,3.58893 "/>
   <polygon id="_10688448" class="fil11" points="4.61836,3.56176 4.94443,3.52589 4.64553,3.61611 "/>
   <path id="_10688256" class="fil11" d="M4.35533 3.89653c0,0 0.0728221,-0.470626 0.190207,-0.533666 0.117385,-0.0641269 0.208684,-0.0369545 0.271724,-0.0456497 0.0793435,-0.0119559 0.368458,-0.0597793 0.317374,0.0815173 -0.0358676,0.0999945 -0.0999945,0.135862 -0.154339,0.135862 0,0 0.118472,-0.10869 0.0815173,-0.154339 -0.0358676,-0.0456497 -0.226075,0 -0.280419,0 -0.0543448,0 -0.208684,0.00978207 -0.244552,0.0912993 -0.0369545,0.0815173 -0.181512,0.424977 -0.181512,0.424977z"/>
   <polygon id="_10688304" class="fil11" points="4.7814,3.31286 4.94878,3.18352 5.04443,3.10526 5.03247,3.23026 4.92487,3.30091 "/>
   <path id="_10687944" class="fil13" d="M4.16513 4.14216l0.624966 -0.589098 0.135862 -0.0184772c0,0 -0.616271,0.624966 -0.679311,0.624966 -0.0641269,0 -0.0815173,-0.0173904 -0.0815173,-0.0173904z"/>
   <path id="_10688040" class="fil13" d="M5.00747 3.29004c0.00978207,0 0.471713,-1.92924 0.516276,-1.92924 0.0456497,0 0.0728221,0.0456497 0.0728221,0.0456497l-0.552144 1.91946c0,0 -0.0456497,-0.0358676 -0.0369545,-0.0358676z"/>
   <path id="_10688160" class="fil13" d="M5.54222 1.40644c-0.0271724,0.06304 0.190207,0.06304 0.235857,0.190207 0.0456497,0.12608 0.371719,0.398891 0.416282,0.416282 0.0456497,0.0184772 0.281506,0.127167 0.371719,0.0641269 0.0912993,-0.0641269 0.00978207,-0.0543448 -0.0815173,-0.0543448 -0.0902124,0 -0.298897,-0.0543448 -0.380414,-0.135862 -0.0815173,-0.0826042 -0.235857,-0.263029 -0.290201,-0.308679 -0.0543448,-0.0456497 -0.244552,-0.235857 -0.271724,-0.17173z"/>
   <path id="_10688400" class="fil13" d="M6.53021 1.91403c0,0 -0.534753,-0.208684 -0.534753,-0.398891 0,-0.190207 -0.0543448,0 -0.0543448,0 0,0 0.0999945,0.353242 0.453236,0.398891 0.353242,0.0445628 0.135862,0 0.135862,0z"/>
   <path id="_10688112" class="fil13" d="M6.04111 1.47818c-0.00978207,0.0271724 0.489104,0.263029 0.534753,0.326069 0.0445628,0.0641269 0.0815173,0.127167 0.0543448,0.181512 -0.0271724,0.0543448 -0.0543448,0.0999945 0.00869518,0.0641269 0.06304,-0.0369545 0.10869,-0.163035 0.0543448,-0.217379 -0.0543448,-0.0554317 -0.643443,-0.381501 -0.652138,-0.354328z"/>
   <path id="_10693632" class="fil13" d="M6.56608 2.1314c0,0 -1.34123,2.29118 -1.32275,2.364 0.0184772,0.0717352 -0.0271724,0.10869 0.0456497,0.00869518 0,0 0.842345,-1.34123 1.35862,-2.39987 -0.0173904,-0.0912993 -0.0815173,0.0271724 -0.0815173,0.0271724z"/>
   <path id="_10694088" class="fil13" d="M4.26512 4.15955c0,0 0.806478,0.66192 0.932558,0.407586 0,0 0.0456497,0.0999945 -0.06304,0.0999945 -0.10869,0 -0.689093,-0.208684 -0.779305,-0.344546 -0.0902124,-0.135862 -0.0902124,-0.163035 -0.0902124,-0.163035z"/>
   <polygon id="_10694160" class="fil5" points="5.68678,2.21292 5.88677,2.40204 5.72374,2.86397 5.52375,2.69224 "/>
   <polygon id="_10693728" class="fil5" points="5.49657,2.82811 5.67809,2.98136 5.42484,3.64328 5.34332,3.85196 4.83574,4.37693 4.58141,4.27803 5.13464,3.74327 5.24333,3.55307 "/>
   <polygon id="_10693440" class="fil5" points="5.95959,2.47378 6.19436,2.57377 5.77808,3.51611 5.54222,3.43459 "/>
   <polygon id="_10693416" class="fil5" points="5.48788,3.6248 5.65961,3.68893 5.44223,4.015 5.12594,4.5041 4.92595,4.41389 5.33354,3.95087 "/>
   <polygon id="_10692984" class="fil5" points="5.5607,3.51611 5.54222,3.57046 5.69656,3.63458 5.72374,3.56176 "/>
   <polygon id="_10693056" class="fil7" points="5.48788,1.90424 5.83243,2.27596 6.12263,2.44661 6.29436,2.49225 6.30305,2.44661 6.14002,2.41074 5.87808,2.25749 5.60526,1.96837 5.49657,1.8412 "/>
   <polygon id="_10692408" class="fil7" points="5.57809,1.70534 5.53353,1.79555 5.83243,2.08576 6.14002,2.27596 6.1585,2.1488 5.75091,1.88685 "/>
   <path id="_10692336" class="fil11" d="M1.25333 2.34987c0,0.00434759 0.339112,0.440193 1.36514,0.122819 0.114124,-0.042389 0.127167,-0.232596 0.127167,-0.232596 0,0 0.06304,0.253247 -0.20325,0.32933 -0.267377,0.0771697 -1.05538,0.166295 -1.3434,-0.194555 -0.0130428,-0.0619531 0.0543448,-0.0282593 0.0543448,-0.0249986z"/>
  </g>
 </g>
</svg>
