<?xml version="1.0" encoding="UTF-8" standalone="no"?>
<svg
   xmlns:dc="http://purl.org/dc/elements/1.1/"
   xmlns:cc="http://creativecommons.org/ns#"
   xmlns:rdf="http://www.w3.org/1999/02/22-rdf-syntax-ns#"
   xmlns:svg="http://www.w3.org/2000/svg"
   xmlns="http://www.w3.org/2000/svg"
   viewBox="0 0 612 792"
   id="svg2"
   height="792"
   width="612"
   version="1.1">
  <metadata
     id="metadata54">
    <rdf:RDF>
      <cc:Work
         rdf:about="">
        <dc:format>image/svg+xml</dc:format>
        <dc:type
           rdf:resource="http://purl.org/dc/dcmitype/StillImage" />
      </cc:Work>
    </rdf:RDF>
  </metadata>
  <defs
     id="defs52" />
  <g
     id="g4">
    <path
       id="path6"
       style="fill:#fff8d4;fill-rule:evenodd"
       d="m 335.7899,382.1975 c 0,24.6428 -19.5421,44.6196 -43.6499,44.6196 -24.1072,0 -43.6499,-19.9768 -43.6499,-44.6196 0,-24.6429 19.5427,-44.6201 43.6499,-44.6201 24.1078,0 43.6499,19.9772 43.6499,44.6201 l 0,0 0,0 z" />
    <path
       id="path8"
       style="fill:#ffdc45;fill-rule:evenodd"
       d="m 312.51,385.7156 c 0,11.4503 -9.8472,20.7318 -21.994,20.7318 -12.1467,0 -21.994,-9.2815 -21.994,-20.7318 0,-11.4497 9.8473,-20.7309 21.994,-20.7309 12.1468,0 21.994,9.2812 21.994,20.7309 l 0,0 0,0 z" />
    <path
       id="path10"
       style="fill:#daf1fb;fill-rule:evenodd"
       d="m 281.4701,433.6072 c 0,0 -7.6348,-1.9573 -16.293,-2.6143 -5.777,-0.4383 -12.0098,-0.2977 -16.7343,1.3895 -4.5493,1.6245 -7.7003,4.6831 -7.7003,10.0392 0,6.4647 4.0909,12.0716 10.838,15.9301 5.1199,2.9276 11.7689,4.8484 19.3204,5.3725 3.7374,0.2591 7.696,0.1766 11.7994,-0.2956 1.2311,-0.1418 2.475,-0.3184 3.7299,-0.5312 8.1521,-1.3836 16.768,-4.2991 25.285,-9.0961 0,0 3.8968,1.6015 10.1024,2.8862 4.1528,0.86 9.3396,1.5778 15.0843,1.5789 5.7376,0.001 12.0316,-0.7129 18.4085,-2.7147 6.7699,-2.1252 11.205,-4.976 14.0989,-8.112 2.5815,-2.7975 3.9368,-5.8223 4.6287,-8.7613 1.0885,-4.6216 0.5369,-9.0309 0.5369,-12.0118 0,-7.0021 -20.2774,-7.0021 -25.3471,-2.6257 0,0 -0.0882,-9.2378 -3.4478,-15.7229 -3.0373,-5.8624 -8.748,-9.4754 -19.4837,-1.9806 0,0 -19.5984,-13.5663 -36.835,-10.9406 -17.2375,2.6266 -17.1162,22.4546 -7.9912,38.2104 l 0,0 0,0 z" />
    <g
       id="g12">
      <g
         id="g14">
        <path
           id="path16"
           style="fill:#000000;fill-rule:evenodd"
           d="m 313.5382,393.8632 c 1.0729,-1.7441 1.9091,-3.6527 2.4653,-5.695 1.8207,-6.6802 0.2386,-16.5413 -4.8464,-21.5334 -4.6837,-4.5981 -10.4443,-6.2983 -16.8231,-5.5993 -7.4925,0.8212 -12.53,3.6014 -14.8734,11.0347 -0.2554,0.811 2.0115,0.9267 2.219,0.2787 l 0,0 0,0 0,0 c 0.6758,-2.1124 1.4885,-4.0261 2.785,-5.8258 2.3188,-3.2207 6.9027,-3.9056 10.5154,-4.4201 6.4721,-0.9198 12.2446,2.9129 15.3091,8.4991 2.7635,5.0375 2.9401,13.0797 1.1489,18.3921 -0.474,1.4057 -1.0942,2.696 -1.8377,3.8809 l 0,0 3.9379,0.9881 0,0 z" />
        <path
           id="path18"
           style="fill:#000000;fill-rule:evenodd"
           d="m 287.8274,402.4913 c -8.5037,-1.845 -16.2031,-8.9835 -16.9169,-17.7429 -0.4799,-5.8872 1.959,-11.4032 4.9008,-16.3119 3.9532,-6.6005 9.5859,-8.3787 16.8106,-9.1401 1.7215,-0.1811 1.7762,-1.6151 0,-1.7401 -7.8154,-0.5477 -14.9664,1.3555 -20.2042,7.4381 -5.1129,5.9391 -7.8976,14.4533 -6.7215,22.2361 1.1871,7.8525 8.4169,12.7411 15.0066,15.7526 1.6701,0.7634 3.3919,1.3272 5.1409,1.7042 l 0,0 1.9837,-2.196 0,0 z" />
      </g>
      <path
         id="path20"
         style="fill:#000000;fill-rule:evenodd"
         d="m 267.1764,369.9181 c 0.5068,-1.3867 1.9664,-3.361 1.3456,-4.9334 -0.8359,-2.122 -2.9409,-2.7867 -4.9841,-3.287 -2.8134,-0.6877 -5.6146,-0.233 -8.2072,-1.7788 -1.2997,-0.7769 -1.9831,-1.9176 -1.9797,-3.4237 0.006,-2.838 3.0033,-3.6309 5.2172,-3.753 1.6557,-0.091 1.6959,-1.2759 0,-1.2836 -4.1568,-0.0187 -11.6258,2.5682 -8.8892,8.2307 1.0366,2.1458 4.3149,3.2684 6.448,3.6037 1.9661,0.3087 3.9795,0.2472 5.9303,0.644 3.5802,0.7266 3.3497,3.1839 2.8593,5.842 -0.1202,0.6505 2.0452,0.7262 2.2598,0.1391 l 0,0 0,0 0,0 z" />
      <path
         id="path22"
         style="fill:#000000;fill-rule:evenodd"
         d="m 236.8015,377.7066 c 2.9126,2.7791 6.1642,3.9991 10.1497,3.2482 3.7332,-0.7041 8.9011,-5.9887 12.6678,-3.4633 0.8413,0.5646 6.0882,1.0411 5.1026,-0.9805 -1.5066,-3.0881 -7.0033,-2.585 -9.7999,-2.1255 -1.789,0.2937 -3.3713,0.7294 -4.9723,1.6084 -3.6365,1.9987 -6.6061,5.1511 -11.1455,1.1792 -0.4893,-0.428 -2.7301,-0.1618 -2.0024,0.5335 l 0,0 0,0 0,0 z" />
      <path
         id="path24"
         style="fill:#000000;fill-rule:evenodd"
         d="m 284.8816,354.471 c 4.4272,-1.7705 6.9698,-3.6139 4.2364,-8.7406 -1.2643,-2.3698 -3.003,-4.1885 -3.6485,-6.8828 -0.2854,-1.1906 -0.3693,-2.4021 0.1052,-3.5558 1.2614,-3.0693 5.0043,1.1214 5.7736,1.9324 0.4943,0.521 3.1127,0.195 2.5755,-0.4955 -3.0265,-3.8894 -9.6392,-6.232 -13.0515,-1.3309 -1.5752,2.2621 -0.2415,5.6636 0.974,7.7335 1.0159,1.7297 2.3624,3.1884 3.2916,4.9825 1.502,2.8987 0.6993,4.2627 -1.8831,5.6154 -1.1636,0.61 1.0885,0.9567 1.6268,0.7418 l 0,0 0,0 0,0 z" />
      <path
         id="path26"
         style="fill:#000000;fill-rule:evenodd"
         d="m 259.0569,336.8169 c -0.2336,3.7133 0.4002,7.7731 4.0175,9.6241 4.2103,2.1541 9.1329,3.718 10.2994,9.0153 0.3682,1.6699 4.8274,1.8463 5.4839,0.3379 1.3788,-3.1665 -2.7941,-6.8714 -5.3711,-8.263 -1.7424,-0.9405 -3.6275,-1.5165 -5.5182,-2.0755 -4.3149,-1.273 -6.62,-4.0779 -6.5925,-8.6388 0.004,-0.739 -2.2717,-0.756 -2.319,0 l 0,0 0,0 0,0 z" />
      <path
         id="path28"
         style="fill:#000000;fill-rule:evenodd"
         d="m 306.3886,358.4591 c 3.981,2.3595 7.6125,3.0197 10.4902,-1.4788 1.5231,-2.3814 1.6197,-5.569 2.9574,-8.0765 1.1622,-2.1776 2.5254,-2.5974 4.0258,-0.3674 0.987,1.4684 0.6326,3.6811 0.485,5.3178 -0.0786,0.881 2.62,0.902 2.819,0 1.0865,-4.9388 -1.2124,-10.0012 -6.8723,-9.2905 -2.7632,0.3455 -4.6882,2.2487 -6.0523,4.5637 -1.6276,2.7604 -1.1466,10.8255 -6.0463,8.6962 -0.4314,-0.188 -2.618,0.1553 -1.8065,0.6355 l 0,0 0,0 0,0 z" />
      <path
         id="path30"
         style="fill:#000000;fill-rule:evenodd"
         d="m 304.1135,328.144 c -3.4778,2.5991 -5.7293,5.991 -4.9271,10.4992 0.8166,4.5941 2.7433,9.7889 -0.5746,13.8773 -1.3082,1.6124 4.0819,1.4587 4.6664,1.2373 3.5637,-1.347 3.6167,-6.4358 3.0435,-9.6888 -0.4116,-2.3369 -1.8354,-4.5856 -2.7864,-6.7294 -1.463,-3.2965 -0.0284,-6.5416 2.5809,-8.6627 0.76,-0.6177 -1.4887,-0.9165 -2.0027,-0.5329 l 0,0 0,0 0,0 z" />
      <path
         id="path32"
         style="fill:#000000;fill-rule:evenodd"
         d="m 318.0722,379.1132 c 0.2029,1.351 -0.142,3.7607 1.1557,4.7049 1.923,1.402 4.0657,1.3246 6.3334,0.9805 2.6657,-0.4045 4.9105,-2.0469 7.4625,-2.7992 2.5197,-0.7415 3.5022,1.2713 3.8157,3.3344 0.358,2.3644 -2.1957,4.0184 -3.808,5.1021 -0.9482,0.6366 1.6503,1.0941 2.2127,0.7767 2.5095,-1.4094 4.3852,-3.0065 5.1494,-5.8788 0.6812,-2.5614 -0.9074,-4.9088 -3.3987,-5.4553 -2.5067,-0.5502 -4.9249,-0.4632 -7.4002,0.2322 -1.5647,0.4396 -3.0265,1.273 -4.4727,1.9967 -3.0524,1.527 -3.9918,-0.7067 -4.7895,-3.1334 -0.1944,-0.591 -2.3587,-0.5239 -2.2603,0.1392 l 0,0 0,0 0,0 z" />
      <path
         id="path34"
         style="fill:#000000;fill-rule:evenodd"
         d="m 340.7593,357.8159 c -3.2718,-0.7863 -7.4019,-0.9598 -10.2249,1.2844 -1.938,1.5412 -3.1524,3.4764 -4.5714,5.4884 -0.7767,1.1027 -1.3025,1.9154 -2.3474,2.8344 -0.5267,0.4629 -2.84,2.3661 -3.5277,2.279 -1.019,-0.1298 -5.366,0.9397 -2.7167,2.1257 4.0657,1.8196 7.2144,-0.1525 10.6322,-2.374 4.9181,-3.196 3.6774,-12.3882 11.5852,-10.7249 0.7217,0.1517 2.654,-0.5561 1.1707,-0.913 l 0,0 0,0 0,0 z" />
      <path
         id="path36"
         style="fill:#000000;fill-rule:evenodd"
         d="m 269.5314,397.4814 c -1.017,-1.3122 -1.7317,-2.977 -3.4633,-3.4401 -1.952,-0.521 -4.2432,-0.1364 -5.8882,1.0493 -2.0593,1.4843 -3.3947,3.517 -4.8999,5.5367 -0.4615,0.6205 -2.7255,3.2539 -3.8092,2.5633 -2.9693,-1.8935 -1.5242,-5.6469 -0.3753,-8.0175 0.4374,-0.9028 -2.2782,-1.0533 -2.7182,-0.3418 -3.1087,5.0315 -1.8195,11.5809 5.0471,10.7198 2.3885,-0.2982 4.8348,-1.6464 6.378,-3.519 1.0349,-1.2552 1.9006,-2.6098 2.821,-3.9501 1.6586,-2.4171 2.8845,-2.0205 4.805,-0.197 0.3997,0.3787 2.5566,0.1817 2.103,-0.4036 l 0,0 0,0 0,0 z" />
      <path
         id="path38"
         style="fill:#000000;fill-rule:evenodd"
         d="m 260.761,426.7366 c 3.4932,-1 7.3182,-3.0994 8.284,-6.9698 1.0276,-4.1196 0.4802,-11.9157 5.1752,-14.0536 2.3086,-1.0497 -0.9088,-2.2005 -1.974,-2.1713 -4.2415,0.1213 -5.4417,2.4876 -7.2323,6.0171 -2.8897,5.6939 2.9389,13.5969 -5.4236,16.2654 -1.4533,0.4632 0.4337,1.1234 1.1707,0.9122 l 0,0 0,0 0,0 z" />
    </g>
    <g
       id="g40">
      <path
         id="path42"
         style="fill:#000000;fill-rule:evenodd"
         d="m 325.7773,421.6394 c 0.8876,-2.3378 2.5282,-4.8405 2.5464,-7.3732 0.0207,-2.9347 0.3135,-5.8136 -0.4663,-8.6695 -1.1943,-4.3793 -5.3291,-8.8265 -9.2112,-10.9919 -7.8248,-4.3651 -17.7401,-4.3801 -25.8364,-0.7492 -8.9696,4.0207 -15.4457,14.2738 -13.1933,24.2337 2.5081,11.0933 13.1361,16.0373 23.6019,15.2753 2.016,-0.1477 1.9641,-1.7807 0,-1.9834 -8.9601,-0.919 -15.4219,-5.2707 -17.731,-14.3748 -1.9579,-7.7221 2.6325,-15.6041 8.479,-20.1702 6.7087,-5.239 16.9625,-4.8753 23.8311,-0.2443 3.7911,2.5557 7.0146,6.7634 7.922,11.3142 0.9635,4.8319 -0.5655,9.0331 -2.175,13.4521 -0.288,0.7891 1.9845,0.9348 2.2328,0.2812 l 0,0 0,0 0,0 z" />
      <path
         id="path44"
         style="fill:#000000;fill-rule:evenodd"
         d="m 326.2963,406.3374 c 3.6528,-2.0784 7.5308,-3.5314 11.7973,-2.6714 2.3255,0.47 4.996,1.5971 7.1311,2.5937 4.7667,2.2252 6.1288,6.518 6.8516,11.3559 0.1905,1.2767 3.7967,1.292 3.9492,0 0.8544,-7.2525 -3.3023,-11.8502 -10.0051,-13.9646 -7.9569,-2.5104 -14.3028,-2.5597 -21.5428,2.046 -0.769,0.4899 1.3386,0.9131 1.8187,0.6404 l 0,0 0,0 0,0 z" />
      <path
         id="path46"
         style="fill:#000000;fill-rule:evenodd"
         d="m 277.314,432.7756 c -3.4407,-1.7796 -7.7307,-2.5878 -11.9906,-2.4245 -4.4929,0.1723 -8.9521,1.4252 -12.3471,3.7593 -4.7271,3.2502 -5.6098,7.6788 -4.415,11.9602 1.3836,4.9572 5.5525,9.7175 9.7653,12.2244 0.8119,0.4828 1.6586,0.9326 2.5345,1.3502 3.1876,1.5199 6.7623,2.6144 10.4559,3.3284 6.1563,1.1906 12.6436,1.3258 18.2219,0.6185 12.3083,-1.5593 25.5532,-7.2827 35.1255,-15.2472 1.3213,-1.1007 -2.5112,-1.3272 -3.2711,-0.8734 -8.4736,5.0717 -17.0252,9.0995 -26.4668,11.9602 -4.1409,1.2546 -8.362,1.7703 -12.5873,1.7039 -4.5317,-0.0711 -9.0683,-0.8115 -13.5161,-2.0279 -7.9702,-2.1807 -16.202,-8.8798 -15.2476,-18.0283 0.5944,-5.6994 5.6055,-8.4617 11.0339,-9.1333 3.9948,-0.494 8.2153,0.1443 11.0673,1.5778 0.5845,0.2937 2.7694,-0.161 1.6373,-0.7483 l 0,0 0,0 0,0 z" />
      <path
         id="path48"
         style="fill:#000000;fill-rule:evenodd"
         d="m 316.4978,457.7579 c 3.9152,0.2281 7.5943,2.6807 11.429,2.7394 3.9433,0.0618 7.8631,-0.1792 11.7423,-0.9273 7.3743,-1.421 14.3821,-4.3225 20.6665,-8.4781 5.7716,-3.8174 10.5905,-9.1715 13.652,-15.431 0.8946,-1.8297 1.3274,-3.6388 1.3538,-5.3727 0.0663,-4.3526 -2.427,-8.2319 -6.5999,-10.7782 -10.5032,-6.4072 -27.3399,-0.7617 -35.0175,7.7354 -4.256,4.7118 -5.2535,10.8851 0.7908,14.1333 6.3941,3.4376 12.0816,0.3677 17.68,-2.9253 1.9817,-1.1651 -1.891,-1.6748 -2.8191,-1.2861 -4.3387,1.8167 -10.3101,5.5528 -13.4362,-0.1347 -1.1953,-2.175 0.826,-5.5083 1.9324,-7.3168 1.5157,-2.4752 3.8707,-4.3146 6.2416,-5.8804 7.9883,-5.2745 24.8006,-7.1825 25.4276,6.2498 0.2189,4.6777 -4.1757,10.0242 -7.0441,13.3245 -3.4801,4.0048 -8.0631,7.0552 -12.7065,9.4726 -5.0451,2.6257 -10.5033,4.3149 -16.0977,5.1721 -3.6207,0.555 -6.8128,0.4271 -10.4134,-0.3515 -2.2535,-0.4867 -4.4759,-0.9131 -6.7816,-1.0032 -1.3943,-0.053 -1.3564,0.9785 0,1.0582 l 0,0 0,0 0,0 z" />
    </g>
  </g>
</svg>
