<?xml version="1.0" standalone="no"?>
<!DOCTYPE svg PUBLIC "-//W3C//DTD SVG 1.1//EN" "http://www.w3.org/Graphics/SVG/1.1/DTD/svg11.dtd" >
<svg xmlns="http://www.w3.org/2000/svg">
<metadata></metadata>
<defs>
<font id="stag_sansbook" horiz-adv-x="1056" >
<font-face units-per-em="2048" ascent="1638" descent="-410" />
<missing-glyph horiz-adv-x="442" />
<glyph horiz-adv-x="2048" />
<glyph horiz-adv-x="2048" />
<glyph unicode="&#xd;" horiz-adv-x="2048" />
<glyph unicode=" "  horiz-adv-x="442" />
<glyph unicode="&#x09;" horiz-adv-x="442" />
<glyph unicode="&#xa0;" horiz-adv-x="442" />
<glyph unicode="!" horiz-adv-x="542" d="M145 117q0 54 36.5 91.5t88.5 37.5q53 0 90 -37.5t37 -91.5t-37 -90.5t-90 -36.5t-89 36.5t-36 90.5zM160 1300v134h223v-134l-39 -931h-145z" />
<glyph unicode="&#x22;" horiz-adv-x="626" d="M66 1309v125h198v-125l-35 -291h-125zM362 1309v125h199v-125l-37 -291h-127z" />
<glyph unicode="#" horiz-adv-x="1038" d="M59 457v168h185l30 235h-157v168h182l57 406h150l-62 -406h228l57 406h148l-58 -406h156v-168h-180l-33 -235h156v-168h-181l-63 -457h-148l64 457h-223l-64 -457h-149l65 457h-160zM389 625h225l33 235h-225z" />
<glyph unicode="$" horiz-adv-x="1062" d="M63 113v180h78q117 -131 303 -146v508q-96 29 -162 61.5t-117 79t-75 110t-24 147.5q0 168 105 269.5t286 119.5v123h137v-121q178 -13 321 -103v-172h-75q-114 102 -246 117v-467q109 -30 178.5 -61.5t122.5 -78t76.5 -112t23.5 -157.5q0 -188 -107.5 -294.5 t-305.5 -123.5v-201h-138v199q-224 11 -381 123zM252 1073q0 -87 48 -133t157 -82v426q-103 -15 -154 -70t-51 -141zM582 152q219 35 219 233q0 53 -13.5 90t-44 62.5t-67 42t-94.5 34.5v-462z" />
<glyph unicode="%" horiz-adv-x="1581" d="M61 1077q0 91 27 163t73.5 116t105 67t124.5 23q141 0 235.5 -95.5t94.5 -273.5q0 -91 -26.5 -163t-72.5 -117t-105 -68.5t-126 -23.5q-138 0 -234 97t-96 275zM217 -70l979 1563h166l-981 -1563h-164zM233 1075q0 -119 42.5 -181.5t115.5 -62.5q75 0 117.5 62.5 t42.5 181.5q0 120 -42.5 182t-117.5 62q-73 0 -115.5 -62t-42.5 -182zM858 360q0 178 95 273.5t235 95.5t235 -95.5t95 -273.5t-95.5 -275t-234.5 -97t-234.5 97t-95.5 275zM1030 358q0 -119 42 -181t116 -62t117 62t43 181q0 120 -43 182t-117 62t-116 -62t-42 -182z" />
<glyph unicode="&#x26;" horiz-adv-x="1345" d="M70 406q0 147 84 250.5t219 162.5q-88 124 -88 268q0 161 111 260t300 99q184 0 297 -88v-164h-82q-86 82 -213 82q-91 0 -146.5 -52t-55.5 -139q0 -61 29 -114.5t98 -134.5l333 -385q90 203 103 385h180v-54q-41 -257 -164 -469l213 -245v-68h-211l-129 147 q-159 -159 -397 -159q-231 0 -356 114t-125 304zM291 424q0 -116 74 -193t221 -77q150 0 256 112l-379 441q-82 -48 -127 -114t-45 -169z" />
<glyph unicode="'" horiz-adv-x="331" d="M66 1309v125h198v-125l-35 -291h-125z" />
<glyph unicode="(" horiz-adv-x="643" d="M74 715q0 147 28.5 272.5t74.5 212t108.5 153.5t126 105.5t131.5 59.5h47v-144q-44 -19 -84 -49.5t-83.5 -84.5t-74.5 -123.5t-51.5 -173.5t-20.5 -228q0 -128 20 -235t51 -177.5t74.5 -126t83.5 -85.5t85 -50v-141h-47q-68 21 -131.5 59.5t-126 106.5t-108.5 156 t-74.5 215.5t-28.5 277.5z" />
<glyph unicode=")" horiz-adv-x="643" d="M51 41q45 20 86 50t85 85.5t75 126t51.5 177.5t20.5 235q0 124 -20.5 228t-52 173.5t-75.5 123.5t-84.5 84.5t-85.5 49.5v144h51q67 -21 130 -59.5t125.5 -105.5t108.5 -153.5t74.5 -212t28.5 -272.5q0 -150 -28.5 -277.5t-74.5 -215.5t-108.5 -156t-125.5 -106.5 t-130 -59.5h-51v141z" />
<glyph unicode="*" horiz-adv-x="765" d="M55 1118l54 164l73 -25l150 -90l-33 183v84h166v-84l-33 -183l150 90l75 25l52 -164l-74 -24l-170 -21l129 -123l49 -67l-133 -99l-49 68l-80 168l-76 -168l-49 -68l-133 99l49 67l129 123l-170 21z" />
<glyph unicode="+" horiz-adv-x="1024" d="M70 621v174h354v385h178v-385h352v-174h-352v-385h-178v385h-354z" />
<glyph unicode="," horiz-adv-x="403" d="M66 -98q52 9 80 30.5t28 49.5q0 12 -5 21t-10 12.5t-17.5 10.5t-18.5 11q-49 32 -49 96q0 47 35.5 80t87.5 33q57 0 95 -40.5t38 -119.5q0 -134 -64.5 -203t-199.5 -84v103z" />
<glyph unicode="-" horiz-adv-x="565" d="M76 520v178h413v-178h-413z" />
<glyph unicode="." horiz-adv-x="403" d="M74 117q0 54 37 91.5t90 37.5t91 -37.5t38 -91.5q0 -53 -38 -90t-91 -37t-90 36.5t-37 90.5z" />
<glyph unicode="/" horiz-adv-x="688" d="M27 -53l467 1571h161v-48l-469 -1570h-159v47z" />
<glyph unicode="0" horiz-adv-x="1329" d="M80 717q0 180 47 321.5t129 229t186 133t224 45.5q95 0 180.5 -28t159 -87t127.5 -143.5t85 -205.5t31 -265q0 -180 -47 -322t-128.5 -229.5t-185 -132.5t-222.5 -45q-120 0 -224 45t-186 132.5t-129 229.5t-47 322zM309 713q0 -288 93.5 -424.5t263.5 -136.5 q167 0 261.5 137t94.5 424q0 289 -94.5 428t-261.5 139q-169 0 -263 -139t-94 -428z" />
<glyph unicode="1" horiz-adv-x="708" d="M43 1083v152l328 199h147v-1434h-221v1190l-188 -107h-66z" />
<glyph unicode="2" horiz-adv-x="1060" d="M55 0v184l404 404q153 156 219.5 257.5t66.5 201.5q0 106 -62 165.5t-179 59.5q-177 0 -318 -127h-77v158q76 60 182 101.5t225 41.5q219 0 336 -99.5t117 -291.5q0 -76 -24 -147t-76.5 -144.5t-108.5 -135t-146 -149.5l-303 -297h664v-182h-920z" />
<glyph unicode="3" horiz-adv-x="1038" d="M51 106v166h90q43 -48 120 -81t175 -33q141 0 222 68.5t81 191.5q0 235 -290 235h-113v166h98q139 0 214 58.5t75 173.5q0 223 -242 223q-173 0 -297 -103h-80v150q167 125 394 125q208 0 322 -94t114 -281q0 -245 -248 -323v-9q130 -26 203.5 -107.5t73.5 -219.5 q0 -201 -138.5 -312.5t-375.5 -111.5q-246 0 -398 118z" />
<glyph unicode="4" horiz-adv-x="1155" d="M53 332v196l672 906h207v-936h172v-166h-172v-332h-221v332h-658zM223 498h488v653h-4l-484 -647v-6z" />
<glyph unicode="5" horiz-adv-x="1062" d="M61 100v166h89q44 -47 117.5 -78.5t172.5 -31.5q148 0 237 82.5t89 228.5q0 144 -71 215.5t-185 71.5q-161 0 -262 -119h-137v799h804v-185h-641v-422h5q44 38 116.5 66.5t167.5 28.5q89 0 164 -27t134 -80t92.5 -140.5t33.5 -199.5q0 -224 -150 -355.5t-393 -131.5 q-223 0 -383 112z" />
<glyph unicode="6" horiz-adv-x="1193" d="M80 686q0 364 179 562t486 198q177 0 295 -64v-172h-86q-80 68 -219 68q-200 0 -308 -136t-120 -392q64 68 163.5 105.5t209.5 37.5q194 0 318 -112t124 -318q0 -214 -139.5 -344.5t-364.5 -130.5q-116 0 -212.5 42.5t-170 126.5t-114.5 219.5t-41 309.5zM305 602 q9 -236 91 -347.5t222 -111.5q137 0 211 84.5t74 229.5q0 137 -74 206.5t-200 69.5q-92 0 -179 -36.5t-145 -94.5z" />
<glyph unicode="7" horiz-adv-x="1042" d="M61 1249v185h916v-201l-533 -1233h-206v96l573 1147v6h-750z" />
<glyph unicode="8" horiz-adv-x="1175" d="M70 401q0 135 76 229.5t206 133.5v6q-102 35 -161.5 113.5t-59.5 193.5q0 169 125 269t330 100q207 0 331.5 -100t124.5 -269q0 -115 -58.5 -193.5t-160.5 -113.5v-6q131 -39 207 -133.5t76 -229.5q0 -193 -136 -303t-384 -110q-247 0 -381.5 110t-134.5 303zM285 412 q0 -121 77 -195t224 -74t226 74.5t79 194.5q0 122 -79.5 198t-225.5 76t-223.5 -76t-77.5 -198zM342 1063q0 -103 65 -161t179 -58q116 0 182 58t66 161q0 104 -66.5 164.5t-181.5 60.5q-114 0 -179 -60.5t-65 -164.5z" />
<glyph unicode="9" horiz-adv-x="1191" d="M70 967q0 214 139.5 346.5t363.5 132.5q116 0 212.5 -42.5t169.5 -126.5t114 -219.5t41 -309.5q0 -368 -174.5 -564t-493.5 -196q-179 0 -303 57v174h88q26 -26 86.5 -45.5t137.5 -19.5q215 0 318.5 130.5t117.5 389.5q-68 -63 -167.5 -98t-203.5 -35q-198 0 -322 110 t-124 316zM291 973q0 -137 73 -205t201 -68q93 0 180.5 37t141.5 94q-19 459 -314 459q-138 0 -210 -85t-72 -232z" />
<glyph unicode=":" horiz-adv-x="409" d="M76 117q0 54 37.5 91.5t91.5 37.5q53 0 90 -37.5t37 -91.5t-37 -90.5t-90 -36.5q-54 0 -91.5 36.5t-37.5 90.5zM76 729q0 54 37.5 91.5t91.5 37.5q53 0 90 -37.5t37 -91.5t-37 -90.5t-90 -36.5q-54 0 -91.5 36.5t-37.5 90.5z" />
<glyph unicode=";" horiz-adv-x="409" d="M66 -98q52 9 80 30.5t28 49.5q0 12 -5 21t-10 12.5t-17.5 10.5t-18.5 11q-49 32 -49 96q0 47 35.5 80t87.5 33q57 0 95 -40.5t38 -119.5q0 -134 -64.5 -203t-199.5 -84v103zM76 729q0 54 37.5 91.5t91.5 37.5q53 0 90 -37.5t37 -91.5t-37 -90.5t-90 -36.5 q-54 0 -91.5 36.5t-37.5 90.5z" />
<glyph unicode="&#x3c;" horiz-adv-x="952" d="M68 600v150l755 397h54v-164l-596 -303v-4l596 -307v-166h-54z" />
<glyph unicode="=" horiz-adv-x="1007" d="M72 360v175h862v-175h-862zM72 754v174h862v-174h-862z" />
<glyph unicode="&#x3e;" horiz-adv-x="952" d="M76 203v164l598 303v4l-598 307v166h53l756 -397v-150l-756 -397h-53z" />
<glyph unicode="?" horiz-adv-x="903" d="M66 1169v162q150 115 358 115q191 0 298 -89t107 -261q0 -62 -15.5 -114t-51.5 -101t-69 -83.5t-93 -88.5q-44 -41 -64 -60t-48 -54.5t-38.5 -63.5t-17.5 -70t-2 -92h-156q-20 132 11 216t137 193q41 42 55.5 57t46.5 54t45 65t25 64.5t12 77.5q0 87 -51 133.5t-143 46.5 q-168 0 -260 -107h-86zM236 117q0 55 35 92t89 37q53 0 90 -37.5t37 -91.5t-37 -90.5t-90 -36.5q-54 0 -89 36.5t-35 90.5z" />
<glyph unicode="@" horiz-adv-x="1757" d="M70 496q0 162 50.5 303.5t135 242t195 173t232 108t243.5 35.5q125 0 238.5 -28t209 -84.5t165.5 -135.5t109.5 -187.5t39.5 -234.5q0 -138 -39.5 -246.5t-106 -172.5t-147.5 -97t-170 -33q-110 0 -166.5 41.5t-67.5 110.5q-123 -152 -284 -152q-111 0 -177.5 72.5 t-66.5 206.5q0 74 20.5 150t61 143.5t95 120t128 83.5t154.5 31q122 0 202 -76q24 35 49 51.5t64 16.5h66l-119 -518q-13 -70 3.5 -108t78.5 -38q114 0 189 103t75 311q0 249 -165 391t-439 142q-104 0 -203 -28.5t-187.5 -88t-155 -143.5t-105.5 -204t-39 -261 q0 -161 50 -282.5t139.5 -194.5t204 -108.5t251.5 -35.5q150 0 280 36.5t223 104.5h56v-129q-93 -68 -242.5 -108.5t-316.5 -40.5q-126 0 -242 27t-220.5 86.5t-181.5 146t-122 214.5t-45 284zM649 418q0 -69 31.5 -104t81.5 -35q62 0 117 35t112 98l82 360q-2 1 -7 3 q-56 28 -109 30h-13q-81 0 -150 -55.5t-107 -144.5t-38 -187z" />
<glyph unicode="A" horiz-adv-x="1308" d="M63 0v68l474 1366h237l471 -1366v-68h-211l-133 401h-526l-129 -401h-183zM428 565h418l-207 633h-4z" />
<glyph unicode="B" horiz-adv-x="1204" d="M158 0v1434h440q229 0 349 -88t120 -281q0 -241 -246 -305v-6q143 -30 224 -111.5t81 -234.5q0 -199 -133 -303.5t-372 -104.5h-463zM377 168h237q134 0 209.5 64t75.5 186q0 124 -76.5 187t-216.5 63h-229v-500zM377 829h213q256 0 256 222q0 215 -254 215h-215v-437z " />
<glyph unicode="C" horiz-adv-x="1255" d="M88 717q0 170 50 308.5t138 230t207.5 141t259.5 49.5q143 0 234 -28t180 -87v-174h-86q-123 119 -321 119q-199 0 -317 -143t-118 -408q0 -281 108.5 -425t309.5 -144q126 0 212 41t157 114h72v-170q-174 -153 -449 -153q-290 0 -463.5 192.5t-173.5 536.5z" />
<glyph unicode="D" horiz-adv-x="1368" d="M158 0v1434h409q356 0 536.5 -172.5t180.5 -540.5q0 -721 -723 -721h-403zM379 168h182q257 0 375.5 128.5t118.5 422.5q0 291 -118.5 418t-375.5 127h-182v-1096z" />
<glyph unicode="E" horiz-adv-x="1138" d="M158 0v1434h878v-172h-657v-447h481v-164h-481v-483h680v-168h-901z" />
<glyph unicode="F" horiz-adv-x="1116" d="M158 0v1434h882v-172h-661v-480h502v-166h-502v-616h-221z" />
<glyph unicode="G" horiz-adv-x="1353" d="M82 717q0 349 183.5 539t492.5 190q129 0 219 -23.5t184 -72.5v-185h-80q-60 53 -133.5 81t-185.5 28q-210 0 -327.5 -134.5t-117.5 -414.5q0 -288 106 -431.5t310 -143.5q156 0 260 51v370h-239v156h460v-629q-202 -110 -481 -110q-307 0 -479 188t-172 541z" />
<glyph unicode="H" horiz-adv-x="1394" d="M158 0v1434h221v-615h637v615h223v-1434h-223v651h-637v-651h-221z" />
<glyph unicode="I" horiz-adv-x="548" d="M162 0v1434h225v-1434h-225z" />
<glyph unicode="J" horiz-adv-x="905" d="M49 61v170h78q79 -75 207 -75q196 0 196 204v1074h226v-1078q0 -180 -103 -275t-309 -95q-173 0 -295 75z" />
<glyph unicode="K" horiz-adv-x="1294" d="M158 0v1434h221v-713l620 713h181v-68l-451 -510l500 -788v-68h-207l-438 694l-205 -223v-471h-221z" />
<glyph unicode="L" horiz-adv-x="1095" d="M158 0v1434h221v-1266h639v-168h-860z" />
<glyph unicode="M" horiz-adv-x="1689" d="M158 0v1434h309l379 -1088h4l379 1088h303v-1434h-221v1169h-6l-410 -1169h-139l-406 1169h-8v-1169h-184z" />
<glyph unicode="N" horiz-adv-x="1390" d="M158 0v1434h256l624 -1055h4v1055h193v-1434h-205l-678 1149h-4v-1149h-190z" />
<glyph unicode="O" horiz-adv-x="1462" d="M82 717q0 172 52 312t141.5 230t206.5 138.5t249 48.5t248.5 -48.5t205.5 -138.5t141 -230t52 -312t-52 -312.5t-141 -230.5t-205.5 -138t-248.5 -48t-249 48t-206.5 138t-141.5 230.5t-52 312.5zM311 713q0 -275 115 -417t305 -142q189 0 304.5 142t115.5 417 q0 276 -116 421.5t-304 145.5q-189 0 -304.5 -145.5t-115.5 -421.5z" />
<glyph unicode="P" horiz-adv-x="1173" d="M158 0v1434h417q529 0 529 -437q0 -444 -533 -444h-192v-553h-221zM379 715h192q160 0 234 66.5t74 211.5q0 144 -73.5 207.5t-234.5 63.5h-192v-549z" />
<glyph unicode="Q" horiz-adv-x="1464" d="M82 717q0 172 52 312.5t141.5 230.5t206.5 138t249 48t248.5 -48t206 -138t141 -230t51.5 -313q0 -262 -117.5 -436t-318.5 -232v-4l479 -90v-176h-94l-657 184q-138 40 -243 100.5t-184 150.5t-120 216.5t-41 286.5zM311 713q0 -275 116 -419t304 -144 q189 0 304.5 143.5t115.5 419.5q0 277 -116 422t-304 145q-189 0 -304.5 -145t-115.5 -422z" />
<glyph unicode="R" horiz-adv-x="1255" d="M160 0v1434h424q245 0 378.5 -101t133.5 -307q0 -287 -236 -383l309 -575v-68h-202l-316 600q-20 -2 -67 -2h-203v-598h-221zM381 762h197q149 0 220.5 59t71.5 193q0 130 -73.5 190t-218.5 60h-197v-502z" />
<glyph unicode="S" horiz-adv-x="1064" d="M59 109v180h78q124 -131 352 -131q142 0 218.5 58t76.5 173q0 59 -17.5 99t-68.5 68.5t-81.5 39.5t-116.5 35q-9 3 -14 4.5t-12.5 3.5t-14.5 4q-198 58 -288.5 149.5t-90.5 258.5q0 186 123 290.5t334 104.5q231 0 381 -96v-174h-76q-125 100 -297 100q-135 0 -203 -54 t-68 -155q0 -37 8 -66t27 -51.5t40.5 -38.5t57.5 -30.5t68 -24t82 -22.5q118 -32 192.5 -64t132 -80t82.5 -115t25 -163q0 -207 -128.5 -315.5t-364.5 -108.5q-259 0 -437 121z" />
<glyph unicode="T" horiz-adv-x="1167" d="M59 1266v168h1047v-168h-412v-1266h-223v1266h-412z" />
<glyph unicode="U" horiz-adv-x="1380" d="M150 528v906h223v-912q0 -104 24.5 -175.5t72 -110.5t106.5 -55.5t139 -16.5q76 0 131.5 17t98.5 56.5t65 110.5t22 174v912h199v-906q0 -273 -131.5 -406.5t-397.5 -133.5q-260 0 -406 136t-146 404z" />
<glyph unicode="V" horiz-adv-x="1296" d="M61 1366v68h209l385 -1160h4l388 1160h188v-68l-473 -1366h-232z" />
<glyph unicode="W" horiz-adv-x="1812" d="M66 1366v68h210l256 -1125h5l282 1125h197l280 -1125h4l256 1125h191v-68l-338 -1366h-235l-263 1081h-4l-268 -1081h-236z" />
<glyph unicode="X" horiz-adv-x="1280" d="M78 0v72l418 676l-402 614v72h209l350 -549l328 549h180v-72l-385 -629l426 -661v-72h-207l-379 598l-360 -598h-178z" />
<glyph unicode="Y" horiz-adv-x="1189" d="M55 1362v72h203l352 -650h2l344 650h179v-72l-420 -782v-580h-221v573z" />
<glyph unicode="Z" horiz-adv-x="1107" d="M55 0v178l752 1082v6h-696v168h931v-183l-749 -1081v-6h741v-164h-979z" />
<glyph unicode="[" horiz-adv-x="645" d="M158 -100v1618h417v-148h-219v-1323h219v-147h-417z" />
<glyph unicode="\" horiz-adv-x="688" d="M33 1470v48h160l469 -1571v-47h-162z" />
<glyph unicode="]" horiz-adv-x="643" d="M68 47h221v1323h-221v148h417v-1618h-417v147z" />
<glyph unicode="^" horiz-adv-x="854" d="M45 936v57l297 441h172l295 -441v-57h-170l-209 305h-6l-209 -305h-170z" />
<glyph unicode="_" horiz-adv-x="729" d="M10 -188h709v-144h-709v144z" />
<glyph unicode="`" horiz-adv-x="833" d="M176 1366v68h209l102 -224v-49h-118z" />
<glyph unicode="a" d="M68 307q0 159 113.5 242.5t301.5 83.5q115 0 234 -29v141q0 183 -215 183q-171 0 -293 -88h-66v155q184 92 385 92q197 0 298.5 -77.5t101.5 -249.5v-760h-82q-63 0 -88.5 24t-34.5 95q-122 -131 -320 -131q-151 0 -243 83t-92 236zM272 319q0 -95 54 -141.5t145 -46.5 q79 0 137 32t109 91v227q-103 21 -199 21q-113 0 -179.5 -45t-66.5 -138z" />
<glyph unicode="b" horiz-adv-x="1169" d="M137 0v1434h115q60 0 77 -25.5t17 -114.5v-360q153 153 348 153q80 0 148.5 -27.5t127 -87t92.5 -167.5t34 -254q0 -121 -25.5 -218.5t-68 -160.5t-101 -105.5t-121 -60.5t-131.5 -18q-204 0 -325 114q-18 -45 -45 -73.5t-56 -28.5h-86zM346 240q94 -99 248 -99 q289 0 289 389q0 390 -265 390q-131 0 -272 -123v-557z" />
<glyph unicode="c" horiz-adv-x="1001" d="M70 535q0 253 148 402.5t380 149.5q187 0 322 -86v-163h-86q-88 88 -238 88q-141 0 -227 -103t-86 -288q0 -190 82.5 -289t226.5 -99q165 0 260 103h78v-152q-137 -110 -342 -110q-244 0 -381 145.5t-137 401.5z" />
<glyph unicode="d" horiz-adv-x="1171" d="M76 520q0 122 25.5 220t68 161.5t100.5 106.5t119.5 61t128.5 18q192 0 305 -110v457h115q61 0 77.5 -25t16.5 -115v-1294h-137q-36 0 -51 28.5t-19 116.5q-60 -71 -145.5 -114t-190.5 -43q-86 0 -159 31.5t-130.5 94t-90.5 166.5t-33 240zM287 530q0 -389 254 -389 q84 0 150.5 36.5t131.5 107.5v544q-97 91 -245 91q-45 0 -84.5 -10t-78.5 -37.5t-66.5 -70t-44.5 -112t-17 -160.5z" />
<glyph unicode="e" horiz-adv-x="1077" d="M70 532q0 252 138 403.5t351 151.5q216 0 332.5 -129.5t116.5 -388.5q0 -17 -1 -44.5t-1 -28.5h-721q7 -185 88.5 -268t236.5 -83q174 0 297 99h68v-146q-162 -110 -395 -110q-244 0 -377 144.5t-133 399.5zM289 633h512q-3 166 -64.5 238.5t-177.5 72.5 q-111 0 -182.5 -74.5t-87.5 -236.5z" />
<glyph unicode="f" horiz-adv-x="649" d="M41 924v147h129v92q0 144 77 214.5t214 70.5q88 0 155 -23v-131h-90q-74 0 -110.5 -30t-36.5 -109v-84h219v-147h-219v-924h-209v924h-129z" />
<glyph unicode="g" horiz-adv-x="1169" d="M76 535q0 145 38 254.5t103 172.5t143 94t166 31q193 0 312 -116q21 100 98 100h96v-1034q0 -185 -132 -283t-361 -98q-253 0 -412 90v158h68q122 -92 315 -92q313 0 313 239v115q-132 -139 -329 -139q-67 0 -127 17.5t-114 56.5t-92.5 97t-61.5 144.5t-23 192.5z M287 551q0 -105 19 -178.5t55 -115t81.5 -59.5t106.5 -18q145 0 274 133v512q-52 48 -109.5 71.5t-135.5 23.5q-57 0 -105.5 -17t-92 -56t-68.5 -114.5t-25 -181.5z" />
<glyph unicode="h" horiz-adv-x="1159" d="M137 0v1434h115q60 0 77 -25t17 -115v-358q85 67 191.5 109t218.5 42q60 0 106.5 -13.5t86 -45.5t60.5 -91.5t21 -143.5v-793h-209v743q0 95 -40 132.5t-122 37.5q-130 0 -313 -106v-807h-209z" />
<glyph unicode="i" horiz-adv-x="491" d="M123 1309q0 51 36.5 87t86.5 36t87 -36t36 -87q0 -49 -36.5 -84t-86.5 -35t-86.5 35t-36.5 84zM139 0v1071h117q61 0 76.5 -28.5t15.5 -131.5v-911h-209z" />
<glyph unicode="j" horiz-adv-x="491" d="M-51 -195h59q71 0 101 35.5t30 112.5v1118h117q59 0 75.5 -29t16.5 -131v-970q0 -281 -270 -281q-80 0 -129 16v129zM123 1309q0 51 36.5 87t86.5 36t86.5 -36t36.5 -87q0 -49 -36.5 -84t-86.5 -35t-86.5 35t-36.5 84z" />
<glyph unicode="k" d="M137 0v1434h115q60 0 77 -25.5t17 -114.5v-725l438 502h174v-61l-331 -369l366 -578v-63h-190l-318 496l-139 -154v-342h-209z" />
<glyph unicode="l" horiz-adv-x="489" d="M139 0v1434h117q61 0 77.5 -25t16.5 -115v-1294h-211z" />
<glyph unicode="m" horiz-adv-x="1771" d="M137 0v1071h131q40 0 57.5 -26.5t20.5 -104.5q186 147 383 147q196 0 246 -155q85 70 188.5 112.5t210.5 42.5q57 0 103 -15t83.5 -47t58.5 -88.5t21 -133.5v-803h-206v748q0 90 -37.5 127.5t-114.5 37.5q-129 0 -289 -102v-811h-209v748q0 90 -37 127.5t-112 37.5 q-77 0 -145 -27t-144 -75v-811h-209z" />
<glyph unicode="n" horiz-adv-x="1159" d="M137 0v1071h131q40 0 57.5 -27t20.5 -108q85 67 191.5 109t218.5 42q60 0 106.5 -13.5t86 -45.5t60.5 -91.5t21 -143.5v-793h-209v743q0 95 -40 132.5t-122 37.5q-130 0 -313 -106v-807h-209z" />
<glyph unicode="o" horiz-adv-x="1163" d="M70 532q0 126 39 230.5t107.5 175.5t162.5 110t203 39t203 -39t162.5 -110t107.5 -175.5t39 -230.5q0 -125 -39 -228t-107.5 -172t-162.5 -106.5t-203 -37.5t-203 37.5t-162.5 106.5t-107.5 172t-39 228zM283 532q0 -189 80 -288t219 -99q140 0 219.5 99t79.5 288 q0 191 -80 294.5t-219 103.5q-138 0 -218.5 -104t-80.5 -294z" />
<glyph unicode="p" horiz-adv-x="1169" d="M137 -332v1403h131q41 0 58 -27.5t20 -109.5q153 153 348 153q79 0 148 -28t127.5 -87.5t92.5 -165t34 -247.5q0 -120 -26 -215.5t-69 -157.5t-102.5 -103.5t-122.5 -59t-133 -17.5q-180 0 -297 96v-434h-209zM346 254q94 -94 246 -94q291 0 291 379q0 110 -22 187.5 t-60.5 118t-82.5 58t-97 17.5q-131 0 -275 -123v-543z" />
<glyph unicode="q" horiz-adv-x="1169" d="M76 524q0 121 25.5 218t68.5 160.5t101.5 106t122 60.5t132.5 18q194 0 312 -118q11 46 36 74t62 28h96v-1403h-209v477q-59 -63 -142.5 -101t-182.5 -38q-87 0 -160.5 29.5t-133.5 89.5t-94 162.5t-34 236.5zM287 543q0 -209 67.5 -296t194.5 -87q149 0 274 135v530 q-98 95 -248 95q-58 0 -106 -17.5t-91 -58t-67 -117.5t-24 -184z" />
<glyph unicode="r" horiz-adv-x="768" d="M137 0v1071h131q41 0 58 -29t20 -118q138 157 307 157q34 0 58 -8v-172q-39 2 -47 2q-179 0 -318 -121v-782h-209z" />
<glyph unicode="s" horiz-adv-x="907" d="M78 84v162h67q100 -96 273 -96q223 0 223 155q0 68 -48 102t-177 54q-171 24 -254.5 95t-83.5 214q0 150 102.5 231.5t282.5 81.5q183 0 315 -75v-160h-67q-95 76 -246 76q-201 0 -201 -138q0 -63 50.5 -94.5t177.5 -50.5q183 -27 264.5 -97.5t81.5 -219.5 q0 -157 -102.5 -245.5t-307.5 -88.5q-206 0 -350 94z" />
<glyph unicode="t" horiz-adv-x="679" d="M41 924v147h129v291h209v-291h237v-147h-237v-635q0 -82 35.5 -114t117.5 -32h97v-135q-78 -20 -170 -20q-142 0 -215.5 65t-73.5 211v660h-129z" />
<glyph unicode="u" horiz-adv-x="1171" d="M137 272v799h209v-752q0 -96 42.5 -132.5t123.5 -36.5q131 0 303 102v819h209v-1071h-131q-39 0 -55.5 23.5t-20.5 97.5q-85 -61 -185.5 -98t-201.5 -37q-293 0 -293 286z" />
<glyph unicode="v" horiz-adv-x="1081" d="M55 1012v59h195l303 -819h4l289 819h180v-59l-379 -1012h-203z" />
<glyph unicode="w" horiz-adv-x="1548" d="M59 1010v61h195l215 -774h4l234 774h163l232 -774h4l213 774h170v-61l-295 -1010h-186l-230 766h-4l-233 -766h-185z" />
<glyph unicode="x" horiz-adv-x="1054" d="M63 0v61l324 488l-309 461v61h194l263 -399l241 399h172v-61l-286 -451l327 -498v-61h-192l-285 440l-272 -440h-177z" />
<glyph unicode="y" horiz-adv-x="1077" d="M55 1014v57h197l305 -752h2l285 752h180v-57l-535 -1346h-180v60l148 333z" />
<glyph unicode="z" horiz-adv-x="976" d="M76 0v154l598 764h-561v153h794v-153l-600 -762h586v-156h-817z" />
<glyph unicode="{" horiz-adv-x="704" d="M55 647v148h51q58 0 87.5 32t29.5 84v357q0 250 262 250h152v-148h-125q-42 0 -66 -28t-24 -72v-350q0 -78 -37.5 -125.5t-116.5 -69.5v-4q154 -42 154 -197v-374q0 -44 24 -73.5t66 -29.5h125v-147h-152q-130 0 -196 64t-66 188v380q0 50 -30 82.5t-87 32.5h-51z" />
<glyph unicode="|" horiz-adv-x="399" d="M115 -100v1618h168v-1618h-168z" />
<glyph unicode="}" horiz-adv-x="704" d="M68 47h122q42 0 68.5 29.5t26.5 73.5v374q0 79 36.5 127.5t116.5 69.5v4q-81 21 -117 68.5t-36 126.5v350q0 43 -26.5 71.5t-68.5 28.5h-122v148h153q260 0 260 -250v-357q0 -52 29 -84t88 -32h49v-148h-49q-58 0 -87.5 -32t-29.5 -83v-380q0 -252 -260 -252h-153v147z " />
<glyph unicode="~" horiz-adv-x="753" d="M55 459v71q18 82 69 134.5t126 52.5q56 0 139 -33t105 -33q55 0 73 74h129v-70q-18 -84 -68 -135t-126 -51q-51 0 -135 33t-107 33q-58 0 -76 -76h-129z" />
<glyph unicode="&#xa1;" horiz-adv-x="542" d="M145 1167q0 54 37 90.5t90 36.5t89 -36.5t36 -90.5t-36.5 -91.5t-88.5 -37.5q-53 0 -90 37.5t-37 91.5zM160 -18l39 933h145l39 -933v-134h-223v134z" />
<glyph unicode="&#xa2;" horiz-adv-x="1024" d="M70 535q0 231 128 377.5t334 170.5v119h138v-119q149 -12 262 -82v-163h-88q-69 69 -174 84v-772q122 20 194 100h78v-152q-110 -88 -272 -106v-203h-138v201q-217 19 -339.5 162.5t-122.5 382.5zM281 535q0 -170 65 -267.5t186 -117.5v772q-119 -24 -185 -123.5 t-66 -263.5z" />
<glyph unicode="&#xa3;" horiz-adv-x="1048" d="M59 0v158q164 79 164 274q0 86 -24 203h-131v153h98q-33 150 -33 246q0 192 129.5 302t339.5 110q116 0 199 -27.5t157 -81.5v-168h-79q-122 103 -273 103q-117 0 -184.5 -59.5t-67.5 -172.5q0 -70 29 -252h365v-153h-338q16 -106 16 -201q0 -148 -104 -252h659v-182 h-922z" />
<glyph unicode="&#xa5;" horiz-adv-x="1124" d="M61 1362v72h199l322 -613h2l311 613h170v-72l-324 -610h277v-136h-334v-124h334v-136h-334v-356h-223v356h-336v136h336v124h-336v136h270z" />
<glyph unicode="&#xa6;" horiz-adv-x="342" d="M86 -100v733h170l-2 -733h-168zM86 797v721h168l2 -721h-170z" />
<glyph unicode="&#xa7;" horiz-adv-x="1054" d="M63 582q0 210 218 278q-66 44 -94.5 106t-28.5 156q0 147 104 235.5t285 88.5q207 0 330 -80v-158h-68q-98 78 -256 78q-100 0 -156.5 -40.5t-56.5 -112.5q0 -69 56.5 -113.5t193.5 -77.5q203 -51 299 -129.5t96 -226.5q0 -205 -209 -281q63 -42 94 -99t31 -143 q0 -154 -106 -243.5t-314 -89.5q-211 0 -362 92v162h67q41 -39 121 -68t172 -29q107 0 163 39.5t56 116.5q0 75 -57.5 112.5t-222.5 84.5q-186 55 -270.5 132t-84.5 210zM250 616q0 -71 52 -116.5t179 -81.5q110 -33 133 -41q87 21 134 66.5t47 113.5q0 77 -60.5 123 t-191.5 80q-20 5 -54 14.5t-43 11.5q-99 -13 -147.5 -58t-48.5 -112z" />
<glyph unicode="&#xa8;" horiz-adv-x="833" d="M123 1305q0 47 34.5 80.5t82.5 33.5q49 0 82.5 -33t33.5 -81t-33.5 -81.5t-82.5 -33.5q-47 0 -82 34t-35 81zM477 1305q0 47 34 80.5t81 33.5q48 0 82.5 -33.5t34.5 -80.5t-35 -81t-82 -34t-81 34t-34 81z" />
<glyph unicode="&#xa9;" horiz-adv-x="1587" d="M84 717q0 138 37.5 257t103.5 205t155.5 147.5t194 91.5t218.5 30q144 0 272 -48.5t226 -139t155 -231t57 -312.5t-57 -312.5t-155 -231t-226 -139t-272 -48.5q-114 0 -218.5 30t-194 91.5t-155.5 147.5t-103.5 205t-37.5 257zM190 717q0 -150 47.5 -272t129.5 -201.5 t191.5 -122.5t234.5 -43q127 0 236.5 43t191.5 122.5t129 201.5t47 272t-47 272.5t-129 202.5t-191.5 123t-236.5 43q-125 0 -234.5 -43t-191.5 -123t-129.5 -202.5t-47.5 -272.5zM428 719q0 184 110 293.5t283 109.5q140 0 242 -61v-135h-74q-58 65 -168 65 q-100 0 -159.5 -71.5t-59.5 -202.5q0 -134 56 -201t161 -67q120 0 182 71h68v-121q-100 -82 -256 -82q-181 0 -283 107t-102 295z" />
<glyph unicode="&#xaa;" horiz-adv-x="892" d="M57 786q0 135 96 207t255 72q103 0 198 -25v105q0 82 -43.5 116.5t-138.5 34.5q-147 0 -242 -71h-61v143q152 78 336 78q170 0 256 -66t86 -219v-633h-90q-49 0 -70 21.5t-29 77.5q-103 -109 -268 -109q-127 0 -206 69t-79 199zM246 797q0 -148 160 -148q114 0 200 96 v185q-98 16 -157 16q-203 0 -203 -149z" />
<glyph unicode="&#xab;" horiz-adv-x="976" d="M80 485v93l270 399h164v-55l-252 -385v-5l252 -391v-53h-164zM461 485v93l270 399h166v-55l-254 -385v-5l254 -391v-53h-166z" />
<glyph unicode="&#xad;" horiz-adv-x="565" d="M76 520v178h413v-178h-413z" />
<glyph unicode="&#xae;" horiz-adv-x="829" d="M45 1083q0 85 31 155.5t82.5 116t117.5 70.5t138 25q149 0 258.5 -100t109.5 -267q0 -111 -53.5 -196t-136 -127.5t-178.5 -42.5q-150 0 -259.5 100t-109.5 266zM125 1083q0 -142 81 -219.5t208 -77.5q126 0 206 77.5t80 219.5t-80 219.5t-206 77.5q-127 0 -208 -77.5 t-81 -219.5zM272 899v385h156q147 0 147 -123q0 -70 -65 -102l72 -125v-35h-90l-74 139h-45v-139h-101zM373 1106h47q57 0 57 57q0 54 -57 54h-47v-111z" />
<glyph unicode="&#xaf;" horiz-adv-x="833" d="M176 1221v147h481v-147h-481z" />
<glyph unicode="&#xb0;" horiz-adv-x="692" d="M72 1169q0 123 79.5 200t194.5 77q116 0 195.5 -77t79.5 -200q0 -122 -80 -199t-195 -77t-194.5 77t-79.5 199zM197 1169q0 -73 42 -118t107 -45q67 0 110.5 45t43.5 118q0 74 -43.5 120t-110.5 46q-65 0 -107 -46t-42 -120z" />
<glyph unicode="&#xb2;" horiz-adv-x="653" d="M59 655v133l217 207q77 73 109.5 119t32.5 94q0 47 -31 76t-88 29q-90 0 -158 -64h-63v115q100 80 244 80q127 0 196.5 -57.5t69.5 -165.5q0 -54 -24.5 -104.5t-61 -91t-105.5 -103.5l-147 -134h336v-133h-527z" />
<glyph unicode="&#xb3;" horiz-adv-x="638" d="M47 715v110h64q57 -57 153 -57q72 0 111 29.5t39 87.5q0 56 -39.5 83t-104.5 27h-71v113h65q65 0 103.5 28.5t38.5 80.5q0 47 -31.5 72.5t-91.5 25.5q-91 0 -152 -49h-61v106q103 72 235 72q117 0 188.5 -53.5t71.5 -155.5q0 -128 -145 -174v-4q158 -32 158 -183 q0 -109 -80 -169t-219 -60t-232 70z" />
<glyph unicode="&#xb4;" horiz-adv-x="833" d="M346 1161v49l103 224h210v-68l-192 -205h-121z" />
<glyph unicode="&#xb6;" horiz-adv-x="1165" d="M70 1042q0 90 24.5 158.5t67.5 112.5t106.5 71.5t135 38.5t159.5 11h447v-1620h-158v1462h-154v-1462h-157v837h-19q-101 0 -181 21t-142 65.5t-95.5 121.5t-33.5 183z" />
<glyph unicode="&#xb7;" horiz-adv-x="403" d="M76 618q0 54 36.5 92t88.5 38q53 0 90 -38t37 -92t-37 -90t-90 -36t-89 36t-36 90z" />
<glyph unicode="&#xb8;" horiz-adv-x="833" d="M264 -223h51q27 -31 80 -31q70 0 70 49q0 51 -84 51h-47v154h110v-63q78 -3 118 -41t40 -105q0 -69 -51.5 -109t-136.5 -40q-80 0 -150 36v99z" />
<glyph unicode="&#xb9;" horiz-adv-x="509" d="M47 1190v125l215 119h125v-779h-174v605l-127 -70h-39z" />
<glyph unicode="&#xba;" horiz-adv-x="1021" d="M70 979q0 213 124.5 340t315.5 127q192 0 317 -126.5t125 -340.5q0 -213 -124.5 -337t-317.5 -124q-191 0 -315.5 124t-124.5 337zM268 979q0 -158 64.5 -237.5t177.5 -79.5q114 0 179 79.5t65 237.5q0 156 -65.5 238.5t-178.5 82.5q-112 0 -177 -82.5t-65 -238.5z" />
<glyph unicode="&#xbb;" horiz-adv-x="976" d="M80 88v53l252 391v7l-252 383v55h166l268 -399v-91l-268 -399h-166zM461 88v53l252 391v7l-252 383v55h166l270 -399v-91l-270 -399h-166z" />
<glyph unicode="&#xbc;" horiz-adv-x="1409" d="M57 1190v125l215 119h125v-779h-174v605l-127 -70h-39zM113 -70l979 1563h157l-979 -1563h-157zM756 174v131l362 473h156v-489h92v-115h-92v-174h-162v174h-356zM881 289h233v299h-6l-227 -295v-4z" />
<glyph unicode="&#xbd;" horiz-adv-x="1490" d="M57 1190v125l215 119h125v-779h-174v605l-127 -70h-39zM113 -70l979 1563h157l-979 -1563h-157zM907 0v131l215 207q78 74 110 120t32 93q0 48 -31 76t-88 28q-89 0 -158 -61h-63v115q98 79 245 79q126 0 196.5 -57.5t70.5 -165.5q0 -79 -44.5 -142t-148.5 -157 l-145 -135h336v-131h-527z" />
<glyph unicode="&#xbe;" horiz-adv-x="1490" d="M63 715v110h64q61 -57 156 -57q71 0 110 29.5t39 87.5q0 56 -39 83t-104 27h-72v113h66q65 0 103 28.5t38 80.5q0 47 -32 72.5t-91 25.5q-90 0 -151 -49h-62v106q103 72 234 72q118 0 189 -53.5t71 -155.5q0 -128 -144 -174v-4q158 -32 158 -183q0 -109 -80 -169 t-219 -60q-141 0 -234 70zM215 -70l979 1563h160l-979 -1563h-160zM840 174v131l362 473h156v-489h90v-115h-90v-174h-162v174h-356zM965 289h233v299h-6l-227 -295v-4z" />
<glyph unicode="&#xbf;" horiz-adv-x="903" d="M76 188q0 61 15.5 113t51 101t68 83.5t92.5 89.5q44 40 64.5 60t48.5 54t39 63t17.5 71t2.5 92h154q19 -134 -12 -217.5t-136 -191.5q-47 -47 -70 -72t-54.5 -68.5t-45.5 -86.5t-14 -91q0 -87 51.5 -133.5t143.5 -46.5q174 0 260 107h86v-164q-150 -115 -359 -115 q-191 0 -297 90t-106 262zM418 1167q0 54 36 90.5t89 36.5q54 0 89.5 -36.5t35.5 -90.5t-35.5 -91.5t-89.5 -37.5q-52 0 -88.5 37.5t-36.5 91.5z" />
<glyph unicode="&#xc0;" horiz-adv-x="1308" d="M63 0v68l474 1366h237l471 -1366v-68h-211l-133 401h-526l-129 -401h-183zM428 565h418l-207 633h-4zM428 1659v65h211l86 -194v-51h-119z" />
<glyph unicode="&#xc1;" horiz-adv-x="1308" d="M63 0v68l474 1366h237l471 -1366v-68h-211l-133 401h-526l-129 -401h-183zM428 565h418l-207 633h-4zM578 1479v51l88 194h211v-65l-177 -180h-122z" />
<glyph unicode="&#xc2;" horiz-adv-x="1308" d="M78 0v68l473 1366h235l474 -1366v-68h-213l-134 401h-526l-129 -401h-180zM414 1479v59l178 193h149l172 -193v-59h-116l-135 110l-138 -110h-110zM442 565h418l-209 633h-4z" />
<glyph unicode="&#xc3;" horiz-adv-x="1308" d="M63 0v68l474 1366h237l471 -1366v-68h-211l-133 401h-526l-129 -401h-183zM356 1487v61q15 79 60.5 123.5t113.5 44.5q51 0 122 -32.5t91 -32.5q58 0 74 67h119v-59q-15 -79 -60 -123.5t-114 -44.5q-50 0 -120 34t-91 34q-61 0 -74 -72h-121zM428 565h418l-207 633h-4z " />
<glyph unicode="&#xc4;" horiz-adv-x="1308" d="M63 0v68l474 1366h237l471 -1366v-68h-211l-133 401h-526l-129 -401h-183zM367 1606q0 46 34.5 80t81.5 34t81 -34t34 -80q0 -49 -33.5 -83t-81.5 -34t-82 34t-34 83zM428 565h418l-207 633h-4zM707 1606q0 46 34.5 80t81.5 34t81 -34t34 -80q0 -49 -33.5 -83t-81.5 -34 t-82 34t-34 83z" />
<glyph unicode="&#xc5;" horiz-adv-x="1308" d="M63 0v68l474 1366h237l471 -1366v-68h-211l-133 401h-526l-129 -401h-183zM428 565h418l-207 633h-4zM453 1677q0 85 57.5 139t136.5 54q82 0 139.5 -53.5t57.5 -139.5q0 -87 -57.5 -139.5t-139.5 -52.5q-80 0 -137 53t-57 139zM565 1677q0 -41 23 -65.5t59 -24.5 q39 0 62.5 24.5t23.5 65.5t-24 66.5t-62 25.5q-36 0 -59 -25.5t-23 -66.5z" />
<glyph unicode="&#xc6;" horiz-adv-x="1890" d="M41 0v68l684 1366h1059v-172h-656v-447h482v-164h-482v-483h682v-168h-903v412h-485l-199 -412h-182zM502 575h405v687h-71z" />
<glyph unicode="&#xc7;" horiz-adv-x="1255" d="M88 717q0 170 50 308.5t138 230t207.5 141t259.5 49.5q143 0 234 -28t180 -87v-174h-86q-123 119 -321 119q-199 0 -317 -143t-118 -408q0 -281 108.5 -425t309.5 -144q126 0 212 41t157 114h72v-170q-174 -153 -449 -153h-2v-51q160 -6 160 -146q0 -69 -52 -109 t-137 -40q-82 0 -149 36v99h51q27 -31 80 -31q69 0 69 49q0 51 -83 51h-48v150q-243 36 -384.5 224t-141.5 497z" />
<glyph unicode="&#xc8;" horiz-adv-x="1138" d="M158 0v1434h878v-172h-657v-447h481v-164h-481v-483h680v-168h-901zM393 1659v65h211l88 -194v-51h-119z" />
<glyph unicode="&#xc9;" horiz-adv-x="1138" d="M158 0v1434h878v-172h-657v-447h481v-164h-481v-483h680v-168h-901zM549 1479v51l88 194h209v-65l-176 -180h-121z" />
<glyph unicode="&#xca;" horiz-adv-x="1138" d="M158 0v1434h878v-172h-657v-447h481v-164h-481v-483h680v-168h-901zM367 1479v59l178 193h149l172 -193v-59h-116l-136 110l-137 -110h-110z" />
<glyph unicode="&#xcb;" horiz-adv-x="1138" d="M158 0v1434h878v-172h-657v-447h481v-164h-481v-483h680v-168h-901zM330 1606q0 46 34.5 80t81.5 34t82 -34t35 -80q0 -49 -34.5 -83t-82.5 -34t-82 34t-34 83zM672 1606q0 46 33.5 80t80.5 34t82 -34t35 -80q0 -49 -34.5 -83t-82.5 -34q-47 0 -80.5 34t-33.5 83z" />
<glyph unicode="&#xcc;" horiz-adv-x="548" d="M49 1659v65h211l88 -194v-51h-119zM162 0v1434h225v-1434h-225z" />
<glyph unicode="&#xcd;" horiz-adv-x="548" d="M162 0v1434h225v-1434h-225zM207 1479v51l88 194h211v-65l-178 -180h-121z" />
<glyph unicode="&#xce;" horiz-adv-x="548" d="M25 1479v59l178 193h149l172 -193v-59h-116l-136 110l-137 -110h-110zM162 0v1434h225v-1434h-225z" />
<glyph unicode="&#xcf;" horiz-adv-x="548" d="M-12 1606q0 46 35.5 80t82.5 34t81 -34t34 -80q0 -49 -33.5 -83t-81.5 -34t-83 34t-35 83zM162 0v1434h225v-1434h-225zM330 1606q0 46 33.5 80t80.5 34q49 0 83 -34t34 -80q0 -50 -33.5 -83.5t-83.5 -33.5q-47 0 -80.5 34t-33.5 83z" />
<glyph unicode="&#xd0;" horiz-adv-x="1376" d="M35 633v166h131v635h409q356 0 536.5 -172.5t180.5 -540.5q0 -721 -723 -721h-403v633h-131zM387 168h182q257 0 375.5 128.5t118.5 422.5q0 291 -118.5 418t-375.5 127h-182v-465h350v-166h-350v-465z" />
<glyph unicode="&#xd1;" horiz-adv-x="1390" d="M158 0v1434h256l624 -1055h4v1055h193v-1434h-205l-678 1149h-4v-1149h-190zM432 1487v61q14 79 59 123.5t115 44.5q51 0 122 -32.5t91 -32.5q58 0 74 67h119v-59q-15 -79 -60 -123.5t-114 -44.5q-50 0 -120 34t-91 34q-61 0 -74 -72h-121z" />
<glyph unicode="&#xd2;" horiz-adv-x="1462" d="M82 717q0 172 52 312t141.5 230t206.5 138.5t249 48.5t248.5 -48.5t205.5 -138.5t141 -230t52 -312t-52 -312.5t-141 -230.5t-205.5 -138t-248.5 -48t-249 48t-206.5 138t-141.5 230.5t-52 312.5zM311 713q0 -276 115 -418.5t305 -142.5q189 0 304.5 143t115.5 418 q0 276 -116 421.5t-304 145.5q-189 0 -304.5 -145.5t-115.5 -421.5zM508 1659v65h209l88 -194v-51h-119z" />
<glyph unicode="&#xd3;" horiz-adv-x="1462" d="M82 717q0 172 52 312t141.5 230t206.5 138.5t249 48.5t248.5 -48.5t205.5 -138.5t141 -230t52 -312t-52 -312.5t-141 -230.5t-205.5 -138t-248.5 -48t-249 48t-206.5 138t-141.5 230.5t-52 312.5zM311 713q0 -276 115 -418.5t305 -142.5q189 0 304.5 143t115.5 418 q0 276 -116 421.5t-304 145.5q-189 0 -304.5 -145.5t-115.5 -421.5zM662 1479v51l88 194h211v-65l-179 -180h-120z" />
<glyph unicode="&#xd4;" horiz-adv-x="1462" d="M82 717q0 172 52 312t141.5 230t206.5 138.5t249 48.5t248.5 -48.5t205.5 -138.5t141 -230t52 -312t-52 -312.5t-141 -230.5t-205.5 -138t-248.5 -48t-249 48t-206.5 138t-141.5 230.5t-52 312.5zM311 713q0 -276 115 -418.5t305 -142.5q189 0 304.5 143t115.5 418 q0 276 -116 421.5t-304 145.5q-189 0 -304.5 -145.5t-115.5 -421.5zM479 1479v59l178 193h150l172 -193v-59h-117l-135 110l-137 -110h-111z" />
<glyph unicode="&#xd5;" horiz-adv-x="1462" d="M82 717q0 172 52 312t141.5 230t206.5 138.5t249 48.5t248.5 -48.5t205.5 -138.5t141 -230t52 -312t-52 -312.5t-141 -230.5t-205.5 -138t-248.5 -48t-249 48t-206.5 138t-141.5 230.5t-52 312.5zM311 713q0 -276 115 -418.5t305 -142.5q189 0 304.5 143t115.5 418 q0 276 -116 421.5t-304 145.5q-189 0 -304.5 -145.5t-115.5 -421.5zM440 1487v61q14 79 59 123.5t115 44.5q51 0 122 -32.5t91 -32.5q58 0 74 67h119v-59q-15 -80 -60 -124t-116 -44q-49 0 -118.5 34t-90.5 34q-61 0 -74 -72h-121z" />
<glyph unicode="&#xd6;" horiz-adv-x="1462" d="M82 717q0 172 52 312t141.5 230t206.5 138.5t249 48.5t248.5 -48.5t205.5 -138.5t141 -230t52 -312t-52 -312.5t-141 -230.5t-205.5 -138t-248.5 -48t-249 48t-206.5 138t-141.5 230.5t-52 312.5zM311 713q0 -276 115 -418.5t305 -142.5q189 0 304.5 143t115.5 418 q0 276 -116 421.5t-304 145.5q-189 0 -304.5 -145.5t-115.5 -421.5zM444 1606q0 46 35 80t82 34t80 -34t33 -80q0 -49 -33 -83t-80 -34q-48 0 -82.5 34t-34.5 83zM786 1606q0 46 34 80t81 34t80 -34t33 -80q0 -49 -33 -83t-80 -34q-48 0 -81.5 34t-33.5 83z" />
<glyph unicode="&#xd7;" horiz-adv-x="1001" d="M92 387l293 307l-293 305l113 121l297 -305l295 305l112 -121l-295 -305l295 -307l-112 -121l-295 307l-297 -307z" />
<glyph unicode="&#xd8;" horiz-adv-x="1462" d="M82 717q0 172 52 312t141.5 230t206.5 138.5t249 48.5q219 0 381 -125l109 141h143v-45l-147 -192q161 -198 161 -508q0 -172 -52 -312.5t-141 -230.5t-205.5 -138t-248.5 -48q-212 0 -369 112l-112 -145h-141v45l147 195q-174 202 -174 522zM309 713q0 -218 70 -355 l622 818q-107 104 -270 104q-189 0 -305.5 -145.5t-116.5 -421.5zM469 244q106 -92 262 -92q189 0 305.5 143t116.5 418q0 200 -66 342z" />
<glyph unicode="&#xd9;" horiz-adv-x="1380" d="M150 528v906h223v-912q0 -104 24.5 -175.5t72 -110.5t106.5 -55.5t139 -16.5q76 0 131.5 17t98.5 56.5t65 110.5t22 174v912h199v-906q0 -273 -131.5 -406.5t-397.5 -133.5q-260 0 -406 136t-146 404zM477 1659v65h211l88 -194v-51h-121z" />
<glyph unicode="&#xda;" horiz-adv-x="1380" d="M150 528v906h223v-912q0 -104 24.5 -175.5t72 -110.5t106.5 -55.5t139 -16.5q76 0 131.5 17t98.5 56.5t65 110.5t22 174v912h199v-906q0 -273 -131.5 -406.5t-397.5 -133.5q-260 0 -406 136t-146 404zM633 1479v51l86 194h211v-65l-176 -180h-121z" />
<glyph unicode="&#xdb;" horiz-adv-x="1380" d="M150 528v906h223v-912q0 -104 24.5 -175.5t72 -110.5t106.5 -55.5t139 -16.5q76 0 131.5 17t98.5 56.5t65 110.5t22 174v912h199v-906q0 -273 -131.5 -406.5t-397.5 -133.5q-260 0 -406 136t-146 404zM451 1479v59l180 193h147l174 -193v-59h-116l-136 110l-137 -110 h-112z" />
<glyph unicode="&#xdc;" horiz-adv-x="1380" d="M150 528v906h223v-912q0 -104 24.5 -175.5t72 -110.5t106.5 -55.5t139 -16.5q76 0 131.5 17t98.5 56.5t65 110.5t22 174v912h199v-906q0 -273 -131.5 -406.5t-397.5 -133.5q-260 0 -406 136t-146 404zM418 1606q0 46 33.5 80t80.5 34t80 -34t33 -80q0 -49 -33 -83 t-80 -34t-80.5 34t-33.5 83zM760 1606q0 46 32.5 80t79.5 34t80 -34t33 -80q0 -49 -33 -83t-80 -34t-79.5 34t-32.5 83z" />
<glyph unicode="&#xdd;" horiz-adv-x="1189" d="M55 1362v72h203l352 -650h2l344 650h179v-72l-420 -782v-580h-221v573zM539 1479v51l88 194h211v-65l-179 -180h-120z" />
<glyph unicode="&#xde;" horiz-adv-x="1173" d="M158 0v1434h221v-277h196q529 0 529 -424q0 -430 -533 -430h-192v-303h-221zM379 463h192q161 0 234.5 63t73.5 203q0 139 -73 198.5t-235 59.5h-192v-524z" />
<glyph unicode="&#xdf;" horiz-adv-x="1210" d="M137 0v1028q0 199 127.5 310.5t356.5 111.5q184 0 291.5 -71t107.5 -216q0 -78 -50.5 -142.5t-140.5 -135.5q-70 -55 -95 -84t-25 -60q0 -34 33 -59.5t126 -63.5q71 -29 116.5 -55t84.5 -63t56.5 -86.5t17.5 -116.5q0 -142 -99 -225.5t-278 -83.5q-171 0 -268 73v160h67 q82 -74 201 -74q87 0 137.5 35.5t50.5 98.5q0 60 -43 95t-157 79t-171 102t-57 148q0 42 9.5 76t33 66.5t43.5 53.5t62 60q7 6 25 22t24.5 22t21 20t20 20.5t16 19t14.5 21.5t9 21t7 23.5t2 24.5q0 67 -51.5 103t-143.5 36q-134 0 -203 -72t-69 -202v-1020h-209z" />
<glyph unicode="&#xe0;" d="M68 307q0 159 113.5 242.5t301.5 83.5q115 0 234 -29v141q0 183 -215 183q-171 0 -293 -88h-66v155q184 92 385 92q197 0 298.5 -77.5t101.5 -249.5v-760h-82q-63 0 -88.5 24t-34.5 95q-122 -131 -320 -131q-151 0 -243 83t-92 236zM272 319q0 -95 54 -141.5t145 -46.5 q79 0 137 32t109 91v227q-103 21 -199 21q-113 0 -179.5 -45t-66.5 -138zM276 1366v68h211l101 -224v-49h-119z" />
<glyph unicode="&#xe1;" d="M68 307q0 159 113.5 242.5t301.5 83.5q115 0 234 -29v141q0 183 -215 183q-171 0 -293 -88h-66v155q184 92 385 92q197 0 298.5 -77.5t101.5 -249.5v-760h-82q-63 0 -88.5 24t-34.5 95q-122 -131 -320 -131q-151 0 -243 83t-92 236zM272 319q0 -95 54 -141.5t145 -46.5 q79 0 137 32t109 91v227q-103 21 -199 21q-113 0 -179.5 -45t-66.5 -138zM469 1161v49l104 224h209v-68l-192 -205h-121z" />
<glyph unicode="&#xe2;" d="M68 307q0 159 113.5 242.5t301.5 83.5q115 0 234 -29v141q0 183 -215 183q-171 0 -293 -88h-66v155q184 92 385 92q197 0 298.5 -77.5t101.5 -249.5v-760h-82q-63 0 -88.5 24t-34.5 95q-122 -131 -320 -131q-151 0 -243 83t-92 236zM272 319q0 -95 54 -141.5t145 -46.5 q79 0 137 32t109 91v227q-103 21 -199 21q-113 0 -179.5 -45t-66.5 -138zM274 1161v60l181 213h149l174 -213v-60h-116l-138 131l-141 -131h-109z" />
<glyph unicode="&#xe3;" d="M68 307q0 159 113.5 242.5t301.5 83.5q115 0 234 -29v141q0 183 -215 183q-171 0 -293 -88h-66v155q184 92 385 92q197 0 298.5 -77.5t101.5 -249.5v-760h-82q-63 0 -88.5 24t-34.5 95q-122 -131 -320 -131q-151 0 -243 83t-92 236zM238 1176v59q14 79 59 123.5t115 44.5 q51 0 122 -33t91 -33q57 0 73 70h119v-61q-15 -79 -60 -123.5t-114 -44.5q-50 0 -120 33.5t-91 33.5q-61 0 -74 -69h-120zM272 319q0 -95 54 -141.5t145 -46.5q79 0 137 32t109 91v227q-103 21 -199 21q-113 0 -179.5 -45t-66.5 -138z" />
<glyph unicode="&#xe4;" d="M68 307q0 159 113.5 242.5t301.5 83.5q115 0 234 -29v141q0 183 -215 183q-171 0 -293 -88h-66v155q184 92 385 92q197 0 298.5 -77.5t101.5 -249.5v-760h-82q-63 0 -88.5 24t-34.5 95q-122 -131 -320 -131q-151 0 -243 83t-92 236zM242 1305q0 47 34.5 80.5t81.5 33.5 t81 -33.5t34 -80.5t-34 -81t-81 -34t-81.5 34t-34.5 81zM272 319q0 -95 54 -141.5t145 -46.5q79 0 137 32t109 91v227q-103 21 -199 21q-113 0 -179.5 -45t-66.5 -138zM582 1305q0 47 34.5 80.5t81.5 33.5t81 -33.5t34 -80.5t-34 -81t-81 -34t-81.5 34t-34.5 81z" />
<glyph unicode="&#xe5;" d="M68 307q0 159 113.5 242.5t301.5 83.5q115 0 234 -29v141q0 183 -215 183q-171 0 -293 -88h-66v155q184 92 385 92q197 0 298.5 -77.5t101.5 -249.5v-760h-82q-63 0 -88.5 24t-34.5 95q-122 -131 -320 -131q-151 0 -243 83t-92 236zM272 319q0 -95 54 -141.5t145 -46.5 q79 0 137 32t109 91v227q-103 21 -199 21q-113 0 -179.5 -45t-66.5 -138zM332 1358q0 86 57 140t137 54q82 0 139.5 -53.5t57.5 -140.5q0 -86 -57 -138.5t-140 -52.5q-80 0 -137 52.5t-57 138.5zM444 1358q0 -40 23.5 -65t58.5 -25q38 0 62 25t24 65q0 41 -24 66.5t-62 25.5 q-36 0 -59 -25.5t-23 -66.5z" />
<glyph unicode="&#xe6;" horiz-adv-x="1720" d="M68 309q0 156 116 241t310 85h223v110q0 183 -215 183q-171 0 -293 -88h-66v155q184 92 385 92q259 0 332 -143q137 143 342 143q218 0 334.5 -129t116.5 -387q0 -18 -2 -45t-2 -28h-721q7 -187 87.5 -270t237.5 -83q183 0 297 99h70v-146q-166 -110 -395 -110 q-286 0 -416 194q-142 -194 -387 -194q-164 0 -259 82.5t-95 238.5zM272 319q0 -95 53.5 -141.5t141.5 -46.5q176 0 289 158q-38 93 -41 209h-199q-113 0 -178.5 -44t-65.5 -135zM932 635h514q-4 165 -66 237t-178 72q-110 0 -181 -73.5t-89 -235.5z" />
<glyph unicode="&#xe7;" horiz-adv-x="1001" d="M70 535q0 253 148 402.5t380 149.5q187 0 322 -86v-163h-86q-88 88 -238 88q-141 0 -227 -103t-86 -288q0 -190 82.5 -289t226.5 -99q165 0 260 103h78v-152q-137 -110 -342 -110h-21v-51q78 -3 118 -41t40 -105q0 -69 -51.5 -109t-136.5 -40q-80 0 -150 36v99h53 q23 -31 78 -31q70 0 70 49q0 51 -82 51h-49v154q-185 37 -286 176.5t-101 358.5z" />
<glyph unicode="&#xe8;" horiz-adv-x="1077" d="M70 532q0 252 138 403.5t351 151.5q216 0 332.5 -129.5t116.5 -388.5q0 -17 -1 -44.5t-1 -28.5h-721q7 -185 88.5 -268t236.5 -83q174 0 297 99h68v-146q-162 -110 -395 -110q-244 0 -377 144.5t-133 399.5zM289 633h512q-3 166 -64.5 238.5t-177.5 72.5 q-111 0 -182.5 -74.5t-87.5 -236.5zM305 1366v68h209l102 -224v-49h-118z" />
<glyph unicode="&#xe9;" horiz-adv-x="1077" d="M70 532q0 252 138 403.5t351 151.5q216 0 332.5 -129.5t116.5 -388.5q0 -17 -1 -44.5t-1 -28.5h-721q7 -185 88.5 -268t236.5 -83q174 0 297 99h68v-146q-162 -110 -395 -110q-244 0 -377 144.5t-133 399.5zM289 633h512q-3 166 -64.5 238.5t-177.5 72.5 q-111 0 -182.5 -74.5t-87.5 -236.5zM496 1161v49l102 224h211v-68l-193 -205h-120z" />
<glyph unicode="&#xea;" horiz-adv-x="1077" d="M70 532q0 252 138 403.5t351 151.5q216 0 332.5 -129.5t116.5 -388.5q0 -17 -1 -44.5t-1 -28.5h-721q7 -185 88.5 -268t236.5 -83q174 0 297 99h68v-146q-162 -110 -395 -110q-244 0 -377 144.5t-133 399.5zM289 633h512q-3 166 -64.5 238.5t-177.5 72.5 q-111 0 -182.5 -74.5t-87.5 -236.5zM303 1161v60l180 213h150l174 -213v-60h-117l-137 131l-141 -131h-109z" />
<glyph unicode="&#xeb;" horiz-adv-x="1077" d="M70 532q0 252 138 403.5t351 151.5q216 0 332.5 -129.5t116.5 -388.5q0 -17 -1 -44.5t-1 -28.5h-721q7 -185 88.5 -268t236.5 -83q174 0 297 99h68v-146q-162 -110 -395 -110q-244 0 -377 144.5t-133 399.5zM266 1305q0 47 34.5 80.5t82.5 33.5t82.5 -33.5t34.5 -80.5 t-35 -81t-82 -34t-82 34t-35 81zM289 633h512q-3 166 -64.5 238.5t-177.5 72.5q-111 0 -182.5 -74.5t-87.5 -236.5zM608 1305q0 47 34 80.5t81 33.5q48 0 82.5 -33.5t34.5 -80.5t-35 -81t-82 -34t-81 34t-34 81z" />
<glyph unicode="&#xec;" horiz-adv-x="491" d="M6 1366v68h211l100 -224v-49h-118zM139 0v1071h117q61 0 76.5 -28.5t15.5 -131.5v-911h-209z" />
<glyph unicode="&#xed;" horiz-adv-x="491" d="M139 0v1071h117q61 0 76.5 -28.5t15.5 -131.5v-911h-209zM166 1161v49l102 224h211v-68l-192 -205h-121z" />
<glyph unicode="&#xee;" horiz-adv-x="491" d="M-8 1161v60l182 213h148l176 -213v-60h-119l-135 131l-142 -131h-110zM139 0v1071h117q61 0 76.5 -28.5t15.5 -131.5v-911h-209z" />
<glyph unicode="&#xef;" horiz-adv-x="491" d="M-41 1305q0 47 34.5 80.5t82.5 33.5q47 0 80.5 -33.5t33.5 -80.5t-33.5 -81t-80.5 -34t-82 34t-35 81zM139 0v1071h117q61 0 76.5 -28.5t15.5 -131.5v-911h-209zM301 1305q0 47 34 80.5t81 33.5t80.5 -33.5t33.5 -80.5t-33.5 -81t-80.5 -34t-81 34t-34 81z" />
<glyph unicode="&#xf0;" horiz-adv-x="1163" d="M70 522q0 241 133 381.5t338 140.5q106 0 175 -32t124 -99q-81 178 -226 273l-100 -84h-143v41l123 102q-68 28 -156 47v142h74q120 -24 221 -70l80 68h143v-41l-104 -91q164 -110 253 -294.5t89 -438.5q0 -145 -39.5 -257.5t-110 -181.5t-163 -104.5t-203.5 -35.5 q-227 0 -367.5 144.5t-140.5 389.5zM283 520q0 -178 82 -276.5t223 -98.5q140 0 216.5 97t76.5 278t-76.5 281t-216.5 100t-222.5 -100.5t-82.5 -280.5z" />
<glyph unicode="&#xf1;" horiz-adv-x="1159" d="M137 0v1071h131q40 0 57.5 -27t20.5 -108q85 67 191.5 109t218.5 42q60 0 106.5 -13.5t86 -45.5t60.5 -91.5t21 -143.5v-793h-209v743q0 95 -40 132.5t-122 37.5q-130 0 -313 -106v-807h-209zM299 1176v59q14 79 59 123.5t115 44.5q51 0 122 -33t91 -33q58 0 74 70h119 v-61q-15 -79 -60 -123.5t-114 -44.5q-50 0 -120 33.5t-91 33.5q-61 0 -74 -69h-121z" />
<glyph unicode="&#xf2;" horiz-adv-x="1163" d="M70 532q0 126 39 230.5t107.5 175.5t162.5 110t203 39t203 -39t162.5 -110t107.5 -175.5t39 -230.5q0 -125 -39 -228t-107.5 -172t-162.5 -106.5t-203 -37.5t-203 37.5t-162.5 106.5t-107.5 172t-39 228zM283 532q0 -189 80 -288t219 -99q140 0 219.5 99t79.5 288 q0 191 -80 294.5t-219 103.5q-138 0 -218.5 -104t-80.5 -294zM330 1366v68h211l102 -224v-49h-121z" />
<glyph unicode="&#xf3;" horiz-adv-x="1163" d="M70 532q0 126 39 230.5t107.5 175.5t162.5 110t203 39t203 -39t162.5 -110t107.5 -175.5t39 -230.5q0 -125 -39 -228t-107.5 -172t-162.5 -106.5t-203 -37.5t-203 37.5t-162.5 106.5t-107.5 172t-39 228zM283 532q0 -189 80 -288t219 -99q140 0 219.5 99t79.5 288 q0 191 -80 294.5t-219 103.5q-138 0 -218.5 -104t-80.5 -294zM520 1161v49l105 224h211v-68l-193 -205h-123z" />
<glyph unicode="&#xf4;" horiz-adv-x="1163" d="M70 532q0 126 39 230.5t107.5 175.5t162.5 110t203 39t203 -39t162.5 -110t107.5 -175.5t39 -230.5q0 -125 -39 -228t-107.5 -172t-162.5 -106.5t-203 -37.5t-203 37.5t-162.5 106.5t-107.5 172t-39 228zM283 532q0 -189 80 -288t219 -99q140 0 219.5 99t79.5 288 q0 191 -80 294.5t-219 103.5q-138 0 -218.5 -104t-80.5 -294zM328 1161v60l182 213h147l177 -213v-60h-119l-137 131l-140 -131h-110z" />
<glyph unicode="&#xf5;" horiz-adv-x="1163" d="M70 532q0 126 39 230.5t107.5 175.5t162.5 110t203 39t203 -39t162.5 -110t107.5 -175.5t39 -230.5q0 -125 -39 -228t-107.5 -172t-162.5 -106.5t-203 -37.5t-203 37.5t-162.5 106.5t-107.5 172t-39 228zM283 532q0 -189 80 -288t219 -99q140 0 219.5 99t79.5 288 q0 191 -80 294.5t-219 103.5q-138 0 -218.5 -104t-80.5 -294zM291 1176v59q15 79 60.5 123.5t113.5 44.5q51 0 122 -33t91 -33q58 0 74 70h118v-61q-15 -79 -60 -123.5t-114 -44.5q-50 0 -120 33.5t-91 33.5q-60 0 -73 -69h-121z" />
<glyph unicode="&#xf6;" horiz-adv-x="1163" d="M70 532q0 126 39 230.5t107.5 175.5t162.5 110t203 39t203 -39t162.5 -110t107.5 -175.5t39 -230.5q0 -125 -39 -228t-107.5 -172t-162.5 -106.5t-203 -37.5t-203 37.5t-162.5 106.5t-107.5 172t-39 228zM283 532q0 -189 80 -288t219 -99q140 0 219.5 99t79.5 288 q0 191 -80 294.5t-219 103.5q-138 0 -218.5 -104t-80.5 -294zM295 1305q0 47 34.5 80.5t82.5 33.5q47 0 80.5 -33.5t33.5 -80.5t-33.5 -81t-80.5 -34t-82 34t-35 81zM637 1305q0 47 34 80.5t81 33.5t80.5 -33.5t33.5 -80.5t-33.5 -81t-80.5 -34t-81 34t-34 81z" />
<glyph unicode="&#xf7;" horiz-adv-x="1024" d="M70 621v174h884v-174h-884zM387 367q0 54 36.5 91.5t88.5 37.5q53 0 91 -37.5t38 -91.5q0 -53 -38 -90t-91 -37t-89 36.5t-36 90.5zM387 1047q0 54 36.5 91.5t88.5 37.5q53 0 91 -37.5t38 -91.5q0 -53 -38 -90t-91 -37t-89 36.5t-36 90.5z" />
<glyph unicode="&#xf8;" horiz-adv-x="1163" d="M70 532q0 126 39 230.5t107.5 175.5t162.5 110t203 39q156 0 280 -79l80 102h127v-45l-108 -143q133 -152 133 -390q0 -125 -39 -228t-107.5 -172t-162.5 -106.5t-203 -37.5q-160 0 -279 75l-88 -114h-125v47l115 149q-135 144 -135 387zM279 532q0 -148 40 -235l443 577 q-73 58 -180 58q-138 0 -220.5 -105t-82.5 -295zM401 193q72 -54 181 -54q140 0 221.5 101.5t81.5 291.5q0 142 -43 236z" />
<glyph unicode="&#xf9;" horiz-adv-x="1171" d="M137 272v799h209v-752q0 -96 42.5 -132.5t123.5 -36.5q131 0 303 102v819h209v-1071h-131q-39 0 -55.5 23.5t-20.5 97.5q-85 -61 -185.5 -98t-201.5 -37q-293 0 -293 286zM332 1366v68h211l100 -224v-49h-119z" />
<glyph unicode="&#xfa;" horiz-adv-x="1171" d="M137 272v799h209v-752q0 -96 42.5 -132.5t123.5 -36.5q131 0 303 102v819h209v-1071h-131q-39 0 -55.5 23.5t-20.5 97.5q-85 -61 -185.5 -98t-201.5 -37q-293 0 -293 286zM522 1161v49l105 224h211v-68l-195 -205h-121z" />
<glyph unicode="&#xfb;" horiz-adv-x="1171" d="M137 272v799h209v-752q0 -96 42.5 -132.5t123.5 -36.5q131 0 303 102v819h209v-1071h-131q-39 0 -55.5 23.5t-20.5 97.5q-85 -61 -185.5 -98t-201.5 -37q-293 0 -293 286zM330 1161v60l180 213h149l177 -213v-60h-119l-137 131l-140 -131h-110z" />
<glyph unicode="&#xfc;" horiz-adv-x="1171" d="M137 272v799h209v-752q0 -96 42.5 -132.5t123.5 -36.5q131 0 303 102v819h209v-1071h-131q-39 0 -55.5 23.5t-20.5 97.5q-85 -61 -185.5 -98t-201.5 -37q-293 0 -293 286zM295 1305q0 47 34.5 80.5t82.5 33.5q47 0 80.5 -33.5t33.5 -80.5t-33.5 -81t-80.5 -34t-82 34 t-35 81zM637 1305q0 47 34 80.5t81 33.5t80.5 -33.5t33.5 -80.5t-33.5 -81t-80.5 -34t-81 34t-34 81z" />
<glyph unicode="&#xfd;" horiz-adv-x="1077" d="M55 1014v57h197l305 -752h2l285 752h180v-57l-535 -1346h-180v60l148 333zM498 1161v49l102 224h211v-68l-193 -205h-120z" />
<glyph unicode="&#xfe;" horiz-adv-x="1165" d="M137 -332v1766h119q57 0 73.5 -25.5t16.5 -116.5v-358q153 153 348 153q79 0 148 -28t127.5 -87.5t92.5 -165t34 -247.5q0 -120 -26 -215.5t-69 -157.5t-102.5 -103.5t-122.5 -59t-133 -17.5q-180 0 -297 96v-434h-209zM346 254q94 -94 246 -94q291 0 291 379 q0 110 -22 187.5t-60.5 118t-82.5 58t-97 17.5q-131 0 -275 -123v-543z" />
<glyph unicode="&#xff;" horiz-adv-x="1077" d="M55 1014v57h197l305 -752h2l285 752h180v-57l-535 -1346h-180v60l148 333zM268 1305q0 47 34.5 80.5t82.5 33.5t82.5 -33.5t34.5 -80.5t-35 -81t-82 -34t-82 34t-35 81zM610 1305q0 47 34 80.5t81 33.5q48 0 82.5 -33.5t34.5 -80.5t-35 -81t-82 -34t-81 34t-34 81z" />
<glyph unicode="&#x152;" horiz-adv-x="1923" d="M82 713q0 721 723 721h1016v-172h-641v-447h462v-164h-462v-483h663v-168h-1044q-355 0 -536 172.5t-181 540.5zM311 715q0 -291 118.5 -419t375.5 -128h151v1094h-151q-256 0 -375 -127t-119 -420z" />
<glyph unicode="&#x153;" horiz-adv-x="1886" d="M70 532q0 126 39 230.5t107.5 175.5t162.5 110t203 39q131 0 234.5 -56t166.5 -159q60 103 160 159t227 56q215 0 332 -129.5t117 -388.5q0 -17 -2 -44.5t-2 -28.5h-721q7 -185 89 -268t238 -83q179 0 293 99h72v-146q-166 -110 -395 -110q-288 0 -410 205 q-63 -100 -165.5 -152.5t-233.5 -52.5q-109 0 -203 37.5t-162.5 106.5t-107.5 172t-39 228zM283 532q0 -189 80.5 -290t218.5 -101q139 0 219 100.5t80 290.5t-80 293t-219 103q-138 0 -218.5 -103t-80.5 -293zM1098 633h514q-4 166 -66.5 238.5t-175.5 72.5 q-111 0 -183.5 -74.5t-88.5 -236.5z" />
<glyph unicode="&#x178;" horiz-adv-x="1189" d="M55 1362v72h203l352 -650h2l344 650h179v-72l-420 -782v-580h-221v573zM326 1606q0 46 34.5 80t83.5 34q47 0 81 -34t34 -80q0 -49 -33.5 -83t-81.5 -34q-50 0 -84 34t-34 83zM668 1606q0 46 33.5 80t80.5 34t82 -34t35 -80q0 -49 -34.5 -83t-82.5 -34q-47 0 -80.5 34 t-33.5 83z" />
<glyph unicode="&#x2c6;" horiz-adv-x="833" d="M164 1161v60l180 213h150l174 -213v-60h-117l-137 131l-142 -131h-108z" />
<glyph unicode="&#x2dc;" horiz-adv-x="833" d="M115 1176v59q15 79 60.5 123.5t115.5 44.5q50 0 120.5 -33t92.5 -33q58 0 74 70h118v-61q-15 -80 -60 -124t-116 -44q-49 0 -118.5 33.5t-90.5 33.5q-60 0 -73 -69h-123z" />
<glyph unicode="&#x2000;" horiz-adv-x="935" />
<glyph unicode="&#x2001;" horiz-adv-x="1870" />
<glyph unicode="&#x2002;" horiz-adv-x="935" />
<glyph unicode="&#x2003;" horiz-adv-x="1870" />
<glyph unicode="&#x2004;" horiz-adv-x="623" />
<glyph unicode="&#x2005;" horiz-adv-x="467" />
<glyph unicode="&#x2006;" horiz-adv-x="311" />
<glyph unicode="&#x2007;" horiz-adv-x="311" />
<glyph unicode="&#x2008;" horiz-adv-x="233" />
<glyph unicode="&#x2009;" horiz-adv-x="374" />
<glyph unicode="&#x200a;" horiz-adv-x="103" />
<glyph unicode="&#x2010;" horiz-adv-x="565" d="M76 520v178h413v-178h-413z" />
<glyph unicode="&#x2011;" horiz-adv-x="565" d="M76 520v178h413v-178h-413z" />
<glyph unicode="&#x2012;" horiz-adv-x="565" d="M76 520v178h413v-178h-413z" />
<glyph unicode="&#x2013;" horiz-adv-x="882" d="M92 498v172h699v-172h-699z" />
<glyph unicode="&#x2014;" horiz-adv-x="1460" d="M92 498v172h1276v-172h-1276z" />
<glyph unicode="&#x2018;" horiz-adv-x="397" d="M74 1161q0 252 250 279v-103q-46 -7 -72.5 -27.5t-26.5 -47.5q0 -8 2 -14.5t4 -10.5t7.5 -8.5t9 -6.5t12 -7t12.5 -7q45 -29 45 -94q0 -46 -32.5 -76t-83.5 -30q-55 0 -91 39t-36 114z" />
<glyph unicode="&#x2019;" horiz-adv-x="397" d="M74 1014v102q48 7 75 28t27 48q0 12 -5 20.5t-10 12.5t-17.5 11t-18.5 11q-45 31 -45 92q0 46 33 76.5t84 30.5q55 0 91 -39.5t36 -114.5q0 -127 -62 -195.5t-188 -82.5z" />
<glyph unicode="&#x201a;" horiz-adv-x="397" d="M74 -80q48 6 75 26.5t27 47.5q0 12 -5 20.5t-10 12.5t-17.5 11t-18.5 11q-45 31 -45 92q0 46 33 76.5t84 30.5q55 0 91 -39.5t36 -114.5q0 -249 -250 -276v102z" />
<glyph unicode="&#x201c;" horiz-adv-x="749" d="M74 1161q0 252 250 279v-103q-46 -7 -72.5 -27.5t-26.5 -47.5q0 -8 2 -14.5t4 -10.5t7.5 -8.5t9 -6.5t12 -7t12.5 -7q45 -29 45 -94q0 -46 -32.5 -76t-83.5 -30q-55 0 -91 39t-36 114zM426 1161q0 252 250 279v-103q-48 -7 -74.5 -27.5t-26.5 -47.5q0 -12 5 -20.5 t10 -12.5t17.5 -11t17.5 -10q47 -30 47 -94q0 -46 -34 -76t-85 -30q-55 0 -91 39t-36 114z" />
<glyph unicode="&#x201d;" horiz-adv-x="749" d="M74 1014v102q48 7 75 28t27 48q0 12 -5 20.5t-10 12.5t-17.5 11t-18.5 11q-45 31 -45 92q0 46 33 76.5t84 30.5q55 0 91 -39.5t36 -114.5q0 -127 -62 -195.5t-188 -82.5zM426 1014v102q46 7 73 28t27 48q0 12 -4.5 20.5t-9 12t-17.5 11.5t-18 11q-45 31 -45 92 q0 46 33 76.5t84 30.5q55 0 91 -39.5t36 -114.5q0 -127 -62 -195.5t-188 -82.5z" />
<glyph unicode="&#x201e;" horiz-adv-x="749" d="M74 -80q48 6 75 26.5t27 47.5q0 12 -5 20.5t-10 12.5t-17.5 11t-18.5 11q-45 31 -45 92q0 46 33 76.5t84 30.5q55 0 91 -39.5t36 -114.5q0 -249 -250 -276v102zM426 -80q46 6 73 26.5t27 47.5q0 12 -4.5 20.5t-9 12t-17.5 11.5t-18 11q-45 31 -45 92q0 46 33 76.5 t84 30.5q55 0 91 -39.5t36 -114.5q0 -249 -250 -276v102z" />
<glyph unicode="&#x2022;" horiz-adv-x="657" d="M72 590q0 118 73.5 190t182.5 72q110 0 183 -71.5t73 -190.5q0 -118 -73 -188t-183 -70q-109 0 -182.5 70t-73.5 188z" />
<glyph unicode="&#x2026;" horiz-adv-x="1277" d="M74 117q0 54 37 91.5t90 37.5t91 -37.5t38 -91.5q0 -53 -38 -90t-91 -37t-90 36.5t-37 90.5zM512 117q0 54 36.5 91.5t90.5 37.5q53 0 91 -37.5t38 -91.5q0 -53 -38 -90t-91 -37q-54 0 -90.5 36.5t-36.5 90.5zM948 117q0 54 37.5 91.5t91.5 37.5q53 0 90 -37.5t37 -91.5 t-37 -90.5t-90 -36.5q-54 0 -91.5 36.5t-37.5 90.5z" />
<glyph unicode="&#x202f;" horiz-adv-x="374" />
<glyph unicode="&#x2039;" horiz-adv-x="593" d="M80 485v93l270 399h164v-55l-252 -385v-5l252 -391v-53h-164z" />
<glyph unicode="&#x203a;" horiz-adv-x="593" d="M80 88v53l252 391v7l-252 383v55h166l268 -399v-91l-268 -399h-166z" />
<glyph unicode="&#x205f;" horiz-adv-x="467" />
<glyph unicode="&#x20ac;" horiz-adv-x="1210" d="M53 520v137h113v60q0 42 2 65h-115v138h129q47 250 203 388t383 138q122 0 201 -23t157 -73v-164h-86q-54 43 -115 66.5t-151 23.5q-149 0 -241 -90.5t-123 -265.5h440l-25 -138h-432v-125h408l-27 -137h-366q28 -184 114 -274t236 -90q185 0 311 120h78v-155 q-155 -133 -399 -133q-229 0 -378 138t-190 394h-127z" />
<glyph unicode="&#x2122;" horiz-adv-x="1329" d="M59 1331v103h461v-103h-164v-467h-133v467h-164zM608 864v570h201l111 -359h2l114 359h201v-570h-131v455h-2l-143 -455h-97l-143 455h-2v-455h-111z" />
<glyph unicode="&#x25fc;" horiz-adv-x="1075" d="M0 0v1075h1075v-1075h-1075z" />
<glyph unicode="&#xfb01;" horiz-adv-x="1114" d="M41 924v147h129v92q0 144 77 214.5t214 70.5q76 0 137 -21v-133h-72q-74 0 -110.5 -30t-36.5 -109v-84h219v-147h-219v-924h-209v924h-129zM745 1309q0 51 36.5 87t86.5 36t86.5 -36t36.5 -87q0 -49 -36.5 -84t-86.5 -35t-86.5 35t-36.5 84zM762 0v1071h117 q61 0 76.5 -28.5t15.5 -131.5v-911h-209z" />
<glyph unicode="&#xfb02;" horiz-adv-x="1112" d="M41 924v147h129v92q0 144 77 214.5t214 70.5q76 0 137 -21v-133h-72q-74 0 -110.5 -30t-36.5 -109v-84h219v-147h-219v-924h-209v924h-129zM762 0v1434h117q61 0 77.5 -25t16.5 -115v-1294h-211z" />
</font>
</defs>
</svg>
