<?xml version="1.0" encoding="utf-8"?>
<!-- Generator: Adobe Illustrator 14.0.0, SVG Export Plug-In . SVG Version: 6.00 Build 43363)  -->
<!DOCTYPE svg PUBLIC "-//W3C//DTD SVG 1.1//EN" "http://www.w3.org/Graphics/SVG/1.1/DTD/svg11.dtd">
<svg version="1.1" id="Layer_1" xmlns="http://www.w3.org/2000/svg" xmlns:xlink="http://www.w3.org/1999/xlink" x="0px" y="0px"
	 width="107px" height="55px" viewBox="0 0 107 55" enable-background="new 0 0 107 55" xml:space="preserve">
<g>
	<path fill="#FFFFFF" d="M12.122,5.082v2.91h-1.339l-0.207-1.48c-0.296-0.116-0.836-0.22-1.441-0.22
		c-1.391,0-2.408,0.966-2.408,3.246c0,2.228,0.824,3.387,2.382,3.387c1.03,0,1.687-0.464,2.189-1.107h0.927v1.391
		c-0.771,0.566-1.854,0.991-3.206,0.991c-2.718,0-4.405-1.635-4.405-4.584S6.379,4.979,9.07,4.979c0.785,0,1.326,0.064,1.559,0.104
		H12.122z"/>
	<path fill="#FFFFFF" d="M12.368,10.748c0-2.176,1.584-3.516,3.554-3.516c1.971,0,3.555,1.34,3.555,3.516
		c0,2.164-1.584,3.438-3.555,3.438C13.952,14.187,12.368,12.912,12.368,10.748z M17.57,10.761c0-1.532-0.707-2.292-1.648-2.292
		c-0.939,0-1.648,0.76-1.648,2.292c0,1.521,0.709,2.241,1.648,2.241C16.863,13.002,17.57,12.281,17.57,10.761z"/>
	<path fill="#FFFFFF" d="M19.439,13.027h0.451c0.154,0,0.322-0.18,0.322-0.321v-3.89c0-0.142-0.168-0.348-0.322-0.348h-0.502V7.336
		h2.305c0.219,0,0.348,0.18,0.387,0.875c0.631-0.592,1.494-0.979,2.512-0.979c0.939,0,1.751,0.373,1.751,1.688v3.786
		c0,0.154,0.167,0.321,0.322,0.321h0.36v1.069h-3.336v-1.069h0.773V9.563c0-0.67-0.258-0.863-0.889-0.863
		c-0.541,0-1.043,0.116-1.48,0.258v4.069h0.785v1.069h-3.439V13.027z"/>
	<path fill="#FFFFFF" d="M28.92,13.027h0.451c0.154,0,0.322-0.18,0.322-0.321v-3.89c0-0.142-0.168-0.348-0.322-0.348h-0.502V7.336
		h2.305c0.219,0,0.348,0.18,0.387,0.889c0.566-0.477,1.377-0.992,2.408-0.992c0.734,0,1.403,0.245,1.635,1.056
		c0.58-0.502,1.404-1.056,2.473-1.056c0.902,0,1.713,0.373,1.713,1.688v3.786c0,0.154,0.168,0.321,0.322,0.321h0.361v1.069h-3.285
		v-1.069h0.722V9.512c0-0.656-0.219-0.812-0.812-0.812c-0.477,0-0.991,0.104-1.416,0.245v4.082h0.734v1.069H33.08v-1.069h0.721
		V9.512c0-0.656-0.219-0.812-0.811-0.812c-0.477,0-0.992,0.104-1.417,0.245v4.082h0.733v1.069H28.92V13.027z"/>
	<path fill="#FFFFFF" d="M41.016,12.513V8.791c0-0.154-0.18-0.322-0.321-0.322h-0.438V7.336h2.641v4.584
		c0,0.734,0.36,0.94,0.953,0.94c0.489,0,1.004-0.154,1.416-0.322V8.469h-0.889V7.336h2.77v5.344c0,0.142,0.167,0.348,0.322,0.348
		h0.438v1.069h-2.241c-0.219,0-0.335-0.167-0.386-0.837c-0.619,0.579-1.365,0.927-2.447,0.927
		C41.893,14.187,41.016,13.826,41.016,12.513z"/>
	<path fill="#FFFFFF" d="M47.869,10.735c0-2.177,1.403-3.503,3.592-3.503c1.096,0,1.83,0.154,2.28,0.348v1.546h-1.134
		C52.376,8.662,52.08,8.43,51.423,8.43c-1.017,0-1.636,0.722-1.636,2.318c0,1.61,0.528,2.267,1.623,2.267
		c0.837,0,1.172-0.373,1.442-0.721h0.915v1.326c-0.503,0.283-1.25,0.566-2.396,0.566C49.027,14.187,47.869,12.899,47.869,10.735z"/>
	<path fill="#FFFFFF" d="M58.146,13.027h0.773V9.563c0-0.67-0.258-0.863-0.889-0.863c-0.541,0-1.043,0.116-1.48,0.258v4.069h0.785
		v1.069h-3.439v-1.069h0.451c0.154,0,0.322-0.18,0.322-0.321V6.537c0-0.142-0.168-0.348-0.322-0.348h-0.489V5.082h2.37
		c0.205,0,0.322,0.154,0.322,0.438v2.679c0.617-0.579,1.493-0.966,2.498-0.966c0.939,0,1.751,0.373,1.751,1.688v3.786
		c0,0.154,0.167,0.321,0.322,0.321h0.36v1.069h-3.336V13.027z"/>
	<path fill="#FFFFFF" d="M61.445,10.748c0-2.176,1.584-3.516,3.555-3.516s3.555,1.34,3.555,3.516c0,2.164-1.584,3.438-3.555,3.438
		S61.445,12.912,61.445,10.748z M66.648,10.761c0-1.532-0.708-2.292-1.648-2.292c-0.939,0-1.648,0.76-1.648,2.292
		c0,1.521,0.709,2.241,1.648,2.241C65.94,13.002,66.648,12.281,66.648,10.761z"/>
	<path fill="#FFFFFF" d="M68.568,13.813v-1.52h1.082c0.154,0.477,0.76,0.772,1.353,0.772c0.722,0,1.159-0.309,1.159-0.799
		c0-0.502-0.297-0.708-1.379-0.862c-1.455-0.206-2.137-0.708-2.137-2.035c0-1.339,1.029-2.112,2.756-2.112
		c1.056,0,1.777,0.116,2.318,0.297v1.494h-1.043c-0.22-0.399-0.632-0.657-1.34-0.657c-0.695,0-1.082,0.283-1.082,0.708
		c0,0.412,0.244,0.657,1.391,0.824c1.636,0.245,2.306,0.695,2.306,2.061c0,1.327-0.889,2.189-2.937,2.189
		C69.793,14.174,69.123,13.994,68.568,13.813z"/>
	<path fill="#FFFFFF" d="M5.129,19.076h4.34c2.77,0,4.162,0.884,4.162,2.739c0,1.288-0.719,1.901-1.932,2.216v0.06
		c1.438,0.239,2.306,1.003,2.306,2.455c0,1.991-1.677,3.009-4.491,3.009H5.129V19.076z M9.26,23.208
		c0.719,0,1.062-0.329,1.062-0.988c0-0.644-0.329-0.973-1.047-0.973H8.631v1.961H9.26z M9.305,27.444
		c0.778,0,1.183-0.374,1.183-1.138c0-0.778-0.419-1.123-1.183-1.123H8.631v2.261H9.305z"/>
	<path fill="#FFFFFF" d="M14.695,19.076h7.634v2.396h-4.087v1.677h2.799v2.245h-2.799v1.826h4.222v2.335h-7.769V19.076z"/>
	<path fill="#FFFFFF" d="M23.408,19.076h3.607l2.889,5.239h0.045v-5.239h2.874v10.479H29.59l-3.264-5.883h-0.045v5.883h-2.873
		V19.076z"/>
	<path fill="#FFFFFF" d="M34.006,19.076h7.635v2.396h-4.086v1.677h2.799v2.245h-2.799v1.826h4.221v2.335h-7.77V19.076z"/>
	<path fill="#FFFFFF" d="M42.719,29.555V19.076h7.619v2.396h-4.057v2.006h3.084v2.305h-3.084v3.772H42.719z"/>
	<path fill="#FFFFFF" d="M51.342,29.555V19.076h3.562v10.479H51.342z"/>
	<path fill="#FFFFFF" d="M55.759,24.42c0-3.532,2.171-5.508,5.658-5.508c1.497,0,2.53,0.344,3.263,0.838v2.275h-1.437
		c-0.314-0.27-0.913-0.613-1.722-0.613c-1.303,0-2.125,0.823-2.125,2.858c0,2.23,0.703,3.009,1.976,3.009
		c0.958,0,1.571-0.344,1.976-0.733h1.377v2.11c-0.793,0.584-1.931,1.063-3.622,1.063C57.795,29.72,55.759,27.849,55.759,24.42z"/>
	<path fill="#FFFFFF" d="M65.669,29.555V19.076h3.562v10.479H65.669z"/>
	<path fill="#FFFFFF" d="M70.07,24.346c0-3.473,2.379-5.434,5.344-5.434c2.979,0,5.358,1.961,5.358,5.434s-2.306,5.374-5.358,5.374
		C72.359,29.72,70.07,27.818,70.07,24.346z M77.165,24.36c0-2.096-0.704-2.948-1.751-2.948c-1.049,0-1.752,0.853-1.752,2.948
		s0.703,2.949,1.752,2.949C76.461,27.31,77.165,26.456,77.165,24.36z"/>
	<path fill="#FFFFFF" d="M81.163,28.881v-2.26h1.407c0.389,0.374,1.093,0.673,1.976,0.673c0.839,0,1.317-0.224,1.317-0.703
		c0-0.613-0.568-0.688-1.676-0.928c-1.916-0.419-3.084-1.138-3.084-3.368c0-2.275,1.751-3.383,4.251-3.383
		c1.422,0,2.515,0.284,3.368,0.733v2.215h-1.407c-0.374-0.284-1.077-0.538-1.841-0.538c-0.854,0-1.229,0.209-1.229,0.658
		c0,0.509,0.465,0.629,1.482,0.838c2.68,0.539,3.488,1.438,3.488,3.428c0,2.171-1.557,3.474-4.521,3.474
		C83.139,29.72,81.957,29.375,81.163,28.881z"/>
	<path fill="#FFFFFF" d="M92.404,31.641v-0.991c0.721-0.219,1.365-0.605,1.828-1.185l-2.227-5.178c-0.091-0.219-0.22-0.36-0.4-0.36
		h-0.244v-1.133h3.271v1.133h-0.889l1.455,3.49l1.082-2.641c0.193-0.489,0.258-0.85-0.31-0.85h-0.206v-1.133h2.975v1.133h-0.283
		c-0.18,0-0.36,0.154-0.463,0.399l-2.215,4.983c-0.529,1.159-1.198,1.919-1.842,2.331H92.404z"/>
	<path fill="#FFFFFF" d="M5.129,34.533H9.35c3.787,0,5.613,1.767,5.613,5.165c0,3.502-1.811,5.313-5.718,5.313H5.129V34.533z
		 M9.141,42.706c1.496,0,2.23-0.718,2.23-2.874c0-2.155-0.689-2.919-2.23-2.919H8.691v5.793H9.141z"/>
	<path fill="#FFFFFF" d="M15.742,34.533h7.635v2.396H19.29v1.677h2.799v2.245H19.29v1.826h4.222v2.335h-7.77V34.533z"/>
	<path fill="#FFFFFF" d="M24.141,44.338v-2.26h1.407c0.39,0.374,1.093,0.673,1.976,0.673c0.838,0,1.317-0.224,1.317-0.703
		c0-0.613-0.569-0.688-1.677-0.928c-1.916-0.419-3.084-1.138-3.084-3.368c0-2.275,1.752-3.383,4.252-3.383
		c1.422,0,2.515,0.284,3.367,0.733v2.215h-1.406c-0.375-0.284-1.078-0.538-1.842-0.538c-0.853,0-1.227,0.209-1.227,0.658
		c0,0.509,0.464,0.629,1.481,0.838c2.68,0.539,3.487,1.438,3.487,3.428c0,2.171-1.557,3.474-4.52,3.474
		C26.117,45.177,24.934,44.832,24.141,44.338z"/>
	<path fill="#FFFFFF" d="M32.568,39.877c0-3.532,2.17-5.508,5.658-5.508c1.496,0,2.529,0.344,3.264,0.838v2.275h-1.438
		c-0.314-0.27-0.913-0.613-1.722-0.613c-1.302,0-2.126,0.823-2.126,2.858c0,2.23,0.704,3.009,1.977,3.009
		c0.958,0,1.572-0.344,1.976-0.733h1.378v2.11c-0.794,0.584-1.932,1.063-3.623,1.063C34.604,45.177,32.568,43.306,32.568,39.877z"/>
	<path fill="#FFFFFF" d="M48.721,41.075v-6.542h2.949v6.646c0,2.59-1.588,3.952-4.536,3.952c-3.128,0-4.729-1.378-4.729-3.952
		v-6.646h3.562v6.542c0,1.077,0.418,1.526,1.392,1.526C48.316,42.602,48.721,42.152,48.721,41.075z"/>
	<path fill="#FFFFFF" d="M52.809,34.533h7.634v2.396h-4.087v1.677h2.799v2.245h-2.799v1.826h4.222v2.335h-7.769V34.533z"/>
	<path fill="#FFFFFF" d="M61.521,34.533h3.607l2.889,5.239h0.045v-5.239h2.874v10.479h-3.233l-3.264-5.883h-0.045v5.883h-2.873
		V34.533z"/>
	<path fill="#FFFFFF" d="M74.291,45.012v-8.054h-2.485v-2.425h8.532v2.425h-2.484v8.054H74.291z"/>
	<path fill="#FFFFFF" d="M80.279,39.803c0-3.473,2.379-5.434,5.344-5.434c2.979,0,5.358,1.961,5.358,5.434s-2.306,5.374-5.358,5.374
		C82.568,45.177,80.279,43.275,80.279,39.803z M87.374,39.817c0-2.096-0.704-2.948-1.751-2.948c-1.049,0-1.752,0.853-1.752,2.948
		s0.703,2.949,1.752,2.949C86.67,42.767,87.374,41.913,87.374,39.817z"/>
	<path fill="#FFFFFF" d="M91.372,44.338v-2.26h1.407c0.389,0.374,1.093,0.673,1.976,0.673c0.839,0,1.317-0.224,1.317-0.703
		c0-0.613-0.568-0.688-1.676-0.928c-1.916-0.419-3.084-1.138-3.084-3.368c0-2.275,1.751-3.383,4.251-3.383
		c1.422,0,2.515,0.284,3.368,0.733v2.215h-1.407c-0.374-0.284-1.077-0.538-1.841-0.538c-0.854,0-1.229,0.209-1.229,0.658
		c0,0.509,0.465,0.629,1.482,0.838c2.68,0.539,3.488,1.438,3.488,3.428c0,2.171-1.557,3.474-4.521,3.474
		C93.348,45.177,92.166,44.832,91.372,44.338z"/>
</g>
</svg>
