<?xml version="1.0" encoding="utf-8"?>
<!-- Generator: Adobe Illustrator 14.0.0, SVG Export Plug-In . SVG Version: 6.00 Build 43363)  -->
<!DOCTYPE svg PUBLIC "-//W3C//DTD SVG 1.1//EN" "http://www.w3.org/Graphics/SVG/1.1/DTD/svg11.dtd">
<svg version="1.1" id="Layer_1" xmlns="http://www.w3.org/2000/svg" xmlns:xlink="http://www.w3.org/1999/xlink" x="0px" y="0px"
	 width="277px" height="51px" viewBox="0 0 277 51" enable-background="new 0 0 277 51" xml:space="preserve">
<path fill="#3D6CAF" d="M20.538,39.876l-1.898-0.11c-0.03-0.659-0.324-0.636-1.104-0.636c-1.414,0-13.065-0.018-13.065-0.018
	L4.465,36.86c0.359,0,0.771,0,1.106,0c0.943,0,1.222-0.546,1.236-1.682c0.004-1.229,0.018-13.201,0.018-14.757
	c0-0.954-0.411-1.569-1.375-1.546c-0.353,0-0.674-0.023-0.997-0.023l0.012-2.241l9.75,0.005l-0.009,2.259c-0.336,0-1.095,0-1.413,0
	c-0.944,0-1.264,0.405-1.274,1.311c0.011,0.726-0.031,16.675-0.031,16.675s3.574,0.01,4.495,0.01c2.368,0,3.515-1.362,4.11-4.062
	l1.896,0.361L20.538,39.876z"/>
<path fill="#3D6CAF" d="M36.062,39.155v-2.248c0.341,0,0.458,0,0.788,0c1.027,0,1.36-0.596,0.934-1.523
	c-0.116-0.3-0.42-1.019-1.038-2.411l-7.91-0.003c-0.521,1.291-0.676,1.911-0.732,2.093c-0.549,1.424-0.277,1.845,0.806,1.845
	c0.187,0,0.462,0,0.746,0v2.248l-6.925-0.018v-2.242c0.353,0,0.405,0,0.732,0.011c0.821-0.011,0.962-0.352,1.573-1.729
	c0.959-2.254,5.122-12.88,6.841-16.719c0.462-1.08,0.409-1.782,0.409-1.782h3.329c0,0,6.596,16.197,7.529,18.297
	c0.627,1.439,1.073,1.952,2.122,1.952c0.331,0,0.266,0,0.604,0v2.265L36.062,39.155z M32.816,22.899c0,0-2.437,6.173-2.96,7.537
	c0,0,5.902,0,5.854,0C35.153,28.794,32.816,22.899,32.816,22.899z"/>
<path fill="#3D6CAF" d="M63.938,30.777c-0.907,0-3.679-0.012-3.679-0.012c0,2.89,0,4.401-0.01,4.68
	c0.01,0.909,0.434,1.513,1.344,1.513c0.345,0,0.968,0,1.304,0v2.259l-9.808-0.025v-2.236c0.334,0,0.585,0.002,0.906,0
	c0.95,0,1.31-0.521,1.31-1.411c0-0.71,0.015-14.169,0.015-14.895c0.006-1.128-0.374-1.688-1.324-1.688
	c-0.321-0.018-0.572-0.018-0.904-0.018v-2.251c0,0,7.629,0.011,12.146,0.023c5.134,0.012,8.349,2.923,8.332,6.707
	C73.568,28.002,69.17,30.777,63.938,30.777z M63.146,19.065c-1.238,0-2.848,0-2.848,0s-0.024,7.602-0.006,9.362
	c1.096,0,1.726,0,2.289,0c3.127,0.008,5.656-0.963,5.663-4.665C68.244,21.083,66.736,19.065,63.146,19.065z"/>
<path fill="#3D6CAF" d="M95.092,41.041c-5.375-2.747-8.604-6.327-10.676-10.899h-2.188c0,2.852,0,5.167-0.005,5.486
	c0,0.88,0.363,1.351,1.169,1.351c0.331,0.026,0.923,0,1.275,0.026l-0.017,2.247l-9.66-0.025l0.007-2.247c0.341,0,0.64,0,0.964,0
	c0.911,0,1.266-0.385,1.266-1.274c0-0.729,0.017-14.485,0.017-15.195c0-1.147-0.371-1.531-1.307-1.531
	c-0.333,0-0.585,0.008-0.9,0.008v-2.258c0,0,11.849,0.011,12.562,0.011c5.601,0,8.163,3.17,8.157,6.327
	c0,3.023-1.992,4.955-5.643,6.311c0.488,1.267,1.219,2.923,2.471,4.766c2.056,3.057,2.62,3.741,4.012,5.147L95.092,41.041z
	 M84.809,18.993c-1.274,0.018-2.554-0.007-2.554-0.007l-0.013,8.943c1.046,0.005,2.381,0.005,2.859,0.012
	c2.433,0,5.318-1.312,5.328-4.738C90.43,20.034,88.598,18.938,84.809,18.993z"/>
<path fill="#3D6CAF" d="M114.976,40.035l-1.899-0.094c-0.062-0.461-0.143-0.657-0.65-0.657c-5.634-0.015-14.986-0.015-14.986-0.015
	v-2.312c0.327,0,0.427,0,0.748,0c0.969,0,1.485-0.389,1.485-1.545c0-0.734,0.02-14.235,0.02-14.962c0-0.883-0.371-1.516-1.356-1.516
	c-0.32,0-0.569,0-0.894-0.008l-0.003-2.146c0,0,9.891,0,15.521,0.026c0.644,0,1.216,0.052,1.315-0.46l1.608,0.249l-0.74,5.353
	l-1.885-0.23c0.394-2.137-0.299-2.842-2.682-2.865c-0.658,0-5.876,0-5.876,0s-0.027,5.363-0.027,7.204c0,0,4.399,0.01,4.885,0.01
	c0.792-0.01,0.965-0.612,1.002-1.438l1.884,0.195l-0.716,5.693l-1.875-0.167c0,0,0.108-0.787,0.016-1.223
	c-0.132-0.795-0.865-0.995-1.862-0.995c-1.024-0.019-2.125,0.006-3.333-0.019c0,1.883-0.015,8.419-0.003,8.861
	c0.5-0.008,4.182,0.005,5.353,0.005c3.029,0,3.88-1.128,4.484-4.014l1.914,0.354L114.976,40.035z"/>
<path fill="#3D6CAF" d="M140.2,19.101c-0.833,0-1.278,0.277-1.278,1.59c0,1.282-0.032,11.063-0.032,17.176
	c0,0.521,0.21,1.48,0.21,1.48h-3.125L122.657,22.66c0,4.358-0.008,8.548-0.008,12.752c-0.006,1.04,0.432,1.641,1.127,1.641
	c0.165,0,0.839,0,1.292,0l0.017,2.269l-7.504-0.008v-2.261c0.426,0,0.622,0,1.08,0c0.79,0,1.284-0.628,1.29-1.583
	c0-0.931,0.02-13.721,0.02-14.956c0-1-0.416-1.449-1.039-1.46c-0.648,0.011-0.868,0.011-1.392,0v-2.248l7.763,0.005
	c0,0,0.267,0.91,1.526,2.551l9.387,11.915c0-4.228,0.038-10.407,0.038-10.997c0-0.7-0.317-1.215-1.062-1.195
	c-0.834-0.02-0.771-0.02-1.296-0.02V16.82c3.101,0.013,7.481,0.037,7.481,0.037v2.243C141.378,19.101,140.522,19.101,140.2,19.101z"
	/>
<path fill="#3D6CAF" d="M152.208,39.848c-3.062-0.015-4.167-0.736-5.006-0.736c-0.485,0-0.97,0.025-0.97,0.539l-1.913,0.344
	l-1.604-6.44l2.114-0.459c0.294,1.244,0.665,2.247,1.709,2.937c1.374,0.946,2.607,1.266,4.261,1.266
	c2.447,0.023,3.697-1.282,3.719-3.267c0-1.466-1.296-2.717-2.776-3.459c-1.213-0.643-3.73-2.083-4.659-2.644
	c-1.793-1.115-3.508-3.172-3.491-5.329c0-4.548,4.064-6.36,7.392-6.351c2.357,0,4.009,0.64,4.914,0.641
	c0.725-0.001,0.907,0.026,1.027-0.479l1.747,0.139l-0.567,5.68l-2.036-0.118c0.107-0.267,0.236-1.501-0.26-2.124
	c-0.765-0.923-1.81-1.626-3.781-1.639c-2.248,0-3.569,1.254-3.569,2.521c0,1.278,0.316,2.157,2.278,3.27
	c1.198,0.705,2.793,1.631,4.979,2.878c2.232,1.312,3.927,3.32,3.9,6.077C159.614,36.611,156.981,39.854,152.208,39.848z"/>
<path fill="#3D6CAF" d="M173.984,39.404l0.026-2.275c0.327,0,0.443,0,0.767,0.021c1.04,0,1.368-0.599,0.938-1.523
	c-0.12-0.303-0.415-1.016-1.06-2.408l-7.898-0.023c-0.504,1.291-0.675,1.927-0.728,2.106c-0.543,1.427-0.273,1.821,0.812,1.828
	c0.181,0,0.446,0,0.772,0l-0.019,2.268l-6.914-0.026v-2.248c0.31,0,0.383,0,0.732,0c0.793,0,0.954-0.334,1.549-1.704
	c0.973-2.249,5.143-12.894,6.832-16.736c0.479-1.064,0.408-1.794,0.408-1.794h3.351c0,0,6.6,16.207,7.519,18.318
	c0.63,1.448,1.088,1.944,2.125,1.944c0.359,0.01,0.28,0.01,0.603,0.01v2.252L173.984,39.404z M170.741,23.125
	c0,0-2.446,6.198-2.952,7.529c0,0,5.909,0.005,5.87,0.005C173.07,29.036,170.741,23.125,170.741,23.125z"/>
<g>
	<path fill="#F7AA31" d="M212.205,7.229c2.144,0.436,3.854,1.12,5.127,2.026c1.264,0.91,1.895,1.904,1.891,2.982
		c0,0.759-0.326,1.447-0.988,2.026c-0.657,0.559-1.407,0.833-2.255,0.833c-0.653-0.015-1.189-0.189-1.554-0.604
		c-0.35-0.399-0.663-1.237-0.918-2.535c-0.072-0.479-0.455-0.881-1.15-1.235c-0.689-0.344-1.509-0.521-2.482-0.521
		c-1.734-0.021-3.646,0.542-5.69,1.657c-2.055,1.113-4.206,2.739-6.447,4.869c-3.035,2.873-5.454,6.038-7.291,9.487
		c-1.797,3.456-2.702,6.563-2.722,9.33c-0.014,2.005,0.684,3.567,2.015,4.668c1.364,1.138,3.228,1.68,5.603,1.68
		c1.519,0.002,3.124-0.192,4.843-0.615c1.71-0.401,3.576-1.05,5.597-1.924c0.914-0.39,2.089-0.964,3.572-1.741
		c1.438-0.778,2.453-1.167,3.043-1.167c0.219,0,0.424,0.086,0.571,0.266c0.164,0.149,0.275,0.342,0.275,0.587
		c0,0.439-0.395,0.967-1.122,1.631c-0.714,0.674-1.744,1.403-3.122,2.159c-2.166,1.226-4.354,2.175-6.569,2.849
		c-2.206,0.708-4.215,1.042-5.989,1.042c-4.539-0.026-8.16-0.88-10.84-2.611c-2.672-1.703-3.996-4.029-3.985-6.942
		c0-2.593,1.12-5.865,3.371-9.81c2.234-3.977,5.314-8.081,9.287-12.325c2.403-2.549,4.606-4.497,6.633-5.811
		c1.993-1.326,3.78-1.988,5.249-1.958c0.9,0,1.834,0.142,2.844,0.416C209.997,6.26,211.074,6.665,212.205,7.229z"/>
	<path fill="#F7AA31" d="M214.571,34.575c-0.237,0.037-0.415,0.059-0.54,0.065c-0.095,0-0.234,0.035-0.368,0.058
		c-0.502,0-0.921-0.194-1.256-0.556c-0.358-0.369-0.511-0.772-0.499-1.178c0-0.295,0.449-0.497,1.369-0.6
		c0.964-0.117,1.762-0.38,2.43-0.865c1.596-4.378,3.317-8.645,5.139-12.8c1.831-4.151,3.789-8.191,5.811-12.084
		c-0.017-0.08-0.021-0.156-0.034-0.236c-0.014-0.083-0.039-0.213-0.039-0.373c0-0.484,0.459-0.981,1.428-1.458
		c0.969-0.467,1.862-0.701,2.779-0.695c1.131-0.019,2.328,0.416,3.515,1.272c1.211,0.854,1.799,1.623,1.799,2.305
		c0,1.769-1.585,5.161-4.684,10.187c-3.14,4.985-7.17,10.153-12.084,15.438c-0.181,0.682-0.293,1.288-0.376,1.85
		c-0.074,0.53-0.128,1.038-0.128,1.482c0,1.349,0.192,2.278,0.514,2.837c0.347,0.556,0.901,0.843,1.682,0.843
		c0.749,0,1.585-0.357,2.479-1.002c0.92-0.678,2.033-1.775,3.356-3.319c0.545-0.582,1.095-1.318,1.725-2.133
		c0.633-0.856,1.05-1.291,1.276-1.291c0.267,0.005,0.633,0.152,1.117,0.444c0.483,0.29,0.74,0.541,0.74,0.733
		c-0.021,0.034-0.021,0.095-0.058,0.177c-0.062,0.096-0.125,0.183-0.199,0.294c-1.592,2.247-2.806,3.837-3.607,4.729
		c-0.805,0.903-1.569,1.631-2.317,2.181c-0.888,0.607-1.741,1.046-2.554,1.346c-0.82,0.253-1.692,0.396-2.626,0.396
		c-1.528,0-2.903-0.556-4.146-1.651c-1.257-1.098-1.88-2.316-1.88-3.675c0-0.471,0.01-0.952,0.047-1.41
		C214.426,35.444,214.489,35.003,214.571,34.575z M220.125,29.27c3.557-4.781,6.447-9.236,8.719-13.4
		c2.28-4.177,3.412-6.863,3.412-8.073c0-0.188-0.076-0.365-0.211-0.48c-0.15-0.116-0.311-0.183-0.524-0.192
		c-0.093,0.01-0.273,0.041-0.563,0.102c-0.1,0.003-0.155,0.018-0.182,0.018c-2.338,4.25-4.379,8.215-6.166,11.889
		C222.842,22.786,221.352,26.179,220.125,29.27z"/>
	<path fill="#F7AA31" d="M240.729,36.204c-1.259,1.848-2.539,3.241-3.804,4.182c-1.282,0.934-2.538,1.398-3.778,1.385
		c-0.666,0.013-1.252-0.079-1.755-0.251c-0.547-0.169-1.056-0.484-1.561-0.905c-0.565-0.421-0.972-0.854-1.22-1.293
		c-0.232-0.421-0.331-0.951-0.345-1.578c0.014-1.694,0.514-3.815,1.49-6.318c0.975-2.496,2.256-4.814,3.873-6.953
		c0.33-0.484,0.699-0.821,1.111-1.025c0.38-0.213,0.84-0.323,1.335-0.323c0.787,0.004,1.448,0.218,1.997,0.623
		c0.536,0.415,0.811,0.88,0.811,1.387c0,0.14-0.048,0.277-0.149,0.455c-0.125,0.15-0.298,0.333-0.555,0.523
		c-1.698,2.548-3.059,4.875-3.993,6.944c-0.96,2.075-1.436,3.69-1.436,4.827c0.005,0.593,0.109,1.018,0.329,1.271
		c0.223,0.257,0.591,0.393,1.106,0.393c1.115,0.003,2.464-1.087,4.098-3.274c1.604-2.202,3.618-5.656,6.021-10.389
		c0.114-0.733,0.409-1.311,0.914-1.744c0.513-0.418,1.121-0.615,1.854-0.63c0.759,0.015,1.459,0.205,2.15,0.622
		c0.679,0.432,1.007,0.88,1.007,1.348c0,0.138-0.316,0.633-0.902,1.523c-2.976,4.354-4.446,8.095-4.463,11.232
		c0,0.49,0.084,0.877,0.199,1.178c0.134,0.299,0.33,0.461,0.536,0.461c0.871,0,1.847-0.516,2.899-1.528
		c1.033-1.006,2.184-2.576,3.502-4.697c0.045-0.1,0.12-0.218,0.202-0.341c0.341-0.63,0.755-0.943,1.265-0.937
		c0.264,0,0.629,0.136,1.122,0.447c0.461,0.277,0.736,0.507,0.736,0.716c0,0.277-0.472,1.092-1.365,2.441
		c-0.914,1.347-1.921,2.587-3.086,3.732c-0.922,0.902-1.846,1.558-2.743,1.984c-0.905,0.425-1.922,0.623-3.018,0.623
		c-1.396,0-2.509-0.421-3.397-1.216c-0.861-0.792-1.274-1.838-1.274-3.141c0.018-0.162,0.047-0.403,0.105-0.706
		C240.566,36.955,240.656,36.593,240.729,36.204z"/>
	<path fill="#F7AA31" d="M258.709,27.904c1.68-1.521,3.269-2.647,4.751-3.374c1.484-0.734,2.869-1.083,4.242-1.083
		c1.359,0,2.4,0.397,3.167,1.264c0.762,0.86,1.146,2.052,1.13,3.606c-0.003,1.556-0.537,3.36-1.596,5.456
		c-1.067,2.054-2.521,4.036-4.327,5.938c-0.898,0.943-2.043,1.677-3.397,2.217c-1.382,0.553-2.757,0.82-4.174,0.82
		c-0.81,0-1.598-0.124-2.302-0.364c-0.757-0.244-1.558-0.662-2.439-1.221c-1.464-0.154-2.393-0.316-2.825-0.48
		c-0.406-0.183-0.635-0.479-0.643-0.859c0-1.311,0.959-4.413,2.856-9.302c1.878-4.865,4.293-10.155,7.285-15.897
		c1.146-2.211,2.045-3.716,2.653-4.48c0.615-0.723,1.167-1.116,1.728-1.116c0.359,0,0.712,0.077,1.081,0.259
		c0.379,0.158,0.8,0.423,1.197,0.746c0.418,0.185,0.753,0.343,0.94,0.507c0.242,0.143,0.354,0.271,0.354,0.368
		c0.01,0.25-0.309,0.577-0.912,0.958c-0.604,0.37-1.014,0.636-1.21,0.806c-0.681,0.618-1.777,2.392-3.286,5.333
		C261.462,20.967,260.057,24.266,258.709,27.904z M266.73,26.091c-0.72,0-1.76,0.39-3.079,1.131
		c-1.302,0.73-2.665,1.764-4.102,3.014c-1.634,1.395-2.814,2.771-3.607,4.144c-0.791,1.375-1.175,2.78-1.18,4.215
		c0,0.718,0.231,1.252,0.673,1.617c0.462,0.358,1.16,0.541,2.047,0.541c0.982,0,1.87-0.239,2.687-0.718
		c0.811-0.446,1.649-1.195,2.51-2.226c1.579-1.947,2.873-3.88,3.825-5.793c0.975-1.875,1.441-3.385,1.441-4.447
		c0-0.42-0.118-0.755-0.348-1.045C267.371,26.243,267.084,26.091,266.73,26.091z"/>
</g>
</svg>
