<?xml version="1.0" encoding="utf-8"?>
<!-- Generator: Adobe Illustrator 14.0.0, SVG Export Plug-In . SVG Version: 6.00 Build 43363)  -->
<!DOCTYPE svg PUBLIC "-//W3C//DTD SVG 1.1//EN" "http://www.w3.org/Graphics/SVG/1.1/DTD/svg11.dtd">
<svg version="1.1" id="Capa_1" xmlns="http://www.w3.org/2000/svg" xmlns:xlink="http://www.w3.org/1999/xlink" x="0px" y="0px"
	 width="2.312px" height="2.375px" viewBox="0 0 2.312 2.375" enable-background="new 0 0 2.312 2.375" xml:space="preserve">
<g>
	<circle fill="#FF4D3F" cx="1.047" cy="1.206" r="0.604"/>
	<g>
		<path fill="#FFFFFF" d="M0.762,1.144C0.745,1.15,0.711,1.159,0.672,1.159c-0.044,0-0.08-0.011-0.108-0.039
			c-0.024-0.024-0.04-0.063-0.04-0.108c0-0.087,0.06-0.15,0.157-0.15c0.033,0,0.061,0.007,0.072,0.013L0.744,0.906
			C0.729,0.898,0.709,0.893,0.679,0.893c-0.07,0-0.117,0.044-0.117,0.117c0,0.074,0.045,0.118,0.112,0.118
			c0.024,0,0.041-0.004,0.051-0.008V1.033h-0.06v-0.03h0.097V1.144z"/>
		<path fill="#FFFFFF" d="M0.817,1.012c0-0.025,0-0.046-0.001-0.065H0.85l0.002,0.042h0.001c0.01-0.028,0.033-0.046,0.059-0.046
			c0.004,0,0.007,0,0.01,0.001V0.98C0.917,0.979,0.913,0.979,0.908,0.979c-0.026,0-0.046,0.02-0.051,0.048
			C0.856,1.032,0.855,1.039,0.855,1.045v0.111H0.817V1.012z"/>
		<path fill="#FFFFFF" d="M1.104,1.106c0,0.019,0.001,0.036,0.003,0.05H1.073L1.07,1.13H1.068c-0.01,0.016-0.033,0.031-0.063,0.031
			c-0.043,0-0.063-0.03-0.063-0.06c0-0.051,0.045-0.079,0.126-0.078V1.019c0-0.017-0.005-0.048-0.047-0.048
			c-0.021,0-0.041,0.005-0.057,0.016L0.955,0.961C0.973,0.95,0.998,0.942,1.024,0.942c0.063,0,0.08,0.044,0.08,0.085V1.106z
			 M1.067,1.049C1.026,1.048,0.979,1.056,0.979,1.097c0,0.025,0.017,0.036,0.036,0.036c0.026,0,0.045-0.017,0.051-0.035
			C1.068,1.094,1.068,1.09,1.068,1.086L1.067,1.049L1.067,1.049z"/>
		<path fill="#FFFFFF" d="M1.21,0.896v0.05h0.056v0.029H1.21v0.113c0,0.026,0.008,0.041,0.028,0.041
			c0.011,0,0.017-0.001,0.021-0.002l0.003,0.029C1.254,1.159,1.242,1.161,1.228,1.161c-0.019,0-0.032-0.006-0.041-0.016
			C1.177,1.133,1.173,1.115,1.173,1.09V0.976H1.141V0.947h0.031V0.908L1.21,0.896z"/>
		<path fill="#FFFFFF" d="M1.35,0.888c0,0.013-0.01,0.023-0.024,0.023c-0.014,0-0.021-0.011-0.021-0.023
			c0-0.013,0.01-0.024,0.022-0.024S1.35,0.875,1.35,0.888z M1.308,1.156V0.947h0.038v0.209H1.308z"/>
		<path fill="#FFFFFF" d="M1.403,1.118c0.012,0.007,0.032,0.015,0.051,0.015c0.027,0,0.04-0.013,0.04-0.031
			c0-0.019-0.011-0.028-0.038-0.038C1.418,1.049,1.4,1.029,1.4,1.004c0-0.034,0.026-0.062,0.072-0.062
			c0.021,0,0.04,0.006,0.051,0.013L1.515,0.983c-0.01-0.005-0.024-0.012-0.043-0.012c-0.022,0-0.035,0.013-0.035,0.028
			c0,0.018,0.013,0.025,0.04,0.036c0.036,0.013,0.055,0.032,0.055,0.062c0,0.038-0.029,0.063-0.078,0.063
			c-0.021,0-0.044-0.006-0.059-0.015L1.403,1.118z"/>
	</g>
	<g>
		<path fill="#FFFFFF" d="M0.808,1.235h0.016v0.058h0.001C0.827,1.288,0.83,1.284,0.833,1.28L0.87,1.235H0.89L0.846,1.286
			l0.047,0.069h-0.02L0.835,1.296L0.823,1.309v0.046H0.808V1.235z"/>
		<path fill="#FFFFFF" d="M0.923,1.244c0,0.005-0.003,0.01-0.01,0.01c-0.006,0-0.009-0.004-0.009-0.01c0-0.006,0.004-0.01,0.01-0.01
			C0.919,1.234,0.923,1.239,0.923,1.244z M0.906,1.355V1.269h0.016v0.086H0.906z"/>
		<path fill="#FFFFFF" d="M0.967,1.248v0.021h0.022V1.28H0.967v0.047c0,0.011,0.004,0.017,0.013,0.017c0.004,0,0.007,0,0.009-0.001
			l0.001,0.012c-0.004,0-0.009,0.002-0.015,0.002c-0.007,0-0.014-0.003-0.018-0.007C0.953,1.345,0.951,1.338,0.951,1.328V1.28H0.938
			V1.269h0.014V1.252L0.967,1.248z"/>
		<path fill="#FFFFFF" d="M1.119,1.228v0.104c0,0.008,0,0.017,0,0.022H1.105L1.104,1.34l0,0C1.1,1.35,1.09,1.357,1.075,1.357
			c-0.021,0-0.037-0.018-0.037-0.044c0-0.029,0.019-0.046,0.039-0.046c0.013,0,0.021,0.006,0.025,0.013h0.001V1.228H1.119z
			 M1.104,1.304c0-0.002,0-0.005-0.001-0.007C1.101,1.287,1.092,1.279,1.08,1.279c-0.017,0-0.025,0.015-0.025,0.033
			s0.009,0.032,0.024,0.032c0.011,0,0.021-0.007,0.023-0.019c0.001-0.002,0.001-0.004,0.001-0.007L1.104,1.304L1.104,1.304z"/>
		<path fill="#FFFFFF" d="M1.153,1.314c0.001,0.021,0.015,0.03,0.03,0.03c0.011,0,0.018-0.002,0.022-0.004L1.21,1.351
			C1.205,1.354,1.195,1.357,1.182,1.357c-0.027,0-0.043-0.018-0.043-0.044S1.154,1.267,1.18,1.267c0.027,0,0.034,0.025,0.034,0.041
			c0,0.003,0,0.005,0,0.007L1.153,1.314L1.153,1.314z M1.2,1.303c0-0.01-0.005-0.025-0.021-0.025S1.156,1.293,1.155,1.303H1.2z"/>
		<path fill="#FFFFFF" d="M0.655,1.423c0,0.005-0.004,0.009-0.01,0.009S0.635,1.428,0.635,1.423s0.005-0.01,0.011-0.01
			S0.655,1.417,0.655,1.423z M0.638,1.533V1.447h0.017v0.086H0.638z"/>
		<path fill="#FFFFFF" d="M0.68,1.47c0-0.009,0-0.016-0.001-0.022h0.015l0.001,0.015l0,0C0.699,1.454,0.71,1.446,0.723,1.446
			c0.012,0,0.029,0.007,0.029,0.037v0.051H0.737v-0.05c0-0.014-0.005-0.025-0.021-0.025c-0.011,0-0.019,0.007-0.021,0.016
			c0,0.002-0.001,0.004-0.001,0.007v0.052H0.68V1.47z"/>
		<path fill="#FFFFFF" d="M0.776,1.518C0.781,1.52,0.79,1.523,0.798,1.523c0.012,0,0.018-0.005,0.018-0.013
			c0-0.008-0.005-0.012-0.018-0.016C0.782,1.489,0.775,1.481,0.775,1.471c0-0.014,0.012-0.025,0.029-0.025
			c0.009,0,0.017,0.002,0.021,0.005L0.822,1.462C0.819,1.46,0.812,1.457,0.805,1.457c-0.01,0-0.016,0.005-0.016,0.012
			c0,0.007,0.006,0.01,0.018,0.015C0.822,1.489,0.829,1.497,0.829,1.51c0,0.015-0.012,0.026-0.032,0.026
			c-0.009,0-0.018-0.002-0.022-0.006L0.776,1.518z"/>
		<path fill="#FFFFFF" d="M0.868,1.426v0.021H0.89v0.012H0.868v0.046c0,0.011,0.003,0.017,0.012,0.017c0.005,0,0.008,0,0.011-0.001
			v0.012C0.887,1.534,0.882,1.535,0.876,1.535c-0.007,0-0.013-0.002-0.017-0.007C0.854,1.524,0.854,1.516,0.854,1.506V1.459H0.84
			V1.447h0.015V1.431L0.868,1.426z"/>
		<path fill="#FFFFFF" d="M0.97,1.513c0,0.007,0,0.015,0.001,0.021H0.956L0.955,1.522l0,0C0.95,1.529,0.94,1.535,0.929,1.535
			c-0.019,0-0.026-0.012-0.026-0.025c0-0.021,0.018-0.032,0.052-0.032V1.477c0-0.007-0.002-0.02-0.02-0.02
			c-0.01,0-0.018,0.002-0.023,0.007L0.908,1.453c0.007-0.004,0.018-0.007,0.028-0.007c0.025,0,0.033,0.018,0.033,0.035L0.97,1.513
			L0.97,1.513z M0.954,1.489c-0.018,0-0.036,0.002-0.036,0.02c0,0.01,0.007,0.015,0.016,0.015c0.011,0,0.019-0.007,0.021-0.014
			c0.001-0.002,0.001-0.004,0.001-0.005L0.954,1.489L0.954,1.489z"/>
		<path fill="#FFFFFF" d="M0.995,1.407h0.017v0.126H0.995V1.407z"/>
		<path fill="#FFFFFF" d="M1.098,1.513c0,0.007,0,0.015,0.001,0.021H1.085L1.083,1.522l0,0C1.078,1.529,1.068,1.535,1.057,1.535
			c-0.019,0-0.026-0.012-0.026-0.025c0-0.021,0.019-0.032,0.052-0.032V1.477c0-0.007-0.002-0.02-0.02-0.02
			c-0.009,0-0.018,0.002-0.022,0.007L1.036,1.453c0.007-0.004,0.019-0.007,0.028-0.007c0.025,0,0.033,0.018,0.033,0.035L1.098,1.513
			L1.098,1.513z M1.082,1.489c-0.017,0-0.036,0.002-0.036,0.02c0,0.01,0.008,0.015,0.016,0.015c0.011,0,0.019-0.007,0.021-0.014
			c0.001-0.002,0.001-0.004,0.001-0.005L1.082,1.489L1.082,1.489z"/>
		<path fill="#FFFFFF" d="M1.185,1.53C1.181,1.532,1.171,1.535,1.159,1.535c-0.025,0-0.043-0.018-0.043-0.044
			c0-0.027,0.019-0.046,0.047-0.046c0.009,0,0.019,0.002,0.021,0.004L1.181,1.462C1.178,1.46,1.172,1.458,1.163,1.458
			c-0.02,0-0.03,0.015-0.03,0.033c0,0.02,0.014,0.032,0.029,0.032c0.009,0,0.015-0.002,0.021-0.004L1.185,1.53z"/>
		<path fill="#FFFFFF" d="M1.22,1.423c0,0.005-0.004,0.009-0.011,0.009c-0.006,0-0.009-0.004-0.009-0.009s0.004-0.01,0.01-0.01
			C1.216,1.413,1.22,1.417,1.22,1.423z M1.203,1.533V1.447h0.017v0.086H1.203z"/>
		<path fill="#FFFFFF" d="M1.322,1.489c0,0.032-0.022,0.046-0.043,0.046c-0.022,0-0.041-0.017-0.041-0.044
			c0-0.029,0.019-0.045,0.043-0.045S1.322,1.463,1.322,1.489z M1.254,1.49c0,0.019,0.012,0.033,0.026,0.033s0.026-0.014,0.026-0.034
			c0-0.015-0.009-0.033-0.026-0.033C1.263,1.457,1.254,1.474,1.254,1.49z M1.304,1.41L1.282,1.435H1.271L1.286,1.41H1.304z"/>
		<path fill="#FFFFFF" d="M1.343,1.47c0-0.009-0.001-0.016-0.001-0.022h0.015l0.001,0.015l0,0c0.005-0.008,0.015-0.016,0.029-0.016
			c0.012,0,0.029,0.007,0.029,0.037v0.051H1.4v-0.05c0-0.014-0.006-0.025-0.021-0.025c-0.01,0-0.018,0.007-0.021,0.016
			c0,0.001,0,0.004,0,0.006v0.052H1.343V1.47z"/>
	</g>
</g>
</svg>
