<?xml version="1.0" encoding="UTF-8" standalone="no"?>
<!-- Generator: Adobe Illustrator 14.0.0, SVG Export Plug-In . SVG Version: 6.00 Build 43363)  -->

<svg
   xmlns:dc="http://purl.org/dc/elements/1.1/"
   xmlns:cc="http://creativecommons.org/ns#"
   xmlns:rdf="http://www.w3.org/1999/02/22-rdf-syntax-ns#"
   xmlns:svg="http://www.w3.org/2000/svg"
   xmlns="http://www.w3.org/2000/svg"
   xmlns:sodipodi="http://sodipodi.sourceforge.net/DTD/sodipodi-0.dtd"
   xmlns:inkscape="http://www.inkscape.org/namespaces/inkscape"
   version="1.1"
   x="0px"
   y="0px"
   width="300"
   height="100"
   viewBox="241.716 1.041 300 99.999997"
   xml:space="preserve"
   id="svg2"
   inkscape:version="0.48.2 r9819"
   sodipodi:docname="laprensa.svg"><metadata
   id="metadata208"><rdf:RDF><cc:Work
       rdf:about=""><dc:format>image/svg+xml</dc:format><dc:type
         rdf:resource="http://purl.org/dc/dcmitype/StillImage" /><dc:title></dc:title></cc:Work></rdf:RDF></metadata><defs
   id="defs206" /><sodipodi:namedview
   pagecolor="#ffffff"
   bordercolor="#666666"
   borderopacity="1"
   objecttolerance="10"
   gridtolerance="10"
   guidetolerance="10"
   inkscape:pageopacity="0"
   inkscape:pageshadow="2"
   inkscape:window-width="1629"
   inkscape:window-height="849"
   id="namedview204"
   showgrid="false"
   inkscape:zoom="1.6512032"
   inkscape:cx="398.73233"
   inkscape:cy="-10.422748"
   inkscape:window-x="60"
   inkscape:window-y="116"
   inkscape:window-maximized="0"
   inkscape:current-layer="svg2" />









<g
   id="g3456"><g
     transform="matrix(0.54079029,0,0,0.5224115,242.94386,17.450753)"
     id="Capa_10">
	<g
   id="g5">
		<path
   inkscape:connector-curvature="0"
   id="path7"
   d="m 78.913,16.594 c 0.567,-0.06 0.935,-0.161 1.104,-0.304 0.168,-0.143 0.252,-0.503 0.252,-1.083 V 8.344 C 80.269,7.797 80.186,7.439 80.02,7.27 79.854,7.102 79.485,6.999 78.913,6.958 V 6.672 h 8.196 L 87.162,8.88 H 86.77 C 86.64,8.2 86.443,7.76 86.183,7.56 85.922,7.361 85.339,7.26 84.435,7.26 h -2.101 c -0.227,0 -0.366,0.037 -0.419,0.109 -0.053,0.072 -0.08,0.21 -0.08,0.411 v 3.442 h 2.381 c 0.658,0 1.077,-0.097 1.258,-0.292 0.181,-0.194 0.327,-0.589 0.437,-1.184 h 0.362 v 3.562 h -0.362 c -0.115,-0.598 -0.264,-0.992 -0.444,-1.187 -0.18,-0.194 -0.598,-0.29 -1.25,-0.29 h -2.381 v 3.819 c 0,0.307 0.097,0.486 0.291,0.542 0.194,0.055 0.773,0.083 1.739,0.083 1.046,0 1.818,-0.114 2.316,-0.344 0.498,-0.229 0.945,-0.781 1.342,-1.661 h 0.43 l -0.701,2.606 h -8.34 v -0.282 z"
   style="fill:#727375" />
		<path
   inkscape:connector-curvature="0"
   id="path9"
   d="m 88.337,16.594 c 0.567,-0.06 0.935,-0.161 1.104,-0.304 0.168,-0.143 0.252,-0.503 0.252,-1.083 V 8.344 C 89.693,7.797 89.61,7.439 89.444,7.27 89.278,7.102 88.909,6.999 88.337,6.958 V 6.672 h 4.354 v 0.286 c -0.568,0.03 -0.948,0.123 -1.142,0.279 -0.194,0.155 -0.29,0.489 -0.29,1.002 v 7.413 c 0,0.171 0.029,0.305 0.087,0.402 0.058,0.099 0.185,0.159 0.381,0.186 0.116,0.015 0.238,0.024 0.366,0.029 0.128,0.005 0.369,0.009 0.72,0.009 1.373,0 2.301,-0.113 2.784,-0.34 0.482,-0.226 0.95,-0.803 1.403,-1.731 h 0.392 l -0.754,2.674 h -8.301 v -0.287 l 0,0 z"
   style="fill:#727375" />
		<path
   inkscape:connector-curvature="0"
   id="path11"
   d="m 101.128,16.594 c 0.562,-0.06 0.929,-0.161 1.1,-0.304 0.17,-0.143 0.256,-0.503 0.256,-1.083 V 8.344 c 0,-0.562 -0.083,-0.924 -0.249,-1.085 C 102.069,7.098 101.7,6.998 101.128,6.958 V 6.672 h 4.159 c 1.401,0 2.586,0.231 3.556,0.693 1.748,0.829 2.622,2.311 2.622,4.444 0,0.77 -0.157,1.5 -0.471,2.192 -0.314,0.693 -0.787,1.278 -1.42,1.755 -0.402,0.301 -0.819,0.53 -1.25,0.687 -0.789,0.292 -1.758,0.437 -2.908,0.437 h -4.287 l -0.001,-0.286 0,0 z m 3.109,-0.408 c 0.123,0.081 0.377,0.121 0.765,0.121 1.205,0 2.197,-0.237 2.976,-0.716 1.195,-0.733 1.793,-1.988 1.793,-3.762 0,-1.583 -0.492,-2.774 -1.477,-3.574 -0.844,-0.684 -1.961,-1.025 -3.353,-1.025 -0.347,0 -0.582,0.038 -0.704,0.113 -0.124,0.076 -0.185,0.241 -0.185,0.498 v 7.849 c 10e-4,0.25 0.062,0.416 0.185,0.496 z"
   style="fill:#727375" />
		<path
   inkscape:connector-curvature="0"
   id="path13"
   d="m 112.271,16.594 c 0.628,-0.045 1.035,-0.139 1.221,-0.281 0.186,-0.142 0.278,-0.511 0.278,-1.104 V 8.344 c 0,-0.566 -0.093,-0.933 -0.278,-1.096 -0.186,-0.163 -0.593,-0.26 -1.221,-0.29 V 6.673 h 4.565 v 0.286 c -0.628,0.03 -1.035,0.127 -1.22,0.29 -0.186,0.164 -0.279,0.529 -0.279,1.096 v 6.863 c 0,0.594 0.093,0.963 0.279,1.104 0.186,0.144 0.592,0.236 1.22,0.281 v 0.286 h -4.565 v -0.285 z"
   style="fill:#727375" />
		<path
   inkscape:connector-curvature="0"
   id="path15"
   d="m 117.389,16.88 v -0.286 c 0.396,-0.045 0.694,-0.194 0.893,-0.448 0.198,-0.254 0.539,-0.947 1.02,-2.083 l 3.214,-7.57 h 0.307 l 3.844,8.747 c 0.256,0.58 0.461,0.938 0.614,1.074 0.153,0.139 0.41,0.231 0.772,0.281 v 0.286 h -3.923 v -0.286 c 0.451,-0.04 0.741,-0.089 0.872,-0.146 0.13,-0.058 0.196,-0.199 0.196,-0.423 0,-0.075 -0.025,-0.208 -0.076,-0.397 -0.051,-0.189 -0.121,-0.39 -0.211,-0.6 l -0.618,-1.484 h -4.066 c -0.401,1.009 -0.64,1.625 -0.718,1.848 -0.078,0.224 -0.117,0.399 -0.117,0.529 0,0.26 0.105,0.44 0.316,0.54 0.13,0.06 0.376,0.104 0.737,0.135 v 0.286 h -3.056 V 16.88 z m 6.644,-3.963 -1.768,-4.249 -1.776,4.249 h 3.544 z"
   style="fill:#727375" />
		<path
   inkscape:connector-curvature="0"
   id="path17"
   d="m 128.476,16.594 c 0.592,-0.055 0.961,-0.17 1.107,-0.345 0.146,-0.175 0.218,-0.582 0.218,-1.222 V 8.344 c 0,-0.542 -0.082,-0.896 -0.245,-1.065 -0.163,-0.169 -0.523,-0.275 -1.081,-0.32 V 6.673 h 4.271 c 0.889,0 1.63,0.113 2.223,0.338 1.125,0.426 1.688,1.211 1.688,2.354 0,0.768 -0.25,1.356 -0.75,1.768 -0.5,0.412 -1.179,0.682 -2.038,0.812 l 3.179,3.916 c 0.196,0.238 0.392,0.413 0.587,0.522 0.196,0.11 0.447,0.179 0.753,0.209 v 0.286 h -2.485 l -3.859,-4.754 -0.677,0.038 v 3.041 c 0,0.57 0.086,0.933 0.26,1.085 0.173,0.153 0.551,0.254 1.134,0.304 v 0.286 h -4.287 v -0.285 l 0.002,0.001 0,0 z m 5.274,-5.349 c 0.819,-0.336 1.228,-0.967 1.228,-1.896 0,-0.892 -0.367,-1.501 -1.1,-1.827 -0.392,-0.175 -0.912,-0.263 -1.559,-0.263 -0.437,0 -0.705,0.032 -0.803,0.094 -0.098,0.062 -0.146,0.209 -0.146,0.44 v 3.798 c 1.109,-0.039 1.902,-0.156 2.38,-0.346 z"
   style="fill:#727375" />
		<path
   inkscape:connector-curvature="0"
   id="path19"
   d="m 138.843,16.594 c 0.628,-0.045 1.035,-0.139 1.221,-0.281 0.186,-0.142 0.278,-0.511 0.278,-1.104 V 8.344 c 0,-0.566 -0.093,-0.933 -0.278,-1.096 -0.186,-0.163 -0.593,-0.26 -1.221,-0.29 V 6.673 h 4.565 v 0.286 c -0.628,0.03 -1.035,0.127 -1.22,0.29 -0.186,0.164 -0.279,0.529 -0.279,1.096 v 6.863 c 0,0.594 0.093,0.963 0.279,1.104 0.186,0.144 0.592,0.236 1.22,0.281 v 0.286 h -4.565 v -0.285 z"
   style="fill:#727375" />
		<path
   inkscape:connector-curvature="0"
   id="path21"
   d="m 145.744,7.816 c 0.949,-0.908 2.117,-1.363 3.503,-1.363 1.391,0 2.562,0.458 3.511,1.371 1.029,0.989 1.544,2.308 1.544,3.956 0,1.672 -0.533,3.003 -1.597,3.992 -0.955,0.885 -2.107,1.326 -3.458,1.326 -1.446,0 -2.647,-0.488 -3.601,-1.469 -0.969,-1 -1.454,-2.283 -1.454,-3.85 -0.001,-1.646 0.516,-2.968 1.552,-3.963 z m 1.152,7.561 c 0.639,0.776 1.423,1.164 2.354,1.164 0.91,0 1.688,-0.378 2.334,-1.134 0.646,-0.756 0.969,-1.966 0.969,-3.627 0,-1.684 -0.327,-2.898 -0.98,-3.646 -0.654,-0.748 -1.428,-1.123 -2.323,-1.123 -0.925,0 -1.708,0.388 -2.35,1.164 -0.642,0.776 -0.961,1.979 -0.961,3.605 0,1.622 0.32,2.82 0.957,3.597 z"
   style="fill:#727375" />
		<path
   inkscape:connector-curvature="0"
   id="path23"
   d="m 170.552,16.594 c 0.562,-0.06 0.929,-0.161 1.1,-0.304 0.17,-0.143 0.256,-0.503 0.256,-1.083 V 8.344 c 0,-0.562 -0.083,-0.924 -0.249,-1.085 -0.166,-0.161 -0.535,-0.261 -1.107,-0.301 V 6.672 h 4.159 c 1.401,0 2.586,0.231 3.556,0.693 1.748,0.829 2.622,2.311 2.622,4.444 0,0.77 -0.157,1.5 -0.471,2.192 -0.314,0.693 -0.787,1.278 -1.42,1.755 -0.402,0.301 -0.819,0.53 -1.25,0.687 -0.789,0.292 -1.758,0.437 -2.908,0.437 h -4.287 l -0.001,-0.286 0,0 z m 3.108,-0.408 c 0.123,0.081 0.377,0.121 0.765,0.121 1.205,0 2.197,-0.237 2.976,-0.716 1.195,-0.733 1.793,-1.988 1.793,-3.762 0,-1.583 -0.492,-2.774 -1.477,-3.574 -0.844,-0.684 -1.961,-1.025 -3.353,-1.025 -0.347,0 -0.582,0.038 -0.704,0.113 -0.124,0.076 -0.185,0.241 -0.185,0.498 v 7.849 c 0,0.25 0.061,0.416 0.185,0.496 z"
   style="fill:#727375" />
		<path
   inkscape:connector-curvature="0"
   id="path25"
   d="m 181.619,16.594 c 0.567,-0.06 0.935,-0.161 1.104,-0.304 0.168,-0.143 0.252,-0.503 0.252,-1.083 V 8.344 c 0,-0.547 -0.083,-0.905 -0.249,-1.074 -0.166,-0.168 -0.535,-0.271 -1.107,-0.312 V 6.672 h 8.196 l 0.053,2.208 h -0.392 c -0.13,-0.68 -0.327,-1.12 -0.587,-1.32 -0.261,-0.199 -0.844,-0.3 -1.748,-0.3 h -2.101 c -0.227,0 -0.366,0.037 -0.419,0.109 -0.053,0.072 -0.08,0.21 -0.08,0.411 v 3.442 h 2.381 c 0.658,0 1.077,-0.097 1.258,-0.292 0.181,-0.194 0.327,-0.589 0.437,-1.184 h 0.362 v 3.562 h -0.362 c -0.115,-0.598 -0.264,-0.992 -0.444,-1.187 -0.18,-0.194 -0.598,-0.29 -1.25,-0.29 h -2.381 v 3.819 c 0,0.307 0.097,0.486 0.291,0.542 0.194,0.055 0.773,0.083 1.739,0.083 1.046,0 1.818,-0.114 2.316,-0.344 0.498,-0.229 0.945,-0.781 1.342,-1.661 h 0.43 l -0.701,2.606 h -8.34 v -0.282 l 0,0 z"
   style="fill:#727375" />
		<path
   inkscape:connector-curvature="0"
   id="path27"
   d="m 202.615,16.594 c 0.567,-0.06 0.935,-0.161 1.104,-0.304 0.168,-0.143 0.252,-0.503 0.252,-1.083 V 8.344 c 0,-0.547 -0.083,-0.905 -0.249,-1.074 -0.166,-0.168 -0.535,-0.271 -1.107,-0.312 V 6.672 h 4.354 v 0.286 c -0.568,0.03 -0.948,0.123 -1.142,0.279 -0.194,0.155 -0.29,0.489 -0.29,1.002 v 7.413 c 0,0.171 0.029,0.305 0.087,0.402 0.058,0.099 0.185,0.159 0.381,0.186 0.116,0.015 0.238,0.024 0.366,0.029 0.128,0.005 0.369,0.009 0.72,0.009 1.373,0 2.301,-0.113 2.784,-0.34 0.482,-0.226 0.95,-0.803 1.403,-1.731 h 0.392 l -0.754,2.674 h -8.301 v -0.287 l 0,0 z"
   style="fill:#727375" />
		<path
   inkscape:connector-curvature="0"
   id="path29"
   d="m 213.877,7.816 c 0.949,-0.908 2.117,-1.363 3.503,-1.363 1.391,0 2.562,0.458 3.511,1.371 1.029,0.989 1.544,2.308 1.544,3.956 0,1.672 -0.533,3.003 -1.597,3.992 -0.955,0.885 -2.107,1.326 -3.458,1.326 -1.446,0 -2.647,-0.488 -3.601,-1.469 -0.969,-1 -1.454,-2.283 -1.454,-3.85 0.001,-1.646 0.518,-2.968 1.552,-3.963 z m 1.154,7.561 c 0.639,0.776 1.423,1.164 2.354,1.164 0.91,0 1.688,-0.378 2.334,-1.134 0.646,-0.756 0.969,-1.966 0.969,-3.627 0,-1.684 -0.327,-2.898 -0.98,-3.646 -0.654,-0.748 -1.428,-1.123 -2.323,-1.123 -0.925,0 -1.708,0.388 -2.35,1.164 -0.642,0.776 -0.961,1.979 -0.961,3.605 0,1.622 0.318,2.82 0.957,3.597 z"
   style="fill:#727375" />
		<path
   inkscape:connector-curvature="0"
   id="path31"
   d="m 224.002,13.776 c 0.261,0.692 0.566,1.245 0.917,1.657 0.612,0.719 1.372,1.077 2.279,1.077 0.491,0 0.917,-0.156 1.275,-0.467 0.359,-0.312 0.538,-0.746 0.538,-1.303 0,-0.502 -0.181,-0.939 -0.542,-1.312 -0.235,-0.235 -0.732,-0.59 -1.489,-1.062 l -1.316,-0.821 c -0.396,-0.251 -0.712,-0.504 -0.948,-0.761 -0.437,-0.487 -0.655,-1.024 -0.655,-1.612 0,-0.778 0.259,-1.426 0.776,-1.943 0.518,-0.518 1.203,-0.775 2.057,-0.775 0.352,0 0.775,0.087 1.27,0.26 0.495,0.173 0.777,0.26 0.848,0.26 0.191,0 0.323,-0.045 0.396,-0.136 0.073,-0.091 0.129,-0.218 0.169,-0.384 h 0.316 l 0.339,3.285 h -0.369 C 229.612,8.75 229.209,8.058 228.654,7.667 228.099,7.275 227.55,7.08 227.008,7.08 c -0.422,0 -0.79,0.125 -1.104,0.373 -0.314,0.248 -0.471,0.594 -0.471,1.036 0,0.396 0.12,0.735 0.361,1.017 0.241,0.286 0.614,0.585 1.121,0.896 l 1.355,0.836 c 0.848,0.521 1.446,1.002 1.794,1.438 0.343,0.442 0.514,0.964 0.514,1.567 0,0.809 -0.305,1.483 -0.916,2.025 -0.61,0.542 -1.39,0.814 -2.339,0.814 -0.478,0 -0.976,-0.091 -1.496,-0.271 -0.52,-0.18 -0.817,-0.271 -0.893,-0.271 -0.181,0 -0.303,0.055 -0.366,0.166 -0.062,0.111 -0.104,0.229 -0.124,0.354 h -0.339 l -0.46,-3.284 h 0.357 l 0,0 0,0 z"
   style="fill:#727375" />
		<path
   inkscape:connector-curvature="0"
   id="path33"
   d="m 297.333,16.594 c 0.64,-0.063 1.05,-0.209 1.229,-0.433 0.181,-0.224 0.271,-0.741 0.271,-1.555 V 7.808 L 298.622,7.56 c -0.228,-0.266 -0.418,-0.431 -0.576,-0.492 -0.157,-0.063 -0.396,-0.1 -0.713,-0.109 V 6.673 h 2.634 l 5.957,7.382 V 8.927 c 0,-0.843 -0.128,-1.393 -0.378,-1.646 -0.166,-0.165 -0.532,-0.272 -1.101,-0.322 V 6.673 h 3.623 v 0.286 c -0.588,0.061 -0.979,0.204 -1.177,0.43 -0.193,0.227 -0.293,0.743 -0.293,1.552 v 8.121 h -0.266 l -6.824,-8.46 v 6.006 c 0,0.844 0.123,1.394 0.369,1.648 0.16,0.166 0.521,0.279 1.076,0.339 v 0.286 h -3.623 l 0.003,-0.287 0,0 z"
   style="fill:#727375" />
		<path
   inkscape:connector-curvature="0"
   id="path35"
   d="m 308.552,16.594 c 0.627,-0.045 1.034,-0.139 1.222,-0.281 0.188,-0.142 0.278,-0.511 0.278,-1.104 V 8.344 c 0,-0.566 -0.095,-0.933 -0.278,-1.096 -0.187,-0.163 -0.595,-0.26 -1.222,-0.29 V 6.673 h 4.565 v 0.286 c -0.629,0.03 -1.035,0.127 -1.223,0.29 -0.188,0.164 -0.277,0.529 -0.277,1.096 v 6.863 c 0,0.594 0.092,0.963 0.277,1.104 0.188,0.144 0.594,0.236 1.223,0.281 v 0.286 h -4.565 v -0.285 z"
   style="fill:#727375" />
		<path
   inkscape:connector-curvature="0"
   id="path37"
   d="m 320.871,6.74 c 0.588,0.166 0.916,0.249 0.986,0.249 0.146,0 0.282,-0.04 0.414,-0.121 0.131,-0.08 0.223,-0.206 0.271,-0.376 h 0.324 l 0.144,3.465 h -0.354 c -0.207,-0.688 -0.477,-1.243 -0.809,-1.665 -0.634,-0.793 -1.482,-1.19 -2.555,-1.19 -1.08,0 -1.963,0.428 -2.648,1.281 -0.685,0.854 -1.025,2.029 -1.025,3.526 0,1.376 0.357,2.475 1.08,3.296 0.721,0.821 1.635,1.231 2.738,1.231 0.798,0 1.533,-0.19 2.207,-0.572 0.389,-0.217 0.812,-0.542 1.271,-0.979 l 0.287,0.287 c -0.342,0.432 -0.769,0.811 -1.273,1.137 -0.862,0.554 -1.801,0.829 -2.811,0.829 -1.656,0 -2.976,-0.53 -3.947,-1.59 -0.897,-0.979 -1.35,-2.202 -1.35,-3.669 0,-1.501 0.476,-2.762 1.424,-3.782 1,-1.069 2.302,-1.604 3.902,-1.604 0.561,-0.001 1.136,0.081 1.724,0.247 z"
   style="fill:#727375" />
		<path
   inkscape:connector-curvature="0"
   id="path39"
   d="m 323.959,16.88 v -0.286 c 0.396,-0.045 0.692,-0.194 0.895,-0.448 0.196,-0.254 0.536,-0.947 1.021,-2.083 l 3.213,-7.57 h 0.311 l 3.844,8.747 c 0.256,0.58 0.461,0.938 0.613,1.074 0.153,0.139 0.409,0.231 0.771,0.281 v 0.286 h -3.924 v -0.286 c 0.45,-0.04 0.739,-0.089 0.871,-0.146 0.131,-0.058 0.193,-0.199 0.193,-0.423 0,-0.075 -0.023,-0.208 -0.073,-0.397 -0.052,-0.189 -0.12,-0.39 -0.211,-0.6 l -0.616,-1.484 H 326.8 c -0.399,1.009 -0.642,1.625 -0.72,1.848 -0.078,0.224 -0.116,0.399 -0.116,0.529 0,0.26 0.104,0.44 0.315,0.54 0.131,0.06 0.377,0.104 0.734,0.135 v 0.286 h -3.057 l 0.003,-0.003 0,0 z m 6.646,-3.963 -1.77,-4.249 -1.776,4.249 h 3.546 z"
   style="fill:#727375" />
		<path
   inkscape:connector-curvature="0"
   id="path41"
   d="m 335.048,16.594 c 0.592,-0.055 0.961,-0.17 1.106,-0.345 0.145,-0.175 0.219,-0.582 0.219,-1.222 V 8.344 c 0,-0.542 -0.082,-0.896 -0.246,-1.065 -0.161,-0.168 -0.521,-0.275 -1.079,-0.32 V 6.673 h 4.271 c 0.89,0 1.63,0.113 2.224,0.338 1.125,0.426 1.688,1.211 1.688,2.354 0,0.768 -0.25,1.356 -0.75,1.768 -0.5,0.412 -1.18,0.682 -2.036,0.812 l 3.18,3.916 c 0.195,0.238 0.393,0.413 0.588,0.522 0.195,0.11 0.447,0.179 0.754,0.209 v 0.286 h -2.484 l -3.857,-4.754 -0.679,0.038 v 3.041 c 0,0.57 0.087,0.933 0.261,1.085 0.174,0.153 0.551,0.254 1.136,0.304 v 0.286 h -4.287 v -0.285 l -0.009,0.001 0,0 z m 5.276,-5.349 c 0.815,-0.336 1.229,-0.967 1.229,-1.896 0,-0.892 -0.367,-1.501 -1.102,-1.827 -0.394,-0.175 -0.912,-0.263 -1.562,-0.263 -0.438,0 -0.705,0.032 -0.804,0.094 -0.098,0.062 -0.146,0.209 -0.146,0.44 v 3.798 c 1.111,-0.039 1.906,-0.156 2.385,-0.346 z"
   style="fill:#727375" />
		<path
   inkscape:connector-curvature="0"
   id="path43"
   d="m 345.394,16.88 v -0.286 c 0.396,-0.045 0.692,-0.194 0.894,-0.448 0.197,-0.254 0.539,-0.947 1.021,-2.083 l 3.214,-7.57 h 0.309 l 3.846,8.747 c 0.256,0.58 0.461,0.938 0.613,1.074 0.152,0.139 0.41,0.231 0.771,0.281 v 0.286 h -3.924 v -0.286 c 0.45,-0.04 0.739,-0.089 0.871,-0.146 0.131,-0.058 0.194,-0.199 0.194,-0.423 0,-0.075 -0.024,-0.208 -0.074,-0.397 -0.051,-0.189 -0.12,-0.39 -0.211,-0.6 l -0.616,-1.484 h -4.065 c -0.4,1.009 -0.642,1.625 -0.72,1.848 -0.077,0.224 -0.116,0.399 -0.116,0.529 0,0.26 0.104,0.44 0.315,0.54 0.131,0.06 0.377,0.104 0.735,0.135 v 0.286 h -3.059 V 16.88 h 0.002 z m 6.644,-3.963 -1.77,-4.249 -1.775,4.249 h 3.545 z"
   style="fill:#727375" />
		<path
   inkscape:connector-curvature="0"
   id="path45"
   d="m 363.783,6.74 c 0.576,0.166 0.908,0.249 0.992,0.249 0.223,0 0.379,-0.042 0.473,-0.128 0.094,-0.087 0.172,-0.208 0.236,-0.369 h 0.338 l 0.121,3.247 h -0.354 c -0.315,-0.748 -0.645,-1.307 -0.979,-1.673 -0.607,-0.643 -1.398,-0.964 -2.373,-0.964 -0.988,0 -1.859,0.375 -2.609,1.126 -0.752,0.751 -1.127,1.988 -1.127,3.71 0,1.422 0.375,2.531 1.123,3.33 0.748,0.8 1.673,1.198 2.771,1.198 0.187,0 0.403,-0.018 0.654,-0.052 0.252,-0.035 0.489,-0.09 0.717,-0.166 0.367,-0.12 0.597,-0.225 0.687,-0.312 0.092,-0.087 0.137,-0.217 0.137,-0.387 V 13.09 c 0,-0.596 -0.084,-0.967 -0.252,-1.113 -0.17,-0.146 -0.535,-0.236 -1.104,-0.272 v -0.286 h 3.934 v 0.286 c -0.383,0.024 -0.637,0.088 -0.764,0.188 -0.211,0.161 -0.314,0.492 -0.314,0.995 v 3.036 c 0,0.181 -0.443,0.422 -1.328,0.723 -0.888,0.302 -1.74,0.452 -2.56,0.452 -1.507,0 -2.776,-0.438 -3.812,-1.317 -1.141,-0.97 -1.711,-2.271 -1.711,-3.902 0,-1.436 0.454,-2.667 1.363,-3.691 1,-1.13 2.324,-1.694 3.979,-1.694 0.596,-0.003 1.183,0.079 1.762,0.245 z"
   style="fill:#727375" />
		<path
   inkscape:connector-curvature="0"
   id="path47"
   d="m 372.039,6.672 v 0.286 c -0.596,0.041 -0.979,0.14 -1.152,0.298 -0.176,0.158 -0.264,0.521 -0.264,1.088 v 4.937 c 0,0.809 0.107,1.438 0.328,1.891 0.412,0.824 1.192,1.235 2.346,1.235 1.26,0 2.105,-0.423 2.539,-1.267 0.238,-0.472 0.359,-1.2 0.359,-2.185 V 8.937 c 0,-0.839 -0.101,-1.364 -0.302,-1.577 -0.2,-0.214 -0.584,-0.349 -1.146,-0.403 V 6.671 h 3.57 v 0.286 c -0.599,0.064 -0.986,0.21 -1.172,0.433 -0.185,0.225 -0.273,0.74 -0.273,1.548 v 4.017 c 0,1.063 -0.162,1.896 -0.49,2.494 -0.604,1.1 -1.746,1.648 -3.436,1.648 -1.668,0 -2.804,-0.542 -3.404,-1.627 -0.326,-0.583 -0.49,-1.351 -0.49,-2.305 V 8.343 c 0,-0.562 -0.086,-0.923 -0.26,-1.081 -0.174,-0.158 -0.553,-0.26 -1.135,-0.305 V 6.671 l 4.382,10e-4 0,0 z m -1.082,-2.313 c 0.146,-0.15 0.326,-0.227 0.537,-0.227 0.219,0 0.397,0.076 0.549,0.227 0.146,0.15 0.223,0.331 0.223,0.542 0,0.21 -0.073,0.392 -0.223,0.542 -0.15,0.149 -0.33,0.226 -0.549,0.226 -0.211,0 -0.392,-0.075 -0.537,-0.226 -0.148,-0.151 -0.225,-0.332 -0.225,-0.542 0.002,-0.211 0.076,-0.391 0.225,-0.542 z m 3.962,1.085 c -0.147,0.15 -0.33,0.226 -0.545,0.226 -0.211,0 -0.396,-0.075 -0.543,-0.226 -0.15,-0.151 -0.229,-0.332 -0.229,-0.542 0,-0.211 0.076,-0.393 0.229,-0.542 0.147,-0.15 0.332,-0.227 0.543,-0.227 0.215,0 0.395,0.076 0.545,0.227 0.146,0.15 0.223,0.331 0.223,0.542 0,0.21 -0.074,0.391 -0.223,0.542 z"
   style="fill:#727375" />
		<path
   inkscape:connector-curvature="0"
   id="path49"
   d="m 378.765,16.594 c 0.568,-0.06 0.937,-0.161 1.104,-0.304 0.17,-0.143 0.254,-0.503 0.254,-1.083 V 8.344 c 0,-0.547 -0.082,-0.905 -0.248,-1.074 -0.166,-0.168 -0.535,-0.271 -1.107,-0.312 V 6.672 h 8.197 l 0.053,2.208 h -0.393 c -0.133,-0.68 -0.326,-1.12 -0.59,-1.32 -0.262,-0.199 -0.844,-0.3 -1.746,-0.3 h -2.102 c -0.228,0 -0.367,0.037 -0.421,0.109 -0.053,0.071 -0.077,0.21 -0.077,0.411 v 3.442 h 2.379 c 0.657,0 1.078,-0.097 1.26,-0.292 0.182,-0.194 0.326,-0.589 0.438,-1.184 h 0.361 v 3.562 h -0.361 c -0.114,-0.598 -0.264,-0.992 -0.442,-1.187 -0.179,-0.195 -0.599,-0.29 -1.252,-0.29 h -2.379 v 3.819 c 0,0.307 0.096,0.486 0.289,0.542 0.192,0.055 0.772,0.083 1.739,0.083 1.045,0 1.816,-0.114 2.314,-0.344 0.498,-0.229 0.945,-0.781 1.344,-1.661 h 0.43 l -0.7,2.606 h -8.341 v -0.285 h -0.003 v 0.003 z"
   style="fill:#727375" />
		<path
   inkscape:connector-curvature="0"
   id="path51"
   d="m 388.189,16.594 c 0.641,-0.063 1.049,-0.209 1.229,-0.433 0.18,-0.224 0.271,-0.741 0.271,-1.555 V 7.808 L 389.477,7.56 c -0.227,-0.266 -0.418,-0.431 -0.575,-0.492 -0.158,-0.063 -0.396,-0.1 -0.713,-0.109 V 6.673 h 2.633 l 5.957,7.382 V 8.927 c 0,-0.843 -0.127,-1.393 -0.377,-1.646 -0.166,-0.165 -0.533,-0.272 -1.101,-0.322 V 6.673 h 3.623 v 0.286 c -0.588,0.061 -0.979,0.204 -1.176,0.43 -0.197,0.227 -0.293,0.743 -0.293,1.552 v 8.121 h -0.266 l -6.826,-8.46 v 6.006 c 0,0.844 0.123,1.394 0.369,1.648 0.159,0.166 0.521,0.279 1.077,0.339 v 0.286 h -3.625 l 0.005,-0.287 0,0 z"
   style="fill:#727375" />
		<path
   inkscape:connector-curvature="0"
   id="path53"
   d="m 400.154,13.776 c 0.262,0.692 0.565,1.245 0.918,1.657 0.61,0.719 1.371,1.077 2.278,1.077 0.49,0 0.916,-0.156 1.275,-0.467 0.355,-0.312 0.535,-0.746 0.535,-1.303 0,-0.502 -0.18,-0.939 -0.539,-1.312 -0.236,-0.235 -0.732,-0.59 -1.488,-1.062 l -1.315,-0.821 c -0.396,-0.251 -0.714,-0.504 -0.949,-0.761 -0.437,-0.487 -0.652,-1.024 -0.652,-1.612 0,-0.778 0.258,-1.426 0.773,-1.943 0.52,-0.518 1.203,-0.775 2.059,-0.775 0.353,0 0.773,0.087 1.271,0.26 0.493,0.173 0.776,0.26 0.85,0.26 0.189,0 0.32,-0.045 0.395,-0.136 0.074,-0.09 0.132,-0.218 0.171,-0.384 h 0.315 l 0.34,3.285 h -0.369 C 405.77,8.75 405.369,8.058 404.813,7.667 404.258,7.276 403.709,7.08 403.167,7.08 c -0.422,0 -0.789,0.125 -1.104,0.373 -0.312,0.249 -0.471,0.594 -0.471,1.036 0,0.396 0.119,0.735 0.359,1.017 0.239,0.286 0.612,0.585 1.121,0.896 l 1.354,0.836 c 0.849,0.521 1.445,1.002 1.795,1.438 0.342,0.442 0.515,0.964 0.515,1.567 0,0.809 -0.306,1.483 -0.914,2.025 -0.609,0.542 -1.392,0.814 -2.34,0.814 -0.478,0 -0.978,-0.091 -1.496,-0.271 -0.518,-0.18 -0.814,-0.271 -0.894,-0.271 -0.182,0 -0.305,0.055 -0.365,0.166 -0.062,0.111 -0.104,0.229 -0.125,0.354 h -0.338 l -0.459,-3.284 h 0.353 l 0,0 h -0.004 z"
   style="fill:#727375" />
		<path
   inkscape:connector-curvature="0"
   id="path55"
   d="m 407.914,16.594 c 0.566,-0.06 0.936,-0.161 1.104,-0.304 0.168,-0.143 0.252,-0.503 0.252,-1.083 V 8.344 c 0,-0.547 -0.084,-0.905 -0.25,-1.074 -0.163,-0.168 -0.532,-0.271 -1.104,-0.312 V 6.672 h 8.195 l 0.055,2.208 h -0.393 c -0.132,-0.68 -0.328,-1.12 -0.589,-1.32 -0.262,-0.199 -0.844,-0.3 -1.748,-0.3 h -2.102 c -0.229,0 -0.365,0.037 -0.418,0.109 -0.055,0.071 -0.08,0.21 -0.08,0.411 v 3.442 h 2.381 c 0.658,0 1.078,-0.097 1.258,-0.292 0.183,-0.194 0.326,-0.589 0.438,-1.184 h 0.361 v 3.562 h -0.361 c -0.113,-0.598 -0.264,-0.992 -0.443,-1.187 -0.179,-0.195 -0.598,-0.29 -1.25,-0.29 h -2.381 v 3.819 c 0,0.307 0.099,0.486 0.291,0.542 0.191,0.055 0.771,0.083 1.736,0.083 1.047,0 1.817,-0.114 2.315,-0.344 0.498,-0.229 0.945,-0.781 1.343,-1.661 h 0.432 l -0.701,2.606 h -8.34 l -0.001,-0.282 0,0 z"
   style="fill:#727375" />
		<path
   inkscape:connector-curvature="0"
   id="path57"
   d="m 418.158,13.776 c 0.264,0.692 0.567,1.245 0.918,1.657 0.613,0.719 1.373,1.077 2.279,1.077 0.491,0 0.918,-0.156 1.274,-0.467 0.357,-0.312 0.537,-0.746 0.537,-1.303 0,-0.502 -0.182,-0.939 -0.541,-1.312 -0.234,-0.235 -0.73,-0.59 -1.488,-1.062 l -1.315,-0.821 c -0.396,-0.251 -0.711,-0.504 -0.945,-0.761 -0.439,-0.487 -0.656,-1.024 -0.656,-1.612 0,-0.778 0.26,-1.426 0.775,-1.943 0.518,-0.518 1.201,-0.775 2.059,-0.775 0.353,0 0.771,0.087 1.271,0.26 0.494,0.173 0.774,0.26 0.848,0.26 0.189,0 0.322,-0.045 0.396,-0.136 0.071,-0.09 0.129,-0.218 0.17,-0.384 h 0.315 l 0.338,3.285 h -0.368 C 423.775,8.75 423.371,8.058 422.815,7.667 422.26,7.276 421.711,7.08 421.17,7.08 c -0.424,0 -0.789,0.125 -1.105,0.373 -0.311,0.249 -0.471,0.594 -0.471,1.036 0,0.396 0.121,0.735 0.359,1.017 0.24,0.286 0.615,0.585 1.121,0.896 l 1.354,0.836 c 0.849,0.521 1.445,1.002 1.793,1.438 0.345,0.442 0.517,0.964 0.517,1.567 0,0.809 -0.306,1.483 -0.916,2.025 -0.607,0.542 -1.392,0.814 -2.34,0.814 -0.478,0 -0.976,-0.091 -1.494,-0.271 -0.521,-0.18 -0.816,-0.271 -0.894,-0.271 -0.184,0 -0.303,0.055 -0.364,0.166 -0.062,0.111 -0.104,0.229 -0.125,0.354 h -0.341 l -0.459,-3.284 h 0.354 v -0.002 h -0.002 v 0.002 z"
   style="fill:#727375" />
	</g>
</g><g
     transform="matrix(0.54079029,0,0,0.5224115,242.94386,17.450753)"
     id="Capa_11">
	<g
   id="g60">
		<polyline
   id="polyline62"
   points="241.813,11.67 252.699,26.426 261.828,20.051     271.32,18.204 280.195,13.912 287.657,11.973 272.054,4.384   "
   style="opacity:0.62000002;fill:#727375;enable-background:new" />
		<g
   id="g64">
			<polygon
   id="polygon66"
   points="254.85,10.054 251.238,5.176 241.748,11.586 245.666,16.607 "
   style="fill:#0072b2" />
			<polygon
   id="polygon68"
   points="258.524,14.896 261.828,19.851 252.83,26.217 249.217,21.381 "
   style="fill:#0072b2" />
			<polygon
   id="polygon70"
   points="271.32,18.014 261.828,19.851 258.524,14.896 267.401,13.912 "
   style="fill:#00598b" />
			<polygon
   id="polygon72"
   points="263.42,9.504 254.85,10.054 251.238,5.176 259.992,5.176 "
   style="fill:#00598b" />
			<polygon
   id="polygon74"
   points="272.054,5.891 263.42,9.504 259.992,5.176 268.382,2.095 "
   style="fill:#0072b2" />
			<polygon
   id="polygon76"
   points="280.195,13.912 271.074,18.014 267.401,13.912 276.218,10.054 "
   style="fill:#0072b2" />
			<polygon
   id="polygon78"
   points="279.032,4.117 272.054,5.891 268.382,2.095 275.972,1.16 "
   style="fill:#00598b" />
			<polygon
   id="polygon80"
   points="288.032,11.525 280.195,13.912 276.218,10.054 283.442,7.616 "
   style="fill:#00598b" />
			<polygon
   id="polygon82"
   points="258.524,14.896 254.85,10.054 245.666,16.607 249.217,21.381 "
   style="fill:#ffffff" />
			<polygon
   id="polygon84"
   points="267.401,13.912 263.42,9.504 254.85,10.054 258.524,14.896 "
   style="fill:#e5e5e3" />
			<polygon
   id="polygon86"
   points="276.218,10.054 272.054,5.891 263.42,9.504 267.401,13.912 "
   style="fill:#ffffff" />
			<polygon
   id="polygon88"
   points="283.442,7.616 276.218,10.054 272.054,5.891 279.032,4.117 "
   style="fill:#e5e5e3" />
		</g>
		<g
   id="g90">
			<path
   inkscape:connector-curvature="0"
   id="path92"
   d="m 263.141,12.588 c -0.105,0.006 -0.203,0.007 -0.297,-0.021 -0.116,-0.564 -0.816,-0.891 -0.562,-1.693 0.184,-0.578 0.967,-1.028 1.52,-1.237 0.615,-0.232 1.254,-0.146 1.912,-0.047 0.757,0.113 1.216,0.44 1.835,0.674"
   style="opacity:0.79000005;fill:none;stroke:#fff8c5;stroke-width:0.5;enable-background:new" />
			<path
   inkscape:connector-curvature="0"
   id="path94"
   d="m 263.998,13.323 c 1.061,0.231 1.793,0.109 2.761,-0.244 0.551,-0.202 1.457,-0.826 1.709,-1.409"
   style="opacity:0.79000005;fill:none;stroke:#fff8c5;stroke-width:0.5;enable-background:new" />
			<path
   inkscape:connector-curvature="0"
   id="path96"
   d="m 263.937,12.834 c 0.585,-0.052 1.126,-0.523 1.667,-0.716 0.502,-0.179 1.396,-0.312 1.759,-0.741 -0.437,0.021 -0.715,-0.186 -1.091,-0.284 -0.148,-0.04 -0.03,-0.295 -0.316,-0.207 -0.205,0.063 -0.143,0.364 -0.289,0.481 -0.266,0.211 -1.375,0.606 -1.721,0.558 0.042,0.433 -0.161,0.753 -0.254,1.154"
   style="opacity:0.79000005;fill:#80b71b;enable-background:new" />
			<path
   inkscape:connector-curvature="0"
   id="path98"
   d="m 263.937,13.079 c 0.485,-0.182 3.979,-1.146 3.813,-1.61 -0.092,-0.257 -1.636,-0.642 -2.025,-0.854 -0.461,-0.253 -1.104,-0.67 -1.596,-0.709 -0.115,0.865 -0.498,2.371 -0.131,3.175"
   style="opacity:0.79000005;fill:none;stroke:#a1a2a4;stroke-width:0.5;enable-background:new" />
		</g>
	</g>
</g><g
     transform="matrix(0.54079029,0,0,0.5224115,242.94386,17.450753)"
     id="Capa_7">
	<g
   id="g101">
		<g
   id="g103"
   style="opacity:0.62000002">
			<path
   inkscape:connector-curvature="0"
   id="path105"
   d="m 392.379,41.592 5.143,0.184 c 0,0 1.652,0.185 1.379,1.377 -0.275,1.193 0,29.569 0,29.569 L 371.348,36.081 370.43,33.692 347.745,32.866 v 8.725 h 4.5 c 0,0 1.836,0.459 1.653,2.295 -0.185,1.837 0.274,44.725 0.274,44.725 0,0 -0.646,2.756 -2.391,3.122 -1.743,0.366 -4.04,0.093 -4.04,0.093 v 7.621 h 22.041 V 91.64 c 0,0 -2.842,-0.12 -4.315,-0.184 -1.476,-0.062 -2.298,-2.39 -2.298,-2.39 l 0.275,-35.081 35.357,45.458 h 10.012 l -0.461,-3.214 -0.184,-53.173 c 0,0 0,-1.377 1.379,-1.469 1.377,-0.092 5.233,0.184 5.233,0.184 v -8.449 l -22.774,-0.459 0.373,8.729 z"
   style="fill:#727375;fill-rule:evenodd" />
		</g>
		<g
   id="g107">
			<path
   inkscape:connector-curvature="0"
   id="path109"
   d="m 392.956,40.676 5.144,0.184 c 0,0 1.651,0.185 1.379,1.377 -0.275,1.193 0,29.569 0,29.569 L 371.926,35.165 371.008,32.776 348.323,31.95 v 8.725 h 4.5 c 0,0 1.836,0.459 1.653,2.295 -0.186,1.837 0.273,44.725 0.273,44.725 0,0 -0.645,2.756 -2.39,3.122 -1.743,0.366 -4.04,0.093 -4.04,0.093 v 7.621 h 22.041 v -7.807 c 0,0 -2.842,-0.121 -4.316,-0.184 -1.475,-0.063 -2.297,-2.391 -2.297,-2.391 l 0.275,-35.081 35.354,45.458 h 10.013 l -0.461,-3.214 -0.185,-53.173 c 0,0 0,-1.377 1.379,-1.469 1.377,-0.092 5.234,0.184 5.234,0.184 v -8.449 l -22.775,-0.459 0.375,8.73 z"
   style="fill:#ffffff;fill-rule:evenodd" />
		</g>
		<path
   inkscape:connector-curvature="0"
   id="path111"
   d="m 394.809,38.513 c 0,0 2.119,-0.052 3.768,-0.092 1.646,-0.04 2.572,3.306 2.572,3.306 v 36.644 c 0,0 -30.949,-39.582 -31.5,-42.612 l -0.92,-1.194 h -19.01 v 3.857 h 3.307 c 0,0 3.029,1.102 3.307,3.397 0.275,2.297 0,44.267 0,46.562 -0.094,3.215 -3.674,4.041 -3.674,4.041 h -2.938 v 3.767 h 18.272 v -3.581 c 0,0 -1.838,0.273 -3.949,-0.273 -2.11,-0.553 -2.663,-3.582 -2.663,-3.582 l -0.093,-42.152 38.664,49.592 h 6.521 l -0.459,-2.111 0.094,-52.162 c 0,0 1.01,-3.123 2.662,-3.398 1.651,-0.274 4.039,-0.184 4.039,-0.184 V 34.57 h -18.09 l 0.09,3.943 z"
   style="fill:#004370;fill-rule:evenodd" />
	</g>
</g><g
     transform="matrix(0.54079029,0,0,0.5224115,242.94386,17.450753)"
     id="Capa_8">
	<g
   id="g114">
		<g
   id="g116"
   style="opacity:0.62000002">
			<path
   inkscape:connector-curvature="0"
   id="path118"
   d="m 445.781,55.252 c -11.939,-6.062 -6.246,-12.856 -6.246,-12.856 0,0 9.365,-7.807 17.906,2.204 l 0.094,5.51 6.797,0.643 2.203,-18.365 c 0,0 -4.41,-0.065 -6.244,-0.093 -0.734,1.377 -2.113,1.47 -2.113,1.47 0,0 -9.367,-2.571 -14.051,-2.021 -4.686,0.551 -21.764,1.377 -20.938,21.397 2.295,14.417 23.233,17.726 28.012,24.979 0.459,0.918 7.986,11.479 -7.531,13.773 -6.611,0.828 -9.918,-2.203 -12.582,-5.145 -2.662,-2.938 -2.938,-7.162 -2.938,-7.162 l -7.896,1.93 5.418,19.928 6.338,-1.285 c 0,0 0,0 0.275,-0.734 0.731,-1.377 3.305,-0.459 3.305,-0.459 0,0 5.42,2.572 15.705,1.654 19.744,-3.949 18.092,-20.205 18.092,-20.205 0,0 3.116,-12.03 -23.606,-25.163 z"
   style="fill:#727375;fill-rule:evenodd" />
		</g>
		<g
   id="g120">
			<path
   inkscape:connector-curvature="0"
   id="path122"
   d="m 445.164,54.394 c -11.939,-6.061 -6.246,-12.856 -6.246,-12.856 0,0 9.365,-7.807 17.906,2.204 l 0.094,5.51 6.797,0.643 2.203,-18.366 c 0,0 -4.41,-0.065 -6.244,-0.093 -0.733,1.377 -2.113,1.47 -2.113,1.47 0,0 -9.366,-2.571 -14.051,-2.021 -4.686,0.551 -21.764,1.377 -20.938,21.397 2.295,14.418 23.233,17.725 28.012,24.979 0.459,0.92 7.986,11.48 -7.531,13.775 -6.61,0.828 -9.918,-2.203 -12.582,-5.145 -2.662,-2.938 -2.938,-7.163 -2.938,-7.163 l -7.896,1.931 5.418,19.928 6.338,-1.285 c 0,0 0,0 0.275,-0.734 0.732,-1.377 3.305,-0.459 3.305,-0.459 0,0 5.42,2.572 15.705,1.652 19.744,-3.948 18.092,-20.203 18.092,-20.203 0,0 3.116,-12.029 -23.606,-25.164 z"
   style="fill:#ffffff;fill-rule:evenodd" />
		</g>
		<path
   inkscape:connector-curvature="0"
   id="path124"
   d="m 446.83,58.202 c -2.615,-1.277 -13.314,-5.512 -11.848,-14.694 2.021,-9.918 14.692,-7.071 14.692,-7.071 0,0 6.797,1.745 8.726,6.153 0.881,3.914 0.274,4.684 0.274,4.684 l 3.123,0.093 1.377,-13.958 c 0,0 -1.562,0 -2.754,0 -0.645,2.295 -4.133,1.652 -4.133,1.652 0,0 -5.512,-1.47 -12.48,-2.204 -16.446,0.643 -18.927,11.847 -18.927,11.847 0,0 -3.123,10.011 5.051,16.438 1.654,2.021 16.808,10.192 21.308,13.959 6.521,6.796 1.377,13.407 1.377,13.407 0,0 -2.021,5.418 -13.041,4.408 -8.539,-1.562 -10.836,-4.959 -10.836,-4.959 0,0 -3.308,-4.5 -3.308,-6.705 l -3.58,0.826 4.226,15.43 h 2.938 l 1.47,-1.744 4.592,-0.092 c 0,0 7.623,3.396 17.176,1.193 16.068,-4.316 13.5,-19.931 13.5,-19.931 0,0 1.373,-8.725 -18.923,-18.732 z"
   style="fill:#004370;fill-rule:evenodd" />
	</g>
</g><g
     transform="matrix(0.54079029,0,0,0.5224115,242.94386,17.450753)"
     id="Capa_9">
	<g
   id="g127">
		<g
   id="g129"
   style="opacity:0.62000002">
			<path
   inkscape:connector-curvature="0"
   id="path131"
   d="M 534.402,89.654 C 532.292,87.265 528.71,76.887 528.71,76.887 L 511.72,32.991 h -10.928 v 1.745 c 0,0 -20.447,52.58 -21.215,54.548 -0.767,1.974 -2.021,2.757 -2.021,2.757 h -3.395 v 7.438 l 20.846,0.459 0.092,-8.908 c 0,0 -1.469,0.553 -3.485,0.273 -2.021,-0.273 -1.746,-1.744 -1.746,-1.744 l 2.571,-7.619 h 20.847 c 0,0 2.664,6.312 3.215,7.619 0.551,1.309 -1.287,1.562 -1.287,1.562 l -4.223,0.643 v 7.717 h 28.928 v -8.268 c -0.006,0.001 -3.403,0.828 -5.517,-1.559 z M 507.864,71.377 502.81,58.428 497.851,71.377 h 10.013 z"
   style="fill:#727375;fill-rule:evenodd" />
		</g>
		<g
   id="g133">
			<path
   inkscape:connector-curvature="0"
   id="path135"
   d="m 533.806,88.976 c -2.11,-2.39 -5.692,-12.768 -5.692,-12.768 l -16.99,-43.896 h -10.928 v 1.745 c 0,0 -20.447,52.579 -21.216,54.549 -0.766,1.973 -2.021,2.756 -2.021,2.756 h -3.396 V 98.8 l 20.847,0.459 0.092,-8.908 c 0,0 -1.469,0.553 -3.486,0.274 -2.021,-0.274 -1.746,-1.744 -1.746,-1.744 l 2.572,-7.62 h 20.846 c 0,0 2.664,6.312 3.216,7.62 0.551,1.308 -1.287,1.562 -1.287,1.562 l -4.224,0.644 v 7.716 h 28.929 v -8.268 c -0.007,0 -3.402,0.828 -5.516,-1.559 z m -26.538,-18.277 -5.053,-12.948 -4.959,12.948 h 10.012 z"
   style="fill:#ffffff;fill-rule:evenodd" />
		</g>
		<path
   inkscape:connector-curvature="0"
   id="path137"
   d="M 531.343,89.935 508.657,34.924 h -7.438 v 1.745 l -21.397,54 c 0,0 -0.367,1.745 -2.021,2.021 -1.654,0.272 -2.391,0 -2.391,0 v 3.946 h 16.528 v -4.038 c 0,0 0,0 -2.569,0.092 -2.57,0.092 -2.57,-3.857 -2.57,-3.857 l 3.123,-9.826 23.602,-0.184 c 0,0 4.134,8.173 3.949,10.744 -0.186,2.572 -2.572,3.123 -2.572,3.123 l -2.846,0.092 0.273,3.854 h 24.336 c 0,0 0,-2.389 0,-3.946 -3.852,0.091 -5.321,-2.755 -5.321,-2.755 z m -21.398,-17.267 -8.082,-21.487 -8.265,21.487 h 16.347 z"
   style="fill:#004370;fill-rule:evenodd" />
	</g>
</g><g
     transform="matrix(0.54079029,0,0,0.5224115,242.94386,17.450753)"
     id="Capa_6">
	<g
   id="g140">
		<g
   id="g142"
   style="opacity:0.62000002">
			<path
   inkscape:connector-curvature="0"
   id="path144"
   d="m 331.641,82.347 c 0,0 -1.19,6.151 -5.69,7.438 -5.326,1.285 -18.918,0.553 -18.918,0.553 V 67.012 h 9.824 c 0,0 2.848,0.092 2.848,2.205 0,2.109 -0.092,4.5 -0.092,4.5 h 6.521 l 2.295,-18 -6.61,-0.367 c 0,0 -0.093,3.766 -1.47,3.855 -1.379,0.094 -13.315,0 -13.315,0 l 0.092,-18.552 h 17.813 c 0,0 3.857,0.459 4.136,2.939 0.274,2.479 -0.095,4.958 -0.095,4.958 l 6.431,1.011 2.297,-17.816 -6.428,1.194 -46.013,-0.561 v 8.55 l 3.582,-0.091 c 0,0 2.389,0 2.295,1.823 -0.092,1.825 0.459,44.001 -0.092,46.022 -0.551,2.021 -1.652,1.743 -1.652,1.743 l -4.133,0.186 v 8.355 l 42.611,0.093 0.643,1.47 6.521,0.92 4.5,-21.308 -6.521,-1.47 -1.38,3.676 z"
   style="fill:#727375;fill-rule:evenodd" />
		</g>
		<g
   id="g146">
			<path
   inkscape:connector-curvature="0"
   id="path148"
   d="m 330.642,82.036 c 0,0 -1.19,6.152 -5.69,7.438 -5.326,1.286 -18.918,0.553 -18.918,0.553 V 66.702 h 9.824 c 0,0 2.848,0.092 2.848,2.205 0,2.109 -0.092,4.5 -0.092,4.5 h 6.521 l 2.295,-18 -6.61,-0.367 c 0,0 -0.093,3.766 -1.47,3.854 -1.379,0.094 -13.315,0 -13.315,0 l 0.092,-18.551 h 17.814 c 0,0 3.855,0.459 4.135,2.939 0.274,2.479 -0.094,4.958 -0.094,4.958 l 6.43,1.01 2.297,-17.815 -6.429,1.194 -46.011,-0.561 v 8.55 l 3.582,-0.091 c 0,0 2.387,0 2.295,1.823 -0.092,1.825 0.459,44.001 -0.092,46.021 -0.553,2.021 -1.652,1.744 -1.652,1.744 l -4.133,0.186 v 8.355 l 42.609,0.092 0.645,1.471 6.521,0.919 4.5,-21.308 -6.521,-1.469 -1.381,3.675 z"
   style="fill:#ffffff;fill-rule:evenodd" />
		</g>
		<path
   inkscape:connector-curvature="0"
   id="path150"
   d="m 331.668,84.833 c 0,0 -2.479,6.521 -8.266,6.979 l -19.84,0.458 -0.271,-27.822 13.224,-0.095 c 0,0 2.938,0.733 3.582,3.401 0.261,2.892 0.093,3.394 0.093,3.394 h 2.756 l 1.562,-13.592 -2.569,-0.272 c 0,0 -0.552,3.487 -3.31,4.225 C 315.6,61.747 303.293,61.05 303.293,61.05 V 38.09 l 21.396,-0.092 c 0,0 3.948,1.103 4.959,3.673 0.512,3.426 0.274,4.776 0.274,4.776 h 2.479 l 1.651,-12.49 -5.785,0.561 h -42.244 v 3.664 l 2.479,0.092 c 0,0 2.849,0.827 3.308,2.939 0.459,2.112 0.274,47.295 0.274,47.295 0,0 -0.553,3.214 -3.766,3.674 h -2.298 v 4.314 l 41.144,-0.459 c 0,0 1.562,0.732 1.838,2.389 h 2.938 l 3.582,-16.896 -2.849,-0.826 -1.005,4.129 z"
   style="fill:#004370;fill-rule:evenodd" />
	</g>
</g><g
     transform="matrix(0.54079029,0,0,0.5224115,242.94386,17.450753)"
     id="Capa_3">
	<g
   id="g153">
		<g
   id="g155"
   style="opacity:0.62000002">
			<path
   inkscape:connector-curvature="0"
   id="path157"
   d="m 125.764,91.027 c -2.113,-0.919 -23.51,-57.58 -23.51,-57.58 H 90.959 v 2.296 c 0,0 -19.377,54.642 -21.582,55.284 -2.204,0.646 -3.949,0.646 -3.949,0.646 v 8.08 h 20.571 v -8.265 c 0,0 -1.746,-0.043 -3.857,-0.095 -2.11,-0.051 -1.193,-2.387 -1.193,-2.387 l 2.204,-6.797 20.847,-0.091 2.664,6.338 c 0,0 0.827,2.387 -0.276,2.662 -1.102,0.272 -4.684,0.459 -4.684,0.459 l -0.092,8.174 h 29.296 v -8.357 c -10e-4,-0.001 -3.032,0.554 -5.144,-0.367 z M 98.673,71.557 93.438,58.883 88.571,71.557 h 10.102 z"
   style="fill:#727375;fill-rule:evenodd" />
		</g>
		<g
   id="g159">
			<path
   inkscape:connector-curvature="0"
   id="path161"
   d="m 125.393,90.027 c -2.113,-0.919 -23.51,-57.58 -23.51,-57.58 H 90.587 v 2.296 c 0,0 -19.377,54.642 -21.582,55.284 -2.204,0.646 -3.949,0.646 -3.949,0.646 v 8.08 h 20.571 v -8.265 c 0,0 -1.746,-0.043 -3.857,-0.095 -2.11,-0.051 -1.193,-2.387 -1.193,-2.387 l 2.204,-6.797 20.847,-0.092 2.664,6.338 c 0,0 0.827,2.387 -0.276,2.662 -1.102,0.272 -4.684,0.459 -4.684,0.459 l -0.092,8.174 h 29.296 v -8.357 c 0,0 -3.032,0.555 -5.143,-0.366 z M 98.302,70.557 93.067,57.883 88.2,70.557 h 10.102 z"
   style="fill:#ffffff;fill-rule:evenodd" />
		</g>
		<path
   inkscape:connector-curvature="0"
   id="path163"
   d="M 122.286,89.516 C 120.843,87.948 99.878,34.599 99.878,34.599 h -7.531 v 1.562 L 71.684,89.149 c 0,0 -1.103,3.122 -2.939,3.309 -1.837,0.185 -2.296,0 -2.296,0 v 3.674 h 16.53 c 0,0 0.036,-1.471 0.092,-3.766 -4.959,0.824 -5.143,-3.031 -5.143,-3.031 l 3.306,-10.744 22.867,-0.184 c 0,0 3.306,5.783 4.225,9.551 0.918,3.766 -1.928,4.133 -1.928,4.133 l -3.215,0.367 0.184,3.674 h 24.521 c 0,0 0,-1.653 0,-3.582 -4.04,-0.184 -4.16,-1.462 -5.602,-3.034 z M 101.163,72.62 92.806,51.312 84.816,72.62 h 16.347 z"
   style="fill:#004370;fill-rule:evenodd" />
	</g>
</g><g
     transform="matrix(0.54079029,0,0,0.5224115,242.94386,17.450753)"
     id="Capa_4">
	<g
   id="g166">
		<g
   id="g168"
   style="opacity:0.62000002">
			<path
   inkscape:connector-curvature="0"
   id="path170"
   d="m 271.782,60.538 c 1.745,-3.928 4.959,-14.694 -4.041,-21.397 -9.275,-6.061 -12.303,-5.533 -15.428,-5.813 -2.389,-0.579 -37.745,0 -37.745,0 v 8.293 h 3.949 c 0,0 2.204,0.184 2.388,1.732 0.184,1.55 -0.178,45.288 -0.184,46.756 -0.006,1.471 -2.388,1.652 -2.388,1.652 l -3.765,0.186 v 7.807 h 28.561 l -0.091,-8.356 c 0,0 -2.76,0.058 -4.5,0.095 -1.74,0.033 -2.021,-1.654 -2.021,-1.654 l 0.092,-16.346 4.409,0.092 c 0,0 7.529,20.848 30.212,31.408 l 5.234,-6.154 C 265.812,88.277 258.648,71.196 258.648,71.196 c 0,0 8.911,-2.208 13.134,-10.658 z m -15.795,-8.817 c 0.094,-7.715 -7.897,-8.37 -7.897,-8.37 h -10.377 v 21.135 l 9.209,-0.366 c 0,0 9.983,-1.471 9.065,-12.399 z"
   style="fill:#727375;fill-rule:evenodd" />
		</g>
		<g
   id="g172">
			<path
   inkscape:connector-curvature="0"
   id="path174"
   d="m 271.5,59.538 c 1.746,-3.928 4.959,-14.694 -4.041,-21.397 -9.276,-6.061 -12.304,-5.533 -15.429,-5.813 -2.389,-0.579 -37.744,0 -37.744,0 v 8.293 h 3.949 c 0,0 2.204,0.184 2.388,1.732 0.184,1.55 -0.178,45.288 -0.184,46.756 -0.006,1.471 -2.388,1.652 -2.388,1.652 l -3.765,0.186 v 7.807 h 28.561 l -0.091,-8.356 c 0,0 -2.76,0.058 -4.5,0.095 -1.74,0.033 -2.021,-1.654 -2.021,-1.654 l 0.092,-16.346 4.409,0.092 c 0,0 7.529,20.848 30.214,31.408 l 5.233,-6.154 C 265.531,87.277 258.368,70.196 258.368,70.196 c 0,0 8.909,-2.208 13.132,-10.658 z m -15.795,-8.817 c 0.093,-7.715 -7.897,-8.37 -7.897,-8.37 h -10.377 v 21.135 l 9.209,-0.366 c 0,0 9.984,-1.471 9.065,-12.399 z"
   style="fill:#ffffff;fill-rule:evenodd" />
		</g>
		<path
   inkscape:connector-curvature="0"
   id="path176"
   d="m 255.078,68.67 5.051,-2.297 c 0,0 12.215,-4.408 10.469,-17.726 C 268.854,35.332 252.69,34.514 252.69,34.514 h -36.366 v 4.031 l 2.755,-0.092 c 0,0 2.388,0.734 3.122,3.214 0.735,2.479 0.207,45.549 0.184,47.573 -0.023,2.021 -3.031,3.123 -3.031,3.123 l -3.03,0.364 v 3.856 h 23.969 l 0.092,-4.316 c 0,0 -0.826,0.555 -3.581,0.096 -2.755,-0.46 -2.939,-3.031 -2.939,-3.031 l -0.367,-19.104 h 8.265 c 0,0 9.091,22.136 28.194,30.767 l 2.755,-3.396 C 263.25,89.975 255.078,68.67 255.078,68.67 z m 2.387,-17.174 C 258.383,40.569 247.272,39.558 247.272,39.558 h -12.398 v 25.993 l 9.918,-0.155 c 0,0 12.858,-0.675 12.673,-13.9 z"
   style="fill:#004370;fill-rule:evenodd" />
	</g>
</g><g
     transform="matrix(0.54079029,0,0,0.5224115,242.94386,17.450753)"
     id="Capa_5">
	<g
   id="g179">
		<g
   id="g181"
   style="opacity:0.62000002">
			<path
   inkscape:connector-curvature="0"
   id="path183"
   d="m 190.778,33.692 c -2.643,-0.551 -38.479,-0.184 -38.479,-0.184 v 8.448 h 3.49 c 0,0 2.204,0.093 2.112,1.836 -0.092,1.745 0.368,44.908 0.368,44.908 0,0 0.184,2.663 -1.837,2.663 -2.021,0 -4.132,0 -4.132,0 v 8.447 h 28.836 v -8.447 c 0,0 -2.932,-0.055 -4.958,-0.092 -2.026,-0.038 -1.929,-1.653 -1.929,-1.653 V 75.752 c 0,0 6.336,0.367 14.602,-0.365 19.836,-2.938 21.123,-16.896 21.123,-16.896 0,0 3.581,-9.092 -4.867,-18.275 -4.134,-4.963 -11.684,-5.973 -14.329,-6.524 z m 1.654,19.285 c -0.459,-8.724 -6.533,-8.686 -9.183,-9.275 -2.651,-0.589 -8.082,-0.092 -8.082,-0.092 v 22.041 h 8.55 c 0,0 10.368,-0.734 8.715,-12.674 z"
   style="fill:#727375;fill-rule:evenodd" />
		</g>
		<g
   id="g185">
			<path
   inkscape:connector-curvature="0"
   id="path187"
   d="m 190.226,32.63 c -2.643,-0.551 -38.479,-0.184 -38.479,-0.184 v 8.448 h 3.49 c 0,0 2.204,0.093 2.112,1.836 -0.092,1.745 0.368,44.908 0.368,44.908 0,0 0.184,2.663 -1.837,2.663 -2.021,0 -4.132,0 -4.132,0 v 8.447 h 28.836 v -8.447 c 0,0 -2.932,-0.055 -4.958,-0.092 -2.026,-0.039 -1.929,-1.653 -1.929,-1.653 V 74.69 c 0,0 6.336,0.367 14.602,-0.365 19.836,-2.939 21.123,-16.898 21.123,-16.898 0,0 3.581,-9.09 -4.867,-18.273 C 200.42,34.19 192.871,33.18 190.226,32.63 z m 1.654,19.285 c -0.459,-8.724 -6.533,-8.686 -9.183,-9.275 -2.651,-0.589 -8.082,-0.092 -8.082,-0.092 v 22.041 h 8.55 c 0,-0.001 10.368,-0.735 8.715,-12.674 z"
   style="fill:#ffffff;fill-rule:evenodd" />
		</g>
		<path
   inkscape:connector-curvature="0"
   id="path189"
   d="m 201.447,39.743 c 0,0 -5.787,-4.959 -12.766,-5.144 -6.979,-0.184 -35.265,0 -35.265,0 v 3.949 h 2.204 c 0,0 2.939,0.734 3.674,3.49 0.735,2.755 -0.092,47.11 -0.092,47.11 0,0 -0.551,2.298 -2.479,2.938 -1.929,0.644 -3.306,0 -3.306,0 v 4.5 h 24.704 l 0.092,-4.5 c 0,0 -0.551,0 -3.673,0 -3.122,0 -3.674,-3.582 -3.674,-3.582 l -0.092,-16.162 16.99,-0.273 c 0,0 10.747,-1.201 16.163,-9.275 9.55,-12.766 -2.48,-23.051 -2.48,-23.051 z m -18.46,0.458 c -1.725,-0.274 -11.204,0 -11.204,0 v 26.54 h 10.929 c 0,0 11.112,-0.183 10.928,-12.855 0.55,-13.225 -8.929,-13.411 -10.653,-13.685 z"
   style="fill:#004370;fill-rule:evenodd" />
	</g>
</g><g
     transform="matrix(0.54079029,0,0,0.5224115,242.94386,17.450753)"
     id="Capa_2">
	<g
   id="g192">
		<g
   id="g194"
   style="opacity:0.62000002">
			<path
   inkscape:connector-curvature="0"
   id="path196"
   d="m 52.799,83.459 c 0,0 -2.755,7.254 -6.796,7.528 -4.041,0.276 -14.143,0 -14.143,0 l 0.367,-47.938 c 0,0 -0.275,-1.01 1.653,-0.918 1.928,0.092 5.51,0 5.51,0 V 33.5 H 10.738 v 8.632 h 4.592 c 0,0 1.286,-0.092 1.286,2.204 0,2.296 0.367,45 0.367,45 0,0 0.184,1.562 -0.918,1.836 -1.102,0.273 -5.326,0.186 -5.326,0.186 v 8.814 h 39.122 l 0.184,1.838 h 6.979 l 3.857,-21.307 -6.612,-1.471 -1.47,4.227 z"
   style="fill:#727375;fill-rule:evenodd" />
		</g>
		<g
   id="g198">
			<path
   inkscape:connector-curvature="0"
   id="path200"
   d="m 52.29,82.407 c 0,0 -2.755,7.254 -6.796,7.527 -4.041,0.275 -14.143,0 -14.143,0 l 0.367,-47.938 c 0,0 -0.275,-1.01 1.653,-0.918 1.928,0.092 5.51,0 5.51,0 V 32.446 H 10.229 v 8.632 h 4.592 c 0,0 1.286,-0.092 1.286,2.204 0,2.296 0.367,45 0.367,45 0,0 0.184,1.562 -0.918,1.836 -1.102,0.274 -5.326,0.187 -5.326,0.187 v 8.813 h 39.122 l 0.184,1.838 h 6.979 l 3.857,-21.307 -6.612,-1.47 -1.47,4.228 z"
   style="fill:#ffffff;fill-rule:evenodd" />
		</g>
		<path
   inkscape:connector-curvature="0"
   id="path202"
   d="m 53.683,83.639 c 0,0 -1.561,6.336 -8.082,8.727 H 28.979 L 29.07,41.58 c 0,0 0.276,-2.572 2.572,-3.031 h 4.592 V 34.6 h -24.52 v 3.949 l 2.939,-0.092 c 0,0 2.939,0.734 3.398,3.306 0,0 0.35,44.905 0.367,47.202 0.018,2.298 -3.489,3.49 -3.489,3.49 l -3.215,-0.187 v 4.226 l 37.01,-0.273 c 0,0 1.928,0.46 2.112,2.389 h 3.49 l 3.581,-17.174 -3.306,-0.734 -0.918,2.937 z"
   style="fill:#004370;fill-rule:evenodd" />
	</g>
</g></g>
</svg>