<?xml version="1.0" encoding="utf-8"?>
<!-- Generator: Adobe Illustrator 14.0.0, SVG Export Plug-In . SVG Version: 6.00 Build 43363)  -->
<!DOCTYPE svg PUBLIC "-//W3C//DTD SVG 1.1//EN" "http://www.w3.org/Graphics/SVG/1.1/DTD/svg11.dtd">
<svg version="1.1" id="Capa_1" xmlns="http://www.w3.org/2000/svg" xmlns:xlink="http://www.w3.org/1999/xlink" x="0px" y="0px"
	 width="27.667px" height="10.979px" viewBox="0 0 27.667 10.979" enable-background="new 0 0 27.667 10.979" xml:space="preserve">
<polygon fill="#FFC520" points="9.549,8.902 2.152,8.902 2.493,9.244 "/>
<polygon fill="#FFC520" points="9.549,8.191 1.213,7.807 1.469,8.191 "/>
<polygon fill="#FFC520" points="9.919,7.195 3.66,5.915 4.086,6.684 "/>
<polygon fill="#FFC520" points="10.602,6.556 7.899,5.146 7.614,5.852 "/>
<polygon fill="#FFC520" points="11.313,5.659 7.842,2.501 7.842,3.525 "/>
<polygon fill="#FFC520" points="12.337,5.417 11.313,2.757 11.313,3.469 "/>
<polygon fill="#FFC520" points="13.618,5.146 13.618,1.818 13.452,1.96 13.219,2.188 13.452,5.289 "/>
<polygon fill="#FFC520" points="14.699,5.289 15.666,3.354 15.524,2.757 "/>
<polygon fill="#FFC520" points="15.666,5.659 19.023,3.383 19.023,2.501 "/>
<polygon fill="#FFC520" points="16.349,6.556 19.023,5.289 19.023,5.659 "/>
<polygon fill="#FFC520" points="16.918,7.195 23.177,5.915 22.75,6.556 "/>
<polygon fill="#FFC520" points="17.345,8.191 25.823,7.594 25.339,8.191 "/>
<polygon fill="#FFC520" points="17.345,8.902 24.657,8.902 24.315,9.244 "/>
<polygon fill="#FFC520" points="8.155,10.098 9.919,9.728 15.666,9.812 17.999,10.098 "/>
<polygon fill="#FFC520" points="5.196,10.524 8.155,10.183 18.824,10.354 21.1,10.524 "/>
<polygon fill="#FFC520" points="3.859,10.979 8.383,10.695 16.064,10.695 21.584,10.979 "/>
<path fill="#FFC520" d="M10.26,9.5c-0.427-1.792,0.916-2.944,0.916-2.944s1.986-1.978,4.49-0.128c1.394,1.365,1.11,3.072,1.11,3.072
	S13.163,8.817,10.26,9.5z"/>
</svg>
