<?xml version="1.0" encoding="utf-8"?>
<!-- Generator: Adobe Illustrator 14.0.0, SVG Export Plug-In . SVG Version: 6.00 Build 43363)  -->
<!DOCTYPE svg PUBLIC "-//W3C//DTD SVG 1.1//EN" "http://www.w3.org/Graphics/SVG/1.1/DTD/svg11.dtd">
<svg version="1.1" id="Layer_1" xmlns="http://www.w3.org/2000/svg" xmlns:xlink="http://www.w3.org/1999/xlink" x="0px" y="0px"
	 width="173.869px" height="43.774px" viewBox="0 0 173.869 43.774" enable-background="new 0 0 173.869 43.774"
	 xml:space="preserve">
<g>
	<polygon fill="#F1912F" points="0,0 9.984,0 9.984,34.098 163.731,34.098 163.731,0 173.869,0 173.869,43.774 0,43.774 	"/>
	<path fill="#F1912F" d="M15.36,6.759V4.147h10.905l3.687,12.902l3.533-12.902h11.059v2.918C43.41,6.202,42.546,7.68,42.546,7.68
		s-0.326,14.073-0.307,15.052c0.077,0.691,2.304,0.231,2.304,0.231v3.455H34.405l-0.154-3.455h1.997V8.602l-5.376,17.817H27.34
		L21.964,8.294l0.154,14.669h2.304l-0.153,3.455H15.36v-3.455c0,0,0.538,0.113,1.536,0c0.883-0.117,0.921-1.076,0.921-1.076
		s0.096-12.921,0-13.9c-0.096-0.979-1.075-1.075-1.075-1.075L15.36,6.759z"/>
	<path fill="#F1912F" d="M62.206,22.964c-0.825,0.518-1.843-0.231-1.843-0.231v-9.523c0,0-0.019-3.437-5.068-4.146h-2.458
		c0,0-6.144,0.191-7.065,1.689v3.378l2.458,0.154c0,0,0.307-1.69,3.532-1.537c4.032,0.192,2.918,3.994,2.918,3.994h-5.375
		c0,0-5.318,0.346-4.761,5.146s5.376,4.531,5.376,4.531s3.514,0.288,5.069-2.151c0.921,3.418,5.836,2.151,5.836,2.151
		S62.302,26.017,62.206,22.964z M54.756,22.561c0,0-0.864,1.094-3.11,0.921c-2.247-0.173-1.92-2.361-2.016-2.88
		c0.08-0.525,0.633-1.844,1.555-1.844c0.921,0,3.571,0,3.571,0V22.561z"/>
	<path fill="#F1912F" d="M95.784,22.964c-0.826,0.518-1.843-0.231-1.843-0.231v-9.523c0,0-0.02-3.437-5.069-4.146h-2.458
		c0,0-6.144,0.191-7.064,1.689v3.378l2.457,0.154c0,0,0.307-1.69,3.533-1.537c4.032,0.192,2.918,3.994,2.918,3.994h-5.376
		c0,0-5.318,0.346-4.761,5.146c0.557,4.8,5.376,4.531,5.376,4.531s3.513,0.288,5.068-2.151c0.922,3.418,5.836,2.151,5.836,2.151
		S95.88,26.017,95.784,22.964z M88.335,22.561c0,0-0.864,1.094-3.11,0.921c-2.247-0.173-1.902-2.246-2.017-2.88
		c0.106-0.661,0.634-1.844,1.555-1.844c0.922,0,3.571,0,3.571,0V22.561z"/>
	<path fill="#F1912F" d="M78.717,12.595V9.715H72.9h-6.163c0,0-4.377,0.346-4.527,4.493c-0.149,4.146,2.742,4.146,2.742,4.146
		l-0.23,0.807c0,0-3.974,1.729-0.519,5.414c-1.47,0.701-1.993,1.325-1.993,1.325s-3.537,4.723,3.893,5.414h6.48
		c0,0,5.386-0.059,5.789-5.298c0.46-4.264-4.377-4.494-4.377-4.494s-5.646,0-7.027,0c-1.382,0-0.518-2.419-0.518-2.419
		s1.256,0.598,3.225,0.691c5.664,0.173,6.394-2.313,6.854-3.226c0.667-1.133,0.346-3.571,0.346-3.571S78.026,12.191,78.717,12.595z
		 M72.727,25.671c0,0,0.96,1.723,0,2.419c-0.773,0.661-1.209,0.92-3.917,0.863c-2.708-0.058-3.053-0.52-3.053-0.98
		c0-0.46,0-2.302,0-2.302H72.727z M69.76,17.855c-1.383,0-2.505-1.384-2.505-3.091s1.122-3.092,2.505-3.092
		c1.384,0,2.506,1.385,2.506,3.092S71.144,17.855,69.76,17.855z"/>
	<polygon fill="#F1912F" points="96.688,15.015 96.688,9.6 111.375,9.6 111.375,13.343 102.562,22.387 102.562,22.964 
		108.208,22.964 108.208,20.717 111.375,20.602 111.375,26.074 96.112,26.074 96.112,22.732 104.981,13.401 104.981,12.537 
		100.432,12.365 99.855,12.998 99.625,15.015 	"/>
	<path fill="#F1912F" d="M114.197,13.056c-0.116-0.806-0.576-0.633-0.576-0.633h-1.209V9.6h6.97l0.46,0.864
		c0,0-0.288,11.463-0.23,12.269c0.058,0.806,1.959,0.402,1.959,0.402v2.939h-9.159V23.25c0,0,1.786,0.231,1.786-0.518
		S114.197,12.25,114.197,13.056z"/>
	<ellipse fill="#F1912F" cx="116.991" cy="5.597" rx="2.736" ry="2.505"/>
	<path fill="#F1912F" d="M124.277,13.343c0-0.689-0.864-0.863-0.864-0.863h-1.382V9.6h7.258c0,0,0.028,1.766,0.288,1.873
		c0.259,0.105,0.633,0.259,0.633,0.259s2.131-2.592,6.164-2.65c3.456-0.058,4.031,2.823,4.031,2.823v10.828
		c0,0,0.633,1.095,1.729,0.402c-0.016,1.785,0,2.939,0,2.939h-8.986v-2.939c0,0,1.671,0.289,1.671-0.402s0-8.468,0-8.468
		s0.403-1.611-2.419-1.555c-2.131,0.116-2.592,0.633-2.592,0.633l-0.057,9.85h1.728l-0.115,2.882h-8.871l0.058-2.939
		c0,0,1.854,0.402,1.843-0.402C124.383,21.927,124.277,14.035,124.277,13.343z"/>
	<path fill="#F1912F" d="M158.721,18.815c0,0,1.843-8.754-7.719-9.735c0,0-2.515,0.02-3.801,0.52
		c-0.361,0.153-5.99,2.131-5.587,9.388c0.345,8.064,9.792,7.086,9.792,7.086s3.571,0.268,6.566-1.383v-3.053h-3.168
		c0,0-0.921,3.053-5.645,1.094c-2.016-0.979-1.786-3.917-1.786-3.917H158.721z M150.772,12.019c3.744,0.116,2.534,4.09,2.534,4.09
		h-5.817C147.489,16.108,147.028,11.904,150.772,12.019z"/>
</g>
</svg>
