<?xml version="1.0" encoding="utf-8"?>
<!-- Generator: Adobe Illustrator 14.0.0, SVG Export Plug-In . SVG Version: 6.00 Build 43363)  -->
<!DOCTYPE svg PUBLIC "-//W3C//DTD SVG 1.1//EN" "http://www.w3.org/Graphics/SVG/1.1/DTD/svg11.dtd">
<svg version="1.1" id="Capa_1" xmlns="http://www.w3.org/2000/svg" xmlns:xlink="http://www.w3.org/1999/xlink" x="0px" y="0px"
	 width="9.028px" height="6.516px" viewBox="0 0 9.028 6.516" enable-background="new 0 0 9.028 6.516" xml:space="preserve">
<rect y="3.195" width="8.656" height="1.233"/>
<rect y="4.429" fill="#FAE247" width="8.656" height="2.087"/>
<g>
	<path d="M7.338,5.567c0,0.065-0.012,0.124-0.033,0.177C7.282,5.798,7.254,5.852,7.219,5.906L6.961,6.302H6.655l0.266-0.378
		l0.003-0.005C6.913,5.923,6.9,5.926,6.887,5.929C6.874,5.931,6.86,5.932,6.849,5.932c-0.047,0-0.092-0.009-0.134-0.026
		C6.673,5.889,6.636,5.864,6.604,5.833S6.546,5.764,6.526,5.72C6.508,5.676,6.498,5.627,6.498,5.573
		c0-0.062,0.012-0.118,0.033-0.167c0.022-0.05,0.053-0.092,0.091-0.126s0.082-0.06,0.134-0.078C6.807,5.185,6.86,5.175,6.918,5.175
		c0.059,0,0.113,0.01,0.164,0.027C7.133,5.221,7.178,5.246,7.215,5.28c0.038,0.034,0.067,0.076,0.09,0.124
		C7.326,5.453,7.338,5.507,7.338,5.567z M7.086,5.564c0-0.048-0.015-0.089-0.045-0.123C7.012,5.406,6.971,5.389,6.92,5.389
		c-0.052,0-0.093,0.017-0.124,0.049C6.766,5.471,6.75,5.513,6.75,5.565c0,0.05,0.015,0.091,0.046,0.123
		c0.029,0.033,0.07,0.049,0.121,0.049c0.05,0,0.091-0.016,0.122-0.048S7.086,5.616,7.086,5.564z"/>
	<path d="M8.312,5.567c0,0.065-0.012,0.124-0.033,0.177C8.256,5.798,8.228,5.852,8.192,5.906L7.935,6.302H7.629l0.266-0.378
		l0.003-0.005C7.887,5.923,7.874,5.926,7.86,5.929C7.848,5.931,7.834,5.932,7.822,5.932c-0.047,0-0.092-0.009-0.134-0.026
		C7.646,5.889,7.609,5.864,7.577,5.833S7.52,5.764,7.5,5.72C7.481,5.676,7.472,5.627,7.472,5.573c0-0.062,0.011-0.118,0.033-0.167
		c0.021-0.05,0.052-0.092,0.09-0.126s0.083-0.06,0.135-0.078C7.78,5.185,7.834,5.175,7.892,5.175s0.112,0.01,0.164,0.027
		C8.106,5.221,8.15,5.246,8.188,5.28c0.037,0.034,0.067,0.076,0.09,0.124C8.3,5.453,8.312,5.507,8.312,5.567z M8.06,5.564
		c0-0.048-0.016-0.089-0.045-0.123c-0.03-0.035-0.07-0.053-0.122-0.053S7.801,5.405,7.77,5.438C7.738,5.471,7.724,5.513,7.724,5.565
		c0,0.05,0.015,0.091,0.045,0.123C7.799,5.722,7.84,5.737,7.89,5.737c0.051,0,0.092-0.016,0.123-0.048S8.06,5.616,8.06,5.564z"/>
</g>
<g>
	<path d="M0.336,5.229h0.202v0.528c0,0.084,0.002,0.139,0.007,0.164C0.554,5.96,0.574,5.992,0.606,6.017
		C0.64,6.041,0.684,6.053,0.74,6.053s0.101-0.011,0.13-0.034c0.029-0.022,0.046-0.051,0.052-0.084s0.009-0.089,0.009-0.166v-0.54
		h0.202v0.513c0,0.117-0.006,0.2-0.017,0.249c-0.011,0.048-0.031,0.089-0.06,0.122c-0.03,0.033-0.069,0.06-0.118,0.08
		C0.89,6.212,0.825,6.222,0.746,6.222c-0.096,0-0.168-0.011-0.217-0.032C0.479,6.168,0.44,6.14,0.412,6.105s-0.047-0.07-0.057-0.108
		c-0.013-0.056-0.02-0.139-0.02-0.248V5.229z"/>
	<path d="M1.577,6.061V5.781C1.488,5.756,1.423,5.719,1.382,5.668C1.34,5.618,1.319,5.557,1.319,5.484s0.023-0.134,0.07-0.184
		c0.047-0.049,0.109-0.078,0.188-0.085V5.149h0.099v0.066c0.072,0.008,0.13,0.032,0.173,0.072c0.043,0.039,0.07,0.093,0.082,0.159
		L1.758,5.47c-0.01-0.053-0.037-0.088-0.082-0.107v0.261c0.109,0.029,0.184,0.066,0.224,0.112c0.039,0.046,0.059,0.105,0.059,0.177
		c0,0.081-0.024,0.148-0.074,0.204c-0.05,0.055-0.119,0.089-0.208,0.101v0.125H1.577V6.221c-0.078-0.01-0.143-0.038-0.191-0.086
		C1.337,6.086,1.305,6.019,1.292,5.932l0.178-0.02C1.477,5.948,1.49,5.979,1.511,6.005C1.53,6.03,1.553,6.049,1.577,6.061z
		 M1.577,5.36C1.551,5.37,1.529,5.385,1.513,5.406c-0.016,0.021-0.023,0.045-0.023,0.07c0,0.023,0.008,0.046,0.022,0.065
		c0.014,0.021,0.036,0.037,0.065,0.049V5.36z M1.676,6.069C1.71,6.063,1.738,6.048,1.76,6.023S1.791,5.97,1.791,5.937
		c0-0.03-0.009-0.056-0.026-0.077C1.746,5.838,1.717,5.821,1.676,5.81V6.069z"/>
</g>
<circle cx="6.078" cy="6.107" r="0.231"/>
<g>
	<path fill="#FFFFFF" d="M0.362,1.535l0.452-0.951H0.94l0.132,0.951H0.969L0.931,1.261H0.607L0.479,1.535H0.362z M0.653,1.163h0.263
		L0.887,0.925C0.874,0.83,0.866,0.751,0.863,0.688C0.846,0.742,0.819,0.807,0.784,0.882L0.653,1.163z"/>
	<path fill="#FFFFFF" d="M1.16,1.535l0.121-0.689H1.38L1.26,1.535H1.16z M1.304,0.717l0.023-0.133h0.099L1.403,0.717H1.304z"/>
	<path fill="#FFFFFF" d="M1.413,1.535l0.12-0.689h0.088L1.597,0.987C1.654,0.883,1.712,0.83,1.771,0.83
		c0.02,0,0.044,0.009,0.072,0.025L1.802,0.965C1.785,0.95,1.767,0.942,1.748,0.942c-0.036,0-0.072,0.023-0.108,0.07
		C1.604,1.059,1.576,1.141,1.556,1.259l-0.05,0.276H1.413z"/>
	<path fill="#FFFFFF" d="M2.207,1.301l0.096,0.012C2.287,1.379,2.25,1.438,2.192,1.487C2.144,1.529,2.09,1.55,2.03,1.55
		c-0.042,0-0.08-0.011-0.114-0.033c-0.035-0.021-0.062-0.056-0.083-0.1s-0.03-0.098-0.03-0.158c0-0.081,0.016-0.156,0.047-0.227
		s0.069-0.121,0.114-0.153S2.058,0.83,2.11,0.83c0.067,0,0.122,0.025,0.164,0.075s0.063,0.12,0.063,0.211
		c0,0.033-0.003,0.068-0.008,0.104H1.903C1.902,1.233,1.901,1.246,1.901,1.257c0,0.064,0.013,0.113,0.038,0.146
		c0.025,0.034,0.056,0.051,0.092,0.051c0.033,0,0.066-0.014,0.1-0.04C2.163,1.388,2.188,1.351,2.207,1.301z M1.92,1.13h0.325V1.106
		c0-0.062-0.013-0.108-0.037-0.139C2.183,0.937,2.15,0.921,2.112,0.921c-0.042,0-0.08,0.018-0.114,0.053
		C1.963,1.008,1.937,1.061,1.92,1.13z"/>
	<path fill="#FFFFFF" d="M2.408,1.3l0.098-0.008c0,0.057,0.013,0.099,0.038,0.126S2.604,1.46,2.648,1.46
		c0.041,0,0.072-0.011,0.096-0.03s0.035-0.045,0.035-0.075c0-0.022-0.007-0.042-0.021-0.06C2.742,1.277,2.71,1.256,2.66,1.23
		C2.603,1.201,2.564,1.178,2.546,1.162S2.514,1.127,2.503,1.104c-0.01-0.022-0.015-0.048-0.015-0.076
		c0-0.058,0.02-0.104,0.057-0.142C2.583,0.85,2.634,0.83,2.695,0.83c0.068,0,0.123,0.02,0.162,0.058
		c0.04,0.038,0.061,0.092,0.062,0.161L2.823,1.056c-0.001-0.043-0.014-0.076-0.038-0.1S2.729,0.921,2.688,0.921
		c-0.031,0-0.058,0.009-0.077,0.026S2.581,0.985,2.581,1.008c0,0.021,0.005,0.037,0.018,0.052C2.61,1.074,2.641,1.094,2.689,1.118
		C2.764,1.157,2.812,1.188,2.832,1.21c0.031,0.036,0.046,0.08,0.046,0.132c0,0.057-0.021,0.106-0.062,0.147S2.718,1.55,2.645,1.55
		c-0.074,0-0.132-0.021-0.174-0.062C2.429,1.446,2.408,1.388,2.408,1.312V1.3z"/>
	<path fill="#FFFFFF" d="M0.362,2.863l0.452-0.951H0.94l0.132,0.951H0.969L0.931,2.59H0.607L0.479,2.863H0.362z M0.653,2.491h0.263
		L0.887,2.253C0.874,2.158,0.866,2.079,0.863,2.016C0.846,2.07,0.819,2.136,0.784,2.21L0.653,2.491z"/>
	<path fill="#FFFFFF" d="M1.563,2.612l0.098,0.012c-0.024,0.086-0.06,0.15-0.105,0.192C1.51,2.857,1.458,2.879,1.401,2.879
		c-0.061,0-0.111-0.023-0.151-0.071C1.21,2.761,1.189,2.692,1.189,2.603c0-0.087,0.015-0.167,0.045-0.239
		C1.264,2.292,1.301,2.24,1.346,2.207C1.391,2.175,1.44,2.159,1.495,2.159c0.059,0,0.107,0.02,0.146,0.061
		c0.037,0.041,0.056,0.097,0.056,0.167L1.599,2.395c0-0.045-0.011-0.079-0.031-0.104C1.546,2.268,1.52,2.256,1.487,2.256
		c-0.035,0-0.066,0.011-0.095,0.033S1.34,2.354,1.319,2.415C1.299,2.477,1.288,2.544,1.288,2.618c0,0.056,0.012,0.098,0.034,0.127
		c0.022,0.028,0.049,0.042,0.08,0.042c0.032,0,0.063-0.014,0.093-0.043C1.523,2.716,1.547,2.671,1.563,2.612z"/>
	<path fill="#FFFFFF" d="M1.739,2.602c0-0.124,0.028-0.229,0.086-0.314c0.057-0.086,0.133-0.128,0.229-0.128
		c0.066,0,0.122,0.024,0.166,0.075c0.044,0.05,0.066,0.122,0.066,0.215c0,0.085-0.016,0.161-0.045,0.229
		c-0.03,0.067-0.069,0.117-0.116,0.15c-0.048,0.033-0.098,0.051-0.15,0.051c-0.068,0-0.125-0.025-0.17-0.074
		C1.762,2.755,1.739,2.688,1.739,2.602z M1.838,2.59c0,0.065,0.014,0.115,0.04,0.148s0.06,0.049,0.1,0.049
		c0.031,0,0.062-0.012,0.094-0.036C2.104,2.726,2.13,2.685,2.154,2.627C2.178,2.569,2.189,2.511,2.189,2.45
		c0-0.066-0.014-0.116-0.04-0.149C2.123,2.267,2.09,2.249,2.051,2.249c-0.034,0-0.067,0.013-0.099,0.037
		C1.92,2.312,1.893,2.352,1.871,2.408C1.849,2.466,1.838,2.526,1.838,2.59z"/>
	<path fill="#FFFFFF" d="M2.341,2.863l0.121-0.688h0.09L2.531,2.294c0.042-0.051,0.08-0.086,0.114-0.105s0.068-0.029,0.101-0.029
		c0.045,0,0.081,0.015,0.109,0.044c0.027,0.029,0.042,0.071,0.042,0.126c0,0.023-0.006,0.063-0.016,0.117L2.805,2.863H2.706
		l0.081-0.437c0.008-0.043,0.012-0.074,0.012-0.095c0-0.024-0.007-0.043-0.021-0.057c-0.014-0.013-0.033-0.02-0.057-0.02
		c-0.051,0-0.096,0.021-0.136,0.063S2.516,2.437,2.496,2.543L2.44,2.863H2.341z"/>
	<path fill="#FFFFFF" d="M3.351,2.763C3.295,2.84,3.236,2.879,3.174,2.879c-0.053,0-0.099-0.023-0.136-0.071
		C3.001,2.761,2.982,2.69,2.982,2.596c0-0.084,0.016-0.161,0.045-0.231s0.066-0.122,0.11-0.155s0.088-0.05,0.131-0.05
		c0.072,0,0.126,0.041,0.163,0.123l0.067-0.37h0.1L3.425,2.863H3.333L3.351,2.763z M3.081,2.574L3.08,2.603
		c0,0.057,0.014,0.104,0.041,0.14C3.142,2.771,3.17,2.784,3.204,2.784c0.045,0,0.085-0.027,0.122-0.083
		c0.049-0.073,0.073-0.164,0.073-0.272c0-0.055-0.013-0.098-0.037-0.128c-0.025-0.03-0.055-0.045-0.089-0.045
		S3.208,2.27,3.179,2.299s-0.054,0.072-0.071,0.13C3.09,2.487,3.081,2.535,3.081,2.574z"/>
	<path fill="#FFFFFF" d="M3.577,2.863l0.12-0.688h0.1L3.676,2.863H3.577z M3.721,2.045l0.022-0.133h0.1L3.819,2.045H3.721z"/>
	<path fill="#FFFFFF" d="M4.228,2.612l0.098,0.012c-0.024,0.086-0.06,0.15-0.106,0.192C4.173,2.857,4.122,2.879,4.065,2.879
		c-0.062,0-0.111-0.023-0.151-0.071c-0.04-0.047-0.061-0.115-0.061-0.205c0-0.087,0.015-0.167,0.044-0.239
		C3.928,2.292,3.964,2.24,4.01,2.207c0.045-0.032,0.095-0.048,0.149-0.048c0.059,0,0.107,0.02,0.146,0.061
		C4.342,2.261,4.36,2.316,4.36,2.387L4.264,2.395c0-0.045-0.011-0.079-0.032-0.104c-0.022-0.023-0.049-0.035-0.08-0.035
		c-0.035,0-0.066,0.011-0.095,0.033S4.004,2.354,3.983,2.415c-0.021,0.062-0.03,0.129-0.03,0.203c0,0.056,0.011,0.098,0.033,0.127
		c0.022,0.028,0.049,0.042,0.08,0.042c0.032,0,0.063-0.014,0.092-0.043C4.188,2.716,4.211,2.671,4.228,2.612z"/>
	<path fill="#FFFFFF" d="M4.382,2.863l0.121-0.688h0.099L4.48,2.863H4.382z M4.525,2.045l0.023-0.133h0.099L4.624,2.045H4.525z"/>
	<path fill="#FFFFFF" d="M4.65,2.602c0-0.124,0.029-0.229,0.086-0.314S4.87,2.159,4.966,2.159c0.067,0,0.122,0.024,0.166,0.075
		c0.044,0.05,0.065,0.122,0.065,0.215c0,0.085-0.015,0.161-0.044,0.229c-0.03,0.067-0.068,0.117-0.116,0.15s-0.098,0.051-0.15,0.051
		c-0.067,0-0.125-0.025-0.169-0.074C4.673,2.755,4.65,2.688,4.65,2.602z M4.75,2.59c0,0.065,0.013,0.115,0.039,0.148
		s0.06,0.049,0.1,0.049c0.031,0,0.062-0.012,0.094-0.036c0.032-0.025,0.06-0.066,0.083-0.124S5.101,2.511,5.101,2.45
		c0-0.066-0.014-0.116-0.04-0.149c-0.026-0.034-0.06-0.052-0.098-0.052c-0.034,0-0.067,0.013-0.1,0.037
		C4.831,2.312,4.805,2.352,4.782,2.408C4.76,2.466,4.75,2.526,4.75,2.59z"/>
	<path fill="#FFFFFF" d="M5.252,2.863l0.121-0.688h0.09L5.442,2.294c0.042-0.051,0.08-0.086,0.114-0.105
		c0.035-0.02,0.068-0.029,0.101-0.029c0.045,0,0.081,0.015,0.109,0.044s0.042,0.071,0.042,0.126c0,0.023-0.005,0.063-0.016,0.117
		L5.716,2.863H5.617l0.081-0.437C5.706,2.384,5.71,2.353,5.71,2.332c0-0.024-0.007-0.043-0.021-0.057
		c-0.015-0.013-0.033-0.02-0.058-0.02c-0.05,0-0.096,0.021-0.136,0.063S5.427,2.437,5.408,2.543l-0.057,0.32H5.252z"/>
	<path fill="#FFFFFF" d="M6.262,2.777C6.226,2.814,6.191,2.841,6.16,2.855C6.128,2.871,6.096,2.879,6.062,2.879
		c-0.051,0-0.093-0.019-0.127-0.054C5.901,2.789,5.885,2.74,5.885,2.678c0-0.044,0.01-0.082,0.029-0.115
		C5.935,2.53,5.963,2.505,5.998,2.487c0.036-0.018,0.088-0.028,0.154-0.03C6.209,2.453,6.248,2.45,6.269,2.446
		C6.29,2.443,6.308,2.438,6.322,2.432c0.01-0.033,0.015-0.061,0.015-0.081c0-0.028-0.012-0.052-0.034-0.069
		C6.281,2.264,6.249,2.256,6.206,2.256c-0.085,0-0.14,0.041-0.165,0.124l-0.1-0.01c0.043-0.141,0.133-0.211,0.271-0.211
		c0.068,0,0.122,0.017,0.162,0.052s0.06,0.078,0.06,0.132c0,0.036-0.005,0.078-0.016,0.127L6.38,2.64
		C6.368,2.694,6.362,2.738,6.362,2.771c0,0.023,0.003,0.054,0.011,0.092H6.271C6.267,2.842,6.264,2.812,6.262,2.777z M6.305,2.514
		C6.28,2.525,6.238,2.534,6.18,2.54C6.119,2.546,6.077,2.554,6.055,2.563S6.016,2.587,6.002,2.606
		C5.99,2.626,5.983,2.648,5.983,2.675c0,0.034,0.011,0.062,0.03,0.083c0.021,0.02,0.047,0.029,0.08,0.029
		c0.032,0,0.062-0.009,0.092-0.028C6.215,2.74,6.239,2.713,6.258,2.677S6.292,2.587,6.305,2.514z"/>
	<path fill="#FFFFFF" d="M6.882,2.763C6.826,2.84,6.768,2.879,6.705,2.879c-0.054,0-0.099-0.023-0.136-0.071
		C6.532,2.761,6.514,2.69,6.514,2.596c0-0.084,0.015-0.161,0.045-0.231c0.029-0.07,0.066-0.122,0.11-0.155s0.088-0.05,0.131-0.05
		c0.072,0,0.126,0.041,0.162,0.123l0.068-0.37h0.1L6.956,2.863H6.864L6.882,2.763z M6.612,2.574L6.611,2.603
		c0,0.057,0.014,0.104,0.041,0.14C6.673,2.771,6.7,2.784,6.735,2.784c0.045,0,0.085-0.027,0.122-0.083
		c0.049-0.073,0.073-0.164,0.073-0.272c0-0.055-0.013-0.098-0.037-0.128c-0.025-0.03-0.056-0.045-0.09-0.045
		c-0.033,0-0.064,0.014-0.094,0.043c-0.03,0.029-0.054,0.072-0.071,0.13C6.621,2.487,6.612,2.535,6.612,2.574z"/>
	<path fill="#FFFFFF" d="M7.129,2.602c0-0.124,0.029-0.229,0.086-0.314c0.058-0.086,0.134-0.128,0.229-0.128
		c0.067,0,0.123,0.024,0.167,0.075c0.044,0.05,0.065,0.122,0.065,0.215c0,0.085-0.015,0.161-0.045,0.229
		c-0.029,0.067-0.068,0.117-0.116,0.15C7.469,2.861,7.419,2.879,7.366,2.879c-0.068,0-0.125-0.025-0.17-0.074
		C7.152,2.755,7.129,2.688,7.129,2.602z M7.229,2.59c0,0.065,0.013,0.115,0.04,0.148c0.026,0.033,0.06,0.049,0.099,0.049
		c0.031,0,0.063-0.012,0.095-0.036c0.031-0.025,0.059-0.066,0.082-0.124S7.579,2.511,7.579,2.45c0-0.066-0.013-0.116-0.04-0.149
		C7.513,2.267,7.48,2.249,7.441,2.249c-0.034,0-0.067,0.013-0.1,0.037C7.311,2.312,7.283,2.352,7.261,2.408
		C7.239,2.466,7.229,2.526,7.229,2.59z"/>
	<path fill="#FFFFFF" d="M7.737,2.628L7.835,2.62c0,0.057,0.013,0.099,0.038,0.126c0.026,0.028,0.061,0.041,0.105,0.041
		c0.04,0,0.071-0.009,0.095-0.028c0.023-0.021,0.035-0.045,0.035-0.076c0-0.021-0.007-0.042-0.021-0.06S8.039,2.584,7.989,2.559
		C7.932,2.528,7.894,2.506,7.875,2.49C7.857,2.475,7.843,2.455,7.833,2.433C7.822,2.41,7.817,2.385,7.817,2.356
		c0-0.058,0.02-0.104,0.058-0.143c0.038-0.036,0.088-0.055,0.149-0.055c0.068,0,0.123,0.019,0.163,0.057
		c0.039,0.038,0.061,0.092,0.062,0.161L8.152,2.385C8.151,2.341,8.139,2.308,8.114,2.284C8.091,2.261,8.058,2.249,8.018,2.249
		c-0.032,0-0.059,0.009-0.078,0.026s-0.03,0.038-0.03,0.061c0,0.021,0.007,0.037,0.019,0.052S7.97,2.422,8.019,2.446
		c0.074,0.039,0.122,0.069,0.143,0.092c0.031,0.036,0.047,0.08,0.047,0.132c0,0.057-0.021,0.106-0.062,0.147
		C8.104,2.858,8.047,2.879,7.974,2.879S7.842,2.858,7.8,2.816S7.737,2.716,7.737,2.641V2.628z"/>
</g>
<g>
	<path fill="#FFFFFF" d="M2.639,4.262l0.163-0.933h0.235c0.054,0,0.094,0.004,0.121,0.012c0.041,0.012,0.077,0.033,0.109,0.064
		c0.031,0.031,0.056,0.073,0.073,0.126c0.018,0.052,0.026,0.111,0.026,0.18c0,0.09-0.015,0.172-0.043,0.245
		C3.296,4.03,3.261,4.091,3.219,4.139S3.128,4.22,3.072,4.239C3.03,4.254,2.979,4.262,2.92,4.262H2.639z M2.762,4.156h0.124
		c0.058,0,0.107-0.007,0.147-0.019c0.041-0.012,0.077-0.036,0.108-0.07C3.174,4.032,3.202,3.982,3.226,3.92
		c0.023-0.063,0.035-0.136,0.035-0.216c0-0.071-0.01-0.127-0.03-0.169C3.209,3.493,3.182,3.465,3.146,3.45
		C3.121,3.44,3.081,3.435,3.026,3.435H2.888L2.762,4.156z"/>
	<path fill="#FFFFFF" d="M3.826,4.032l0.095,0.011C3.905,4.109,3.869,4.166,3.812,4.215c-0.047,0.041-0.1,0.062-0.158,0.062
		c-0.041,0-0.079-0.011-0.112-0.032C3.507,4.222,3.48,4.189,3.46,4.146C3.44,4.103,3.431,4.051,3.431,3.99
		c0-0.079,0.015-0.153,0.045-0.222C3.507,3.7,3.544,3.649,3.588,3.618C3.633,3.587,3.681,3.57,3.732,3.57
		c0.065,0,0.119,0.025,0.16,0.073c0.041,0.049,0.062,0.118,0.062,0.207c0,0.033-0.002,0.067-0.007,0.102H3.529
		C3.527,3.966,3.527,3.978,3.527,3.988c0,0.063,0.013,0.111,0.037,0.145c0.024,0.032,0.055,0.049,0.089,0.049
		c0.033,0,0.066-0.013,0.099-0.038S3.809,4.08,3.826,4.032z M3.545,3.864h0.318V3.841c0-0.061-0.012-0.105-0.036-0.136
		S3.771,3.66,3.733,3.66c-0.041,0-0.078,0.017-0.112,0.051S3.562,3.796,3.545,3.864z"/>
	<path fill="#FFFFFF" d="M4.023,4.03L4.12,4.023C4.119,4.078,4.132,4.12,4.157,4.146C4.182,4.174,4.216,4.188,4.26,4.188
		c0.039,0,0.07-0.01,0.094-0.029C4.376,4.14,4.388,4.114,4.388,4.085c0-0.022-0.007-0.041-0.021-0.059S4.319,3.987,4.271,3.962
		C4.215,3.934,4.177,3.911,4.159,3.896C4.141,3.881,4.127,3.861,4.117,3.84c-0.01-0.022-0.015-0.048-0.015-0.075
		c0-0.057,0.019-0.103,0.056-0.14C4.195,3.589,4.244,3.57,4.306,3.57c0.066,0,0.12,0.02,0.159,0.057
		c0.039,0.038,0.06,0.09,0.061,0.157L4.431,3.792C4.43,3.75,4.417,3.717,4.394,3.694C4.369,3.671,4.338,3.66,4.298,3.66
		c-0.031,0-0.057,0.008-0.076,0.025s-0.029,0.037-0.029,0.06c0,0.02,0.006,0.036,0.018,0.05C4.222,3.81,4.252,3.829,4.3,3.853
		c0.073,0.038,0.119,0.068,0.14,0.091c0.03,0.035,0.045,0.078,0.045,0.129c0,0.056-0.02,0.104-0.061,0.144
		c-0.04,0.041-0.097,0.061-0.169,0.061s-0.129-0.021-0.17-0.061C4.044,4.175,4.023,4.117,4.023,4.043V4.03z"/>
	<path fill="#FFFFFF" d="M4.947,4.163C4.892,4.239,4.834,4.276,4.773,4.276c-0.052,0-0.097-0.022-0.133-0.069
		C4.604,4.161,4.586,4.092,4.586,3.999c0-0.082,0.015-0.158,0.044-0.227c0.029-0.069,0.065-0.12,0.108-0.152
		c0.043-0.033,0.085-0.05,0.128-0.05c0.07,0,0.124,0.041,0.159,0.122l0.067-0.363h0.097L5.019,4.262h-0.09L4.947,4.163z
		 M4.682,3.979v0.027c0,0.056,0.013,0.102,0.04,0.138c0.021,0.027,0.047,0.041,0.081,0.041c0.044,0,0.084-0.027,0.12-0.082
		C4.971,4.03,4.994,3.941,4.994,3.836c0-0.054-0.012-0.097-0.036-0.126S4.904,3.666,4.87,3.666c-0.032,0-0.063,0.014-0.093,0.042
		C4.749,3.736,4.726,3.779,4.708,3.836S4.682,3.94,4.682,3.979z"/>
	<path fill="#FFFFFF" d="M5.588,4.032l0.095,0.011C5.667,4.109,5.631,4.166,5.573,4.215c-0.047,0.041-0.1,0.062-0.158,0.062
		c-0.041,0-0.078-0.011-0.112-0.032C5.269,4.222,5.242,4.189,5.222,4.146c-0.02-0.044-0.03-0.096-0.03-0.156
		c0-0.079,0.016-0.153,0.046-0.222C5.269,3.7,5.306,3.649,5.35,3.618C5.395,3.587,5.442,3.57,5.494,3.57
		c0.065,0,0.119,0.025,0.16,0.073c0.041,0.049,0.062,0.118,0.062,0.207c0,0.033-0.003,0.067-0.008,0.102H5.291
		C5.289,3.966,5.289,3.978,5.289,3.988c0,0.063,0.012,0.111,0.037,0.145c0.024,0.032,0.055,0.049,0.09,0.049
		c0.032,0,0.065-0.013,0.098-0.038S5.57,4.08,5.588,4.032z M5.307,3.864h0.318V3.841c0-0.061-0.012-0.105-0.036-0.136
		S5.533,3.66,5.495,3.66c-0.04,0-0.078,0.017-0.112,0.051C5.35,3.745,5.323,3.796,5.307,3.864z"/>
</g>
<g>
	<path d="M3.272,5.951c0,0.074-0.013,0.14-0.037,0.196c-0.024,0.056-0.058,0.104-0.1,0.143S3.044,6.358,2.987,6.379
		c-0.057,0.02-0.118,0.029-0.185,0.029c-0.122,0-0.227-0.03-0.313-0.092C2.402,6.256,2.345,6.163,2.316,6.038l0.297-0.074
		c0.012,0.048,0.031,0.087,0.059,0.117C2.7,6.111,2.739,6.126,2.788,6.126c0.026,0,0.05-0.005,0.069-0.017
		c0.02-0.011,0.037-0.024,0.05-0.043c0.014-0.018,0.023-0.038,0.029-0.061c0.007-0.022,0.01-0.046,0.01-0.068
		c0-0.063-0.019-0.11-0.056-0.141S2.804,5.752,2.742,5.752H2.666V5.509H2.75c0.057,0,0.1-0.016,0.13-0.048s0.045-0.077,0.045-0.136
		c0-0.037-0.011-0.071-0.032-0.104s-0.057-0.05-0.104-0.05c-0.041,0-0.072,0.014-0.095,0.039c-0.022,0.026-0.039,0.06-0.051,0.1
		l-0.288-0.07c0.017-0.063,0.041-0.116,0.072-0.16c0.032-0.044,0.067-0.08,0.107-0.108s0.084-0.049,0.132-0.062
		c0.048-0.014,0.097-0.02,0.146-0.02c0.055,0,0.107,0.008,0.159,0.024c0.051,0.017,0.097,0.041,0.138,0.074s0.073,0.074,0.098,0.123
		c0.024,0.05,0.037,0.107,0.037,0.173c0,0.086-0.019,0.157-0.056,0.216C3.15,5.558,3.101,5.597,3.039,5.616v0.006
		c0.071,0.02,0.128,0.059,0.17,0.119S3.272,5.872,3.272,5.951z"/>
	<path d="M3.824,5.873c-0.065,0-0.123-0.013-0.173-0.037c-0.049-0.024-0.09-0.058-0.123-0.1S3.471,5.645,3.455,5.587
		C3.438,5.529,3.431,5.468,3.431,5.401c0-0.083,0.013-0.157,0.038-0.221c0.025-0.064,0.06-0.117,0.104-0.161
		c0.045-0.043,0.097-0.075,0.156-0.098C3.788,4.9,3.853,4.89,3.921,4.89c0.069,0,0.134,0.011,0.193,0.034
		c0.06,0.022,0.111,0.055,0.154,0.099c0.044,0.043,0.077,0.097,0.103,0.16c0.024,0.063,0.036,0.137,0.036,0.219
		c0,0.09-0.012,0.17-0.035,0.241c-0.024,0.071-0.055,0.14-0.091,0.206L3.997,6.378H3.611L3.904,5.86L3.902,5.859
		c-0.007,0.004-0.019,0.007-0.035,0.01C3.852,5.872,3.837,5.873,3.824,5.873z M3.755,5.406c0,0.071,0.015,0.128,0.043,0.172
		c0.028,0.043,0.068,0.064,0.119,0.064c0.048,0,0.087-0.021,0.119-0.065c0.031-0.044,0.047-0.102,0.047-0.171
		c0-0.07-0.015-0.127-0.046-0.17s-0.07-0.065-0.118-0.065C3.87,5.171,3.83,5.193,3.8,5.236S3.755,5.336,3.755,5.406z"/>
	<path d="M4.93,5.873c-0.066,0-0.123-0.013-0.172-0.037c-0.05-0.024-0.091-0.058-0.124-0.1C4.602,5.694,4.576,5.645,4.561,5.587
		C4.544,5.529,4.536,5.468,4.536,5.401c0-0.083,0.013-0.157,0.038-0.221C4.6,5.116,4.634,5.063,4.678,5.02
		c0.045-0.043,0.097-0.075,0.156-0.098C4.894,4.9,4.958,4.89,5.026,4.89c0.069,0,0.133,0.011,0.193,0.034
		c0.06,0.022,0.111,0.055,0.154,0.099c0.044,0.043,0.078,0.097,0.103,0.16s0.037,0.137,0.037,0.219c0,0.09-0.013,0.17-0.036,0.241
		c-0.024,0.071-0.054,0.14-0.091,0.206L5.103,6.378H4.718L5.01,5.86L5.008,5.859c-0.007,0.004-0.019,0.007-0.034,0.01
		C4.957,5.872,4.942,5.873,4.93,5.873z M4.86,5.406c0,0.071,0.015,0.128,0.043,0.172c0.029,0.043,0.068,0.064,0.119,0.064
		c0.048,0,0.088-0.021,0.119-0.065s0.048-0.102,0.048-0.171c0-0.07-0.016-0.127-0.047-0.17s-0.07-0.065-0.118-0.065
		c-0.049,0-0.089,0.022-0.119,0.065C4.876,5.279,4.86,5.336,4.86,5.406z"/>
</g>
</svg>
