<?xml version="1.0" encoding="utf-8"?>
<!-- Generator: Adobe Illustrator 14.0.0, SVG Export Plug-In . SVG Version: 6.00 Build 43363)  -->
<!DOCTYPE svg PUBLIC "-//W3C//DTD SVG 1.1//EN" "http://www.w3.org/Graphics/SVG/1.1/DTD/svg11.dtd">
<svg version="1.1" id="Layer_1" xmlns="http://www.w3.org/2000/svg" xmlns:xlink="http://www.w3.org/1999/xlink" x="0px" y="0px"
	 width="135px" height="25.68px" viewBox="0 0 135 25.68" enable-background="new 0 0 135 25.68" xml:space="preserve">
<g>
	<path fill="#7A9097" d="M19.43,4.124c-1.19,0.047-1.542,0.357-1.813,1.224c-0.218,0.644-0.461,1.647-0.771,3.342l-0.363,1.826
		c-0.385,1.903-0.984,3.701-2.277,4.915c-0.992,0.96-2.298,1.36-3.562,1.36c-1.243,0-2.397-0.309-3.249-1.08
		c-0.929-0.849-1.378-2.311-0.911-4.853l0.923-4.811c0.316-1.639,0.205-1.816-1.35-1.952l0.133-0.633l5.514,0.026l-0.134,0.62
		c-1.401,0.123-1.588,0.238-1.873,1.923L8.77,10.891c-0.631,3.326,0.596,4.659,2.513,4.659c2.293,0.008,3.646-1.734,4.304-5.247
		l0.3-1.613c0.31-1.695,0.454-2.698,0.481-3.379c0.063-0.868-0.423-1.1-1.797-1.202l0.151-0.618L19.579,3.5L19.43,4.124z
		 M16.056,1.601l-4.057,1.218l-0.296-0.603c1.17-0.732,2.393-1.531,3.425-2.216c0.36,0.072,0.928,0.952,1.006,1.411L16.056,1.601z"
		/>
	<path fill="#7A9097" d="M17.55,15.211c0-0.433,0.317-0.852,0.654-1.057c0.308-0.177,0.462-0.131,0.621,0.046
		c0.663,0.864,1.482,1.401,2.158,1.401c0.634,0,1.065-0.391,1.065-0.885c0-0.438-0.234-0.818-1.237-1.578
		c-0.892-0.664-1.915-1.388-1.915-2.566c0-0.683,0.269-1.379,1.196-2.119c0.703-0.549,1.638-0.993,2.376-0.993
		c1,0,1.735,0.614,1.735,1.248c0.013,0.369-0.243,0.758-0.614,1.012c-0.221,0.14-0.409,0.115-0.534-0.083
		c-0.403-0.546-0.964-1.068-1.712-1.064c-0.532-0.004-0.882,0.358-0.882,0.863c0,0.592,0.612,1.126,1.401,1.646
		c1.144,0.807,1.825,1.482,1.825,2.495c-0.007,1.695-2.208,3.17-3.906,3.17C18.717,16.747,17.556,16.052,17.55,15.211z"/>
	<path fill="#7A9097" d="M32.232,14.362c-1.805,1.854-3.324,2.408-4.544,2.408c-1.113,0-2.378-0.62-2.378-2.979
		c0.006-1.884,0.832-3.933,2.364-5.103c0.826-0.657,2.082-1.224,3.094-1.224c1.312,0.006,1.957,0.796,1.967,1.688
		c-0.01,2.031-3.214,3.055-5.213,3.596c-0.004,0.202-0.004,0.39-0.017,0.55c0,1.033,0.359,2.017,1.437,2.017
		c0.814,0,1.95-0.554,2.922-1.491L32.232,14.362z M29.261,8.569c-0.473,0.297-1.363,1.354-1.64,3.433
		c2.395-0.684,3.152-1.559,3.152-2.571c0-0.759-0.449-1.105-0.841-1.075C29.73,8.326,29.482,8.436,29.261,8.569z"/>
	<path fill="#7A9097" d="M37.505,14.674c-1.203,1.35-2.673,2.102-3.334,2.102c-0.47,0-0.857-0.447-0.409-2.559
		c0.638-3.111,1.291-6.23,1.911-9.325c0.228-1.009,0.119-1.147-0.718-1.195l-0.556-0.034l0.103-0.572
		c1.8-0.155,3.099-0.704,3.407-0.704c0.231,0,0.268,0.196,0.164,0.704c-0.794,3.724-1.537,7.442-2.337,11.206
		c-0.13,0.565-0.088,0.783,0.076,0.783c0.17,0,0.852-0.434,1.392-0.926L37.505,14.674z"/>
	<path fill="#7A9097" d="M47.753,14.531c-1.265,1.525-2.71,2.279-3.334,2.26c-0.434,0-0.827-0.28-0.486-1.983l0.274-1.366h-0.063
		c-0.705,1.026-1.518,1.809-2.159,2.376c-0.629,0.504-1.427,0.961-2.069,0.961c-0.695,0-1.314-0.803-1.299-2.375
		c0-1.949,0.907-4.024,2.271-5.224c0.956-0.854,2.59-1.693,4.105-1.693c0.406,0,0.818,0.076,1.253,0.149
		c0.416,0.063,0.73,0.118,1.027,0.118l0.095,0.089c-0.384,1.567-0.919,3.908-1.359,6.353c-0.107,0.624-0.065,0.813,0.048,0.813
		c0.189,0,0.878-0.495,1.406-0.991L47.753,14.531z M44.452,11.861c0.27-0.915,0.61-2.49,0.717-3.153
		c-0.257-0.139-0.75-0.254-1.193-0.254c-0.444,0-0.796,0.092-1.077,0.316c-1.326,0.942-2.026,3.385-2.026,5.206
		c0,0.832,0.188,1.188,0.483,1.188C42.066,15.16,44.016,12.815,44.452,11.861z"/>
	<path fill="#7A9097" d="M57.855,14.795c0.966-1.485,2.36-3.567,2.348-5.006c-0.005-0.452-0.177-0.76-0.263-1.002
		c-0.058-0.241-0.027-0.461,0.074-0.636c0.171-0.371,0.577-0.636,0.989-0.636c0.477,0,0.938,0.443,0.966,1.272
		c0,0.551-0.232,1.291-0.791,2.2c-0.885,1.521-2.246,3.53-3.38,5.112c-1.175,1.686-2.411,3.361-3.714,4.838l-2.441,0.593
		l-0.163-0.513c2.11-1.368,3.474-2.595,4.55-3.998c0.022-1.62-0.357-4.888-0.69-6.698c-0.117-0.812-0.276-1.027-0.411-1.027
		c-0.149,0-0.549,0.356-1.093,1.084l-0.422-0.521c0.791-1.24,1.904-2.341,2.726-2.347c0.64,0.005,1.023,0.72,1.264,2.568
		c0.189,1.595,0.297,3.016,0.396,4.718H57.855z"/>
	<path fill="#7A9097" d="M76.339,14.674c-1.228,1.477-2.646,2.166-3.271,2.166c-0.457-0.012-0.816-0.292-0.494-1.923l0.281-1.425
		h-0.014c-0.807,1.05-1.713,1.885-2.464,2.455c-0.679,0.535-1.337,0.881-1.919,0.881c-0.832,0-1.492-0.853-1.492-2.469
		c0-1.926,0.89-4.016,2.304-5.239c0.98-0.836,2.73-1.591,3.616-1.591c0.332,0,0.643,0.033,1.147,0.169l0.577-2.951
		c0.164-0.865,0.058-0.989-0.86-0.999h-0.439l0.083-0.587c1.884-0.206,3.12-0.716,3.46-0.711c0.224-0.005,0.266,0.172,0.129,0.639
		c-0.901,3.909-1.638,7.526-2.32,11.206c-0.132,0.584-0.098,0.793,0.044,0.783c0.197,0,0.79-0.376,1.341-0.926L76.339,14.674z
		 M73.112,11.889l0.624-2.86c-0.349-0.357-0.993-0.575-1.484-0.562c-0.438-0.013-0.756,0.1-1.057,0.303
		c-1.267,0.912-1.963,3.605-1.98,5.159c0,0.854,0.277,1.282,0.603,1.282C70.719,15.211,72.485,13.054,73.112,11.889z"/>
	<path fill="#7A9097" d="M81.83,14.717c-1.155,1.307-2.702,2.146-3.335,2.146c-0.537-0.02-0.919-0.408-0.485-2.128l1.102-4.708
		c0.125-0.479,0.135-0.656,0.017-0.656c-0.182-0.021-0.755,0.34-1.298,0.734l-0.259-0.503c1.344-1.279,2.792-2.088,3.455-2.088
		c0.544,0,0.594,0.759,0.313,1.86l-1.217,4.958c-0.148,0.556-0.102,0.758,0.036,0.758c0.204,0,0.803-0.373,1.335-0.873L81.83,14.717
		z M82.167,4.708c-0.005,0.747-0.588,1.41-1.331,1.407c-0.658,0-1.037-0.441-1.037-1.085c0-0.62,0.464-1.393,1.373-1.393
		C81.84,3.636,82.167,4.141,82.167,4.708z"/>
	<path fill="#7A9097" d="M82.651,15.315c0.005-0.428,0.32-0.833,0.668-1.037c0.291-0.195,0.455-0.163,0.62,0.019
		c0.65,0.886,1.484,1.434,2.155,1.428c0.641-0.014,1.077-0.378,1.077-0.905c0-0.442-0.281-0.819-1.248-1.578
		c-0.896-0.649-1.933-1.38-1.933-2.56c0-0.68,0.277-1.382,1.184-2.115c0.713-0.58,1.651-1.004,2.401-1.004
		c1.003,0,1.75,0.628,1.75,1.253c0,0.364-0.255,0.738-0.638,1.02c-0.22,0.142-0.388,0.108-0.522-0.081
		c-0.403-0.543-0.98-1.058-1.718-1.058c-0.524-0.006-0.874,0.344-0.882,0.839c-0.012,0.605,0.625,1.125,1.38,1.648
		c1.17,0.809,1.841,1.49,1.841,2.498c-0.02,1.695-2.202,3.182-3.891,3.182C83.834,16.863,82.68,16.15,82.651,15.315z"/>
	<path fill="#7A9097" d="M92.229,7.908c0.364-1.577,0.853-2.839,1.789-3.804c1.053-1.064,2.321-1.612,3.109-1.618
		c0.895,0,1.373,0.549,1.347,0.977c-0.006,0.436-0.404,0.872-0.651,1.04c-0.19,0.107-0.325,0.119-0.532-0.046
		c-0.501-0.583-0.936-0.932-1.31-0.932C95.46,3.5,94.998,4.061,94.358,7.908l2.315,0.004L96.25,8.666L94.179,8.84
		c-0.336,1.943-0.59,3.491-1.091,5.745c-0.762,3.352-1.609,4.729-2.914,5.899c-0.848,0.768-1.642,1.107-2.236,1.12
		c-0.623,0-1.289-0.449-1.289-0.938c0.006-0.396,0.341-0.795,0.666-1.026c0.151-0.118,0.28-0.15,0.417-0.026
		c0.363,0.327,1.056,0.636,1.439,0.606c0.316,0.029,0.561-0.137,0.72-0.436c0.172-0.281,0.467-1.03,1.075-4.479
		c0.475-2.74,0.733-4.521,1.079-6.495l-1.631-0.008l-0.057-0.187l0.642-0.708H92.229z"/>
	<path fill="#7A9097" d="M99.705,10.85c0.99-1.86,2.069-3.25,2.912-3.25c0.367,0,0.725,0.221,0.923,0.51
		c0.223,0.326,0.176,0.747-0.058,1.11c-0.23,0.356-0.436,0.569-0.65,0.757c-0.173,0.116-0.312,0.129-0.479,0.018
		c-0.236-0.264-0.529-0.384-0.765-0.384c-0.189,0.007-0.43,0.121-0.851,0.693c-0.496,0.718-1.032,1.625-1.251,2.318
		c-0.294,1.162-0.576,2.663-0.8,3.828c-0.617,0.099-1.416,0.241-1.963,0.414l-0.153-0.154c0.507-2.124,0.999-4.334,1.399-6.469
		c0.119-0.63,0.124-0.903-0.048-0.903c-0.167,0-0.858,0.417-1.267,0.803l-0.316-0.523c1.143-1.15,2.456-2.038,3.122-2.038
		c0.58,0.003,0.686,0.747,0.365,2.317l-0.208,0.941L99.705,10.85z"/>
	<path fill="#7A9097" d="M113.684,14.754c-1.279,1.45-2.557,2.142-3.245,2.142c-0.564,0-0.789-0.593-0.445-2.062
		c0.123-0.502,0.208-0.962,0.289-1.434h-0.015c-1.212,1.582-2.381,2.547-3.119,3.025c-0.492,0.299-1.022,0.47-1.464,0.47
		c-0.59,0-1.317-0.381-0.747-2.78c0.32-1.32,0.626-2.656,0.926-4.01c0.146-0.598,0.135-0.731,0-0.812
		c-0.159,0-0.729,0.419-1.274,0.862l-0.248-0.553c1.25-1.197,2.579-2.003,3.266-2.003c0.549,0,0.695,0.467,0.359,1.936
		c-0.332,1.451-0.694,2.98-1.013,4.42c-0.216,0.933-0.111,1.295,0.195,1.278c0.987,0.017,2.866-2.418,3.402-3.413
		c0.278-1.173,0.567-2.404,0.834-3.67l1.906-0.541l0.255-0.01c-0.52,2.08-1.042,4.249-1.509,6.679
		c-0.134,0.669-0.108,0.851,0.032,0.836c0.162,0,0.815-0.41,1.313-0.914L113.684,14.754z"/>
	<path fill="#7A9097" d="M120.488,8.77l-1.901,0.097l-1.086,5.198c-0.208,0.936-0.104,1.186,0.098,1.186
		c0.307,0,1.205-0.613,1.702-1.077l0.31,0.474c-0.729,0.955-2.446,2.274-3.532,2.271c-0.655,0-1.07-0.676-0.601-2.802l1.146-5.259
		h-1.454l-0.112-0.203l0.564-0.702h1.195l0.438-1.872l2.045-1.372l0.224,0.185l-0.721,3.059l2.251,0.006L120.488,8.77z"/>
	<path fill="#7A9097" d="M127.8,14.531c-1.785,1.862-3.315,2.39-4.526,2.39c-1.104,0-2.399-0.6-2.389-2.966
		c0-1.873,0.837-3.928,2.364-5.115c0.832-0.618,2.099-1.205,3.098-1.205c1.311,0,1.962,0.778,1.962,1.688
		c-0.006,2.027-3.221,3.052-5.199,3.572c-0.025,0.219-0.025,0.403-0.025,0.56c0,1.059,0.356,2.023,1.441,2.023
		c0.796,0,1.955-0.562,2.906-1.501L127.8,14.531z M124.843,8.746c-0.489,0.288-1.359,1.347-1.648,3.416
		c2.415-0.679,3.175-1.544,3.167-2.559c0-0.762-0.464-1.102-0.851-1.102C125.31,8.5,125.041,8.573,124.843,8.746z"/>
</g>
</svg>
