<?xml version="1.0" encoding="utf-8"?>
<!-- Generator: Adobe Illustrator 14.0.0, SVG Export Plug-In . SVG Version: 6.00 Build 43363)  -->
<!DOCTYPE svg PUBLIC "-//W3C//DTD SVG 1.1//EN" "http://www.w3.org/Graphics/SVG/1.1/DTD/svg11.dtd">
<svg version="1.1"
	 id="svg3301" xmlns:dc="http://purl.org/dc/elements/1.1/" sodipodi:docname="Captura de pantalla 2014-05-06 a la(s) 15.27.44.png" xmlns:sodipodi="http://sodipodi.sourceforge.net/DTD/sodipodi-0.dtd" xmlns:inkscape="http://www.inkscape.org/namespaces/inkscape" xmlns:cc="http://creativecommons.org/ns#" xmlns:rdf="http://www.w3.org/1999/02/22-rdf-syntax-ns#" xmlns:svg="http://www.w3.org/2000/svg" inkscape:version="0.48.2 r9819"
	 xmlns="http://www.w3.org/2000/svg" xmlns:xlink="http://www.w3.org/1999/xlink" x="0px" y="0px" width="83px" height="52.667px"
	 viewBox="36.167 10.167 83 52.667" enable-background="new 36.167 10.167 83 52.667" xml:space="preserve">
<sodipodi:namedview  inkscape:window-maximized="0" inkscape:current-layer="svg3301" inkscape:window-y="51" inkscape:window-x="-2" inkscape:cy="73.66446" inkscape:cx="73.989504" inkscape:zoom="3.6875" showgrid="false" inkscape:window-height="825" inkscape:window-width="1422" inkscape:pageshadow="2" inkscape:pageopacity="0" guidetolerance="10" borderopacity="1" gridtolerance="10" objecttolerance="10" pagecolor="#ffffff" bordercolor="#666666" id="namedview3303">
	</sodipodi:namedview>
<path fill="#717274" d="M110.634,19.9C85.157-0.903,29.078,28.493,39.933,46.884c0.021-0.274,0.057-0.538,0.086-0.807
	c-0.125-0.44-0.232-0.886-0.307-1.341c-1.873-11.361,12.348-23.165,31.76-26.362c19.412-3.194,36.666,3.422,38.537,14.783
	c1.871,11.362-12.35,23.164-31.764,26.362c-5.15,0.849-10.146,1-14.746,0.561c-0.389,0.023-0.768,0.05-1.162,0.071
	C82.442,65.578,136.261,44.474,110.634,19.9z"/>
</svg>
